%TF.GenerationSoftware,KiCad,Pcbnew,7.0.10*%
%TF.CreationDate,2025-03-18T10:51:51+01:00*%
%TF.ProjectId,maqueen,6d617175-6565-46e2-9e6b-696361645f70,rev?*%
%TF.SameCoordinates,Original*%
%TF.FileFunction,Profile,NP*%
%FSLAX46Y46*%
G04 Gerber Fmt 4.6, Leading zero omitted, Abs format (unit mm)*
G04 Created by KiCad (PCBNEW 7.0.10) date 2025-03-18 10:51:51*
%MOMM*%
%LPD*%
G01*
G04 APERTURE LIST*
G04 Aperture macros list*
%AMRoundRect*
0 Rectangle with rounded corners*
0 $1 Rounding radius*
0 $2 $3 $4 $5 $6 $7 $8 $9 X,Y pos of 4 corners*
0 Add a 4 corners polygon primitive as box body*
4,1,4,$2,$3,$4,$5,$6,$7,$8,$9,$2,$3,0*
0 Add four circle primitives for the rounded corners*
1,1,$1+$1,$2,$3*
1,1,$1+$1,$4,$5*
1,1,$1+$1,$6,$7*
1,1,$1+$1,$8,$9*
0 Add four rect primitives between the rounded corners*
20,1,$1+$1,$2,$3,$4,$5,0*
20,1,$1+$1,$4,$5,$6,$7,0*
20,1,$1+$1,$6,$7,$8,$9,0*
20,1,$1+$1,$8,$9,$2,$3,0*%
G04 Aperture macros list end*
%TA.AperFunction,Profile*%
%ADD10C,0.100000*%
%TD*%
%ADD11RoundRect,0.250000X-0.650000X0.650000X-0.650000X-0.650000X0.650000X-0.650000X0.650000X0.650000X0*%
%ADD12C,1.800000*%
%ADD13C,3.500000*%
%ADD14R,1.700000X1.700000*%
%ADD15C,1.650000*%
%ADD16C,1.950000*%
%ADD17C,2.400000*%
%ADD18O,1.700000X1.700000*%
%ADD19RoundRect,0.250000X0.250000X0.475000X-0.250000X0.475000X-0.250000X-0.475000X0.250000X-0.475000X0*%
%ADD20RoundRect,0.250000X-0.262500X-0.450000X0.262500X-0.450000X0.262500X0.450000X-0.262500X0.450000X0*%
%ADD21RoundRect,0.250000X0.475000X-0.250000X0.475000X0.250000X-0.475000X0.250000X-0.475000X-0.250000X0*%
%ADD22R,1.700000X1.800000*%
%ADD23RoundRect,0.425000X0.425000X-0.475000X0.425000X0.475000X-0.425000X0.475000X-0.425000X-0.475000X0*%
%ADD24C,4.000000*%
%ADD25C,2.000000*%
%ADD26RoundRect,0.250000X0.262500X0.450000X-0.262500X0.450000X-0.262500X-0.450000X0.262500X-0.450000X0*%
%ADD27RoundRect,0.250000X-0.250000X-0.475000X0.250000X-0.475000X0.250000X0.475000X-0.250000X0.475000X0*%
%ADD28R,1.560000X1.560000*%
%ADD29C,1.560000*%
%ADD30RoundRect,0.250000X0.450000X-0.262500X0.450000X0.262500X-0.450000X0.262500X-0.450000X-0.262500X0*%
%ADD31R,1.800000X1.800000*%
%ADD32RoundRect,0.250000X-0.475000X0.250000X-0.475000X-0.250000X0.475000X-0.250000X0.475000X0.250000X0*%
%ADD33RoundRect,0.150000X0.150000X-0.825000X0.150000X0.825000X-0.150000X0.825000X-0.150000X-0.825000X0*%
%ADD34R,1.000000X1.000000*%
%ADD35O,1.000000X1.000000*%
%ADD36R,0.300000X1.475000*%
%ADD37R,1.475000X0.300000*%
G04 APERTURE END LIST*
D10*
X109580000Y-62420000D02*
X189580000Y-62420000D01*
X189580000Y-137420000D01*
X109580000Y-137420000D01*
X109580000Y-62420000D01*
D11*
%TO.C,J1*%
X124540000Y-92300000D03*
D12*
X127080000Y-92300000D03*
X124540000Y-94840000D03*
X127080000Y-94840000D03*
X124540000Y-97380000D03*
X127080000Y-97380000D03*
X124540000Y-99920000D03*
X127080000Y-99920000D03*
X124540000Y-102460000D03*
X127080000Y-102460000D03*
X124540000Y-105000000D03*
X127080000Y-105000000D03*
X124540000Y-107540000D03*
X127080000Y-107540000D03*
D13*
X187080000Y-99920000D03*
X157080000Y-126920000D03*
X157080000Y-72920000D03*
X115080000Y-134920000D03*
X115080000Y-64920000D03*
%TD*%
D14*
%TO.C,SMCLK1*%
X157110000Y-102090000D03*
%TD*%
%TO.C,RST_TDO/TDI1*%
X161590000Y-77920000D03*
%TD*%
D15*
%TO.C,S1*%
X183690000Y-86190000D03*
X183690000Y-83690000D03*
X183690000Y-81190000D03*
X172460000Y-92420000D03*
X174960000Y-92420000D03*
X177460000Y-92420000D03*
D16*
X169210000Y-80440000D03*
X169210000Y-86940000D03*
X164710000Y-80440000D03*
X164710000Y-86940000D03*
D17*
X179960000Y-90015000D03*
X179960000Y-77365000D03*
X169960000Y-77365000D03*
X169960000Y-90015000D03*
%TD*%
D14*
%TO.C,UART_RX1*%
X174244000Y-133350000D03*
%TD*%
%TO.C,SCL_I2C1*%
X115040000Y-101760000D03*
%TD*%
%TO.C,R4*%
X187000000Y-67500000D03*
D18*
X187000000Y-64960000D03*
%TD*%
D19*
%TO.C,C7*%
X160050000Y-108420000D03*
X158150000Y-108420000D03*
%TD*%
D20*
%TO.C,R8*%
X168530000Y-111800000D03*
X170355000Y-111800000D03*
%TD*%
%TO.C,R5*%
X164990000Y-111790000D03*
X166815000Y-111790000D03*
%TD*%
D21*
%TO.C,C4*%
X162650000Y-128710000D03*
X162650000Y-126810000D03*
%TD*%
D14*
%TO.C,J2*%
X162814000Y-134112000D03*
D18*
X162814000Y-131572000D03*
X165354000Y-134112000D03*
X165354000Y-131572000D03*
X167894000Y-134112000D03*
X167894000Y-131572000D03*
X170434000Y-134112000D03*
X170434000Y-131572000D03*
%TD*%
D14*
%TO.C,ACLK1*%
X157640000Y-92060000D03*
%TD*%
D22*
%TO.C,LCD1*%
X127380000Y-71155000D03*
D23*
X127380000Y-68615000D03*
X129920000Y-71155000D03*
X129920000Y-68615000D03*
X132460000Y-71155000D03*
X132460000Y-68615000D03*
X135000000Y-71155000D03*
X135000000Y-68615000D03*
D24*
X142590000Y-69130000D03*
X142590000Y-130130000D03*
X119590000Y-130130000D03*
X119590000Y-69130000D03*
%TD*%
D14*
%TO.C,LDR2*%
X187060000Y-72530000D03*
%TD*%
D21*
%TO.C,C5*%
X124470000Y-70830000D03*
X124470000Y-68930000D03*
%TD*%
D25*
%TO.C,SW1*%
X161400000Y-71010000D03*
X161400000Y-64510000D03*
X165900000Y-71010000D03*
X165900000Y-64510000D03*
%TD*%
D26*
%TO.C,R13*%
X162602500Y-91330000D03*
X160777500Y-91330000D03*
%TD*%
D14*
%TO.C,uC_VCC1*%
X151010000Y-92140000D03*
%TD*%
D21*
%TO.C,C2*%
X151010000Y-89570000D03*
X151010000Y-87670000D03*
%TD*%
D14*
%TO.C,uC_GND1*%
X154370000Y-88260000D03*
%TD*%
D20*
%TO.C,R2*%
X120317500Y-105140000D03*
X122142500Y-105140000D03*
%TD*%
D14*
%TO.C,LDR1*%
X186940000Y-127000000D03*
%TD*%
D27*
%TO.C,C1*%
X160570000Y-87030000D03*
X162470000Y-87030000D03*
%TD*%
D20*
%TO.C,R11*%
X163937500Y-74250000D03*
X165762500Y-74250000D03*
%TD*%
D28*
%TO.C,RV2*%
X183000000Y-70000000D03*
D29*
X180500000Y-65000000D03*
X178000000Y-70000000D03*
%TD*%
D26*
%TO.C,R6*%
X166932500Y-94710000D03*
X165107500Y-94710000D03*
%TD*%
D14*
%TO.C,J3*%
X171650000Y-70840000D03*
D18*
X171650000Y-68300000D03*
X171650000Y-65760000D03*
%TD*%
D30*
%TO.C,R9*%
X163062500Y-113612500D03*
X163062500Y-111787500D03*
%TD*%
D31*
%TO.C,D1*%
X112450000Y-92420000D03*
D12*
X114990000Y-92420000D03*
%TD*%
D30*
%TO.C,R12*%
X112470000Y-89382500D03*
X112470000Y-87557500D03*
%TD*%
D14*
%TO.C,R1*%
X187000000Y-132225000D03*
D18*
X187000000Y-134765000D03*
%TD*%
D32*
%TO.C,C9*%
X168640000Y-65130000D03*
X168640000Y-67030000D03*
%TD*%
D33*
%TO.C,U1*%
X162370000Y-105275000D03*
X163640000Y-105275000D03*
X164910000Y-105275000D03*
X166180000Y-105275000D03*
X167450000Y-105275000D03*
X168720000Y-105275000D03*
X169990000Y-105275000D03*
X169990000Y-100325000D03*
X168720000Y-100325000D03*
X167450000Y-100325000D03*
X166180000Y-100325000D03*
X164910000Y-100325000D03*
X163640000Y-100325000D03*
X162370000Y-100325000D03*
%TD*%
D26*
%TO.C,R7*%
X171452500Y-97390000D03*
X169627500Y-97390000D03*
%TD*%
D14*
%TO.C,UART_TX1*%
X158750000Y-133096000D03*
%TD*%
D20*
%TO.C,R10*%
X161557500Y-97310000D03*
X163382500Y-97310000D03*
%TD*%
D28*
%TO.C,RV1*%
X178000000Y-129760000D03*
D29*
X180500000Y-134760000D03*
X183000000Y-129760000D03*
%TD*%
D20*
%TO.C,R3*%
X120267500Y-102510000D03*
X122092500Y-102510000D03*
%TD*%
D27*
%TO.C,C3*%
X120290000Y-107610000D03*
X122190000Y-107610000D03*
%TD*%
D14*
%TO.C,SDA_I2C1*%
X115020000Y-105500000D03*
%TD*%
D21*
%TO.C,Cload2*%
X146185000Y-81360000D03*
X146185000Y-79460000D03*
%TD*%
%TO.C,Cload1*%
X151745000Y-81360000D03*
X151745000Y-79460000D03*
%TD*%
D34*
%TO.C,Y1*%
X149615000Y-81420000D03*
D35*
X148345000Y-81420000D03*
%TD*%
D36*
%TO.C,IC1*%
X152710000Y-96332000D03*
X152210000Y-96332000D03*
X151710000Y-96332000D03*
X151210000Y-96332000D03*
X150710000Y-96332000D03*
X150210000Y-96332000D03*
X149710000Y-96332000D03*
X149210000Y-96332000D03*
X148710000Y-96332000D03*
X148210000Y-96332000D03*
X147710000Y-96332000D03*
X147210000Y-96332000D03*
D37*
X145722000Y-97820000D03*
X145722000Y-98320000D03*
X145722000Y-98820000D03*
X145722000Y-99320000D03*
X145722000Y-99820000D03*
X145722000Y-100320000D03*
X145722000Y-100820000D03*
X145722000Y-101320000D03*
X145722000Y-101820000D03*
X145722000Y-102320000D03*
X145722000Y-102820000D03*
X145722000Y-103320000D03*
D36*
X147210000Y-104808000D03*
X147710000Y-104808000D03*
X148210000Y-104808000D03*
X148710000Y-104808000D03*
X149210000Y-104808000D03*
X149710000Y-104808000D03*
X150210000Y-104808000D03*
X150710000Y-104808000D03*
X151210000Y-104808000D03*
X151710000Y-104808000D03*
X152210000Y-104808000D03*
X152710000Y-104808000D03*
D37*
X154198000Y-103320000D03*
X154198000Y-102820000D03*
X154198000Y-102320000D03*
X154198000Y-101820000D03*
X154198000Y-101320000D03*
X154198000Y-100820000D03*
X154198000Y-100320000D03*
X154198000Y-99820000D03*
X154198000Y-99320000D03*
X154198000Y-98820000D03*
X154198000Y-98320000D03*
X154198000Y-97820000D03*
%TD*%
M02*
