%TF.GenerationSoftware,KiCad,Pcbnew,7.0.10*%
%TF.CreationDate,2025-03-18T10:51:50+01:00*%
%TF.ProjectId,maqueen,6d617175-6565-46e2-9e6b-696361645f70,rev?*%
%TF.SameCoordinates,Original*%
%TF.FileFunction,Copper,L1,Top*%
%TF.FilePolarity,Positive*%
%FSLAX46Y46*%
G04 Gerber Fmt 4.6, Leading zero omitted, Abs format (unit mm)*
G04 Created by KiCad (PCBNEW 7.0.10) date 2025-03-18 10:51:50*
%MOMM*%
%LPD*%
G01*
G04 APERTURE LIST*
G04 Aperture macros list*
%AMRoundRect*
0 Rectangle with rounded corners*
0 $1 Rounding radius*
0 $2 $3 $4 $5 $6 $7 $8 $9 X,Y pos of 4 corners*
0 Add a 4 corners polygon primitive as box body*
4,1,4,$2,$3,$4,$5,$6,$7,$8,$9,$2,$3,0*
0 Add four circle primitives for the rounded corners*
1,1,$1+$1,$2,$3*
1,1,$1+$1,$4,$5*
1,1,$1+$1,$6,$7*
1,1,$1+$1,$8,$9*
0 Add four rect primitives between the rounded corners*
20,1,$1+$1,$2,$3,$4,$5,0*
20,1,$1+$1,$4,$5,$6,$7,0*
20,1,$1+$1,$6,$7,$8,$9,0*
20,1,$1+$1,$8,$9,$2,$3,0*%
G04 Aperture macros list end*
%TA.AperFunction,ComponentPad*%
%ADD10RoundRect,0.250000X-0.650000X0.650000X-0.650000X-0.650000X0.650000X-0.650000X0.650000X0.650000X0*%
%TD*%
%TA.AperFunction,ComponentPad*%
%ADD11C,1.800000*%
%TD*%
%TA.AperFunction,ComponentPad*%
%ADD12C,3.500000*%
%TD*%
%TA.AperFunction,ComponentPad*%
%ADD13R,1.700000X1.700000*%
%TD*%
%TA.AperFunction,ComponentPad*%
%ADD14C,1.650000*%
%TD*%
%TA.AperFunction,ComponentPad*%
%ADD15C,1.950000*%
%TD*%
%TA.AperFunction,ComponentPad*%
%ADD16C,2.400000*%
%TD*%
%TA.AperFunction,ComponentPad*%
%ADD17O,1.700000X1.700000*%
%TD*%
%TA.AperFunction,SMDPad,CuDef*%
%ADD18RoundRect,0.250000X0.250000X0.475000X-0.250000X0.475000X-0.250000X-0.475000X0.250000X-0.475000X0*%
%TD*%
%TA.AperFunction,SMDPad,CuDef*%
%ADD19RoundRect,0.250000X-0.262500X-0.450000X0.262500X-0.450000X0.262500X0.450000X-0.262500X0.450000X0*%
%TD*%
%TA.AperFunction,SMDPad,CuDef*%
%ADD20RoundRect,0.250000X0.475000X-0.250000X0.475000X0.250000X-0.475000X0.250000X-0.475000X-0.250000X0*%
%TD*%
%TA.AperFunction,ComponentPad*%
%ADD21R,1.700000X1.800000*%
%TD*%
%TA.AperFunction,ComponentPad*%
%ADD22RoundRect,0.425000X0.425000X-0.475000X0.425000X0.475000X-0.425000X0.475000X-0.425000X-0.475000X0*%
%TD*%
%TA.AperFunction,ComponentPad*%
%ADD23C,4.000000*%
%TD*%
%TA.AperFunction,ComponentPad*%
%ADD24C,2.000000*%
%TD*%
%TA.AperFunction,SMDPad,CuDef*%
%ADD25RoundRect,0.250000X0.262500X0.450000X-0.262500X0.450000X-0.262500X-0.450000X0.262500X-0.450000X0*%
%TD*%
%TA.AperFunction,SMDPad,CuDef*%
%ADD26RoundRect,0.250000X-0.250000X-0.475000X0.250000X-0.475000X0.250000X0.475000X-0.250000X0.475000X0*%
%TD*%
%TA.AperFunction,ComponentPad*%
%ADD27R,1.560000X1.560000*%
%TD*%
%TA.AperFunction,ComponentPad*%
%ADD28C,1.560000*%
%TD*%
%TA.AperFunction,SMDPad,CuDef*%
%ADD29RoundRect,0.250000X0.450000X-0.262500X0.450000X0.262500X-0.450000X0.262500X-0.450000X-0.262500X0*%
%TD*%
%TA.AperFunction,ComponentPad*%
%ADD30R,1.800000X1.800000*%
%TD*%
%TA.AperFunction,SMDPad,CuDef*%
%ADD31RoundRect,0.250000X-0.475000X0.250000X-0.475000X-0.250000X0.475000X-0.250000X0.475000X0.250000X0*%
%TD*%
%TA.AperFunction,SMDPad,CuDef*%
%ADD32RoundRect,0.150000X0.150000X-0.825000X0.150000X0.825000X-0.150000X0.825000X-0.150000X-0.825000X0*%
%TD*%
%TA.AperFunction,ComponentPad*%
%ADD33R,1.000000X1.000000*%
%TD*%
%TA.AperFunction,ComponentPad*%
%ADD34O,1.000000X1.000000*%
%TD*%
%TA.AperFunction,SMDPad,CuDef*%
%ADD35R,0.300000X1.475000*%
%TD*%
%TA.AperFunction,SMDPad,CuDef*%
%ADD36R,1.475000X0.300000*%
%TD*%
%TA.AperFunction,ViaPad*%
%ADD37C,1.600000*%
%TD*%
%TA.AperFunction,Conductor*%
%ADD38C,0.250000*%
%TD*%
%TA.AperFunction,Conductor*%
%ADD39C,0.750000*%
%TD*%
%TA.AperFunction,Conductor*%
%ADD40C,0.500000*%
%TD*%
%TA.AperFunction,Conductor*%
%ADD41C,2.000000*%
%TD*%
%TA.AperFunction,Conductor*%
%ADD42C,1.000000*%
%TD*%
%ADD43RoundRect,0.250000X-0.650000X0.650000X-0.650000X-0.650000X0.650000X-0.650000X0.650000X0.650000X0*%
%ADD44C,1.800000*%
%ADD45C,3.500000*%
%ADD46R,1.700000X1.700000*%
%ADD47C,1.650000*%
%ADD48C,1.950000*%
%ADD49C,2.400000*%
%ADD50O,1.700000X1.700000*%
%ADD51RoundRect,0.250000X0.250000X0.475000X-0.250000X0.475000X-0.250000X-0.475000X0.250000X-0.475000X0*%
%ADD52RoundRect,0.250000X-0.262500X-0.450000X0.262500X-0.450000X0.262500X0.450000X-0.262500X0.450000X0*%
%ADD53RoundRect,0.250000X0.475000X-0.250000X0.475000X0.250000X-0.475000X0.250000X-0.475000X-0.250000X0*%
%ADD54R,1.700000X1.800000*%
%ADD55RoundRect,0.425000X0.425000X-0.475000X0.425000X0.475000X-0.425000X0.475000X-0.425000X-0.475000X0*%
%ADD56C,4.000000*%
%ADD57C,2.000000*%
%ADD58RoundRect,0.250000X0.262500X0.450000X-0.262500X0.450000X-0.262500X-0.450000X0.262500X-0.450000X0*%
%ADD59RoundRect,0.250000X-0.250000X-0.475000X0.250000X-0.475000X0.250000X0.475000X-0.250000X0.475000X0*%
%ADD60R,1.560000X1.560000*%
%ADD61C,1.560000*%
%ADD62RoundRect,0.250000X0.450000X-0.262500X0.450000X0.262500X-0.450000X0.262500X-0.450000X-0.262500X0*%
%ADD63R,1.800000X1.800000*%
%ADD64RoundRect,0.250000X-0.475000X0.250000X-0.475000X-0.250000X0.475000X-0.250000X0.475000X0.250000X0*%
%ADD65RoundRect,0.150000X0.150000X-0.825000X0.150000X0.825000X-0.150000X0.825000X-0.150000X-0.825000X0*%
%ADD66R,1.000000X1.000000*%
%ADD67O,1.000000X1.000000*%
%ADD68R,0.300000X1.475000*%
%ADD69R,1.475000X0.300000*%
G04 APERTURE END LIST*
D10*
%TO.P,J1,1,Pin_1*%
%TO.N,+3.3V*%
X124540000Y-92300000D03*
D11*
%TO.P,J1,2,Pin_2*%
X127080000Y-92300000D03*
%TO.P,J1,3,Pin_3*%
%TO.N,SCLK_SPI*%
X124540000Y-94840000D03*
%TO.P,J1,4,Pin_4*%
%TO.N,/P6.3*%
X127080000Y-94840000D03*
%TO.P,J1,5,Pin_5*%
%TO.N,MISO*%
X124540000Y-97380000D03*
%TO.P,J1,6,Pin_6*%
%TO.N,/P6.2*%
X127080000Y-97380000D03*
%TO.P,J1,7,Pin_7*%
%TO.N,MOSI*%
X124540000Y-99920000D03*
%TO.P,J1,8,Pin_8*%
%TO.N,/P6.1*%
X127080000Y-99920000D03*
%TO.P,J1,9,Pin_9*%
%TO.N,SCL_I2C*%
X124540000Y-102460000D03*
%TO.P,J1,10,Pin_10*%
%TO.N,/P6.0*%
X127080000Y-102460000D03*
%TO.P,J1,11,Pin_11*%
%TO.N,SDA_I2C*%
X124540000Y-105000000D03*
%TO.P,J1,12,Pin_12*%
%TO.N,SS_SPI*%
X127080000Y-105000000D03*
%TO.P,J1,13,Pin_13*%
%TO.N,GND*%
X124540000Y-107540000D03*
%TO.P,J1,14,Pin_14*%
X127080000Y-107540000D03*
D12*
%TO.P,J1,15*%
%TO.N,N/C*%
X187080000Y-99920000D03*
%TO.P,J1,16*%
X157080000Y-126920000D03*
%TO.P,J1,17*%
X157080000Y-72920000D03*
%TO.P,J1,18*%
X115080000Y-134920000D03*
%TO.P,J1,19*%
X115080000Y-64920000D03*
%TD*%
D13*
%TO.P,SMCLK1,1,1*%
%TO.N,R_JOYSTICK*%
X157110000Y-102090000D03*
%TD*%
%TO.P,RST_TDO/TDI1,1,1*%
%TO.N,TDO{slash}TDI*%
X161590000Y-77920000D03*
%TD*%
D14*
%TO.P,S1,1,1*%
%TO.N,+3.3V*%
X183690000Y-86190000D03*
%TO.P,S1,2,2*%
%TO.N,LR_JOYSTICK*%
X183690000Y-83690000D03*
%TO.P,S1,3,3*%
%TO.N,GND*%
X183690000Y-81190000D03*
%TO.P,S1,11,1'*%
%TO.N,+3.3V*%
X172460000Y-92420000D03*
%TO.P,S1,12,2'*%
%TO.N,FB_JOYSTICK*%
X174960000Y-92420000D03*
%TO.P,S1,13,3'*%
%TO.N,GND*%
X177460000Y-92420000D03*
D15*
%TO.P,S1,A1,COM_1*%
X169210000Y-80440000D03*
%TO.P,S1,B1,COM_2*%
%TO.N,unconnected-(S1-COM_2-PadB1)*%
X169210000Y-86940000D03*
%TO.P,S1,C1,NO_1*%
%TO.N,SEL_JOYSTICK*%
X164710000Y-80440000D03*
%TO.P,S1,D1,NO_2*%
%TO.N,GND*%
X164710000Y-86940000D03*
D16*
%TO.P,S1,MH1*%
%TO.N,N/C*%
X179960000Y-90015000D03*
%TO.P,S1,MH2*%
X179960000Y-77365000D03*
%TO.P,S1,MH3*%
X169960000Y-77365000D03*
%TO.P,S1,MH4*%
X169960000Y-90015000D03*
%TD*%
D13*
%TO.P,UART_RX1,1,1*%
%TO.N,/WIFI_UART_RX*%
X174244000Y-133350000D03*
%TD*%
%TO.P,SCL_I2C1,1,1*%
%TO.N,SCL_I2C*%
X115040000Y-101760000D03*
%TD*%
%TO.P,R4,1*%
%TO.N,+3.3V*%
X187000000Y-67500000D03*
D17*
%TO.P,R4,2*%
%TO.N,PHOTO2*%
X187000000Y-64960000D03*
%TD*%
D18*
%TO.P,C7,1*%
%TO.N,+3.3V*%
X160050000Y-108420000D03*
%TO.P,C7,2*%
%TO.N,GND*%
X158150000Y-108420000D03*
%TD*%
D19*
%TO.P,R8,1*%
%TO.N,Net-(U1B--)*%
X168530000Y-111800000D03*
%TO.P,R8,2*%
%TO.N,GND*%
X170355000Y-111800000D03*
%TD*%
%TO.P,R5,1*%
%TO.N,Net-(U1A-+)*%
X164990000Y-111790000D03*
%TO.P,R5,2*%
%TO.N,Net-(U1B--)*%
X166815000Y-111790000D03*
%TD*%
D20*
%TO.P,C4,1*%
%TO.N,+3.3V*%
X162650000Y-128710000D03*
%TO.P,C4,2*%
%TO.N,GND*%
X162650000Y-126810000D03*
%TD*%
D13*
%TO.P,J2,1,Pin_1*%
%TO.N,/WIFI_UART_TX*%
X162814000Y-134112000D03*
D17*
%TO.P,J2,2,Pin_2*%
%TO.N,+3.3V*%
X162814000Y-131572000D03*
%TO.P,J2,3,Pin_3*%
%TO.N,unconnected-(J2-Pin_3-Pad3)*%
X165354000Y-134112000D03*
%TO.P,J2,4,Pin_4*%
%TO.N,unconnected-(J2-Pin_4-Pad4)*%
X165354000Y-131572000D03*
%TO.P,J2,5,Pin_5*%
%TO.N,unconnected-(J2-Pin_5-Pad5)*%
X167894000Y-134112000D03*
%TO.P,J2,6,Pin_6*%
%TO.N,/WIFI_CE*%
X167894000Y-131572000D03*
%TO.P,J2,7,Pin_7*%
%TO.N,GND*%
X170434000Y-134112000D03*
%TO.P,J2,8,Pin_8*%
%TO.N,/WIFI_UART_RX*%
X170434000Y-131572000D03*
%TD*%
D13*
%TO.P,ACLK1,1,1*%
%TO.N,FB_JOYSTICK*%
X157640000Y-92060000D03*
%TD*%
D21*
%TO.P,LCD1,1,VDD*%
%TO.N,+3.3V*%
X127380000Y-71155000D03*
D22*
%TO.P,LCD1,2,VSS*%
%TO.N,GND*%
X127380000Y-68615000D03*
%TO.P,LCD1,3,SDA*%
%TO.N,SDA_I2C*%
X129920000Y-71155000D03*
%TO.P,LCD1,4,SCL*%
%TO.N,SCL_I2C*%
X129920000Y-68615000D03*
%TO.P,LCD1,5,RST*%
%TO.N,RST_LCD*%
X132460000Y-71155000D03*
%TO.P,LCD1,6,A*%
%TO.N,unconnected-(LCD1-A-Pad6)*%
X132460000Y-68615000D03*
%TO.P,LCD1,7,K*%
%TO.N,unconnected-(LCD1-K-Pad7)*%
X135000000Y-71155000D03*
%TO.P,LCD1,8,NC*%
%TO.N,unconnected-(LCD1-NC-Pad8)*%
X135000000Y-68615000D03*
D23*
%TO.P,LCD1,9*%
%TO.N,N/C*%
X142590000Y-69130000D03*
%TO.P,LCD1,10*%
X142590000Y-130130000D03*
%TO.P,LCD1,11*%
X119590000Y-130130000D03*
%TO.P,LCD1,12*%
X119590000Y-69130000D03*
%TD*%
D13*
%TO.P,LDR2,1,1*%
%TO.N,PHOTO2*%
X187060000Y-72530000D03*
%TD*%
D20*
%TO.P,C5,1*%
%TO.N,+3.3V*%
X124470000Y-70830000D03*
%TO.P,C5,2*%
%TO.N,GND*%
X124470000Y-68930000D03*
%TD*%
D24*
%TO.P,SW1,1,1*%
%TO.N,GND*%
X161400000Y-71010000D03*
X161400000Y-64510000D03*
%TO.P,SW1,2,2*%
%TO.N,TDO{slash}TDI*%
X165900000Y-71010000D03*
X165900000Y-64510000D03*
%TD*%
D25*
%TO.P,R13,1*%
%TO.N,+3.3V*%
X162602500Y-91330000D03*
%TO.P,R13,2*%
%TO.N,SEL_JOYSTICK*%
X160777500Y-91330000D03*
%TD*%
D13*
%TO.P,uC_VCC1,1,1*%
%TO.N,+3.3V*%
X151010000Y-92140000D03*
%TD*%
D20*
%TO.P,C2,1*%
%TO.N,+3.3V*%
X151010000Y-89570000D03*
%TO.P,C2,2*%
%TO.N,GND*%
X151010000Y-87670000D03*
%TD*%
D13*
%TO.P,uC_GND1,1,1*%
%TO.N,GND*%
X154370000Y-88260000D03*
%TD*%
D19*
%TO.P,R2,1*%
%TO.N,+3.3V*%
X120317500Y-105140000D03*
%TO.P,R2,2*%
%TO.N,SDA_I2C*%
X122142500Y-105140000D03*
%TD*%
D13*
%TO.P,LDR1,1,1*%
%TO.N,PHOTO1*%
X186940000Y-127000000D03*
%TD*%
D26*
%TO.P,C1,1*%
%TO.N,SEL_JOYSTICK*%
X160570000Y-87030000D03*
%TO.P,C1,2*%
%TO.N,GND*%
X162470000Y-87030000D03*
%TD*%
D19*
%TO.P,R11,1*%
%TO.N,+3.3V*%
X163937500Y-74250000D03*
%TO.P,R11,2*%
%TO.N,TDO{slash}TDI*%
X165762500Y-74250000D03*
%TD*%
D27*
%TO.P,RV2,1,1*%
%TO.N,PHOTO2*%
X183000000Y-70000000D03*
D28*
%TO.P,RV2,2,2*%
X180500000Y-65000000D03*
%TO.P,RV2,3,3*%
%TO.N,GND*%
X178000000Y-70000000D03*
%TD*%
D25*
%TO.P,R6,1*%
%TO.N,Net-(U1C-+)*%
X166932500Y-94710000D03*
%TO.P,R6,2*%
%TO.N,Net-(U1D--)*%
X165107500Y-94710000D03*
%TD*%
D13*
%TO.P,J3,1,Pin_1*%
%TO.N,TDO{slash}TDI*%
X171650000Y-70840000D03*
D17*
%TO.P,J3,2,Pin_2*%
%TO.N,TCK*%
X171650000Y-68300000D03*
%TO.P,J3,3,Pin_3*%
%TO.N,GND*%
X171650000Y-65760000D03*
%TD*%
D29*
%TO.P,R9,1*%
%TO.N,+3.3V*%
X163062500Y-113612500D03*
%TO.P,R9,2*%
%TO.N,Net-(U1A-+)*%
X163062500Y-111787500D03*
%TD*%
D30*
%TO.P,D1,1,K*%
%TO.N,Net-(D1-K)*%
X112450000Y-92420000D03*
D11*
%TO.P,D1,2,A*%
%TO.N,+3.3V*%
X114990000Y-92420000D03*
%TD*%
D29*
%TO.P,R12,1*%
%TO.N,Net-(D1-K)*%
X112470000Y-89382500D03*
%TO.P,R12,2*%
%TO.N,GND*%
X112470000Y-87557500D03*
%TD*%
D13*
%TO.P,R1,1*%
%TO.N,+3.3V*%
X187000000Y-132225000D03*
D17*
%TO.P,R1,2*%
%TO.N,PHOTO1*%
X187000000Y-134765000D03*
%TD*%
D31*
%TO.P,C9,1*%
%TO.N,TDO{slash}TDI*%
X168640000Y-65130000D03*
%TO.P,C9,2*%
%TO.N,GND*%
X168640000Y-67030000D03*
%TD*%
D32*
%TO.P,U1,1*%
%TO.N,L_JOYSTICK*%
X162370000Y-105275000D03*
%TO.P,U1,2,-*%
%TO.N,LR_JOYSTICK*%
X163640000Y-105275000D03*
%TO.P,U1,3,+*%
%TO.N,Net-(U1A-+)*%
X164910000Y-105275000D03*
%TO.P,U1,4,V+*%
%TO.N,+3.3V*%
X166180000Y-105275000D03*
%TO.P,U1,5,+*%
%TO.N,LR_JOYSTICK*%
X167450000Y-105275000D03*
%TO.P,U1,6,-*%
%TO.N,Net-(U1B--)*%
X168720000Y-105275000D03*
%TO.P,U1,7*%
%TO.N,R_JOYSTICK*%
X169990000Y-105275000D03*
%TO.P,U1,8*%
%TO.N,F_JOYSTICK*%
X169990000Y-100325000D03*
%TO.P,U1,9,-*%
%TO.N,FB_JOYSTICK*%
X168720000Y-100325000D03*
%TO.P,U1,10,+*%
%TO.N,Net-(U1C-+)*%
X167450000Y-100325000D03*
%TO.P,U1,11,V-*%
%TO.N,GND*%
X166180000Y-100325000D03*
%TO.P,U1,12,+*%
%TO.N,FB_JOYSTICK*%
X164910000Y-100325000D03*
%TO.P,U1,13,-*%
%TO.N,Net-(U1D--)*%
X163640000Y-100325000D03*
%TO.P,U1,14*%
%TO.N,B_JOYSTICK*%
X162370000Y-100325000D03*
%TD*%
D25*
%TO.P,R7,1*%
%TO.N,+3.3V*%
X171452500Y-97390000D03*
%TO.P,R7,2*%
%TO.N,Net-(U1C-+)*%
X169627500Y-97390000D03*
%TD*%
D13*
%TO.P,UART_TX1,1,1*%
%TO.N,/WIFI_UART_TX*%
X158750000Y-133096000D03*
%TD*%
D19*
%TO.P,R10,1*%
%TO.N,Net-(U1D--)*%
X161557500Y-97310000D03*
%TO.P,R10,2*%
%TO.N,GND*%
X163382500Y-97310000D03*
%TD*%
D27*
%TO.P,RV1,1,1*%
%TO.N,PHOTO1*%
X178000000Y-129760000D03*
D28*
%TO.P,RV1,2,2*%
X180500000Y-134760000D03*
%TO.P,RV1,3,3*%
%TO.N,GND*%
X183000000Y-129760000D03*
%TD*%
D19*
%TO.P,R3,1*%
%TO.N,+3.3V*%
X120267500Y-102510000D03*
%TO.P,R3,2*%
%TO.N,SCL_I2C*%
X122092500Y-102510000D03*
%TD*%
D26*
%TO.P,C3,1*%
%TO.N,+3.3V*%
X120290000Y-107610000D03*
%TO.P,C3,2*%
%TO.N,GND*%
X122190000Y-107610000D03*
%TD*%
D13*
%TO.P,SDA_I2C1,1,1*%
%TO.N,SDA_I2C*%
X115020000Y-105500000D03*
%TD*%
D20*
%TO.P,Cload2,1*%
%TO.N,/CLK-*%
X146185000Y-81360000D03*
%TO.P,Cload2,2*%
%TO.N,GND*%
X146185000Y-79460000D03*
%TD*%
%TO.P,Cload1,1*%
%TO.N,/CLK+*%
X151745000Y-81360000D03*
%TO.P,Cload1,2*%
%TO.N,GND*%
X151745000Y-79460000D03*
%TD*%
D33*
%TO.P,Y1,1,1*%
%TO.N,/CLK+*%
X149615000Y-81420000D03*
D34*
%TO.P,Y1,2,2*%
%TO.N,/CLK-*%
X148345000Y-81420000D03*
%TD*%
D35*
%TO.P,IC1,1,P1.2/UCB0SIMO/UCB0SDA/TB0TRG/OA0-/A2/VEREF-*%
%TO.N,SDA_I2C*%
X152710000Y-96332000D03*
%TO.P,IC1,2,P1.1/UCB0CLK/ACLK/OA0O/COMP0.1/A1*%
%TO.N,FB_JOYSTICK*%
X152210000Y-96332000D03*
%TO.P,IC1,3,P1.0/UCB0STE/SMCLK/COMP0.0/A0/VEREF+*%
%TO.N,PHOTO2*%
X151710000Y-96332000D03*
%TO.P,IC1,4,TEST/SBWTCK*%
%TO.N,TCK*%
X151210000Y-96332000D03*
%TO.P,IC1,5,~{RST}/NMI/SBWTDIO*%
%TO.N,TDO{slash}TDI*%
X150710000Y-96332000D03*
%TO.P,IC1,6,DVCC*%
%TO.N,+3.3V*%
X150210000Y-96332000D03*
%TO.P,IC1,7,DVSS*%
%TO.N,GND*%
X149710000Y-96332000D03*
%TO.P,IC1,8,P2.7/TB0CLK/XIN*%
%TO.N,/CLK+*%
X149210000Y-96332000D03*
%TO.P,IC1,9,P2.6/MCLK/XOUT*%
%TO.N,/CLK-*%
X148710000Y-96332000D03*
%TO.P,IC1,10,P2.5/COMP1.0*%
%TO.N,unconnected-(IC1-P2.5{slash}COMP1.0-Pad10)*%
X148210000Y-96332000D03*
%TO.P,IC1,11,P2.4/COMP1.1*%
%TO.N,RST_LCD*%
X147710000Y-96332000D03*
%TO.P,IC1,12,P4.7/UCB1SOMI/UCB1SCL*%
%TO.N,MISO*%
X147210000Y-96332000D03*
D36*
%TO.P,IC1,13,P4.6/UCB1SIMO/UCB1SDA*%
%TO.N,MOSI*%
X145722000Y-97820000D03*
%TO.P,IC1,14,P4.5/UCB1CLK*%
%TO.N,SCLK_SPI*%
X145722000Y-98320000D03*
%TO.P,IC1,15,P4.4/UCB1STE*%
%TO.N,SS_SPI*%
X145722000Y-98820000D03*
%TO.P,IC1,16,P6.6/TB3CLK*%
%TO.N,unconnected-(IC1-P6.6{slash}TB3CLK-Pad16)*%
X145722000Y-99320000D03*
%TO.P,IC1,17,P6.5/TB3.6*%
%TO.N,unconnected-(IC1-P6.5{slash}TB3.6-Pad17)*%
X145722000Y-99820000D03*
%TO.P,IC1,18,P6.4/TB3.5*%
%TO.N,unconnected-(IC1-P6.4{slash}TB3.5-Pad18)*%
X145722000Y-100320000D03*
%TO.P,IC1,19,P6.3/TB3.4*%
%TO.N,/P6.3*%
X145722000Y-100820000D03*
%TO.P,IC1,20,P6.2/TB3.3*%
%TO.N,/P6.2*%
X145722000Y-101320000D03*
%TO.P,IC1,21,P6.1/TB3.2*%
%TO.N,/P6.1*%
X145722000Y-101820000D03*
%TO.P,IC1,22,P6.0/TB3.1*%
%TO.N,/P6.0*%
X145722000Y-102320000D03*
%TO.P,IC1,23,P4.3/UCA1TXD/UCA1SIMO/~{UCA1TXD}*%
%TO.N,unconnected-(IC1-P4.3{slash}UCA1TXD{slash}UCA1SIMO{slash}~{UCA1TXD}-Pad23)*%
X145722000Y-102820000D03*
%TO.P,IC1,24,P4.2/UCA1RXD/UCA1SOMI/~{UCA1RXD}*%
%TO.N,unconnected-(IC1-P4.2{slash}UCA1RXD{slash}UCA1SOMI{slash}~{UCA1RXD}-Pad24)*%
X145722000Y-103320000D03*
D35*
%TO.P,IC1,25,P4.1/UCA1CLK*%
%TO.N,unconnected-(IC1-P4.1{slash}UCA1CLK-Pad25)*%
X147210000Y-104808000D03*
%TO.P,IC1,26,P4.0/UCA1STE/ISOTXD/ISORXD*%
%TO.N,unconnected-(IC1-P4.0{slash}UCA1STE{slash}ISOTXD{slash}ISORXD-Pad26)*%
X147710000Y-104808000D03*
%TO.P,IC1,27,P2.3/TB1TRG*%
%TO.N,unconnected-(IC1-P2.3{slash}TB1TRG-Pad27)*%
X148210000Y-104808000D03*
%TO.P,IC1,28,P2.2/TB1CLK*%
%TO.N,unconnected-(IC1-P2.2{slash}TB1CLK-Pad28)*%
X148710000Y-104808000D03*
%TO.P,IC1,29,P2.1/TB1.2/COMP1.O*%
%TO.N,unconnected-(IC1-P2.1{slash}TB1.2{slash}COMP1.O-Pad29)*%
X149210000Y-104808000D03*
%TO.P,IC1,30,P2.0/TB1.1/COMP0.O*%
%TO.N,/WIFI_CE*%
X149710000Y-104808000D03*
%TO.P,IC1,31,P1.7/UCA0TXD/UCA0SIMO/TB0.2/TDO/OA1+/A7/VREF+*%
%TO.N,/WIFI_UART_TX*%
X150210000Y-104808000D03*
%TO.P,IC1,32,P1.6/UCA0RXD/UCA0SOMI/TB0.1/TDI/TCLK/OA1-/A6*%
%TO.N,/WIFI_UART_RX*%
X150710000Y-104808000D03*
%TO.P,IC1,33,P1.5/UCA0CLK/TMS/OA1O/A5*%
%TO.N,PHOTO1*%
X151210000Y-104808000D03*
%TO.P,IC1,34,P1.4/UCA0STE/TCK/A4*%
%TO.N,LR_JOYSTICK*%
X151710000Y-104808000D03*
%TO.P,IC1,35,P3.7/OA3+*%
%TO.N,unconnected-(IC1-P3.7{slash}OA3+-Pad35)*%
X152210000Y-104808000D03*
%TO.P,IC1,36,P3.6/OA3-*%
%TO.N,unconnected-(IC1-P3.6{slash}OA3--Pad36)*%
X152710000Y-104808000D03*
D36*
%TO.P,IC1,37,P3.5/OA3O*%
%TO.N,L_JOYSTICK*%
X154198000Y-103320000D03*
%TO.P,IC1,38,P3.4/SMCLK*%
%TO.N,R_JOYSTICK*%
X154198000Y-102820000D03*
%TO.P,IC1,39,P5.4*%
%TO.N,unconnected-(IC1-P5.4-Pad39)*%
X154198000Y-102320000D03*
%TO.P,IC1,40,P5.3/TB2TRG/A11*%
%TO.N,unconnected-(IC1-P5.3{slash}TB2TRG{slash}A11-Pad40)*%
X154198000Y-101820000D03*
%TO.P,IC1,41,P5.2/TB2CLK/A10*%
%TO.N,unconnected-(IC1-P5.2{slash}TB2CLK{slash}A10-Pad41)*%
X154198000Y-101320000D03*
%TO.P,IC1,42,P5.1/TB2.2/MFM.TX/A9*%
%TO.N,unconnected-(IC1-P5.1{slash}TB2.2{slash}MFM.TX{slash}A9-Pad42)*%
X154198000Y-100820000D03*
%TO.P,IC1,43,P5.0/TB2.1/MFM.RX/A8*%
%TO.N,unconnected-(IC1-P5.0{slash}TB2.1{slash}MFM.RX{slash}A8-Pad43)*%
X154198000Y-100320000D03*
%TO.P,IC1,44,P3.3/OA2+*%
%TO.N,F_JOYSTICK*%
X154198000Y-99820000D03*
%TO.P,IC1,45,P3.2/OA2-*%
%TO.N,B_JOYSTICK*%
X154198000Y-99320000D03*
%TO.P,IC1,46,P3.1/OA2O*%
%TO.N,unconnected-(IC1-P3.1{slash}OA2O-Pad46)*%
X154198000Y-98820000D03*
%TO.P,IC1,47,P3.0/MCLK*%
%TO.N,SEL_JOYSTICK*%
X154198000Y-98320000D03*
%TO.P,IC1,48,P1.3/UCB0SOMI/UCB0SCL/OA0+/A3*%
%TO.N,SCL_I2C*%
X154198000Y-97820000D03*
%TD*%
D37*
%TO.N,+3.3V*%
X137280000Y-82220000D03*
X162090000Y-108450000D03*
X166035000Y-108440000D03*
X163830000Y-116332000D03*
X158300000Y-118100000D03*
X140910000Y-92160000D03*
X119160000Y-92360000D03*
X134640000Y-84860000D03*
%TO.N,GND*%
X165220000Y-97335000D03*
X144060000Y-76795000D03*
X154060000Y-78795000D03*
X154075000Y-84950000D03*
X154060000Y-82795000D03*
X148060000Y-76795000D03*
X144060000Y-80795000D03*
X170332500Y-113780000D03*
X152060000Y-76795000D03*
X144075000Y-84950000D03*
X146060000Y-76795000D03*
X148580000Y-98980000D03*
X162590000Y-124820000D03*
X150660000Y-98980000D03*
X144060000Y-82795000D03*
X167300000Y-97335000D03*
X150060000Y-76795000D03*
X154060000Y-76795000D03*
X154060000Y-80795000D03*
X112430000Y-85540000D03*
X144060000Y-78795000D03*
X156410000Y-108460000D03*
%TO.N,MISO*%
X131566702Y-96003298D03*
%TO.N,MOSI*%
X133440000Y-97195000D03*
%TO.N,SS_SPI*%
X143640000Y-99695000D03*
X143660000Y-104860000D03*
%TO.N,SCL_I2C*%
X157074504Y-94864504D03*
%TO.N,LR_JOYSTICK*%
X167595000Y-109790000D03*
%TD*%
D38*
%TO.N,SDA_I2C*%
X124540000Y-105000000D02*
X125815000Y-103725000D01*
X121155000Y-79920000D02*
X121155000Y-104152500D01*
X121155000Y-104152500D02*
X122142500Y-105140000D01*
X151208833Y-100305000D02*
X152710000Y-98803833D01*
X150225000Y-100305000D02*
X151208833Y-100305000D01*
X144659500Y-103795000D02*
X146735000Y-103795000D01*
X122142500Y-105140000D02*
X124400000Y-105140000D01*
X146735000Y-103795000D02*
X150225000Y-100305000D01*
X125815000Y-103725000D02*
X144589500Y-103725000D01*
X124400000Y-105140000D02*
X124540000Y-105000000D01*
X129920000Y-71155000D02*
X121155000Y-79920000D01*
X144589500Y-103725000D02*
X144659500Y-103795000D01*
X152710000Y-98803833D02*
X152710000Y-96332000D01*
D39*
%TO.N,+3.3V*%
X162650000Y-128710000D02*
X162650000Y-131408000D01*
X120317500Y-107582500D02*
X120290000Y-107610000D01*
X162090000Y-108450000D02*
X160080000Y-108450000D01*
X166035000Y-108440000D02*
X166180000Y-108295000D01*
X160110000Y-108450000D02*
X160070000Y-108490000D01*
X120317500Y-105140000D02*
X120317500Y-107582500D01*
D38*
X150210000Y-96332000D02*
X150210000Y-92940000D01*
D39*
X160080000Y-108450000D02*
X160050000Y-108420000D01*
X151010000Y-92140000D02*
X151010000Y-89570000D01*
D38*
X150210000Y-92940000D02*
X151010000Y-92140000D01*
D39*
X120267500Y-105090000D02*
X120317500Y-105140000D01*
X127055000Y-70830000D02*
X127380000Y-71155000D01*
X162650000Y-131408000D02*
X162814000Y-131572000D01*
X120267500Y-102510000D02*
X120267500Y-105090000D01*
X166180000Y-108295000D02*
X166180000Y-105275000D01*
X124470000Y-70830000D02*
X127055000Y-70830000D01*
X151010000Y-92140000D02*
X151446000Y-92140000D01*
%TO.N,GND*%
X112470000Y-85580000D02*
X112430000Y-85540000D01*
X127065000Y-68930000D02*
X127380000Y-68615000D01*
X122260000Y-107540000D02*
X122190000Y-107610000D01*
X156440000Y-108490000D02*
X156410000Y-108460000D01*
D40*
X150660000Y-98790000D02*
X149700000Y-97830000D01*
D39*
X151010000Y-87670000D02*
X153780000Y-87670000D01*
X168640000Y-67030000D02*
X170380000Y-67030000D01*
D41*
X165220000Y-97335000D02*
X167300000Y-97335000D01*
D39*
X162650000Y-124880000D02*
X162590000Y-124820000D01*
X170355000Y-113757500D02*
X170355000Y-111800000D01*
D40*
X167300000Y-97335000D02*
X167300000Y-97365000D01*
X148580000Y-98950000D02*
X149700000Y-97830000D01*
D38*
X149710000Y-96332000D02*
X149710000Y-98100000D01*
X151967500Y-79280000D02*
X152147500Y-79460000D01*
D39*
X170332500Y-113780000D02*
X170355000Y-113757500D01*
D40*
X150660000Y-98980000D02*
X150660000Y-98790000D01*
D39*
X162650000Y-126810000D02*
X162650000Y-124880000D01*
D40*
X165220000Y-97525000D02*
X166180000Y-98485000D01*
D39*
X156410000Y-108460000D02*
X158110000Y-108460000D01*
X163382500Y-97310000D02*
X165195000Y-97310000D01*
X158110000Y-108460000D02*
X158150000Y-108420000D01*
X124470000Y-68930000D02*
X127065000Y-68930000D01*
X153780000Y-87670000D02*
X154370000Y-88260000D01*
D40*
X167300000Y-97365000D02*
X166180000Y-98485000D01*
D39*
X162470000Y-87030000D02*
X164620000Y-87030000D01*
X165195000Y-97310000D02*
X165220000Y-97335000D01*
D40*
X166180000Y-98485000D02*
X166180000Y-100325000D01*
X148580000Y-98980000D02*
X148580000Y-98950000D01*
D41*
X150660000Y-98980000D02*
X148580000Y-98980000D01*
D39*
X112470000Y-87557500D02*
X112470000Y-85580000D01*
D40*
X165220000Y-97335000D02*
X165220000Y-97525000D01*
D39*
X170380000Y-67030000D02*
X171650000Y-65760000D01*
X164620000Y-87030000D02*
X164710000Y-86940000D01*
X124540000Y-107540000D02*
X122260000Y-107540000D01*
D38*
%TO.N,MISO*%
X147210000Y-95975000D02*
X131595000Y-95975000D01*
X147210000Y-96332000D02*
X147210000Y-95975000D01*
X131595000Y-95975000D02*
X131566702Y-96003298D01*
%TO.N,MOSI*%
X144295000Y-97820000D02*
X143650000Y-97175000D01*
X145722000Y-97820000D02*
X144295000Y-97820000D01*
X133460000Y-97175000D02*
X133440000Y-97195000D01*
X143650000Y-97175000D02*
X133460000Y-97175000D01*
%TO.N,SCLK_SPI*%
X125765000Y-93615000D02*
X124540000Y-94840000D01*
X145722000Y-98320000D02*
X132292412Y-98320000D01*
X127587412Y-93615000D02*
X125765000Y-93615000D01*
X132292412Y-98320000D02*
X127587412Y-93615000D01*
%TO.N,SS_SPI*%
X145722000Y-98820000D02*
X144515000Y-98820000D01*
X143660000Y-104860000D02*
X143520000Y-105000000D01*
X143520000Y-105000000D02*
X127080000Y-105000000D01*
X144515000Y-98820000D02*
X143640000Y-99695000D01*
%TO.N,/WIFI_UART_RX*%
X170434000Y-126433482D02*
X150710000Y-106709482D01*
X174244000Y-133350000D02*
X172212000Y-133350000D01*
X172212000Y-133350000D02*
X170434000Y-131572000D01*
X170434000Y-131572000D02*
X170434000Y-126433482D01*
X150710000Y-106709482D02*
X150710000Y-104808000D01*
%TO.N,/WIFI_UART_TX*%
X162814000Y-134112000D02*
X162814000Y-134814000D01*
X163800000Y-135800000D02*
X168500000Y-135800000D01*
X162814000Y-134814000D02*
X163800000Y-135800000D01*
X159004000Y-133096000D02*
X160020000Y-134112000D01*
X158750000Y-133096000D02*
X159004000Y-133096000D01*
X169132061Y-125767939D02*
X150210000Y-106845878D01*
X169132061Y-135167939D02*
X169132061Y-125767939D01*
X150210000Y-106845878D02*
X150210000Y-104808000D01*
X160020000Y-134112000D02*
X162814000Y-134112000D01*
X168500000Y-135800000D02*
X169132061Y-135167939D01*
%TO.N,/P6.3*%
X145722000Y-100820000D02*
X133060000Y-100820000D01*
X133060000Y-100820000D02*
X127080000Y-94840000D01*
%TO.N,/P6.2*%
X131020000Y-101320000D02*
X127080000Y-97380000D01*
X145722000Y-101320000D02*
X131020000Y-101320000D01*
%TO.N,SEL_JOYSTICK*%
X155210000Y-98320000D02*
X154198000Y-98320000D01*
X160690000Y-92840000D02*
X155210000Y-98320000D01*
X164710000Y-80440000D02*
X160690000Y-84460000D01*
X160690000Y-84460000D02*
X160690000Y-92840000D01*
%TO.N,SCL_I2C*%
X122092500Y-102510000D02*
X124490000Y-102510000D01*
X131095000Y-69790000D02*
X131095000Y-72135000D01*
X122092500Y-81137500D02*
X122092500Y-102510000D01*
X154810000Y-97820000D02*
X154198000Y-97820000D01*
X157074504Y-95555496D02*
X154810000Y-97820000D01*
X157074504Y-94864504D02*
X157074504Y-95555496D01*
X131095000Y-72135000D02*
X122092500Y-81137500D01*
X124490000Y-102510000D02*
X124540000Y-102460000D01*
X129920000Y-68615000D02*
X131095000Y-69790000D01*
%TO.N,Net-(D1-K)*%
X112470000Y-89382500D02*
X112470000Y-92400000D01*
X112470000Y-92400000D02*
X112450000Y-92420000D01*
%TO.N,TDO{slash}TDI*%
X166070000Y-70840000D02*
X165900000Y-71010000D01*
X171650000Y-70840000D02*
X166070000Y-70840000D01*
X168020000Y-64510000D02*
X168640000Y-65130000D01*
X165900000Y-71010000D02*
X165900000Y-74112500D01*
X165900000Y-64510000D02*
X168020000Y-64510000D01*
X165900000Y-74112500D02*
X165762500Y-74250000D01*
X156670000Y-88810000D02*
X150710000Y-94770000D01*
X165900000Y-64510000D02*
X165900000Y-71010000D01*
X156670000Y-83342500D02*
X156670000Y-88810000D01*
X165762500Y-74250000D02*
X156670000Y-83342500D01*
X150710000Y-94770000D02*
X150710000Y-96332000D01*
%TO.N,LR_JOYSTICK*%
X163314999Y-106575000D02*
X152439500Y-106575000D01*
X167450000Y-109645000D02*
X167450000Y-105275000D01*
X152439500Y-106575000D02*
X151710000Y-105845500D01*
X163640000Y-105275000D02*
X163640000Y-104300001D01*
X167124999Y-103975000D02*
X167450000Y-104300001D01*
X151710000Y-105845500D02*
X151710000Y-104808000D01*
X163640000Y-106249999D02*
X163314999Y-106575000D01*
X167450000Y-104300001D02*
X167450000Y-105275000D01*
X163640000Y-105275000D02*
X163640000Y-106249999D01*
X163640000Y-104300001D02*
X163965001Y-103975000D01*
X167595000Y-109790000D02*
X167450000Y-109645000D01*
X163965001Y-103975000D02*
X167124999Y-103975000D01*
%TO.N,FB_JOYSTICK*%
X168720000Y-101180000D02*
X168720000Y-100325000D01*
X152210000Y-95294500D02*
X155444500Y-92060000D01*
X168275000Y-101625000D02*
X168720000Y-101180000D01*
X155444500Y-92060000D02*
X157640000Y-92060000D01*
X174960000Y-96210000D02*
X172310000Y-98860000D01*
X172310000Y-98860000D02*
X169804092Y-98860000D01*
X164910000Y-100325000D02*
X164910000Y-101299999D01*
X174960000Y-92420000D02*
X174960000Y-96210000D01*
X165235001Y-101625000D02*
X168275000Y-101625000D01*
X168720000Y-99944092D02*
X168720000Y-100325000D01*
X169804092Y-98860000D02*
X168720000Y-99944092D01*
X164910000Y-101299999D02*
X165235001Y-101625000D01*
X152210000Y-96332000D02*
X152210000Y-95294500D01*
%TO.N,TCK*%
X151210000Y-94906396D02*
X151210000Y-96332000D01*
X171650000Y-68300000D02*
X173240000Y-69890000D01*
X157120000Y-88996396D02*
X151210000Y-94906396D01*
X172040000Y-72800000D02*
X169000000Y-72800000D01*
X157120000Y-84680000D02*
X157120000Y-88996396D01*
X173240000Y-69890000D02*
X173240000Y-71600000D01*
X169000000Y-72800000D02*
X157120000Y-84680000D01*
X173240000Y-71600000D02*
X172040000Y-72800000D01*
%TO.N,R_JOYSTICK*%
X169990000Y-105275000D02*
X169990000Y-104300001D01*
X169990000Y-104300001D02*
X168509999Y-102820000D01*
X168509999Y-102820000D02*
X154198000Y-102820000D01*
%TO.N,F_JOYSTICK*%
X159940000Y-99820000D02*
X154198000Y-99820000D01*
X169990000Y-100325000D02*
X169990000Y-101299999D01*
X169990000Y-101299999D02*
X169199999Y-102090000D01*
X162210000Y-102090000D02*
X159940000Y-99820000D01*
X169199999Y-102090000D02*
X162210000Y-102090000D01*
%TO.N,B_JOYSTICK*%
X161365000Y-99320000D02*
X154198000Y-99320000D01*
X162370000Y-100325000D02*
X161365000Y-99320000D01*
%TO.N,L_JOYSTICK*%
X161320000Y-103320000D02*
X154198000Y-103320000D01*
X162370000Y-105275000D02*
X162370000Y-104370000D01*
X162370000Y-104370000D02*
X161320000Y-103320000D01*
%TO.N,Net-(U1A-+)*%
X164910000Y-111710000D02*
X164990000Y-111790000D01*
X164945000Y-111745000D02*
X164990000Y-111790000D01*
X164910000Y-105275000D02*
X164910000Y-111710000D01*
D42*
X164990000Y-111790000D02*
X163255000Y-111790000D01*
D38*
X164977500Y-105342500D02*
X164910000Y-105275000D01*
X163255000Y-111790000D02*
X163062500Y-111597500D01*
%TO.N,Net-(U1B--)*%
X168755000Y-111575000D02*
X168530000Y-111800000D01*
X168720000Y-111590000D02*
X168520000Y-111790000D01*
X168520000Y-111790000D02*
X168530000Y-111800000D01*
X168517500Y-105477500D02*
X168720000Y-105275000D01*
D42*
X166815000Y-111790000D02*
X168520000Y-111790000D01*
D38*
X168720000Y-105275000D02*
X168720000Y-111590000D01*
%TO.N,Net-(U1C-+)*%
X169627500Y-97492500D02*
X169627500Y-97390000D01*
X167450000Y-99670000D02*
X169627500Y-97492500D01*
X166947500Y-94710000D02*
X169627500Y-97390000D01*
X167450000Y-100325000D02*
X167450000Y-99670000D01*
X166932500Y-94710000D02*
X166947500Y-94710000D01*
%TO.N,Net-(U1D--)*%
X163640000Y-100325000D02*
X163640000Y-99540000D01*
X161557500Y-97457500D02*
X161557500Y-97310000D01*
X161557500Y-97310000D02*
X161557500Y-96842500D01*
X163640000Y-99540000D02*
X161557500Y-97457500D01*
X163690000Y-94710000D02*
X165107500Y-94710000D01*
X161557500Y-96842500D02*
X163690000Y-94710000D01*
%TO.N,/P6.1*%
X145722000Y-101820000D02*
X128980000Y-101820000D01*
X128980000Y-101820000D02*
X127080000Y-99920000D01*
%TO.N,/P6.0*%
X127220000Y-102320000D02*
X145722000Y-102320000D01*
X127080000Y-102460000D02*
X127220000Y-102320000D01*
%TO.N,/CLK+*%
X151685000Y-81420000D02*
X151745000Y-81360000D01*
D42*
X149615000Y-81420000D02*
X151685000Y-81420000D01*
D38*
X149210000Y-96332000D02*
X149210000Y-81825000D01*
X149615000Y-81420000D02*
X151950000Y-81420000D01*
X149210000Y-81825000D02*
X149615000Y-81420000D01*
%TO.N,/CLK-*%
X148710000Y-81785000D02*
X148285000Y-81360000D01*
X148285000Y-81360000D02*
X146185000Y-81360000D01*
X146245000Y-81420000D02*
X146185000Y-81360000D01*
D42*
X148345000Y-81420000D02*
X146245000Y-81420000D01*
D38*
X148710000Y-96332000D02*
X148710000Y-81785000D01*
X148710000Y-81785000D02*
X148345000Y-81420000D01*
%TO.N,RST_LCD*%
X132460000Y-71155000D02*
X132460000Y-80120000D01*
X132460000Y-80120000D02*
X147710000Y-95370000D01*
X147710000Y-95370000D02*
X147710000Y-96332000D01*
%TO.N,PHOTO2*%
X169290000Y-73350000D02*
X172150000Y-73350000D01*
D40*
X183000000Y-70000000D02*
X184530000Y-70000000D01*
D38*
X180500000Y-65000000D02*
X186960000Y-65000000D01*
X151710000Y-96332000D02*
X151710000Y-95042792D01*
X157570000Y-85070000D02*
X169290000Y-73350000D01*
D40*
X184530000Y-70000000D02*
X187060000Y-72530000D01*
D38*
X188630000Y-70960000D02*
X188630000Y-66590000D01*
X151710000Y-95042792D02*
X157570000Y-89182792D01*
X172150000Y-73350000D02*
X180500000Y-65000000D01*
X157570000Y-89182792D02*
X157570000Y-85070000D01*
X186960000Y-65000000D02*
X187000000Y-64960000D01*
X187060000Y-72530000D02*
X188630000Y-70960000D01*
X188630000Y-66590000D02*
X187000000Y-64960000D01*
D40*
%TO.N,PHOTO1*%
X188760000Y-128820000D02*
X188760000Y-133005000D01*
X186940000Y-127000000D02*
X188760000Y-128820000D01*
D38*
X151210000Y-104808000D02*
X151210000Y-106573086D01*
X180505000Y-134765000D02*
X180500000Y-134760000D01*
D40*
X178000000Y-129760000D02*
X180760000Y-127000000D01*
D38*
X179401914Y-134765000D02*
X180505000Y-134765000D01*
X151210000Y-106573086D02*
X179401914Y-134765000D01*
D42*
X187000000Y-134765000D02*
X180505000Y-134765000D01*
D40*
X188760000Y-133005000D02*
X187000000Y-134765000D01*
X180760000Y-127000000D02*
X186940000Y-127000000D01*
D38*
%TO.N,/WIFI_CE*%
X149710000Y-106982274D02*
X149710000Y-104808000D01*
X167894000Y-125166274D02*
X149710000Y-106982274D01*
X167894000Y-131572000D02*
X167894000Y-125166274D01*
%TD*%
%TA.AperFunction,Conductor*%
%TO.N,GND*%
G36*
X155188039Y-75529685D02*
G01*
X155233794Y-75582489D01*
X155245000Y-75634000D01*
X155245000Y-86086000D01*
X155225315Y-86153039D01*
X155172511Y-86198794D01*
X155121000Y-86210000D01*
X149959500Y-86210000D01*
X149892461Y-86190315D01*
X149846706Y-86137511D01*
X149835500Y-86086000D01*
X149835500Y-82544500D01*
X149855185Y-82477461D01*
X149907989Y-82431706D01*
X149959500Y-82420500D01*
X151735743Y-82420500D01*
X151811590Y-82412787D01*
X151887438Y-82405074D01*
X152011381Y-82366185D01*
X152048503Y-82360499D01*
X152270002Y-82360499D01*
X152270008Y-82360499D01*
X152372797Y-82349999D01*
X152539334Y-82294814D01*
X152688656Y-82202712D01*
X152812712Y-82078656D01*
X152904814Y-81929334D01*
X152959999Y-81762797D01*
X152970500Y-81660009D01*
X152970499Y-81059992D01*
X152959999Y-80957203D01*
X152904814Y-80790666D01*
X152812712Y-80641344D01*
X152688656Y-80517288D01*
X152685342Y-80515243D01*
X152683546Y-80513248D01*
X152682989Y-80512807D01*
X152683064Y-80512711D01*
X152638618Y-80463297D01*
X152627397Y-80394334D01*
X152655240Y-80330252D01*
X152685348Y-80304165D01*
X152688342Y-80302318D01*
X152812315Y-80178345D01*
X152904356Y-80029124D01*
X152904358Y-80029119D01*
X152959505Y-79862697D01*
X152959506Y-79862690D01*
X152969999Y-79759986D01*
X152970000Y-79759973D01*
X152970000Y-79710000D01*
X150520001Y-79710000D01*
X150520001Y-79759986D01*
X150530494Y-79862697D01*
X150585641Y-80029119D01*
X150585643Y-80029124D01*
X150677684Y-80178345D01*
X150707158Y-80207819D01*
X150740643Y-80269142D01*
X150735659Y-80338834D01*
X150693787Y-80394767D01*
X150628323Y-80419184D01*
X150619477Y-80419500D01*
X149067129Y-80419500D01*
X149067123Y-80419501D01*
X149007516Y-80425908D01*
X148872671Y-80476202D01*
X148872667Y-80476204D01*
X148864611Y-80482235D01*
X148799145Y-80506649D01*
X148735524Y-80493105D01*
X148735354Y-80493517D01*
X148733127Y-80492594D01*
X148731856Y-80492324D01*
X148729727Y-80491186D01*
X148729720Y-80491183D01*
X148695129Y-80480689D01*
X148682231Y-80475982D01*
X148646061Y-80460461D01*
X148646059Y-80460460D01*
X148646058Y-80460460D01*
X148597005Y-80450378D01*
X148585984Y-80447580D01*
X148541140Y-80433977D01*
X148541128Y-80433975D01*
X148501592Y-80430081D01*
X148488789Y-80428140D01*
X148446743Y-80419500D01*
X148446741Y-80419500D01*
X148400244Y-80419500D01*
X148388090Y-80418903D01*
X148345000Y-80414659D01*
X148301910Y-80418903D01*
X148289756Y-80419500D01*
X147310523Y-80419500D01*
X147243484Y-80399815D01*
X147197729Y-80347011D01*
X147187785Y-80277853D01*
X147216810Y-80214297D01*
X147222842Y-80207819D01*
X147252315Y-80178345D01*
X147344356Y-80029124D01*
X147344358Y-80029119D01*
X147399505Y-79862697D01*
X147399506Y-79862690D01*
X147409999Y-79759986D01*
X147410000Y-79759973D01*
X147410000Y-79710000D01*
X144960001Y-79710000D01*
X144960001Y-79759986D01*
X144970494Y-79862697D01*
X145025641Y-80029119D01*
X145025643Y-80029124D01*
X145117684Y-80178345D01*
X145241655Y-80302316D01*
X145241659Y-80302319D01*
X145244656Y-80304168D01*
X145246279Y-80305972D01*
X145247323Y-80306798D01*
X145247181Y-80306976D01*
X145291381Y-80356116D01*
X145302602Y-80425079D01*
X145274759Y-80489161D01*
X145244661Y-80515241D01*
X145241349Y-80517283D01*
X145241343Y-80517288D01*
X145117289Y-80641342D01*
X145025187Y-80790663D01*
X145025186Y-80790666D01*
X144970001Y-80957203D01*
X144970001Y-80957204D01*
X144970000Y-80957204D01*
X144959500Y-81059983D01*
X144959500Y-81660001D01*
X144959501Y-81660019D01*
X144970000Y-81762796D01*
X144970001Y-81762799D01*
X145025185Y-81929331D01*
X145025186Y-81929334D01*
X145117288Y-82078656D01*
X145241344Y-82202712D01*
X145390666Y-82294814D01*
X145557203Y-82349999D01*
X145659991Y-82360500D01*
X145874089Y-82360499D01*
X145922991Y-82370549D01*
X145943942Y-82379540D01*
X146143259Y-82420500D01*
X147960500Y-82420500D01*
X148027539Y-82440185D01*
X148073294Y-82492989D01*
X148084500Y-82544500D01*
X148084500Y-86086000D01*
X148064815Y-86153039D01*
X148012011Y-86198794D01*
X147960500Y-86210000D01*
X143169000Y-86210000D01*
X143101961Y-86190315D01*
X143056206Y-86137511D01*
X143045000Y-86086000D01*
X143045000Y-79210000D01*
X144960000Y-79210000D01*
X145935000Y-79210000D01*
X145935000Y-78460000D01*
X146435000Y-78460000D01*
X146435000Y-79210000D01*
X147409999Y-79210000D01*
X150520000Y-79210000D01*
X151495000Y-79210000D01*
X151495000Y-78460000D01*
X151995000Y-78460000D01*
X151995000Y-79210000D01*
X152969999Y-79210000D01*
X152969999Y-79160028D01*
X152969998Y-79160013D01*
X152959505Y-79057302D01*
X152904358Y-78890880D01*
X152904356Y-78890875D01*
X152812315Y-78741654D01*
X152688345Y-78617684D01*
X152539124Y-78525643D01*
X152539119Y-78525641D01*
X152372697Y-78470494D01*
X152372690Y-78470493D01*
X152269986Y-78460000D01*
X151995000Y-78460000D01*
X151495000Y-78460000D01*
X151220029Y-78460000D01*
X151220012Y-78460001D01*
X151117302Y-78470494D01*
X150950880Y-78525641D01*
X150950875Y-78525643D01*
X150801654Y-78617684D01*
X150677684Y-78741654D01*
X150585643Y-78890875D01*
X150585641Y-78890880D01*
X150530494Y-79057302D01*
X150530493Y-79057309D01*
X150520000Y-79160013D01*
X150520000Y-79210000D01*
X147409999Y-79210000D01*
X147409999Y-79160028D01*
X147409998Y-79160013D01*
X147399505Y-79057302D01*
X147344358Y-78890880D01*
X147344356Y-78890875D01*
X147252315Y-78741654D01*
X147128345Y-78617684D01*
X146979124Y-78525643D01*
X146979119Y-78525641D01*
X146812697Y-78470494D01*
X146812690Y-78470493D01*
X146709986Y-78460000D01*
X146435000Y-78460000D01*
X145935000Y-78460000D01*
X145660029Y-78460000D01*
X145660012Y-78460001D01*
X145557302Y-78470494D01*
X145390880Y-78525641D01*
X145390875Y-78525643D01*
X145241654Y-78617684D01*
X145117684Y-78741654D01*
X145025643Y-78890875D01*
X145025641Y-78890880D01*
X144970494Y-79057302D01*
X144970493Y-79057309D01*
X144960000Y-79160013D01*
X144960000Y-79210000D01*
X143045000Y-79210000D01*
X143045000Y-75634000D01*
X143064685Y-75566961D01*
X143117489Y-75521206D01*
X143169000Y-75510000D01*
X155121000Y-75510000D01*
X155188039Y-75529685D01*
G37*
%TD.AperFunction*%
%TD*%
%TA.AperFunction,Conductor*%
%TO.N,+3.3V*%
G36*
X113987072Y-62740185D02*
G01*
X114032827Y-62792989D01*
X114042771Y-62862147D01*
X114013746Y-62925703D01*
X113974877Y-62955712D01*
X113952334Y-62966828D01*
X113707041Y-63130728D01*
X113485241Y-63325241D01*
X113290728Y-63547041D01*
X113126828Y-63792334D01*
X112996349Y-64056919D01*
X112901521Y-64336269D01*
X112901518Y-64336283D01*
X112843968Y-64625609D01*
X112843964Y-64625636D01*
X112824671Y-64919992D01*
X112824671Y-64920007D01*
X112843964Y-65214363D01*
X112843965Y-65214373D01*
X112843966Y-65214380D01*
X112860269Y-65296344D01*
X112901518Y-65503716D01*
X112901521Y-65503730D01*
X112996349Y-65783080D01*
X113126825Y-66047660D01*
X113126829Y-66047667D01*
X113290725Y-66292955D01*
X113485241Y-66514758D01*
X113707044Y-66709274D01*
X113952332Y-66873170D01*
X113952335Y-66873172D01*
X114216923Y-67003652D01*
X114496278Y-67098481D01*
X114785620Y-67156034D01*
X114813888Y-67157886D01*
X115079993Y-67175329D01*
X115080000Y-67175329D01*
X115080007Y-67175329D01*
X115315675Y-67159881D01*
X115374380Y-67156034D01*
X115663722Y-67098481D01*
X115943077Y-67003652D01*
X116207665Y-66873172D01*
X116452957Y-66709273D01*
X116674758Y-66514758D01*
X116869273Y-66292957D01*
X117033172Y-66047665D01*
X117163652Y-65783077D01*
X117258481Y-65503722D01*
X117316034Y-65214380D01*
X117324700Y-65082169D01*
X117335329Y-64920007D01*
X117335329Y-64919992D01*
X117316035Y-64625636D01*
X117316034Y-64625620D01*
X117293037Y-64510005D01*
X159894357Y-64510005D01*
X159914890Y-64757812D01*
X159914892Y-64757824D01*
X159975936Y-64998881D01*
X160075826Y-65226606D01*
X160211833Y-65434782D01*
X160211836Y-65434785D01*
X160380256Y-65617738D01*
X160576491Y-65770474D01*
X160576493Y-65770475D01*
X160787155Y-65884480D01*
X160795190Y-65888828D01*
X161030386Y-65969571D01*
X161275665Y-66010500D01*
X161524335Y-66010500D01*
X161769614Y-65969571D01*
X162004810Y-65888828D01*
X162223509Y-65770474D01*
X162419744Y-65617738D01*
X162588164Y-65434785D01*
X162724173Y-65226607D01*
X162824063Y-64998881D01*
X162885108Y-64757821D01*
X162887645Y-64727203D01*
X162905643Y-64510005D01*
X162905643Y-64509994D01*
X162885109Y-64262187D01*
X162885107Y-64262175D01*
X162824063Y-64021118D01*
X162724173Y-63793393D01*
X162588166Y-63585217D01*
X162553022Y-63547041D01*
X162419744Y-63402262D01*
X162223509Y-63249526D01*
X162223507Y-63249525D01*
X162223506Y-63249524D01*
X162004811Y-63131172D01*
X162004802Y-63131169D01*
X161769616Y-63050429D01*
X161524335Y-63009500D01*
X161275665Y-63009500D01*
X161030383Y-63050429D01*
X160795197Y-63131169D01*
X160795188Y-63131172D01*
X160576493Y-63249524D01*
X160380257Y-63402261D01*
X160211833Y-63585217D01*
X160075826Y-63793393D01*
X159975936Y-64021118D01*
X159914892Y-64262175D01*
X159914890Y-64262187D01*
X159894357Y-64509994D01*
X159894357Y-64510005D01*
X117293037Y-64510005D01*
X117258481Y-64336278D01*
X117163652Y-64056923D01*
X117033172Y-63792336D01*
X117028916Y-63785967D01*
X116962184Y-63686094D01*
X116869273Y-63547043D01*
X116742303Y-63402262D01*
X116674758Y-63325241D01*
X116452955Y-63130725D01*
X116207667Y-62966829D01*
X116207660Y-62966825D01*
X116185124Y-62955712D01*
X116133705Y-62908407D01*
X116116023Y-62840812D01*
X116137693Y-62774387D01*
X116191834Y-62730223D01*
X116239968Y-62720500D01*
X189155500Y-62720500D01*
X189222539Y-62740185D01*
X189268294Y-62792989D01*
X189279500Y-62844500D01*
X189279500Y-66052003D01*
X189259815Y-66119042D01*
X189207011Y-66164797D01*
X189137853Y-66174741D01*
X189076461Y-66147548D01*
X189055941Y-66130573D01*
X189047299Y-66122709D01*
X188340237Y-65415647D01*
X188306752Y-65354324D01*
X188308143Y-65295872D01*
X188311331Y-65283976D01*
X188335063Y-65195408D01*
X188355659Y-64960000D01*
X188335063Y-64724592D01*
X188273903Y-64496337D01*
X188174035Y-64282171D01*
X188160043Y-64262187D01*
X188038494Y-64088597D01*
X187871402Y-63921506D01*
X187871395Y-63921501D01*
X187677834Y-63785967D01*
X187677830Y-63785965D01*
X187677828Y-63785964D01*
X187463663Y-63686097D01*
X187463659Y-63686096D01*
X187463655Y-63686094D01*
X187235413Y-63624938D01*
X187235403Y-63624936D01*
X187000001Y-63604341D01*
X186999999Y-63604341D01*
X186764596Y-63624936D01*
X186764586Y-63624938D01*
X186536344Y-63686094D01*
X186536335Y-63686098D01*
X186322171Y-63785964D01*
X186322169Y-63785965D01*
X186128597Y-63921505D01*
X185961505Y-64088597D01*
X185825965Y-64282169D01*
X185825961Y-64282176D01*
X185816295Y-64302906D01*
X185770122Y-64355345D01*
X185703914Y-64374500D01*
X181689771Y-64374500D01*
X181622732Y-64354815D01*
X181588196Y-64321623D01*
X181575090Y-64302906D01*
X181534028Y-64244263D01*
X181484668Y-64173768D01*
X181406792Y-64095892D01*
X181326233Y-64015333D01*
X181326229Y-64015330D01*
X181326228Y-64015329D01*
X181142700Y-63886821D01*
X181142696Y-63886819D01*
X181095508Y-63864815D01*
X180939630Y-63792128D01*
X180939627Y-63792127D01*
X180939625Y-63792126D01*
X180723208Y-63734137D01*
X180723200Y-63734136D01*
X180500002Y-63714609D01*
X180499998Y-63714609D01*
X180276799Y-63734136D01*
X180276791Y-63734137D01*
X180060374Y-63792126D01*
X180060368Y-63792129D01*
X179857306Y-63886818D01*
X179857304Y-63886819D01*
X179673764Y-64015334D01*
X179515334Y-64173764D01*
X179386819Y-64357304D01*
X179386818Y-64357306D01*
X179292129Y-64560368D01*
X179292126Y-64560374D01*
X179234137Y-64776791D01*
X179234136Y-64776799D01*
X179214609Y-64999998D01*
X179214609Y-65000001D01*
X179234136Y-65223200D01*
X179234137Y-65223207D01*
X179249011Y-65278715D01*
X179247348Y-65348565D01*
X179216917Y-65398490D01*
X174077181Y-70538227D01*
X174015858Y-70571712D01*
X173946166Y-70566728D01*
X173890233Y-70524856D01*
X173865816Y-70459392D01*
X173865500Y-70450546D01*
X173865500Y-69972742D01*
X173867224Y-69957122D01*
X173866939Y-69957095D01*
X173867673Y-69949333D01*
X173865561Y-69882112D01*
X173865500Y-69878218D01*
X173865500Y-69850656D01*
X173865500Y-69850650D01*
X173864996Y-69846668D01*
X173864081Y-69835029D01*
X173862710Y-69791373D01*
X173857119Y-69772130D01*
X173853173Y-69753078D01*
X173850664Y-69733208D01*
X173834579Y-69692583D01*
X173830806Y-69681562D01*
X173818618Y-69639610D01*
X173818617Y-69639609D01*
X173818617Y-69639607D01*
X173818616Y-69639606D01*
X173808423Y-69622371D01*
X173799861Y-69604894D01*
X173792487Y-69586269D01*
X173782929Y-69573114D01*
X173766811Y-69550930D01*
X173760405Y-69541177D01*
X173741671Y-69509500D01*
X173738172Y-69503583D01*
X173738165Y-69503574D01*
X173724006Y-69489415D01*
X173711368Y-69474619D01*
X173710944Y-69474035D01*
X173699594Y-69458413D01*
X173682176Y-69444004D01*
X173665940Y-69430572D01*
X173657299Y-69422709D01*
X172990237Y-68755647D01*
X172956752Y-68694324D01*
X172958143Y-68635872D01*
X172969874Y-68592093D01*
X172985063Y-68535408D01*
X173005659Y-68300000D01*
X172985063Y-68064592D01*
X172923903Y-67836337D01*
X172824035Y-67622171D01*
X172808578Y-67600095D01*
X172688494Y-67428597D01*
X172521402Y-67261506D01*
X172521396Y-67261501D01*
X172335842Y-67131575D01*
X172292217Y-67076998D01*
X172285023Y-67007500D01*
X172316546Y-66945145D01*
X172335842Y-66928425D01*
X172429270Y-66863006D01*
X172521401Y-66798495D01*
X172688495Y-66631401D01*
X172824035Y-66437830D01*
X172923903Y-66223663D01*
X172985063Y-65995408D01*
X173005659Y-65760000D01*
X172985063Y-65524592D01*
X172923903Y-65296337D01*
X172824035Y-65082171D01*
X172766500Y-65000001D01*
X172688494Y-64888597D01*
X172521402Y-64721506D01*
X172521395Y-64721501D01*
X172327834Y-64585967D01*
X172327830Y-64585965D01*
X172327828Y-64585964D01*
X172113663Y-64486097D01*
X172113659Y-64486096D01*
X172113655Y-64486094D01*
X171885413Y-64424938D01*
X171885403Y-64424936D01*
X171650001Y-64404341D01*
X171649999Y-64404341D01*
X171414596Y-64424936D01*
X171414586Y-64424938D01*
X171186344Y-64486094D01*
X171186335Y-64486098D01*
X170972171Y-64585964D01*
X170972169Y-64585965D01*
X170778597Y-64721505D01*
X170611505Y-64888597D01*
X170475965Y-65082169D01*
X170475964Y-65082171D01*
X170376098Y-65296335D01*
X170376094Y-65296344D01*
X170314938Y-65524586D01*
X170314936Y-65524596D01*
X170294341Y-65759999D01*
X170294341Y-65760002D01*
X170298755Y-65810458D01*
X170284988Y-65878958D01*
X170262908Y-65908946D01*
X170053673Y-66118182D01*
X169992353Y-66151666D01*
X169965994Y-66154500D01*
X169701230Y-66154500D01*
X169634191Y-66134815D01*
X169588436Y-66082011D01*
X169578492Y-66012853D01*
X169607517Y-65949297D01*
X169613549Y-65942819D01*
X169647422Y-65908946D01*
X169707712Y-65848656D01*
X169799814Y-65699334D01*
X169854999Y-65532797D01*
X169865500Y-65430009D01*
X169865499Y-64829992D01*
X169860064Y-64776791D01*
X169854999Y-64727203D01*
X169854998Y-64727200D01*
X169821343Y-64625636D01*
X169799814Y-64560666D01*
X169707712Y-64411344D01*
X169583656Y-64287288D01*
X169434334Y-64195186D01*
X169267797Y-64140001D01*
X169267795Y-64140000D01*
X169165016Y-64129500D01*
X169165009Y-64129500D01*
X168577646Y-64129500D01*
X168510607Y-64109815D01*
X168492762Y-64095892D01*
X168456776Y-64062099D01*
X168453977Y-64059386D01*
X168434477Y-64039885D01*
X168434471Y-64039880D01*
X168431286Y-64037409D01*
X168422434Y-64029848D01*
X168390582Y-63999938D01*
X168390580Y-63999936D01*
X168390577Y-63999935D01*
X168373029Y-63990288D01*
X168356763Y-63979604D01*
X168340932Y-63967324D01*
X168300849Y-63949978D01*
X168290363Y-63944841D01*
X168252094Y-63923803D01*
X168252092Y-63923802D01*
X168232693Y-63918822D01*
X168214281Y-63912518D01*
X168195898Y-63904562D01*
X168195892Y-63904560D01*
X168152760Y-63897729D01*
X168141322Y-63895361D01*
X168099020Y-63884500D01*
X168099019Y-63884500D01*
X168078984Y-63884500D01*
X168059586Y-63882973D01*
X168052162Y-63881797D01*
X168039805Y-63879840D01*
X168039804Y-63879840D01*
X167996325Y-63883950D01*
X167984656Y-63884500D01*
X167345150Y-63884500D01*
X167278111Y-63864815D01*
X167232356Y-63812011D01*
X167231595Y-63810311D01*
X167224175Y-63793396D01*
X167088166Y-63585217D01*
X167053022Y-63547041D01*
X166919744Y-63402262D01*
X166723509Y-63249526D01*
X166723507Y-63249525D01*
X166723506Y-63249524D01*
X166504811Y-63131172D01*
X166504802Y-63131169D01*
X166269616Y-63050429D01*
X166024335Y-63009500D01*
X165775665Y-63009500D01*
X165530383Y-63050429D01*
X165295197Y-63131169D01*
X165295188Y-63131172D01*
X165076493Y-63249524D01*
X164880257Y-63402261D01*
X164711833Y-63585217D01*
X164575826Y-63793393D01*
X164475936Y-64021118D01*
X164414892Y-64262175D01*
X164414890Y-64262187D01*
X164394357Y-64509994D01*
X164394357Y-64510005D01*
X164414890Y-64757812D01*
X164414892Y-64757824D01*
X164475936Y-64998881D01*
X164575826Y-65226606D01*
X164711833Y-65434782D01*
X164711836Y-65434785D01*
X164880256Y-65617738D01*
X164985093Y-65699336D01*
X165063036Y-65760002D01*
X165076491Y-65770474D01*
X165179525Y-65826233D01*
X165209517Y-65842464D01*
X165259108Y-65891683D01*
X165274500Y-65951519D01*
X165274500Y-69568479D01*
X165254815Y-69635518D01*
X165209519Y-69677533D01*
X165076496Y-69749522D01*
X165076494Y-69749523D01*
X164880257Y-69902261D01*
X164711833Y-70085217D01*
X164575826Y-70293393D01*
X164475936Y-70521118D01*
X164414892Y-70762175D01*
X164414890Y-70762187D01*
X164394357Y-71009994D01*
X164394357Y-71010005D01*
X164414890Y-71257812D01*
X164414892Y-71257824D01*
X164475936Y-71498881D01*
X164575826Y-71726606D01*
X164711833Y-71934782D01*
X164711836Y-71934785D01*
X164880256Y-72117738D01*
X164972244Y-72189335D01*
X165076488Y-72270472D01*
X165076493Y-72270475D01*
X165209517Y-72342464D01*
X165259108Y-72391683D01*
X165274500Y-72451519D01*
X165274500Y-72994551D01*
X165254815Y-73061590D01*
X165202011Y-73107345D01*
X165189507Y-73112256D01*
X165180667Y-73115185D01*
X165031345Y-73207287D01*
X164937327Y-73301305D01*
X164876003Y-73334789D01*
X164806312Y-73329805D01*
X164761965Y-73301304D01*
X164668345Y-73207684D01*
X164519124Y-73115643D01*
X164519119Y-73115641D01*
X164352697Y-73060494D01*
X164352690Y-73060493D01*
X164249986Y-73050000D01*
X164187500Y-73050000D01*
X164187500Y-74376000D01*
X164167815Y-74443039D01*
X164115011Y-74488794D01*
X164063500Y-74500000D01*
X162925001Y-74500000D01*
X162925001Y-74749986D01*
X162935494Y-74852697D01*
X162990641Y-75019119D01*
X162990643Y-75019124D01*
X163082684Y-75168345D01*
X163206654Y-75292315D01*
X163355875Y-75384356D01*
X163355882Y-75384359D01*
X163456231Y-75417611D01*
X163513676Y-75457383D01*
X163540500Y-75521899D01*
X163528185Y-75590675D01*
X163504909Y-75622998D01*
X162593511Y-76534397D01*
X162532188Y-76567882D01*
X162492581Y-76570006D01*
X162489614Y-76569687D01*
X162487873Y-76569500D01*
X162487872Y-76569500D01*
X160692129Y-76569500D01*
X160692123Y-76569501D01*
X160632516Y-76575908D01*
X160497671Y-76626202D01*
X160497664Y-76626206D01*
X160382455Y-76712452D01*
X160382452Y-76712455D01*
X160296206Y-76827664D01*
X160296202Y-76827671D01*
X160245908Y-76962517D01*
X160239501Y-77022116D01*
X160239500Y-77022135D01*
X160239500Y-78817870D01*
X160239501Y-78817880D01*
X160240007Y-78822586D01*
X160227595Y-78891345D01*
X160204397Y-78923511D01*
X156286208Y-82841699D01*
X156273951Y-82851520D01*
X156274134Y-82851741D01*
X156268122Y-82856714D01*
X156222098Y-82905723D01*
X156219391Y-82908516D01*
X156199889Y-82928017D01*
X156199875Y-82928034D01*
X156197407Y-82931215D01*
X156189843Y-82940070D01*
X156159937Y-82971918D01*
X156159936Y-82971920D01*
X156150284Y-82989476D01*
X156139610Y-83005726D01*
X156127329Y-83021561D01*
X156127324Y-83021568D01*
X156109975Y-83061658D01*
X156104838Y-83072144D01*
X156083803Y-83110406D01*
X156078822Y-83129807D01*
X156072521Y-83148210D01*
X156064562Y-83166602D01*
X156064561Y-83166605D01*
X156057728Y-83209743D01*
X156055360Y-83221174D01*
X156044501Y-83263471D01*
X156044500Y-83263482D01*
X156044500Y-83283516D01*
X156042973Y-83302915D01*
X156039840Y-83322694D01*
X156039840Y-83322695D01*
X156043950Y-83366174D01*
X156044500Y-83377843D01*
X156044500Y-88499547D01*
X156024815Y-88566586D01*
X156008181Y-88587228D01*
X155932180Y-88663229D01*
X155870857Y-88696714D01*
X155801165Y-88691730D01*
X155745232Y-88649858D01*
X155720815Y-88584394D01*
X155720499Y-88575548D01*
X155720499Y-87362129D01*
X155720498Y-87362123D01*
X155714091Y-87302516D01*
X155663797Y-87167671D01*
X155663793Y-87167664D01*
X155577547Y-87052455D01*
X155577544Y-87052452D01*
X155462335Y-86966206D01*
X155462328Y-86966202D01*
X155320215Y-86913198D01*
X155321173Y-86910627D01*
X155271835Y-86882523D01*
X155239458Y-86820608D01*
X155245694Y-86751017D01*
X155288564Y-86695845D01*
X155321917Y-86678778D01*
X155382504Y-86658613D01*
X155503543Y-86580825D01*
X155556347Y-86535070D01*
X155650567Y-86426336D01*
X155710338Y-86295459D01*
X155730023Y-86228420D01*
X155730024Y-86228416D01*
X155750500Y-86086000D01*
X155750500Y-75634000D01*
X155738947Y-75526544D01*
X155727741Y-75475033D01*
X155727637Y-75474722D01*
X155693616Y-75372502D01*
X155693613Y-75372496D01*
X155615828Y-75251462D01*
X155615825Y-75251457D01*
X155615820Y-75251451D01*
X155570076Y-75198659D01*
X155570072Y-75198656D01*
X155570070Y-75198653D01*
X155461336Y-75104433D01*
X155461333Y-75104431D01*
X155461331Y-75104430D01*
X155330465Y-75044664D01*
X155330460Y-75044662D01*
X155330459Y-75044662D01*
X155263420Y-75024977D01*
X155263422Y-75024977D01*
X155263417Y-75024976D01*
X155201347Y-75016052D01*
X155121000Y-75004500D01*
X143169000Y-75004500D01*
X143168991Y-75004500D01*
X143168990Y-75004501D01*
X143061549Y-75016052D01*
X143061537Y-75016054D01*
X143010027Y-75027260D01*
X142907502Y-75061383D01*
X142907496Y-75061386D01*
X142786462Y-75139171D01*
X142786451Y-75139179D01*
X142733659Y-75184923D01*
X142639433Y-75293664D01*
X142639430Y-75293668D01*
X142579664Y-75424534D01*
X142559976Y-75491582D01*
X142554949Y-75526549D01*
X142539500Y-75634000D01*
X142539500Y-86086000D01*
X142539501Y-86086009D01*
X142551052Y-86193450D01*
X142551054Y-86193462D01*
X142562260Y-86244972D01*
X142596383Y-86347497D01*
X142596386Y-86347503D01*
X142674171Y-86468537D01*
X142674179Y-86468548D01*
X142719923Y-86521340D01*
X142719926Y-86521343D01*
X142719930Y-86521347D01*
X142828664Y-86615567D01*
X142828667Y-86615568D01*
X142828668Y-86615569D01*
X142900501Y-86648375D01*
X142959541Y-86675338D01*
X143026580Y-86695023D01*
X143026584Y-86695024D01*
X143169000Y-86715500D01*
X143169003Y-86715500D01*
X147960500Y-86715500D01*
X148027539Y-86735185D01*
X148073294Y-86787989D01*
X148084500Y-86839500D01*
X148084500Y-94560547D01*
X148064815Y-94627586D01*
X148012011Y-94673341D01*
X147942853Y-94683285D01*
X147879297Y-94654260D01*
X147872819Y-94648228D01*
X133121819Y-79897228D01*
X133088334Y-79835905D01*
X133085500Y-79809547D01*
X133085500Y-72920007D01*
X154824671Y-72920007D01*
X154843964Y-73214363D01*
X154843965Y-73214373D01*
X154843966Y-73214380D01*
X154896975Y-73480880D01*
X154901518Y-73503716D01*
X154901521Y-73503730D01*
X154996349Y-73783080D01*
X155126825Y-74047660D01*
X155126829Y-74047667D01*
X155290725Y-74292955D01*
X155485241Y-74514758D01*
X155707043Y-74709273D01*
X155952335Y-74873172D01*
X156216923Y-75003652D01*
X156496278Y-75098481D01*
X156785620Y-75156034D01*
X156813888Y-75157886D01*
X157079993Y-75175329D01*
X157080000Y-75175329D01*
X157080007Y-75175329D01*
X157315675Y-75159881D01*
X157374380Y-75156034D01*
X157663722Y-75098481D01*
X157943077Y-75003652D01*
X158207665Y-74873172D01*
X158452957Y-74709273D01*
X158674758Y-74514758D01*
X158869273Y-74292957D01*
X159033172Y-74047665D01*
X159056678Y-74000000D01*
X162925000Y-74000000D01*
X163687500Y-74000000D01*
X163687500Y-73050000D01*
X163687499Y-73049999D01*
X163625028Y-73050000D01*
X163625011Y-73050001D01*
X163522302Y-73060494D01*
X163355880Y-73115641D01*
X163355875Y-73115643D01*
X163206654Y-73207684D01*
X163082684Y-73331654D01*
X162990643Y-73480875D01*
X162990641Y-73480880D01*
X162935494Y-73647302D01*
X162935493Y-73647309D01*
X162925000Y-73750013D01*
X162925000Y-74000000D01*
X159056678Y-74000000D01*
X159163652Y-73783077D01*
X159258481Y-73503722D01*
X159316034Y-73214380D01*
X159326049Y-73061590D01*
X159335329Y-72920007D01*
X159335329Y-72919992D01*
X159316035Y-72625636D01*
X159316034Y-72625620D01*
X159258481Y-72336278D01*
X159163652Y-72056923D01*
X159033172Y-71792336D01*
X159014476Y-71764356D01*
X158925036Y-71630499D01*
X158869273Y-71547043D01*
X158797774Y-71465514D01*
X158674758Y-71325241D01*
X158452955Y-71130725D01*
X158272285Y-71010005D01*
X159894357Y-71010005D01*
X159914890Y-71257812D01*
X159914892Y-71257824D01*
X159975936Y-71498881D01*
X160075826Y-71726606D01*
X160211833Y-71934782D01*
X160211836Y-71934785D01*
X160380256Y-72117738D01*
X160576491Y-72270474D01*
X160608935Y-72288032D01*
X160787155Y-72384480D01*
X160795190Y-72388828D01*
X161030386Y-72469571D01*
X161275665Y-72510500D01*
X161524335Y-72510500D01*
X161769614Y-72469571D01*
X162004810Y-72388828D01*
X162223509Y-72270474D01*
X162419744Y-72117738D01*
X162588164Y-71934785D01*
X162724173Y-71726607D01*
X162824063Y-71498881D01*
X162885108Y-71257821D01*
X162887190Y-71232697D01*
X162905643Y-71010005D01*
X162905643Y-71009994D01*
X162885109Y-70762187D01*
X162885107Y-70762175D01*
X162824063Y-70521118D01*
X162724173Y-70293393D01*
X162588166Y-70085217D01*
X162529940Y-70021967D01*
X162419744Y-69902262D01*
X162223509Y-69749526D01*
X162223507Y-69749525D01*
X162223506Y-69749524D01*
X162004811Y-69631172D01*
X162004802Y-69631169D01*
X161769616Y-69550429D01*
X161524335Y-69509500D01*
X161275665Y-69509500D01*
X161030383Y-69550429D01*
X160795197Y-69631169D01*
X160795188Y-69631172D01*
X160576493Y-69749524D01*
X160380257Y-69902261D01*
X160211833Y-70085217D01*
X160075826Y-70293393D01*
X159975936Y-70521118D01*
X159914892Y-70762175D01*
X159914890Y-70762187D01*
X159894357Y-71009994D01*
X159894357Y-71010005D01*
X158272285Y-71010005D01*
X158207667Y-70966829D01*
X158207660Y-70966825D01*
X157943080Y-70836349D01*
X157663730Y-70741521D01*
X157663724Y-70741519D01*
X157663722Y-70741519D01*
X157374380Y-70683966D01*
X157374373Y-70683965D01*
X157374363Y-70683964D01*
X157080007Y-70664671D01*
X157079993Y-70664671D01*
X156785636Y-70683964D01*
X156785624Y-70683965D01*
X156785620Y-70683966D01*
X156785612Y-70683967D01*
X156785609Y-70683968D01*
X156496283Y-70741518D01*
X156496269Y-70741521D01*
X156216919Y-70836349D01*
X155952334Y-70966828D01*
X155707041Y-71130728D01*
X155485241Y-71325241D01*
X155290728Y-71547041D01*
X155126828Y-71792334D01*
X154996349Y-72056919D01*
X154901521Y-72336269D01*
X154901518Y-72336283D01*
X154843968Y-72625609D01*
X154843964Y-72625636D01*
X154824671Y-72919992D01*
X154824671Y-72920007D01*
X133085500Y-72920007D01*
X133085500Y-72629572D01*
X133105185Y-72562533D01*
X133157989Y-72516778D01*
X133177407Y-72509797D01*
X133196821Y-72504595D01*
X133218493Y-72498789D01*
X133218493Y-72498788D01*
X133218496Y-72498788D01*
X133311267Y-72451519D01*
X133391837Y-72410467D01*
X133391838Y-72410465D01*
X133391840Y-72410465D01*
X133543032Y-72288032D01*
X133633635Y-72176145D01*
X133691121Y-72136436D01*
X133760952Y-72134108D01*
X133820956Y-72169903D01*
X133826353Y-72176133D01*
X133916968Y-72288032D01*
X134068160Y-72410465D01*
X134241504Y-72498788D01*
X134429422Y-72549141D01*
X134510222Y-72555500D01*
X134510230Y-72555500D01*
X135489770Y-72555500D01*
X135489778Y-72555500D01*
X135570578Y-72549141D01*
X135758496Y-72498788D01*
X135931840Y-72410465D01*
X136083032Y-72288032D01*
X136205465Y-72136840D01*
X136293788Y-71963496D01*
X136344141Y-71775578D01*
X136350500Y-71694778D01*
X136350500Y-70615222D01*
X136344141Y-70534422D01*
X136293788Y-70346504D01*
X136205465Y-70173160D01*
X136083032Y-70021968D01*
X136032891Y-69981364D01*
X135993181Y-69923879D01*
X135990853Y-69854048D01*
X136026648Y-69794044D01*
X136032881Y-69788643D01*
X136083032Y-69748032D01*
X136205465Y-69596840D01*
X136293788Y-69423496D01*
X136344141Y-69235578D01*
X136350500Y-69154778D01*
X136350500Y-69130005D01*
X140084556Y-69130005D01*
X140104310Y-69444004D01*
X140104311Y-69444011D01*
X140110150Y-69474619D01*
X140163267Y-69753069D01*
X140163270Y-69753082D01*
X140260497Y-70052316D01*
X140260499Y-70052321D01*
X140394461Y-70337003D01*
X140394464Y-70337009D01*
X140563051Y-70602661D01*
X140563054Y-70602665D01*
X140763606Y-70845090D01*
X140763608Y-70845092D01*
X140763610Y-70845094D01*
X140959450Y-71029000D01*
X140992968Y-71060476D01*
X140992978Y-71060484D01*
X141247504Y-71245408D01*
X141247509Y-71245410D01*
X141247516Y-71245416D01*
X141523234Y-71396994D01*
X141523239Y-71396996D01*
X141523241Y-71396997D01*
X141523242Y-71396998D01*
X141815771Y-71512818D01*
X141815774Y-71512819D01*
X142077241Y-71579952D01*
X142120527Y-71591066D01*
X142186010Y-71599338D01*
X142432670Y-71630499D01*
X142432679Y-71630499D01*
X142432682Y-71630500D01*
X142432684Y-71630500D01*
X142747316Y-71630500D01*
X142747318Y-71630500D01*
X142747321Y-71630499D01*
X142747329Y-71630499D01*
X142933593Y-71606968D01*
X143059473Y-71591066D01*
X143364225Y-71512819D01*
X143364228Y-71512818D01*
X143656757Y-71396998D01*
X143656758Y-71396997D01*
X143656756Y-71396997D01*
X143656766Y-71396994D01*
X143932484Y-71245416D01*
X144187030Y-71060478D01*
X144416390Y-70845094D01*
X144616947Y-70602663D01*
X144785537Y-70337007D01*
X144919503Y-70052315D01*
X145016731Y-69753079D01*
X145075688Y-69444015D01*
X145076979Y-69423495D01*
X145095444Y-69130005D01*
X145095444Y-69129994D01*
X145075689Y-68815995D01*
X145075688Y-68815988D01*
X145075688Y-68815985D01*
X145016731Y-68506921D01*
X144919503Y-68207685D01*
X144785537Y-67922993D01*
X144616947Y-67657337D01*
X144616945Y-67657334D01*
X144416393Y-67414909D01*
X144416391Y-67414907D01*
X144209752Y-67220859D01*
X144187030Y-67199522D01*
X144187027Y-67199520D01*
X144187021Y-67199515D01*
X143932495Y-67014591D01*
X143932488Y-67014586D01*
X143932484Y-67014584D01*
X143656766Y-66863006D01*
X143656763Y-66863004D01*
X143656758Y-66863002D01*
X143656757Y-66863001D01*
X143364228Y-66747181D01*
X143364225Y-66747180D01*
X143059476Y-66668934D01*
X143059463Y-66668932D01*
X142747329Y-66629500D01*
X142747318Y-66629500D01*
X142432682Y-66629500D01*
X142432670Y-66629500D01*
X142120536Y-66668932D01*
X142120523Y-66668934D01*
X141815774Y-66747180D01*
X141815771Y-66747181D01*
X141523242Y-66863001D01*
X141523241Y-66863002D01*
X141247516Y-67014584D01*
X141247504Y-67014591D01*
X140992978Y-67199515D01*
X140992968Y-67199523D01*
X140763608Y-67414907D01*
X140763606Y-67414909D01*
X140563054Y-67657334D01*
X140563051Y-67657338D01*
X140394464Y-67922990D01*
X140394461Y-67922996D01*
X140260499Y-68207678D01*
X140260497Y-68207683D01*
X140163270Y-68506916D01*
X140104311Y-68815988D01*
X140104310Y-68815995D01*
X140084556Y-69129994D01*
X140084556Y-69130005D01*
X136350500Y-69130005D01*
X136350500Y-68075222D01*
X136344141Y-67994422D01*
X136293788Y-67806504D01*
X136205465Y-67633160D01*
X136083032Y-67481968D01*
X135931840Y-67359535D01*
X135758496Y-67271212D01*
X135570578Y-67220859D01*
X135570577Y-67220858D01*
X135570574Y-67220858D01*
X135489783Y-67214500D01*
X135489778Y-67214500D01*
X134510222Y-67214500D01*
X134510216Y-67214500D01*
X134429425Y-67220858D01*
X134241504Y-67271212D01*
X134068161Y-67359534D01*
X133916968Y-67481968D01*
X133826366Y-67593852D01*
X133768879Y-67633563D01*
X133699048Y-67635891D01*
X133639044Y-67600095D01*
X133633634Y-67593852D01*
X133631405Y-67591100D01*
X133543032Y-67481968D01*
X133391840Y-67359535D01*
X133218496Y-67271212D01*
X133030578Y-67220859D01*
X133030577Y-67220858D01*
X133030574Y-67220858D01*
X132949783Y-67214500D01*
X132949778Y-67214500D01*
X131970222Y-67214500D01*
X131970216Y-67214500D01*
X131889425Y-67220858D01*
X131701504Y-67271212D01*
X131528161Y-67359534D01*
X131376968Y-67481968D01*
X131286366Y-67593852D01*
X131228879Y-67633563D01*
X131159048Y-67635891D01*
X131099044Y-67600095D01*
X131093634Y-67593852D01*
X131091405Y-67591100D01*
X131003032Y-67481968D01*
X130851840Y-67359535D01*
X130678496Y-67271212D01*
X130490578Y-67220859D01*
X130490577Y-67220858D01*
X130490574Y-67220858D01*
X130409783Y-67214500D01*
X130409778Y-67214500D01*
X129430222Y-67214500D01*
X129430216Y-67214500D01*
X129349425Y-67220858D01*
X129161504Y-67271212D01*
X128988161Y-67359534D01*
X128836968Y-67481968D01*
X128746366Y-67593852D01*
X128688879Y-67633563D01*
X128619048Y-67635891D01*
X128559044Y-67600095D01*
X128553634Y-67593852D01*
X128551405Y-67591100D01*
X128463032Y-67481968D01*
X128311840Y-67359535D01*
X128138496Y-67271212D01*
X127950578Y-67220859D01*
X127950577Y-67220858D01*
X127950574Y-67220858D01*
X127869783Y-67214500D01*
X127869778Y-67214500D01*
X126890222Y-67214500D01*
X126890216Y-67214500D01*
X126809425Y-67220858D01*
X126621504Y-67271212D01*
X126448161Y-67359534D01*
X126296968Y-67481968D01*
X126174534Y-67633161D01*
X126086211Y-67806505D01*
X126078218Y-67836337D01*
X126050442Y-67940000D01*
X126044388Y-67962593D01*
X126008023Y-68022254D01*
X125945176Y-68052783D01*
X125924613Y-68054500D01*
X125395664Y-68054500D01*
X125330568Y-68036039D01*
X125264340Y-67995189D01*
X125264335Y-67995187D01*
X125264334Y-67995186D01*
X125097797Y-67940001D01*
X125097795Y-67940000D01*
X124995010Y-67929500D01*
X123944998Y-67929500D01*
X123944980Y-67929501D01*
X123842203Y-67940000D01*
X123842200Y-67940001D01*
X123675668Y-67995185D01*
X123675663Y-67995187D01*
X123526342Y-68087289D01*
X123402289Y-68211342D01*
X123310187Y-68360663D01*
X123310186Y-68360666D01*
X123255001Y-68527203D01*
X123255001Y-68527204D01*
X123255000Y-68527204D01*
X123244500Y-68629983D01*
X123244500Y-69230001D01*
X123244501Y-69230019D01*
X123255000Y-69332796D01*
X123255001Y-69332799D01*
X123310185Y-69499331D01*
X123310187Y-69499336D01*
X123312801Y-69503574D01*
X123402288Y-69648656D01*
X123526344Y-69772712D01*
X123529628Y-69774737D01*
X123529653Y-69774753D01*
X123531445Y-69776746D01*
X123532011Y-69777193D01*
X123531934Y-69777289D01*
X123576379Y-69826699D01*
X123587603Y-69895661D01*
X123559761Y-69959744D01*
X123529665Y-69985826D01*
X123526660Y-69987679D01*
X123526655Y-69987683D01*
X123402684Y-70111654D01*
X123310643Y-70260875D01*
X123310641Y-70260880D01*
X123255494Y-70427302D01*
X123255493Y-70427309D01*
X123245000Y-70530013D01*
X123245000Y-70580000D01*
X125694999Y-70580000D01*
X125694999Y-70530028D01*
X125694998Y-70530013D01*
X125684505Y-70427302D01*
X125629358Y-70260880D01*
X125629356Y-70260875D01*
X125537315Y-70111654D01*
X125442842Y-70017181D01*
X125409357Y-69955858D01*
X125414341Y-69886166D01*
X125456213Y-69830233D01*
X125521677Y-69805816D01*
X125530523Y-69805500D01*
X125994192Y-69805500D01*
X126061231Y-69825185D01*
X126106986Y-69877989D01*
X126116930Y-69947147D01*
X126093460Y-70003810D01*
X126086646Y-70012911D01*
X126086645Y-70012913D01*
X126036403Y-70147620D01*
X126036401Y-70147627D01*
X126030000Y-70207155D01*
X126030000Y-70905000D01*
X126946314Y-70905000D01*
X126920507Y-70945156D01*
X126880000Y-71083111D01*
X126880000Y-71226889D01*
X126920507Y-71364844D01*
X126946314Y-71405000D01*
X126030000Y-71405000D01*
X126030000Y-72102844D01*
X126036401Y-72162372D01*
X126036403Y-72162379D01*
X126086645Y-72297086D01*
X126086649Y-72297093D01*
X126172809Y-72412187D01*
X126172812Y-72412190D01*
X126287906Y-72498350D01*
X126287913Y-72498354D01*
X126422620Y-72548596D01*
X126422627Y-72548598D01*
X126482155Y-72554999D01*
X126482172Y-72555000D01*
X127130000Y-72555000D01*
X127130000Y-71590501D01*
X127237685Y-71639680D01*
X127344237Y-71655000D01*
X127415763Y-71655000D01*
X127522315Y-71639680D01*
X127630000Y-71590501D01*
X127630000Y-72509046D01*
X127610315Y-72576085D01*
X127593681Y-72596727D01*
X120771208Y-79419199D01*
X120758951Y-79429020D01*
X120759134Y-79429241D01*
X120753122Y-79434214D01*
X120707098Y-79483223D01*
X120704391Y-79486016D01*
X120684889Y-79505517D01*
X120684875Y-79505534D01*
X120682407Y-79508715D01*
X120674843Y-79517570D01*
X120644937Y-79549418D01*
X120644936Y-79549420D01*
X120635284Y-79566976D01*
X120624610Y-79583226D01*
X120612329Y-79599061D01*
X120612324Y-79599068D01*
X120594975Y-79639158D01*
X120589838Y-79649644D01*
X120568803Y-79687906D01*
X120563822Y-79707307D01*
X120557521Y-79725710D01*
X120549562Y-79744102D01*
X120549561Y-79744105D01*
X120542728Y-79787243D01*
X120540360Y-79798674D01*
X120529501Y-79840971D01*
X120529500Y-79840982D01*
X120529500Y-79861016D01*
X120527973Y-79880415D01*
X120524840Y-79900194D01*
X120524840Y-79900195D01*
X120528950Y-79943674D01*
X120529500Y-79955343D01*
X120529500Y-101246638D01*
X120517500Y-101287505D01*
X120517500Y-102636000D01*
X120497815Y-102703039D01*
X120445011Y-102748794D01*
X120393500Y-102760000D01*
X119255001Y-102760000D01*
X119255001Y-103009986D01*
X119265494Y-103112697D01*
X119320641Y-103279119D01*
X119320643Y-103279124D01*
X119412684Y-103428345D01*
X119536654Y-103552315D01*
X119685875Y-103644356D01*
X119685880Y-103644358D01*
X119852302Y-103699505D01*
X119852310Y-103699506D01*
X119898210Y-103704196D01*
X119962902Y-103730592D01*
X120003054Y-103787773D01*
X120005917Y-103857584D01*
X119970583Y-103917861D01*
X119908270Y-103949466D01*
X119904717Y-103949976D01*
X119902307Y-103950492D01*
X119735880Y-104005641D01*
X119735875Y-104005643D01*
X119586654Y-104097684D01*
X119462684Y-104221654D01*
X119370643Y-104370875D01*
X119370641Y-104370880D01*
X119315494Y-104537302D01*
X119315493Y-104537309D01*
X119305000Y-104640013D01*
X119305000Y-104890000D01*
X120443500Y-104890000D01*
X120510539Y-104909685D01*
X120556294Y-104962489D01*
X120567500Y-105014000D01*
X120567500Y-106306138D01*
X120547815Y-106373177D01*
X120540000Y-106382875D01*
X120540000Y-108834999D01*
X120589972Y-108834999D01*
X120589986Y-108834998D01*
X120692697Y-108824505D01*
X120859119Y-108769358D01*
X120859124Y-108769356D01*
X121008345Y-108677315D01*
X121132318Y-108553342D01*
X121134165Y-108550348D01*
X121135969Y-108548724D01*
X121136798Y-108547677D01*
X121136976Y-108547818D01*
X121186110Y-108503621D01*
X121255073Y-108492396D01*
X121319156Y-108520236D01*
X121345243Y-108550341D01*
X121347288Y-108553656D01*
X121471344Y-108677712D01*
X121620666Y-108769814D01*
X121787203Y-108824999D01*
X121889991Y-108835500D01*
X122490008Y-108835499D01*
X122490016Y-108835498D01*
X122490019Y-108835498D01*
X122573815Y-108826938D01*
X122592797Y-108824999D01*
X122759334Y-108769814D01*
X122908656Y-108677712D01*
X123032712Y-108553656D01*
X123081596Y-108474402D01*
X123133543Y-108427679D01*
X123187134Y-108415500D01*
X123387995Y-108415500D01*
X123455034Y-108435185D01*
X123479225Y-108455517D01*
X123588218Y-108573915D01*
X123588222Y-108573918D01*
X123771365Y-108716464D01*
X123771371Y-108716468D01*
X123771374Y-108716470D01*
X123975497Y-108826936D01*
X124089487Y-108866068D01*
X124195015Y-108902297D01*
X124195017Y-108902297D01*
X124195019Y-108902298D01*
X124423951Y-108940500D01*
X124423952Y-108940500D01*
X124656048Y-108940500D01*
X124656049Y-108940500D01*
X124884981Y-108902298D01*
X125104503Y-108826936D01*
X125308626Y-108716470D01*
X125358423Y-108677712D01*
X125473714Y-108587977D01*
X125491784Y-108573913D01*
X125648979Y-108403153D01*
X125706191Y-108315582D01*
X125759337Y-108270226D01*
X125828568Y-108260802D01*
X125891904Y-108290304D01*
X125913809Y-108315583D01*
X125971016Y-108403147D01*
X125971019Y-108403151D01*
X125971021Y-108403153D01*
X126128216Y-108573913D01*
X126128219Y-108573915D01*
X126128222Y-108573918D01*
X126311365Y-108716464D01*
X126311371Y-108716468D01*
X126311374Y-108716470D01*
X126515497Y-108826936D01*
X126629487Y-108866068D01*
X126735015Y-108902297D01*
X126735017Y-108902297D01*
X126735019Y-108902298D01*
X126963951Y-108940500D01*
X126963952Y-108940500D01*
X127196048Y-108940500D01*
X127196049Y-108940500D01*
X127424981Y-108902298D01*
X127644503Y-108826936D01*
X127848626Y-108716470D01*
X127898423Y-108677712D01*
X128013714Y-108587977D01*
X128031784Y-108573913D01*
X128188979Y-108403153D01*
X128315924Y-108208849D01*
X128409157Y-107996300D01*
X128466134Y-107771305D01*
X128478184Y-107625880D01*
X128485300Y-107540006D01*
X128485300Y-107539993D01*
X128466135Y-107308702D01*
X128466133Y-107308691D01*
X128409157Y-107083699D01*
X128315924Y-106871151D01*
X128188983Y-106676852D01*
X128188980Y-106676849D01*
X128188979Y-106676847D01*
X128031784Y-106506087D01*
X127854180Y-106367853D01*
X127813368Y-106311143D01*
X127809693Y-106241370D01*
X127844324Y-106180687D01*
X127854181Y-106172146D01*
X127862462Y-106165701D01*
X128031784Y-106033913D01*
X128188979Y-105863153D01*
X128262707Y-105750304D01*
X128307542Y-105681679D01*
X128360689Y-105636322D01*
X128411351Y-105625500D01*
X142543840Y-105625500D01*
X142610879Y-105645185D01*
X142645415Y-105678377D01*
X142659954Y-105699141D01*
X142820858Y-105860045D01*
X142820861Y-105860047D01*
X143007266Y-105990568D01*
X143213504Y-106086739D01*
X143433308Y-106145635D01*
X143595230Y-106159801D01*
X143659998Y-106165468D01*
X143660000Y-106165468D01*
X143660002Y-106165468D01*
X143716673Y-106160509D01*
X143886692Y-106145635D01*
X144106496Y-106086739D01*
X144312734Y-105990568D01*
X144499139Y-105860047D01*
X144660047Y-105699139D01*
X144790568Y-105512734D01*
X144886739Y-105306496D01*
X144945635Y-105086692D01*
X144965468Y-104860000D01*
X144945635Y-104633308D01*
X144930438Y-104576591D01*
X144932101Y-104506744D01*
X144971263Y-104448881D01*
X145035492Y-104421377D01*
X145050213Y-104420500D01*
X146435500Y-104420500D01*
X146502539Y-104440185D01*
X146548294Y-104492989D01*
X146559500Y-104544500D01*
X146559500Y-105593370D01*
X146559501Y-105593376D01*
X146565908Y-105652983D01*
X146616202Y-105787828D01*
X146616206Y-105787835D01*
X146702452Y-105903044D01*
X146702455Y-105903047D01*
X146817664Y-105989293D01*
X146817671Y-105989297D01*
X146821079Y-105990568D01*
X146952517Y-106039591D01*
X147012127Y-106046000D01*
X147407872Y-106045999D01*
X147407873Y-106045998D01*
X147407885Y-106045998D01*
X147446744Y-106041820D01*
X147473252Y-106041820D01*
X147512127Y-106046000D01*
X147907872Y-106045999D01*
X147907873Y-106045998D01*
X147907885Y-106045998D01*
X147946744Y-106041820D01*
X147973252Y-106041820D01*
X148012127Y-106046000D01*
X148407872Y-106045999D01*
X148407873Y-106045998D01*
X148407885Y-106045998D01*
X148446744Y-106041820D01*
X148473252Y-106041820D01*
X148512127Y-106046000D01*
X148907872Y-106045999D01*
X148907873Y-106045998D01*
X148907885Y-106045998D01*
X148946744Y-106041820D01*
X148973335Y-106041828D01*
X148973842Y-106041883D01*
X149038373Y-106068666D01*
X149078182Y-106126086D01*
X149084500Y-106165163D01*
X149084500Y-106899529D01*
X149082775Y-106915146D01*
X149083061Y-106915173D01*
X149082326Y-106922939D01*
X149084439Y-106990146D01*
X149084500Y-106994041D01*
X149084500Y-107021631D01*
X149085003Y-107025609D01*
X149085918Y-107037241D01*
X149087290Y-107080898D01*
X149087291Y-107080901D01*
X149092880Y-107100141D01*
X149096824Y-107119185D01*
X149098805Y-107134862D01*
X149099336Y-107139066D01*
X149115414Y-107179677D01*
X149119197Y-107190726D01*
X149131381Y-107232662D01*
X149141580Y-107249908D01*
X149150138Y-107267377D01*
X149157514Y-107286006D01*
X149183181Y-107321334D01*
X149189593Y-107331095D01*
X149211828Y-107368691D01*
X149211833Y-107368698D01*
X149225990Y-107382854D01*
X149238628Y-107397650D01*
X149250405Y-107413860D01*
X149250406Y-107413861D01*
X149284057Y-107441699D01*
X149292698Y-107449562D01*
X167232181Y-125389045D01*
X167265666Y-125450368D01*
X167268500Y-125476726D01*
X167268500Y-130296773D01*
X167248815Y-130363812D01*
X167215623Y-130398348D01*
X167022597Y-130533505D01*
X166855505Y-130700597D01*
X166725575Y-130886158D01*
X166670998Y-130929783D01*
X166601500Y-130936977D01*
X166539145Y-130905454D01*
X166522425Y-130886158D01*
X166392494Y-130700597D01*
X166225402Y-130533506D01*
X166225395Y-130533501D01*
X166031834Y-130397967D01*
X166031830Y-130397965D01*
X165979500Y-130373563D01*
X165817663Y-130298097D01*
X165817659Y-130298096D01*
X165817655Y-130298094D01*
X165589413Y-130236938D01*
X165589403Y-130236936D01*
X165354001Y-130216341D01*
X165353999Y-130216341D01*
X165118596Y-130236936D01*
X165118586Y-130236938D01*
X164890344Y-130298094D01*
X164890335Y-130298098D01*
X164676171Y-130397964D01*
X164676169Y-130397965D01*
X164482597Y-130533505D01*
X164315508Y-130700594D01*
X164185269Y-130886595D01*
X164130692Y-130930219D01*
X164061193Y-130937412D01*
X163998839Y-130905890D01*
X163982119Y-130886594D01*
X163852113Y-130700926D01*
X163852108Y-130700920D01*
X163685082Y-130533894D01*
X163491578Y-130398399D01*
X163277492Y-130298570D01*
X163277486Y-130298567D01*
X163064000Y-130241364D01*
X163064000Y-131136498D01*
X162956315Y-131087320D01*
X162849763Y-131072000D01*
X162778237Y-131072000D01*
X162671685Y-131087320D01*
X162564000Y-131136498D01*
X162564000Y-130241364D01*
X162563999Y-130241364D01*
X162350513Y-130298567D01*
X162350507Y-130298570D01*
X162136422Y-130398399D01*
X162136420Y-130398400D01*
X161942926Y-130533886D01*
X161942920Y-130533891D01*
X161775891Y-130700920D01*
X161775886Y-130700926D01*
X161640400Y-130894420D01*
X161640399Y-130894422D01*
X161540570Y-131108507D01*
X161540567Y-131108513D01*
X161483364Y-131321999D01*
X161483364Y-131322000D01*
X162380314Y-131322000D01*
X162354507Y-131362156D01*
X162314000Y-131500111D01*
X162314000Y-131643889D01*
X162354507Y-131781844D01*
X162380314Y-131822000D01*
X161483364Y-131822000D01*
X161540567Y-132035486D01*
X161540570Y-132035492D01*
X161640399Y-132249578D01*
X161775894Y-132443082D01*
X161897946Y-132565134D01*
X161931431Y-132626457D01*
X161926447Y-132696149D01*
X161884575Y-132752082D01*
X161853598Y-132768997D01*
X161721671Y-132818202D01*
X161721664Y-132818206D01*
X161606455Y-132904452D01*
X161606452Y-132904455D01*
X161520206Y-133019664D01*
X161520202Y-133019671D01*
X161469908Y-133154517D01*
X161463501Y-133214116D01*
X161463500Y-133214135D01*
X161463500Y-133362500D01*
X161443815Y-133429539D01*
X161391011Y-133475294D01*
X161339500Y-133486500D01*
X160330452Y-133486500D01*
X160263413Y-133466815D01*
X160242771Y-133450181D01*
X160136818Y-133344228D01*
X160103333Y-133282905D01*
X160100499Y-133256547D01*
X160100499Y-132198129D01*
X160100498Y-132198123D01*
X160100497Y-132198116D01*
X160094091Y-132138517D01*
X160064984Y-132060478D01*
X160043797Y-132003671D01*
X160043793Y-132003664D01*
X159957547Y-131888455D01*
X159957544Y-131888452D01*
X159842335Y-131802206D01*
X159842328Y-131802202D01*
X159707482Y-131751908D01*
X159707483Y-131751908D01*
X159647883Y-131745501D01*
X159647881Y-131745500D01*
X159647873Y-131745500D01*
X159647864Y-131745500D01*
X157852129Y-131745500D01*
X157852123Y-131745501D01*
X157792516Y-131751908D01*
X157657671Y-131802202D01*
X157657664Y-131802206D01*
X157542455Y-131888452D01*
X157542452Y-131888455D01*
X157456206Y-132003664D01*
X157456202Y-132003671D01*
X157405908Y-132138517D01*
X157399501Y-132198116D01*
X157399501Y-132198123D01*
X157399500Y-132198135D01*
X157399500Y-133993870D01*
X157399501Y-133993876D01*
X157405908Y-134053483D01*
X157456202Y-134188328D01*
X157456206Y-134188335D01*
X157542452Y-134303544D01*
X157542455Y-134303547D01*
X157657664Y-134389793D01*
X157657671Y-134389797D01*
X157792517Y-134440091D01*
X157792516Y-134440091D01*
X157799444Y-134440835D01*
X157852127Y-134446500D01*
X159418546Y-134446499D01*
X159485585Y-134466184D01*
X159506227Y-134482818D01*
X159519197Y-134495788D01*
X159529022Y-134508051D01*
X159529243Y-134507869D01*
X159534211Y-134513874D01*
X159583222Y-134559899D01*
X159586021Y-134562612D01*
X159605522Y-134582114D01*
X159605526Y-134582117D01*
X159605529Y-134582120D01*
X159608702Y-134584581D01*
X159617574Y-134592159D01*
X159649418Y-134622062D01*
X159666976Y-134631714D01*
X159683233Y-134642393D01*
X159699064Y-134654673D01*
X159728803Y-134667542D01*
X159739152Y-134672021D01*
X159749641Y-134677160D01*
X159773457Y-134690252D01*
X159787908Y-134698197D01*
X159800523Y-134701435D01*
X159807305Y-134703177D01*
X159825719Y-134709481D01*
X159844104Y-134717438D01*
X159887261Y-134724273D01*
X159898656Y-134726632D01*
X159940981Y-134737500D01*
X159961016Y-134737500D01*
X159980413Y-134739026D01*
X160000196Y-134742160D01*
X160043675Y-134738050D01*
X160055344Y-134737500D01*
X161339501Y-134737500D01*
X161406540Y-134757185D01*
X161452295Y-134809989D01*
X161463501Y-134861500D01*
X161463501Y-135009876D01*
X161469908Y-135069483D01*
X161520202Y-135204328D01*
X161520206Y-135204335D01*
X161606452Y-135319544D01*
X161606455Y-135319547D01*
X161721664Y-135405793D01*
X161721671Y-135405797D01*
X161766618Y-135422561D01*
X161856517Y-135456091D01*
X161916127Y-135462500D01*
X162526547Y-135462499D01*
X162593586Y-135482183D01*
X162614228Y-135498818D01*
X163299194Y-136183784D01*
X163309019Y-136196048D01*
X163309240Y-136195866D01*
X163314210Y-136201874D01*
X163363239Y-136247915D01*
X163366036Y-136250626D01*
X163385530Y-136270120D01*
X163388695Y-136272575D01*
X163397571Y-136280156D01*
X163429418Y-136310062D01*
X163429422Y-136310064D01*
X163446973Y-136319713D01*
X163463231Y-136330392D01*
X163479064Y-136342674D01*
X163514410Y-136357968D01*
X163519155Y-136360022D01*
X163529635Y-136365155D01*
X163567908Y-136386197D01*
X163587312Y-136391179D01*
X163605710Y-136397478D01*
X163624105Y-136405438D01*
X163667254Y-136412271D01*
X163678680Y-136414638D01*
X163720981Y-136425500D01*
X163741016Y-136425500D01*
X163760413Y-136427026D01*
X163780196Y-136430160D01*
X163823675Y-136426050D01*
X163835344Y-136425500D01*
X168417257Y-136425500D01*
X168432877Y-136427224D01*
X168432904Y-136426939D01*
X168440660Y-136427671D01*
X168440667Y-136427673D01*
X168507873Y-136425561D01*
X168511768Y-136425500D01*
X168539346Y-136425500D01*
X168539350Y-136425500D01*
X168543324Y-136424997D01*
X168554963Y-136424080D01*
X168598627Y-136422709D01*
X168617869Y-136417117D01*
X168636912Y-136413174D01*
X168656792Y-136410664D01*
X168697401Y-136394585D01*
X168708444Y-136390803D01*
X168750390Y-136378618D01*
X168767629Y-136368422D01*
X168785103Y-136359862D01*
X168803727Y-136352488D01*
X168803727Y-136352487D01*
X168803732Y-136352486D01*
X168839083Y-136326800D01*
X168848814Y-136320408D01*
X168886420Y-136298170D01*
X168900589Y-136283999D01*
X168915379Y-136271368D01*
X168931587Y-136259594D01*
X168959438Y-136225926D01*
X168967279Y-136217309D01*
X169515848Y-135668741D01*
X169528103Y-135658925D01*
X169527920Y-135658703D01*
X169533929Y-135653730D01*
X169533938Y-135653725D01*
X169580010Y-135604661D01*
X169582627Y-135601962D01*
X169602181Y-135582410D01*
X169604637Y-135579242D01*
X169612217Y-135570366D01*
X169642123Y-135538521D01*
X169651774Y-135520963D01*
X169662457Y-135504700D01*
X169674734Y-135488875D01*
X169692082Y-135448783D01*
X169697212Y-135438310D01*
X169718258Y-135400031D01*
X169718258Y-135400027D01*
X169719975Y-135396906D01*
X169769522Y-135347643D01*
X169837837Y-135332987D01*
X169881038Y-135344262D01*
X169970337Y-135385903D01*
X169970342Y-135385904D01*
X169970344Y-135385905D01*
X170004478Y-135395051D01*
X170198592Y-135447063D01*
X170375034Y-135462500D01*
X170433999Y-135467659D01*
X170434000Y-135467659D01*
X170434001Y-135467659D01*
X170492966Y-135462500D01*
X170669408Y-135447063D01*
X170897663Y-135385903D01*
X171111830Y-135286035D01*
X171305401Y-135150495D01*
X171472495Y-134983401D01*
X171608035Y-134789830D01*
X171707903Y-134575663D01*
X171769063Y-134347408D01*
X171789659Y-134112000D01*
X171784128Y-134048786D01*
X171797894Y-133980287D01*
X171846509Y-133930104D01*
X171914537Y-133914170D01*
X171967395Y-133929318D01*
X171979902Y-133936194D01*
X171979904Y-133936195D01*
X171979908Y-133936197D01*
X171999312Y-133941179D01*
X172017710Y-133947478D01*
X172036105Y-133955438D01*
X172079254Y-133962271D01*
X172090680Y-133964638D01*
X172132981Y-133975500D01*
X172153016Y-133975500D01*
X172172413Y-133977026D01*
X172192196Y-133980160D01*
X172235675Y-133976050D01*
X172247344Y-133975500D01*
X172769501Y-133975500D01*
X172836540Y-133995185D01*
X172882295Y-134047989D01*
X172893501Y-134099500D01*
X172893501Y-134247876D01*
X172899908Y-134307483D01*
X172950202Y-134442328D01*
X172950206Y-134442335D01*
X173036452Y-134557544D01*
X173036455Y-134557547D01*
X173151664Y-134643793D01*
X173151671Y-134643797D01*
X173286517Y-134694091D01*
X173286516Y-134694091D01*
X173293444Y-134694835D01*
X173346127Y-134700500D01*
X175141872Y-134700499D01*
X175201483Y-134694091D01*
X175336331Y-134643796D01*
X175451546Y-134557546D01*
X175537796Y-134442331D01*
X175588091Y-134307483D01*
X175594500Y-134247873D01*
X175594499Y-132452128D01*
X175588091Y-132392517D01*
X175572606Y-132351000D01*
X175537797Y-132257671D01*
X175537793Y-132257664D01*
X175451547Y-132142455D01*
X175451544Y-132142452D01*
X175336335Y-132056206D01*
X175336328Y-132056202D01*
X175201482Y-132005908D01*
X175201483Y-132005908D01*
X175141883Y-131999501D01*
X175141881Y-131999500D01*
X175141873Y-131999500D01*
X175141864Y-131999500D01*
X173346129Y-131999500D01*
X173346123Y-131999501D01*
X173286516Y-132005908D01*
X173151671Y-132056202D01*
X173151664Y-132056206D01*
X173036455Y-132142452D01*
X173036452Y-132142455D01*
X172950206Y-132257664D01*
X172950202Y-132257671D01*
X172899908Y-132392517D01*
X172894438Y-132443400D01*
X172893501Y-132452123D01*
X172893500Y-132452135D01*
X172893500Y-132600500D01*
X172873815Y-132667539D01*
X172821011Y-132713294D01*
X172769500Y-132724500D01*
X172522452Y-132724500D01*
X172455413Y-132704815D01*
X172434771Y-132688181D01*
X171774237Y-132027647D01*
X171740752Y-131966324D01*
X171742143Y-131907872D01*
X171747346Y-131888455D01*
X171769063Y-131807408D01*
X171789659Y-131572000D01*
X171769063Y-131336592D01*
X171707903Y-131108337D01*
X171608035Y-130894171D01*
X171602731Y-130886595D01*
X171472494Y-130700597D01*
X171305402Y-130533506D01*
X171305401Y-130533505D01*
X171172093Y-130440161D01*
X171112376Y-130398347D01*
X171068751Y-130343770D01*
X171059500Y-130296772D01*
X171059500Y-127606538D01*
X171079185Y-127539499D01*
X171131989Y-127493744D01*
X171201147Y-127483800D01*
X171264703Y-127512825D01*
X171271180Y-127518856D01*
X175088909Y-131336586D01*
X178901111Y-135148788D01*
X178910936Y-135161051D01*
X178911157Y-135160869D01*
X178916125Y-135166874D01*
X178965136Y-135212899D01*
X178967935Y-135215612D01*
X178987436Y-135235114D01*
X178987440Y-135235117D01*
X178987443Y-135235120D01*
X178990616Y-135237581D01*
X178999488Y-135245159D01*
X179031332Y-135275062D01*
X179048890Y-135284714D01*
X179065149Y-135295395D01*
X179080978Y-135307673D01*
X179121069Y-135325021D01*
X179131540Y-135330151D01*
X179136699Y-135332987D01*
X179169816Y-135351194D01*
X179169818Y-135351195D01*
X179169822Y-135351197D01*
X179189230Y-135356180D01*
X179207633Y-135362481D01*
X179226015Y-135370436D01*
X179226016Y-135370436D01*
X179226018Y-135370437D01*
X179269164Y-135377270D01*
X179280586Y-135379636D01*
X179322895Y-135390500D01*
X179322905Y-135390500D01*
X179329133Y-135391287D01*
X179393178Y-135419217D01*
X179415171Y-135443187D01*
X179515329Y-135586228D01*
X179515334Y-135586234D01*
X179673765Y-135744665D01*
X179673771Y-135744670D01*
X179857299Y-135873178D01*
X179857301Y-135873179D01*
X179857304Y-135873181D01*
X180060370Y-135967872D01*
X180276794Y-136025863D01*
X180425819Y-136038901D01*
X180499998Y-136045391D01*
X180500000Y-136045391D01*
X180500002Y-136045391D01*
X180574158Y-136038903D01*
X180723206Y-136025863D01*
X180939630Y-135967872D01*
X181142696Y-135873181D01*
X181167104Y-135856089D01*
X181264455Y-135787925D01*
X181330661Y-135765598D01*
X181335578Y-135765500D01*
X186039242Y-135765500D01*
X186106281Y-135785185D01*
X186126923Y-135801819D01*
X186128599Y-135803495D01*
X186225384Y-135871265D01*
X186322165Y-135939032D01*
X186322167Y-135939033D01*
X186322170Y-135939035D01*
X186536337Y-136038903D01*
X186536343Y-136038904D01*
X186536344Y-136038905D01*
X186569045Y-136047667D01*
X186764592Y-136100063D01*
X186952918Y-136116539D01*
X186999999Y-136120659D01*
X187000000Y-136120659D01*
X187000001Y-136120659D01*
X187039234Y-136117226D01*
X187235408Y-136100063D01*
X187463663Y-136038903D01*
X187677830Y-135939035D01*
X187871401Y-135803495D01*
X188038495Y-135636401D01*
X188174035Y-135442830D01*
X188273903Y-135228663D01*
X188335063Y-135000408D01*
X188355659Y-134765000D01*
X188337022Y-134551985D01*
X188350788Y-134483486D01*
X188372866Y-134453500D01*
X189067819Y-133758548D01*
X189129142Y-133725063D01*
X189198834Y-133730047D01*
X189254767Y-133771919D01*
X189279184Y-133837383D01*
X189279500Y-133846229D01*
X189279500Y-136995500D01*
X189259815Y-137062539D01*
X189207011Y-137108294D01*
X189155500Y-137119500D01*
X116239968Y-137119500D01*
X116172929Y-137099815D01*
X116127174Y-137047011D01*
X116117230Y-136977853D01*
X116146255Y-136914297D01*
X116185124Y-136884288D01*
X116186897Y-136883413D01*
X116207665Y-136873172D01*
X116452957Y-136709273D01*
X116674758Y-136514758D01*
X116869273Y-136292957D01*
X117033172Y-136047665D01*
X117163652Y-135783077D01*
X117258481Y-135503722D01*
X117316034Y-135214380D01*
X117329438Y-135009876D01*
X117335329Y-134920007D01*
X117335329Y-134919992D01*
X117317225Y-134643793D01*
X117316034Y-134625620D01*
X117258481Y-134336278D01*
X117163652Y-134056923D01*
X117033172Y-133792336D01*
X116869273Y-133547043D01*
X116822875Y-133494136D01*
X116674758Y-133325241D01*
X116452955Y-133130725D01*
X116207667Y-132966829D01*
X116207660Y-132966825D01*
X115943080Y-132836349D01*
X115663730Y-132741521D01*
X115663724Y-132741519D01*
X115663722Y-132741519D01*
X115374380Y-132683966D01*
X115374373Y-132683965D01*
X115374363Y-132683964D01*
X115080007Y-132664671D01*
X115079993Y-132664671D01*
X114785636Y-132683964D01*
X114785624Y-132683965D01*
X114785620Y-132683966D01*
X114785612Y-132683967D01*
X114785609Y-132683968D01*
X114496283Y-132741518D01*
X114496269Y-132741521D01*
X114216919Y-132836349D01*
X113952334Y-132966828D01*
X113707041Y-133130728D01*
X113485241Y-133325241D01*
X113290728Y-133547041D01*
X113126828Y-133792334D01*
X112996349Y-134056919D01*
X112901521Y-134336269D01*
X112901518Y-134336283D01*
X112843968Y-134625609D01*
X112843964Y-134625636D01*
X112824671Y-134919992D01*
X112824671Y-134920007D01*
X112843964Y-135214363D01*
X112843965Y-135214373D01*
X112843966Y-135214380D01*
X112893319Y-135462499D01*
X112901518Y-135503716D01*
X112901521Y-135503730D01*
X112996349Y-135783080D01*
X113126825Y-136047660D01*
X113126829Y-136047667D01*
X113290725Y-136292955D01*
X113485241Y-136514758D01*
X113707044Y-136709274D01*
X113952332Y-136873170D01*
X113952339Y-136873174D01*
X113974876Y-136884288D01*
X114026295Y-136931593D01*
X114043977Y-136999188D01*
X114022307Y-137065613D01*
X113968166Y-137109777D01*
X113920032Y-137119500D01*
X110004500Y-137119500D01*
X109937461Y-137099815D01*
X109891706Y-137047011D01*
X109880500Y-136995500D01*
X109880500Y-130130005D01*
X117084556Y-130130005D01*
X117104310Y-130444004D01*
X117104311Y-130444011D01*
X117104312Y-130444015D01*
X117162872Y-130751000D01*
X117163270Y-130753083D01*
X117260497Y-131052316D01*
X117260499Y-131052321D01*
X117394461Y-131337003D01*
X117394464Y-131337009D01*
X117563051Y-131602661D01*
X117563054Y-131602665D01*
X117763606Y-131845090D01*
X117763608Y-131845092D01*
X117763610Y-131845094D01*
X117932470Y-132003664D01*
X117992968Y-132060476D01*
X117992978Y-132060484D01*
X118247504Y-132245408D01*
X118247509Y-132245410D01*
X118247516Y-132245416D01*
X118523234Y-132396994D01*
X118523239Y-132396996D01*
X118523241Y-132396997D01*
X118523242Y-132396998D01*
X118815771Y-132512818D01*
X118815774Y-132512819D01*
X119120523Y-132591065D01*
X119120527Y-132591066D01*
X119138916Y-132593389D01*
X119432670Y-132630499D01*
X119432679Y-132630499D01*
X119432682Y-132630500D01*
X119432684Y-132630500D01*
X119747316Y-132630500D01*
X119747318Y-132630500D01*
X119747321Y-132630499D01*
X119747329Y-132630499D01*
X119933593Y-132606968D01*
X120059473Y-132591066D01*
X120364225Y-132512819D01*
X120364228Y-132512818D01*
X120656757Y-132396998D01*
X120656758Y-132396997D01*
X120656756Y-132396997D01*
X120656766Y-132396994D01*
X120932484Y-132245416D01*
X121187030Y-132060478D01*
X121416390Y-131845094D01*
X121616947Y-131602663D01*
X121785537Y-131337007D01*
X121919503Y-131052315D01*
X122016731Y-130753079D01*
X122075688Y-130444015D01*
X122075689Y-130444004D01*
X122095444Y-130130005D01*
X140084556Y-130130005D01*
X140104310Y-130444004D01*
X140104311Y-130444011D01*
X140104312Y-130444015D01*
X140162872Y-130751000D01*
X140163270Y-130753083D01*
X140260497Y-131052316D01*
X140260499Y-131052321D01*
X140394461Y-131337003D01*
X140394464Y-131337009D01*
X140563051Y-131602661D01*
X140563054Y-131602665D01*
X140763606Y-131845090D01*
X140763608Y-131845092D01*
X140763610Y-131845094D01*
X140932470Y-132003664D01*
X140992968Y-132060476D01*
X140992978Y-132060484D01*
X141247504Y-132245408D01*
X141247509Y-132245410D01*
X141247516Y-132245416D01*
X141523234Y-132396994D01*
X141523239Y-132396996D01*
X141523241Y-132396997D01*
X141523242Y-132396998D01*
X141815771Y-132512818D01*
X141815774Y-132512819D01*
X142120523Y-132591065D01*
X142120527Y-132591066D01*
X142138916Y-132593389D01*
X142432670Y-132630499D01*
X142432679Y-132630499D01*
X142432682Y-132630500D01*
X142432684Y-132630500D01*
X142747316Y-132630500D01*
X142747318Y-132630500D01*
X142747321Y-132630499D01*
X142747329Y-132630499D01*
X142933593Y-132606968D01*
X143059473Y-132591066D01*
X143364225Y-132512819D01*
X143364228Y-132512818D01*
X143656757Y-132396998D01*
X143656758Y-132396997D01*
X143656756Y-132396997D01*
X143656766Y-132396994D01*
X143932484Y-132245416D01*
X144187030Y-132060478D01*
X144416390Y-131845094D01*
X144616947Y-131602663D01*
X144785537Y-131337007D01*
X144919503Y-131052315D01*
X145016731Y-130753079D01*
X145075688Y-130444015D01*
X145075689Y-130444004D01*
X145095444Y-130130005D01*
X145095444Y-130129994D01*
X145075689Y-129815995D01*
X145075688Y-129815988D01*
X145075688Y-129815985D01*
X145016731Y-129506921D01*
X144919503Y-129207685D01*
X144907524Y-129182229D01*
X144790607Y-128933768D01*
X144785537Y-128922993D01*
X144691830Y-128775334D01*
X144616948Y-128657338D01*
X144616945Y-128657334D01*
X144416393Y-128414909D01*
X144416391Y-128414907D01*
X144195573Y-128207544D01*
X144187030Y-128199522D01*
X144187027Y-128199520D01*
X144187021Y-128199515D01*
X143932495Y-128014591D01*
X143932488Y-128014586D01*
X143932484Y-128014584D01*
X143656766Y-127863006D01*
X143656763Y-127863004D01*
X143656758Y-127863002D01*
X143656757Y-127863001D01*
X143364228Y-127747181D01*
X143364225Y-127747180D01*
X143059476Y-127668934D01*
X143059463Y-127668932D01*
X142747329Y-127629500D01*
X142747318Y-127629500D01*
X142432682Y-127629500D01*
X142432670Y-127629500D01*
X142120536Y-127668932D01*
X142120523Y-127668934D01*
X141815774Y-127747180D01*
X141815771Y-127747181D01*
X141523242Y-127863001D01*
X141523241Y-127863002D01*
X141247516Y-128014584D01*
X141247504Y-128014591D01*
X140992978Y-128199515D01*
X140992968Y-128199523D01*
X140763608Y-128414907D01*
X140763606Y-128414909D01*
X140563054Y-128657334D01*
X140563051Y-128657338D01*
X140394464Y-128922990D01*
X140394461Y-128922996D01*
X140260499Y-129207678D01*
X140260497Y-129207683D01*
X140163270Y-129506916D01*
X140104311Y-129815988D01*
X140104310Y-129815995D01*
X140084556Y-130129994D01*
X140084556Y-130130005D01*
X122095444Y-130130005D01*
X122095444Y-130129994D01*
X122075689Y-129815995D01*
X122075688Y-129815988D01*
X122075688Y-129815985D01*
X122016731Y-129506921D01*
X121919503Y-129207685D01*
X121907524Y-129182229D01*
X121790607Y-128933768D01*
X121785537Y-128922993D01*
X121691830Y-128775334D01*
X121616948Y-128657338D01*
X121616945Y-128657334D01*
X121416393Y-128414909D01*
X121416391Y-128414907D01*
X121195573Y-128207544D01*
X121187030Y-128199522D01*
X121187027Y-128199520D01*
X121187021Y-128199515D01*
X120932495Y-128014591D01*
X120932488Y-128014586D01*
X120932484Y-128014584D01*
X120656766Y-127863006D01*
X120656763Y-127863004D01*
X120656758Y-127863002D01*
X120656757Y-127863001D01*
X120364228Y-127747181D01*
X120364225Y-127747180D01*
X120059476Y-127668934D01*
X120059463Y-127668932D01*
X119747329Y-127629500D01*
X119747318Y-127629500D01*
X119432682Y-127629500D01*
X119432670Y-127629500D01*
X119120536Y-127668932D01*
X119120523Y-127668934D01*
X118815774Y-127747180D01*
X118815771Y-127747181D01*
X118523242Y-127863001D01*
X118523241Y-127863002D01*
X118247516Y-128014584D01*
X118247504Y-128014591D01*
X117992978Y-128199515D01*
X117992968Y-128199523D01*
X117763608Y-128414907D01*
X117763606Y-128414909D01*
X117563054Y-128657334D01*
X117563051Y-128657338D01*
X117394464Y-128922990D01*
X117394461Y-128922996D01*
X117260499Y-129207678D01*
X117260497Y-129207683D01*
X117163270Y-129506916D01*
X117104311Y-129815988D01*
X117104310Y-129815995D01*
X117084556Y-130129994D01*
X117084556Y-130130005D01*
X109880500Y-130130005D01*
X109880500Y-126920007D01*
X154824671Y-126920007D01*
X154843964Y-127214363D01*
X154843965Y-127214373D01*
X154843966Y-127214380D01*
X154876777Y-127379336D01*
X154901518Y-127503716D01*
X154901521Y-127503730D01*
X154996349Y-127783080D01*
X155126825Y-128047660D01*
X155126829Y-128047667D01*
X155290725Y-128292955D01*
X155485241Y-128514758D01*
X155707044Y-128709274D01*
X155805910Y-128775334D01*
X155952335Y-128873172D01*
X156216923Y-129003652D01*
X156496278Y-129098481D01*
X156785620Y-129156034D01*
X156813888Y-129157886D01*
X157079993Y-129175329D01*
X157080000Y-129175329D01*
X157080007Y-129175329D01*
X157315675Y-129159881D01*
X157374380Y-129156034D01*
X157663722Y-129098481D01*
X157943077Y-129003652D01*
X158031595Y-128960000D01*
X161425001Y-128960000D01*
X161425001Y-129009986D01*
X161435494Y-129112697D01*
X161490641Y-129279119D01*
X161490643Y-129279124D01*
X161582684Y-129428345D01*
X161706654Y-129552315D01*
X161855875Y-129644356D01*
X161855880Y-129644358D01*
X162022302Y-129699505D01*
X162022309Y-129699506D01*
X162125019Y-129709999D01*
X162399999Y-129709999D01*
X162400000Y-129709998D01*
X162400000Y-128960000D01*
X162900000Y-128960000D01*
X162900000Y-129709999D01*
X163174972Y-129709999D01*
X163174986Y-129709998D01*
X163277697Y-129699505D01*
X163444119Y-129644358D01*
X163444124Y-129644356D01*
X163593345Y-129552315D01*
X163717315Y-129428345D01*
X163809356Y-129279124D01*
X163809358Y-129279119D01*
X163864505Y-129112697D01*
X163864506Y-129112690D01*
X163874999Y-129009986D01*
X163875000Y-129009973D01*
X163875000Y-128960000D01*
X162900000Y-128960000D01*
X162400000Y-128960000D01*
X161425001Y-128960000D01*
X158031595Y-128960000D01*
X158207665Y-128873172D01*
X158452957Y-128709273D01*
X158674758Y-128514758D01*
X158869273Y-128292957D01*
X159033172Y-128047665D01*
X159163652Y-127783077D01*
X159258481Y-127503722D01*
X159316034Y-127214380D01*
X159322874Y-127110019D01*
X159335329Y-126920007D01*
X159335329Y-126919992D01*
X159316035Y-126625636D01*
X159316034Y-126625620D01*
X159258481Y-126336278D01*
X159163652Y-126056923D01*
X159033172Y-125792336D01*
X158869273Y-125547043D01*
X158826655Y-125498447D01*
X158674758Y-125325241D01*
X158452955Y-125130725D01*
X158207667Y-124966829D01*
X158207660Y-124966825D01*
X157943080Y-124836349D01*
X157894921Y-124820001D01*
X161284532Y-124820001D01*
X161304364Y-125046686D01*
X161304366Y-125046697D01*
X161363258Y-125266488D01*
X161363261Y-125266497D01*
X161459431Y-125472732D01*
X161459432Y-125472734D01*
X161589954Y-125659141D01*
X161714902Y-125784089D01*
X161748387Y-125845412D01*
X161743403Y-125915104D01*
X161710108Y-125960838D01*
X161711451Y-125962181D01*
X161582289Y-126091342D01*
X161490187Y-126240663D01*
X161490185Y-126240668D01*
X161482202Y-126264759D01*
X161435001Y-126407203D01*
X161435001Y-126407204D01*
X161435000Y-126407204D01*
X161424500Y-126509983D01*
X161424500Y-127110001D01*
X161424501Y-127110019D01*
X161435000Y-127212796D01*
X161435001Y-127212799D01*
X161490185Y-127379331D01*
X161490186Y-127379334D01*
X161582288Y-127528656D01*
X161706344Y-127652712D01*
X161709628Y-127654737D01*
X161709653Y-127654753D01*
X161711445Y-127656746D01*
X161712011Y-127657193D01*
X161711934Y-127657289D01*
X161756379Y-127706699D01*
X161767603Y-127775661D01*
X161739761Y-127839744D01*
X161709665Y-127865826D01*
X161706660Y-127867679D01*
X161706655Y-127867683D01*
X161582684Y-127991654D01*
X161490643Y-128140875D01*
X161490641Y-128140880D01*
X161435494Y-128307302D01*
X161435493Y-128307309D01*
X161425000Y-128410013D01*
X161425000Y-128460000D01*
X163874999Y-128460000D01*
X163874999Y-128410028D01*
X163874998Y-128410013D01*
X163864505Y-128307302D01*
X163809358Y-128140880D01*
X163809356Y-128140875D01*
X163717315Y-127991654D01*
X163593344Y-127867683D01*
X163593341Y-127867681D01*
X163590339Y-127865829D01*
X163588713Y-127864021D01*
X163587677Y-127863202D01*
X163587817Y-127863024D01*
X163543617Y-127813880D01*
X163532397Y-127744917D01*
X163560243Y-127680836D01*
X163590344Y-127654754D01*
X163593656Y-127652712D01*
X163717712Y-127528656D01*
X163809814Y-127379334D01*
X163864999Y-127212797D01*
X163875500Y-127110009D01*
X163875499Y-126509992D01*
X163872132Y-126477035D01*
X163864999Y-126407203D01*
X163864998Y-126407200D01*
X163841498Y-126336283D01*
X163809814Y-126240666D01*
X163717712Y-126091344D01*
X163593656Y-125967288D01*
X163593655Y-125967287D01*
X163584402Y-125961580D01*
X163537678Y-125909632D01*
X163525500Y-125856042D01*
X163525500Y-125775048D01*
X163545185Y-125708009D01*
X163561815Y-125687370D01*
X163590047Y-125659139D01*
X163720568Y-125472734D01*
X163816739Y-125266496D01*
X163875635Y-125046692D01*
X163895468Y-124820000D01*
X163875635Y-124593308D01*
X163816739Y-124373504D01*
X163720568Y-124167266D01*
X163590047Y-123980861D01*
X163590045Y-123980858D01*
X163429141Y-123819954D01*
X163242734Y-123689432D01*
X163242732Y-123689431D01*
X163036497Y-123593261D01*
X163036488Y-123593258D01*
X162816697Y-123534366D01*
X162816693Y-123534365D01*
X162816692Y-123534365D01*
X162816691Y-123534364D01*
X162816686Y-123534364D01*
X162590002Y-123514532D01*
X162589998Y-123514532D01*
X162363313Y-123534364D01*
X162363302Y-123534366D01*
X162143511Y-123593258D01*
X162143502Y-123593261D01*
X161937267Y-123689431D01*
X161937265Y-123689432D01*
X161750858Y-123819954D01*
X161589954Y-123980858D01*
X161459432Y-124167265D01*
X161459431Y-124167267D01*
X161363261Y-124373502D01*
X161363258Y-124373511D01*
X161304366Y-124593302D01*
X161304364Y-124593313D01*
X161284532Y-124819998D01*
X161284532Y-124820001D01*
X157894921Y-124820001D01*
X157663730Y-124741521D01*
X157663724Y-124741519D01*
X157663722Y-124741519D01*
X157374380Y-124683966D01*
X157374373Y-124683965D01*
X157374363Y-124683964D01*
X157080007Y-124664671D01*
X157079993Y-124664671D01*
X156785636Y-124683964D01*
X156785624Y-124683965D01*
X156785620Y-124683966D01*
X156785612Y-124683967D01*
X156785609Y-124683968D01*
X156496283Y-124741518D01*
X156496269Y-124741521D01*
X156216919Y-124836349D01*
X155952334Y-124966828D01*
X155707041Y-125130728D01*
X155485241Y-125325241D01*
X155290728Y-125547041D01*
X155126828Y-125792334D01*
X154996349Y-126056919D01*
X154901521Y-126336269D01*
X154901518Y-126336283D01*
X154843968Y-126625609D01*
X154843964Y-126625636D01*
X154824671Y-126919992D01*
X154824671Y-126920007D01*
X109880500Y-126920007D01*
X109880500Y-107860000D01*
X119290001Y-107860000D01*
X119290001Y-108134986D01*
X119300494Y-108237697D01*
X119355641Y-108404119D01*
X119355643Y-108404124D01*
X119447684Y-108553345D01*
X119571654Y-108677315D01*
X119720875Y-108769356D01*
X119720880Y-108769358D01*
X119887302Y-108824505D01*
X119887309Y-108824506D01*
X119990019Y-108834999D01*
X120039999Y-108834998D01*
X120040000Y-108834998D01*
X120040000Y-107860000D01*
X119290001Y-107860000D01*
X109880500Y-107860000D01*
X109880500Y-107360000D01*
X119290000Y-107360000D01*
X120040000Y-107360000D01*
X120040000Y-106418861D01*
X120059685Y-106351822D01*
X120067500Y-106342123D01*
X120067500Y-105390000D01*
X119305001Y-105390000D01*
X119305001Y-105639986D01*
X119315494Y-105742697D01*
X119370641Y-105909119D01*
X119370643Y-105909124D01*
X119462684Y-106058345D01*
X119586654Y-106182315D01*
X119700173Y-106252334D01*
X119746897Y-106304282D01*
X119758120Y-106373245D01*
X119730276Y-106437327D01*
X119700174Y-106463411D01*
X119571656Y-106542682D01*
X119447684Y-106666654D01*
X119355643Y-106815875D01*
X119355641Y-106815880D01*
X119300494Y-106982302D01*
X119300493Y-106982309D01*
X119290000Y-107085013D01*
X119290000Y-107360000D01*
X109880500Y-107360000D01*
X109880500Y-106397870D01*
X113669500Y-106397870D01*
X113669501Y-106397876D01*
X113675908Y-106457483D01*
X113726202Y-106592328D01*
X113726206Y-106592335D01*
X113812452Y-106707544D01*
X113812455Y-106707547D01*
X113927664Y-106793793D01*
X113927671Y-106793797D01*
X114062517Y-106844091D01*
X114062516Y-106844091D01*
X114069444Y-106844835D01*
X114122127Y-106850500D01*
X115917872Y-106850499D01*
X115977483Y-106844091D01*
X116112331Y-106793796D01*
X116227546Y-106707546D01*
X116313796Y-106592331D01*
X116364091Y-106457483D01*
X116370500Y-106397873D01*
X116370499Y-104602128D01*
X116364091Y-104542517D01*
X116362749Y-104538920D01*
X116313797Y-104407671D01*
X116313793Y-104407664D01*
X116227547Y-104292455D01*
X116227544Y-104292452D01*
X116112335Y-104206206D01*
X116112328Y-104206202D01*
X115977482Y-104155908D01*
X115977483Y-104155908D01*
X115917883Y-104149501D01*
X115917881Y-104149500D01*
X115917873Y-104149500D01*
X115917864Y-104149500D01*
X114122129Y-104149500D01*
X114122123Y-104149501D01*
X114062516Y-104155908D01*
X113927671Y-104206202D01*
X113927664Y-104206206D01*
X113812455Y-104292452D01*
X113812452Y-104292455D01*
X113726206Y-104407664D01*
X113726202Y-104407671D01*
X113675908Y-104542517D01*
X113669675Y-104600500D01*
X113669501Y-104602123D01*
X113669500Y-104602135D01*
X113669500Y-106397870D01*
X109880500Y-106397870D01*
X109880500Y-102657870D01*
X113689500Y-102657870D01*
X113689501Y-102657876D01*
X113695908Y-102717483D01*
X113746202Y-102852328D01*
X113746206Y-102852335D01*
X113832452Y-102967544D01*
X113832455Y-102967547D01*
X113947664Y-103053793D01*
X113947671Y-103053797D01*
X114082517Y-103104091D01*
X114082516Y-103104091D01*
X114089444Y-103104835D01*
X114142127Y-103110500D01*
X115937872Y-103110499D01*
X115997483Y-103104091D01*
X116132331Y-103053796D01*
X116247546Y-102967546D01*
X116333796Y-102852331D01*
X116384091Y-102717483D01*
X116390500Y-102657873D01*
X116390500Y-102260000D01*
X119255000Y-102260000D01*
X120017500Y-102260000D01*
X120017500Y-101310000D01*
X120017499Y-101309999D01*
X119955028Y-101310000D01*
X119955011Y-101310001D01*
X119852302Y-101320494D01*
X119685880Y-101375641D01*
X119685875Y-101375643D01*
X119536654Y-101467684D01*
X119412684Y-101591654D01*
X119320643Y-101740875D01*
X119320641Y-101740880D01*
X119265494Y-101907302D01*
X119265493Y-101907309D01*
X119255000Y-102010013D01*
X119255000Y-102260000D01*
X116390500Y-102260000D01*
X116390499Y-100862128D01*
X116384091Y-100802517D01*
X116381737Y-100796206D01*
X116333797Y-100667671D01*
X116333793Y-100667664D01*
X116247547Y-100552455D01*
X116247544Y-100552452D01*
X116132335Y-100466206D01*
X116132328Y-100466202D01*
X115997482Y-100415908D01*
X115997483Y-100415908D01*
X115937883Y-100409501D01*
X115937881Y-100409500D01*
X115937873Y-100409500D01*
X115937864Y-100409500D01*
X114142129Y-100409500D01*
X114142123Y-100409501D01*
X114082516Y-100415908D01*
X113947671Y-100466202D01*
X113947664Y-100466206D01*
X113832455Y-100552452D01*
X113832452Y-100552455D01*
X113746206Y-100667664D01*
X113746202Y-100667671D01*
X113695908Y-100802517D01*
X113689999Y-100857486D01*
X113689501Y-100862123D01*
X113689500Y-100862135D01*
X113689500Y-102657870D01*
X109880500Y-102657870D01*
X109880500Y-93367870D01*
X111049500Y-93367870D01*
X111049501Y-93367876D01*
X111055908Y-93427483D01*
X111106202Y-93562328D01*
X111106206Y-93562335D01*
X111192452Y-93677544D01*
X111192455Y-93677547D01*
X111307664Y-93763793D01*
X111307671Y-93763797D01*
X111442517Y-93814091D01*
X111442516Y-93814091D01*
X111449444Y-93814835D01*
X111502127Y-93820500D01*
X113397872Y-93820499D01*
X113457483Y-93814091D01*
X113592331Y-93763796D01*
X113707546Y-93677546D01*
X113793796Y-93562331D01*
X113844091Y-93427483D01*
X113850500Y-93367873D01*
X113850499Y-93257304D01*
X113870183Y-93190268D01*
X113886818Y-93169626D01*
X114545549Y-92510895D01*
X114546327Y-92521265D01*
X114595887Y-92647541D01*
X114680465Y-92753599D01*
X114792547Y-92830016D01*
X114900299Y-92863253D01*
X114191201Y-93572351D01*
X114221649Y-93596050D01*
X114425697Y-93706476D01*
X114425706Y-93706479D01*
X114645139Y-93781811D01*
X114873993Y-93820000D01*
X115106007Y-93820000D01*
X115334860Y-93781811D01*
X115554293Y-93706479D01*
X115554301Y-93706476D01*
X115758355Y-93596047D01*
X115788797Y-93572351D01*
X115788798Y-93572350D01*
X115078232Y-92861784D01*
X115124138Y-92854865D01*
X115246357Y-92796007D01*
X115345798Y-92703740D01*
X115413625Y-92586260D01*
X115431499Y-92507946D01*
X116141186Y-93217633D01*
X116225482Y-93088611D01*
X116318682Y-92876135D01*
X116375638Y-92651218D01*
X116394798Y-92420005D01*
X116394798Y-92419994D01*
X116375638Y-92188781D01*
X116318682Y-91963864D01*
X116225484Y-91751393D01*
X116141186Y-91622365D01*
X115434449Y-92329102D01*
X115433673Y-92318735D01*
X115384113Y-92192459D01*
X115299535Y-92086401D01*
X115187453Y-92009984D01*
X115079699Y-91976746D01*
X115788797Y-91267647D01*
X115788797Y-91267645D01*
X115758360Y-91243955D01*
X115758354Y-91243951D01*
X115554302Y-91133523D01*
X115554293Y-91133520D01*
X115334860Y-91058188D01*
X115106007Y-91020000D01*
X114873993Y-91020000D01*
X114645139Y-91058188D01*
X114425706Y-91133520D01*
X114425697Y-91133523D01*
X114221650Y-91243949D01*
X114191200Y-91267647D01*
X114901769Y-91978215D01*
X114855862Y-91985135D01*
X114733643Y-92043993D01*
X114634202Y-92136260D01*
X114566375Y-92253740D01*
X114548500Y-92332054D01*
X113886818Y-91670372D01*
X113853333Y-91609049D01*
X113850499Y-91582691D01*
X113850499Y-91472129D01*
X113850498Y-91472123D01*
X113850497Y-91472116D01*
X113844091Y-91412517D01*
X113839693Y-91400726D01*
X113793797Y-91277671D01*
X113793793Y-91277664D01*
X113707547Y-91162455D01*
X113707544Y-91162452D01*
X113592335Y-91076206D01*
X113592328Y-91076202D01*
X113457482Y-91025908D01*
X113457483Y-91025908D01*
X113397883Y-91019501D01*
X113397881Y-91019500D01*
X113397873Y-91019500D01*
X113397865Y-91019500D01*
X113219500Y-91019500D01*
X113152461Y-90999815D01*
X113106706Y-90947011D01*
X113095500Y-90895500D01*
X113095500Y-90467016D01*
X113115185Y-90399977D01*
X113167989Y-90354222D01*
X113180488Y-90349313D01*
X113239334Y-90329814D01*
X113388656Y-90237712D01*
X113512712Y-90113656D01*
X113604814Y-89964334D01*
X113659999Y-89797797D01*
X113670500Y-89695009D01*
X113670499Y-89069992D01*
X113659999Y-88967203D01*
X113604814Y-88800666D01*
X113512712Y-88651344D01*
X113419049Y-88557681D01*
X113385564Y-88496358D01*
X113390548Y-88426666D01*
X113419049Y-88382319D01*
X113464796Y-88336572D01*
X113512712Y-88288656D01*
X113604814Y-88139334D01*
X113659999Y-87972797D01*
X113670500Y-87870009D01*
X113670499Y-87244992D01*
X113664237Y-87183695D01*
X113659999Y-87142203D01*
X113659998Y-87142200D01*
X113630258Y-87052452D01*
X113604814Y-86975666D01*
X113512712Y-86826344D01*
X113388656Y-86702288D01*
X113383549Y-86697181D01*
X113385435Y-86695294D01*
X113352212Y-86648375D01*
X113345500Y-86608132D01*
X113345500Y-86515048D01*
X113365185Y-86448009D01*
X113381820Y-86427366D01*
X113430046Y-86379140D01*
X113432304Y-86375915D01*
X113560568Y-86192734D01*
X113656739Y-85986496D01*
X113715635Y-85766692D01*
X113735468Y-85540000D01*
X113715635Y-85313308D01*
X113656739Y-85093504D01*
X113560568Y-84887266D01*
X113430047Y-84700861D01*
X113430045Y-84700858D01*
X113269141Y-84539954D01*
X113082734Y-84409432D01*
X113082732Y-84409431D01*
X112876497Y-84313261D01*
X112876488Y-84313258D01*
X112656697Y-84254366D01*
X112656693Y-84254365D01*
X112656692Y-84254365D01*
X112656691Y-84254364D01*
X112656686Y-84254364D01*
X112430002Y-84234532D01*
X112429998Y-84234532D01*
X112203313Y-84254364D01*
X112203302Y-84254366D01*
X111983511Y-84313258D01*
X111983502Y-84313261D01*
X111777267Y-84409431D01*
X111777265Y-84409432D01*
X111590858Y-84539954D01*
X111429954Y-84700858D01*
X111299432Y-84887265D01*
X111299431Y-84887267D01*
X111203261Y-85093502D01*
X111203258Y-85093511D01*
X111144366Y-85313302D01*
X111144364Y-85313313D01*
X111124532Y-85539998D01*
X111124532Y-85540001D01*
X111144364Y-85766686D01*
X111144366Y-85766697D01*
X111203258Y-85986488D01*
X111203261Y-85986497D01*
X111299431Y-86192732D01*
X111299432Y-86192734D01*
X111429954Y-86379141D01*
X111558181Y-86507368D01*
X111591666Y-86568691D01*
X111594500Y-86595049D01*
X111594500Y-86608132D01*
X111574815Y-86675171D01*
X111555616Y-86696346D01*
X111556451Y-86697181D01*
X111427289Y-86826342D01*
X111335187Y-86975663D01*
X111335186Y-86975666D01*
X111280001Y-87142203D01*
X111280001Y-87142204D01*
X111280000Y-87142204D01*
X111269500Y-87244983D01*
X111269500Y-87870001D01*
X111269501Y-87870019D01*
X111280000Y-87972796D01*
X111280001Y-87972799D01*
X111321393Y-88097710D01*
X111335186Y-88139334D01*
X111406837Y-88255500D01*
X111427289Y-88288657D01*
X111520951Y-88382319D01*
X111554436Y-88443642D01*
X111549452Y-88513334D01*
X111520951Y-88557681D01*
X111427289Y-88651342D01*
X111335187Y-88800663D01*
X111335186Y-88800666D01*
X111280001Y-88967203D01*
X111280001Y-88967204D01*
X111280000Y-88967204D01*
X111269500Y-89069983D01*
X111269500Y-89695001D01*
X111269501Y-89695019D01*
X111280000Y-89797796D01*
X111280001Y-89797799D01*
X111303922Y-89869986D01*
X111335186Y-89964334D01*
X111427288Y-90113656D01*
X111551344Y-90237712D01*
X111700666Y-90329814D01*
X111700668Y-90329815D01*
X111721110Y-90336588D01*
X111759502Y-90349310D01*
X111816947Y-90389081D01*
X111843772Y-90453596D01*
X111844500Y-90467016D01*
X111844500Y-90895500D01*
X111824815Y-90962539D01*
X111772011Y-91008294D01*
X111720501Y-91019500D01*
X111502130Y-91019500D01*
X111502123Y-91019501D01*
X111442516Y-91025908D01*
X111307671Y-91076202D01*
X111307664Y-91076206D01*
X111192455Y-91162452D01*
X111192452Y-91162455D01*
X111106206Y-91277664D01*
X111106202Y-91277671D01*
X111055908Y-91412517D01*
X111050872Y-91459365D01*
X111049501Y-91472123D01*
X111049500Y-91472135D01*
X111049500Y-93367870D01*
X109880500Y-93367870D01*
X109880500Y-69130005D01*
X117084556Y-69130005D01*
X117104310Y-69444004D01*
X117104311Y-69444011D01*
X117110150Y-69474619D01*
X117163267Y-69753069D01*
X117163270Y-69753082D01*
X117260497Y-70052316D01*
X117260499Y-70052321D01*
X117394461Y-70337003D01*
X117394464Y-70337009D01*
X117563051Y-70602661D01*
X117563054Y-70602665D01*
X117763606Y-70845090D01*
X117763608Y-70845092D01*
X117763610Y-70845094D01*
X117959450Y-71029000D01*
X117992968Y-71060476D01*
X117992978Y-71060484D01*
X118247504Y-71245408D01*
X118247509Y-71245410D01*
X118247516Y-71245416D01*
X118523234Y-71396994D01*
X118523239Y-71396996D01*
X118523241Y-71396997D01*
X118523242Y-71396998D01*
X118815771Y-71512818D01*
X118815774Y-71512819D01*
X119077241Y-71579952D01*
X119120527Y-71591066D01*
X119186010Y-71599338D01*
X119432670Y-71630499D01*
X119432679Y-71630499D01*
X119432682Y-71630500D01*
X119432684Y-71630500D01*
X119747316Y-71630500D01*
X119747318Y-71630500D01*
X119747321Y-71630499D01*
X119747329Y-71630499D01*
X119933593Y-71606968D01*
X120059473Y-71591066D01*
X120364225Y-71512819D01*
X120364228Y-71512818D01*
X120656757Y-71396998D01*
X120656758Y-71396997D01*
X120656756Y-71396997D01*
X120656766Y-71396994D01*
X120932484Y-71245416D01*
X121160160Y-71080000D01*
X123245001Y-71080000D01*
X123245001Y-71129986D01*
X123255494Y-71232697D01*
X123310641Y-71399119D01*
X123310643Y-71399124D01*
X123402684Y-71548345D01*
X123526654Y-71672315D01*
X123675875Y-71764356D01*
X123675880Y-71764358D01*
X123842302Y-71819505D01*
X123842309Y-71819506D01*
X123945019Y-71829999D01*
X124219999Y-71829999D01*
X124220000Y-71829998D01*
X124220000Y-71080000D01*
X124720000Y-71080000D01*
X124720000Y-71829999D01*
X124994972Y-71829999D01*
X124994986Y-71829998D01*
X125097697Y-71819505D01*
X125264119Y-71764358D01*
X125264124Y-71764356D01*
X125413345Y-71672315D01*
X125537315Y-71548345D01*
X125629356Y-71399124D01*
X125629358Y-71399119D01*
X125684505Y-71232697D01*
X125684506Y-71232690D01*
X125694999Y-71129986D01*
X125695000Y-71129973D01*
X125695000Y-71080000D01*
X124720000Y-71080000D01*
X124220000Y-71080000D01*
X123245001Y-71080000D01*
X121160160Y-71080000D01*
X121187030Y-71060478D01*
X121416390Y-70845094D01*
X121616947Y-70602663D01*
X121785537Y-70337007D01*
X121919503Y-70052315D01*
X122016731Y-69753079D01*
X122075688Y-69444015D01*
X122076979Y-69423495D01*
X122095444Y-69130005D01*
X122095444Y-69129994D01*
X122075689Y-68815995D01*
X122075688Y-68815988D01*
X122075688Y-68815985D01*
X122016731Y-68506921D01*
X121919503Y-68207685D01*
X121785537Y-67922993D01*
X121616947Y-67657337D01*
X121616945Y-67657334D01*
X121416393Y-67414909D01*
X121416391Y-67414907D01*
X121209752Y-67220859D01*
X121187030Y-67199522D01*
X121187027Y-67199520D01*
X121187021Y-67199515D01*
X120932495Y-67014591D01*
X120932488Y-67014586D01*
X120932484Y-67014584D01*
X120656766Y-66863006D01*
X120656763Y-66863004D01*
X120656758Y-66863002D01*
X120656757Y-66863001D01*
X120364228Y-66747181D01*
X120364225Y-66747180D01*
X120059476Y-66668934D01*
X120059463Y-66668932D01*
X119747329Y-66629500D01*
X119747318Y-66629500D01*
X119432682Y-66629500D01*
X119432670Y-66629500D01*
X119120536Y-66668932D01*
X119120523Y-66668934D01*
X118815774Y-66747180D01*
X118815771Y-66747181D01*
X118523242Y-66863001D01*
X118523241Y-66863002D01*
X118247516Y-67014584D01*
X118247504Y-67014591D01*
X117992978Y-67199515D01*
X117992968Y-67199523D01*
X117763608Y-67414907D01*
X117763606Y-67414909D01*
X117563054Y-67657334D01*
X117563051Y-67657338D01*
X117394464Y-67922990D01*
X117394461Y-67922996D01*
X117260499Y-68207678D01*
X117260497Y-68207683D01*
X117163270Y-68506916D01*
X117104311Y-68815988D01*
X117104310Y-68815995D01*
X117084556Y-69129994D01*
X117084556Y-69130005D01*
X109880500Y-69130005D01*
X109880500Y-62844500D01*
X109900185Y-62777461D01*
X109952989Y-62731706D01*
X110004500Y-62720500D01*
X113920033Y-62720500D01*
X113987072Y-62740185D01*
G37*
%TD.AperFunction*%
%TA.AperFunction,Conductor*%
G36*
X185819820Y-65645185D02*
G01*
X185854356Y-65678377D01*
X185869032Y-65699336D01*
X185957886Y-65826233D01*
X185961501Y-65831395D01*
X185961506Y-65831402D01*
X186083818Y-65953714D01*
X186117303Y-66015037D01*
X186112319Y-66084729D01*
X186070447Y-66140662D01*
X186039471Y-66157577D01*
X185907912Y-66206646D01*
X185907906Y-66206649D01*
X185792812Y-66292809D01*
X185792809Y-66292812D01*
X185706649Y-66407906D01*
X185706645Y-66407913D01*
X185656403Y-66542620D01*
X185656401Y-66542627D01*
X185650000Y-66602155D01*
X185650000Y-67250000D01*
X186566314Y-67250000D01*
X186540507Y-67290156D01*
X186500000Y-67428111D01*
X186500000Y-67571889D01*
X186540507Y-67709844D01*
X186566314Y-67750000D01*
X185650000Y-67750000D01*
X185650000Y-68397844D01*
X185656401Y-68457372D01*
X185656403Y-68457379D01*
X185706645Y-68592086D01*
X185706649Y-68592093D01*
X185792809Y-68707187D01*
X185792812Y-68707190D01*
X185907906Y-68793350D01*
X185907913Y-68793354D01*
X186042620Y-68843596D01*
X186042627Y-68843598D01*
X186102155Y-68849999D01*
X186102172Y-68850000D01*
X186750000Y-68850000D01*
X186750000Y-67935501D01*
X186857685Y-67984680D01*
X186964237Y-68000000D01*
X187035763Y-68000000D01*
X187142315Y-67984680D01*
X187250000Y-67935501D01*
X187250000Y-68850000D01*
X187880500Y-68850000D01*
X187947539Y-68869685D01*
X187993294Y-68922489D01*
X188004500Y-68974000D01*
X188004500Y-70649546D01*
X187984815Y-70716585D01*
X187968181Y-70737227D01*
X187562227Y-71143181D01*
X187500904Y-71176666D01*
X187474546Y-71179500D01*
X186822230Y-71179500D01*
X186755191Y-71159815D01*
X186734549Y-71143181D01*
X185105729Y-69514361D01*
X185093949Y-69500730D01*
X185079610Y-69481470D01*
X185041651Y-69449619D01*
X185033686Y-69442318D01*
X185029780Y-69438411D01*
X185005443Y-69419168D01*
X185002647Y-69416890D01*
X184945214Y-69368698D01*
X184939180Y-69364729D01*
X184939212Y-69364680D01*
X184932853Y-69360628D01*
X184932822Y-69360679D01*
X184926680Y-69356891D01*
X184926678Y-69356890D01*
X184926677Y-69356889D01*
X184858688Y-69325184D01*
X184855447Y-69323615D01*
X184824530Y-69308088D01*
X184788433Y-69289960D01*
X184788431Y-69289959D01*
X184788430Y-69289959D01*
X184781645Y-69287489D01*
X184781665Y-69287433D01*
X184774549Y-69284959D01*
X184774531Y-69285015D01*
X184767674Y-69282743D01*
X184694210Y-69267573D01*
X184690693Y-69266793D01*
X184617718Y-69249499D01*
X184610547Y-69248661D01*
X184610553Y-69248601D01*
X184603055Y-69247835D01*
X184603050Y-69247895D01*
X184595860Y-69247265D01*
X184520870Y-69249448D01*
X184517263Y-69249500D01*
X184400201Y-69249500D01*
X184333162Y-69229815D01*
X184287407Y-69177011D01*
X184276911Y-69138752D01*
X184274091Y-69112516D01*
X184223797Y-68977671D01*
X184223793Y-68977664D01*
X184137547Y-68862455D01*
X184137544Y-68862452D01*
X184022335Y-68776206D01*
X184022328Y-68776202D01*
X183887482Y-68725908D01*
X183887483Y-68725908D01*
X183827883Y-68719501D01*
X183827881Y-68719500D01*
X183827873Y-68719500D01*
X183827864Y-68719500D01*
X182172129Y-68719500D01*
X182172123Y-68719501D01*
X182112516Y-68725908D01*
X181977671Y-68776202D01*
X181977664Y-68776206D01*
X181862455Y-68862452D01*
X181862452Y-68862455D01*
X181776206Y-68977664D01*
X181776202Y-68977671D01*
X181725908Y-69112517D01*
X181719501Y-69172116D01*
X181719500Y-69172135D01*
X181719500Y-70827870D01*
X181719501Y-70827876D01*
X181725908Y-70887483D01*
X181776202Y-71022328D01*
X181776206Y-71022335D01*
X181862452Y-71137544D01*
X181862455Y-71137547D01*
X181977664Y-71223793D01*
X181977671Y-71223797D01*
X182112517Y-71274091D01*
X182112516Y-71274091D01*
X182119444Y-71274835D01*
X182172127Y-71280500D01*
X183827872Y-71280499D01*
X183887483Y-71274091D01*
X184022331Y-71223796D01*
X184137546Y-71137546D01*
X184223796Y-71022331D01*
X184228944Y-71008526D01*
X184270812Y-70952593D01*
X184336275Y-70928173D01*
X184404549Y-70943022D01*
X184432808Y-70964176D01*
X185673181Y-72204548D01*
X185706666Y-72265871D01*
X185709500Y-72292229D01*
X185709500Y-73427870D01*
X185709501Y-73427876D01*
X185715908Y-73487483D01*
X185766202Y-73622328D01*
X185766206Y-73622335D01*
X185852452Y-73737544D01*
X185852455Y-73737547D01*
X185967664Y-73823793D01*
X185967671Y-73823797D01*
X186102517Y-73874091D01*
X186102516Y-73874091D01*
X186109444Y-73874835D01*
X186162127Y-73880500D01*
X187957872Y-73880499D01*
X188017483Y-73874091D01*
X188152331Y-73823796D01*
X188267546Y-73737546D01*
X188353796Y-73622331D01*
X188404091Y-73487483D01*
X188410500Y-73427873D01*
X188410499Y-72115451D01*
X188430184Y-72048413D01*
X188446813Y-72027776D01*
X189013788Y-71460801D01*
X189026042Y-71450986D01*
X189025859Y-71450764D01*
X189031872Y-71445788D01*
X189031877Y-71445786D01*
X189065109Y-71410396D01*
X189125348Y-71375003D01*
X189195161Y-71377795D01*
X189252383Y-71417888D01*
X189278845Y-71482553D01*
X189279500Y-71495281D01*
X189279500Y-98760032D01*
X189259815Y-98827071D01*
X189207011Y-98872826D01*
X189137853Y-98882770D01*
X189074297Y-98853745D01*
X189044289Y-98814877D01*
X189033173Y-98792338D01*
X189033172Y-98792336D01*
X188869273Y-98547043D01*
X188779746Y-98444957D01*
X188674758Y-98325241D01*
X188452955Y-98130725D01*
X188207667Y-97966829D01*
X188207660Y-97966825D01*
X187943080Y-97836349D01*
X187663730Y-97741521D01*
X187663724Y-97741519D01*
X187663722Y-97741519D01*
X187374380Y-97683966D01*
X187374373Y-97683965D01*
X187374363Y-97683964D01*
X187080007Y-97664671D01*
X187079993Y-97664671D01*
X186785636Y-97683964D01*
X186785624Y-97683965D01*
X186785620Y-97683966D01*
X186785612Y-97683967D01*
X186785609Y-97683968D01*
X186496283Y-97741518D01*
X186496269Y-97741521D01*
X186216919Y-97836349D01*
X185952334Y-97966828D01*
X185707041Y-98130728D01*
X185485241Y-98325241D01*
X185290728Y-98547041D01*
X185126828Y-98792334D01*
X184996349Y-99056919D01*
X184901521Y-99336269D01*
X184901518Y-99336283D01*
X184843968Y-99625609D01*
X184843964Y-99625636D01*
X184824671Y-99919992D01*
X184824671Y-99920007D01*
X184843964Y-100214363D01*
X184843965Y-100214373D01*
X184843966Y-100214380D01*
X184900815Y-100500185D01*
X184901518Y-100503716D01*
X184901521Y-100503730D01*
X184996349Y-100783080D01*
X185126825Y-101047660D01*
X185126829Y-101047667D01*
X185290725Y-101292955D01*
X185485241Y-101514758D01*
X185707044Y-101709274D01*
X185844030Y-101800805D01*
X185952335Y-101873172D01*
X186216923Y-102003652D01*
X186496278Y-102098481D01*
X186785620Y-102156034D01*
X186813888Y-102157886D01*
X187079993Y-102175329D01*
X187080000Y-102175329D01*
X187080007Y-102175329D01*
X187315675Y-102159881D01*
X187374380Y-102156034D01*
X187663722Y-102098481D01*
X187943077Y-102003652D01*
X188207665Y-101873172D01*
X188452957Y-101709273D01*
X188674758Y-101514758D01*
X188869273Y-101292957D01*
X189033172Y-101047665D01*
X189044288Y-101025124D01*
X189091593Y-100973705D01*
X189159188Y-100956023D01*
X189225613Y-100977693D01*
X189269777Y-101031834D01*
X189279500Y-101079968D01*
X189279500Y-127978770D01*
X189259815Y-128045809D01*
X189207011Y-128091564D01*
X189137853Y-128101508D01*
X189074297Y-128072483D01*
X189067819Y-128066451D01*
X188326818Y-127325450D01*
X188293333Y-127264127D01*
X188290499Y-127237769D01*
X188290499Y-126102129D01*
X188290498Y-126102123D01*
X188290497Y-126102116D01*
X188284091Y-126042517D01*
X188256032Y-125967288D01*
X188233797Y-125907671D01*
X188233793Y-125907664D01*
X188147547Y-125792455D01*
X188147544Y-125792452D01*
X188032335Y-125706206D01*
X188032328Y-125706202D01*
X187897482Y-125655908D01*
X187897483Y-125655908D01*
X187837883Y-125649501D01*
X187837881Y-125649500D01*
X187837873Y-125649500D01*
X187837864Y-125649500D01*
X186042129Y-125649500D01*
X186042123Y-125649501D01*
X185982516Y-125655908D01*
X185847671Y-125706202D01*
X185847664Y-125706206D01*
X185732455Y-125792452D01*
X185732452Y-125792455D01*
X185646206Y-125907664D01*
X185646202Y-125907671D01*
X185595908Y-126042517D01*
X185590659Y-126091344D01*
X185589501Y-126102123D01*
X185589500Y-126102135D01*
X185589500Y-126125500D01*
X185569815Y-126192539D01*
X185517011Y-126238294D01*
X185465500Y-126249500D01*
X180823705Y-126249500D01*
X180805735Y-126248191D01*
X180781972Y-126244710D01*
X180735642Y-126248764D01*
X180732632Y-126249028D01*
X180721826Y-126249500D01*
X180716284Y-126249500D01*
X180685484Y-126253100D01*
X180681899Y-126253466D01*
X180607200Y-126260001D01*
X180600133Y-126261461D01*
X180600121Y-126261404D01*
X180592754Y-126263038D01*
X180592768Y-126263094D01*
X180585745Y-126264758D01*
X180515270Y-126290407D01*
X180511870Y-126291589D01*
X180440666Y-126315185D01*
X180434119Y-126318238D01*
X180434094Y-126318186D01*
X180427314Y-126321468D01*
X180427340Y-126321520D01*
X180420882Y-126324763D01*
X180358235Y-126365966D01*
X180355199Y-126367900D01*
X180291346Y-126407287D01*
X180285677Y-126411770D01*
X180285641Y-126411724D01*
X180279798Y-126416484D01*
X180279835Y-126416528D01*
X180274310Y-126421164D01*
X180222832Y-126475726D01*
X180220320Y-126478311D01*
X178255449Y-128443181D01*
X178194126Y-128476666D01*
X178167768Y-128479500D01*
X177172129Y-128479500D01*
X177172123Y-128479501D01*
X177112516Y-128485908D01*
X176977671Y-128536202D01*
X176977664Y-128536206D01*
X176862455Y-128622452D01*
X176862452Y-128622455D01*
X176776206Y-128737664D01*
X176776202Y-128737671D01*
X176725908Y-128872517D01*
X176719501Y-128932116D01*
X176719500Y-128932135D01*
X176719500Y-130587870D01*
X176719501Y-130587876D01*
X176725908Y-130647483D01*
X176776202Y-130782328D01*
X176776206Y-130782335D01*
X176862452Y-130897544D01*
X176862455Y-130897547D01*
X176977664Y-130983793D01*
X176977671Y-130983797D01*
X177112517Y-131034091D01*
X177112516Y-131034091D01*
X177119444Y-131034835D01*
X177172127Y-131040500D01*
X178827872Y-131040499D01*
X178887483Y-131034091D01*
X179022331Y-130983796D01*
X179137546Y-130897546D01*
X179223796Y-130782331D01*
X179274091Y-130647483D01*
X179280500Y-130587873D01*
X179280499Y-129760001D01*
X181714609Y-129760001D01*
X181734136Y-129983200D01*
X181734137Y-129983208D01*
X181792126Y-130199625D01*
X181792127Y-130199627D01*
X181792128Y-130199630D01*
X181884815Y-130398399D01*
X181886819Y-130402696D01*
X181886821Y-130402700D01*
X182015329Y-130586228D01*
X182015334Y-130586234D01*
X182173765Y-130744665D01*
X182173771Y-130744670D01*
X182357299Y-130873178D01*
X182357301Y-130873179D01*
X182357304Y-130873181D01*
X182560370Y-130967872D01*
X182776794Y-131025863D01*
X182936226Y-131039811D01*
X182999998Y-131045391D01*
X183000000Y-131045391D01*
X183000002Y-131045391D01*
X183055927Y-131040498D01*
X183223206Y-131025863D01*
X183439630Y-130967872D01*
X183642696Y-130873181D01*
X183826233Y-130744667D01*
X183984667Y-130586233D01*
X184113181Y-130402696D01*
X184207872Y-130199630D01*
X184265863Y-129983206D01*
X184285391Y-129760000D01*
X184281016Y-129709999D01*
X184279811Y-129696226D01*
X184265863Y-129536794D01*
X184207872Y-129320370D01*
X184113181Y-129117305D01*
X184033599Y-129003650D01*
X183984668Y-128933768D01*
X183923417Y-128872517D01*
X183826233Y-128775333D01*
X183826229Y-128775330D01*
X183826228Y-128775329D01*
X183642700Y-128646821D01*
X183642696Y-128646819D01*
X183590445Y-128622454D01*
X183439630Y-128552128D01*
X183439627Y-128552127D01*
X183439625Y-128552126D01*
X183223208Y-128494137D01*
X183223200Y-128494136D01*
X183000002Y-128474609D01*
X182999998Y-128474609D01*
X182776799Y-128494136D01*
X182776791Y-128494137D01*
X182560374Y-128552126D01*
X182560368Y-128552129D01*
X182357306Y-128646818D01*
X182357304Y-128646819D01*
X182173764Y-128775334D01*
X182015334Y-128933764D01*
X181886819Y-129117304D01*
X181886818Y-129117306D01*
X181792129Y-129320368D01*
X181792126Y-129320374D01*
X181734137Y-129536791D01*
X181734136Y-129536799D01*
X181714609Y-129759998D01*
X181714609Y-129760001D01*
X179280499Y-129760001D01*
X179280499Y-129592228D01*
X179300183Y-129525190D01*
X179316813Y-129504553D01*
X181034548Y-127786819D01*
X181095871Y-127753334D01*
X181122229Y-127750500D01*
X185465501Y-127750500D01*
X185532540Y-127770185D01*
X185578295Y-127822989D01*
X185589501Y-127874500D01*
X185589501Y-127897876D01*
X185595908Y-127957483D01*
X185646202Y-128092328D01*
X185646206Y-128092335D01*
X185732452Y-128207544D01*
X185732455Y-128207547D01*
X185847664Y-128293793D01*
X185847671Y-128293797D01*
X185982517Y-128344091D01*
X185982516Y-128344091D01*
X185989444Y-128344835D01*
X186042127Y-128350500D01*
X187177769Y-128350499D01*
X187244808Y-128370184D01*
X187265450Y-128386818D01*
X187973181Y-129094548D01*
X188006666Y-129155871D01*
X188009500Y-129182229D01*
X188009500Y-130751000D01*
X187989815Y-130818039D01*
X187937011Y-130863794D01*
X187885500Y-130875000D01*
X187250000Y-130875000D01*
X187250000Y-131789498D01*
X187142315Y-131740320D01*
X187035763Y-131725000D01*
X186964237Y-131725000D01*
X186857685Y-131740320D01*
X186750000Y-131789498D01*
X186750000Y-130875000D01*
X186102155Y-130875000D01*
X186042627Y-130881401D01*
X186042620Y-130881403D01*
X185907913Y-130931645D01*
X185907906Y-130931649D01*
X185792812Y-131017809D01*
X185792809Y-131017812D01*
X185706649Y-131132906D01*
X185706645Y-131132913D01*
X185656403Y-131267620D01*
X185656401Y-131267627D01*
X185650000Y-131327155D01*
X185650000Y-131975000D01*
X186566314Y-131975000D01*
X186540507Y-132015156D01*
X186500000Y-132153111D01*
X186500000Y-132296889D01*
X186540507Y-132434844D01*
X186566314Y-132475000D01*
X185650000Y-132475000D01*
X185650000Y-133122844D01*
X185656401Y-133182372D01*
X185656403Y-133182379D01*
X185706645Y-133317086D01*
X185706649Y-133317093D01*
X185792809Y-133432187D01*
X185792812Y-133432190D01*
X185907906Y-133518350D01*
X185907913Y-133518354D01*
X185923903Y-133524318D01*
X185979837Y-133566189D01*
X186004254Y-133631653D01*
X185989403Y-133699926D01*
X185939998Y-133749332D01*
X185880570Y-133764500D01*
X181349859Y-133764500D01*
X181282820Y-133744815D01*
X181278753Y-133742087D01*
X181142696Y-133646819D01*
X180939630Y-133552128D01*
X180939627Y-133552127D01*
X180939625Y-133552126D01*
X180723208Y-133494137D01*
X180723200Y-133494136D01*
X180500002Y-133474609D01*
X180499998Y-133474609D01*
X180276799Y-133494136D01*
X180276791Y-133494137D01*
X180060374Y-133552126D01*
X180060370Y-133552128D01*
X180055047Y-133554610D01*
X179857306Y-133646818D01*
X179857304Y-133646819D01*
X179673764Y-133775334D01*
X179572983Y-133876116D01*
X179511660Y-133909601D01*
X179441968Y-133904617D01*
X179397621Y-133876116D01*
X159384005Y-113862500D01*
X161862501Y-113862500D01*
X161862501Y-113924986D01*
X161872994Y-114027697D01*
X161928141Y-114194119D01*
X161928143Y-114194124D01*
X162020184Y-114343345D01*
X162144154Y-114467315D01*
X162293375Y-114559356D01*
X162293380Y-114559358D01*
X162459802Y-114614505D01*
X162459809Y-114614506D01*
X162562519Y-114624999D01*
X162812499Y-114624999D01*
X162812500Y-114624998D01*
X162812500Y-113862500D01*
X163312500Y-113862500D01*
X163312500Y-114624999D01*
X163562472Y-114624999D01*
X163562486Y-114624998D01*
X163665197Y-114614505D01*
X163831619Y-114559358D01*
X163831624Y-114559356D01*
X163980845Y-114467315D01*
X164104815Y-114343345D01*
X164196856Y-114194124D01*
X164196858Y-114194119D01*
X164252005Y-114027697D01*
X164252006Y-114027690D01*
X164262499Y-113924986D01*
X164262500Y-113924973D01*
X164262500Y-113862500D01*
X163312500Y-113862500D01*
X162812500Y-113862500D01*
X161862501Y-113862500D01*
X159384005Y-113862500D01*
X152933686Y-107412181D01*
X152900201Y-107350858D01*
X152905185Y-107281166D01*
X152947057Y-107225233D01*
X153012521Y-107200816D01*
X153021367Y-107200500D01*
X155548121Y-107200500D01*
X155615160Y-107220185D01*
X155660915Y-107272989D01*
X155670859Y-107342147D01*
X155641834Y-107405703D01*
X155619244Y-107426075D01*
X155570858Y-107459954D01*
X155409954Y-107620858D01*
X155279432Y-107807265D01*
X155279431Y-107807267D01*
X155183261Y-108013502D01*
X155183258Y-108013511D01*
X155124366Y-108233302D01*
X155124364Y-108233313D01*
X155104532Y-108459998D01*
X155104532Y-108460001D01*
X155124364Y-108686686D01*
X155124366Y-108686697D01*
X155183258Y-108906488D01*
X155183261Y-108906497D01*
X155279431Y-109112732D01*
X155279432Y-109112734D01*
X155409954Y-109299141D01*
X155570858Y-109460045D01*
X155570861Y-109460047D01*
X155757266Y-109590568D01*
X155963504Y-109686739D01*
X156183308Y-109745635D01*
X156345230Y-109759801D01*
X156409998Y-109765468D01*
X156410000Y-109765468D01*
X156410002Y-109765468D01*
X156466673Y-109760509D01*
X156636692Y-109745635D01*
X156856496Y-109686739D01*
X157062734Y-109590568D01*
X157235093Y-109469882D01*
X157253574Y-109456942D01*
X157254851Y-109458766D01*
X157310086Y-109434567D01*
X157379082Y-109445579D01*
X157413514Y-109469882D01*
X157431344Y-109487712D01*
X157580666Y-109579814D01*
X157747203Y-109634999D01*
X157849991Y-109645500D01*
X158450008Y-109645499D01*
X158450016Y-109645498D01*
X158450019Y-109645498D01*
X158506302Y-109639748D01*
X158552797Y-109634999D01*
X158719334Y-109579814D01*
X158868656Y-109487712D01*
X158992712Y-109363656D01*
X158994752Y-109360347D01*
X158996745Y-109358555D01*
X158997193Y-109357989D01*
X158997289Y-109358065D01*
X159046694Y-109313623D01*
X159115656Y-109302395D01*
X159179740Y-109330234D01*
X159205829Y-109360339D01*
X159207681Y-109363341D01*
X159207683Y-109363344D01*
X159331654Y-109487315D01*
X159480875Y-109579356D01*
X159480880Y-109579358D01*
X159647302Y-109634505D01*
X159647309Y-109634506D01*
X159750019Y-109644999D01*
X159799999Y-109644998D01*
X159800000Y-109644998D01*
X159800000Y-108670000D01*
X160300000Y-108670000D01*
X160300000Y-109644999D01*
X160349972Y-109644999D01*
X160349986Y-109644998D01*
X160452697Y-109634505D01*
X160619119Y-109579358D01*
X160619124Y-109579356D01*
X160768345Y-109487315D01*
X160892315Y-109363345D01*
X160984356Y-109214124D01*
X160984358Y-109214119D01*
X161039505Y-109047697D01*
X161039506Y-109047690D01*
X161049999Y-108944986D01*
X161050000Y-108944973D01*
X161050000Y-108670000D01*
X160300000Y-108670000D01*
X159800000Y-108670000D01*
X159800000Y-108294000D01*
X159819685Y-108226961D01*
X159872489Y-108181206D01*
X159924000Y-108170000D01*
X161049999Y-108170000D01*
X161049999Y-107895028D01*
X161049998Y-107895013D01*
X161039505Y-107792302D01*
X160984358Y-107625880D01*
X160984356Y-107625875D01*
X160892315Y-107476654D01*
X160827842Y-107412181D01*
X160794357Y-107350858D01*
X160799341Y-107281166D01*
X160841213Y-107225233D01*
X160906677Y-107200816D01*
X160915523Y-107200500D01*
X163232256Y-107200500D01*
X163247876Y-107202224D01*
X163247903Y-107201939D01*
X163255659Y-107202671D01*
X163255666Y-107202673D01*
X163322872Y-107200561D01*
X163326767Y-107200500D01*
X163354345Y-107200500D01*
X163354349Y-107200500D01*
X163358323Y-107199997D01*
X163369962Y-107199080D01*
X163413626Y-107197709D01*
X163432868Y-107192117D01*
X163451911Y-107188174D01*
X163471791Y-107185664D01*
X163512400Y-107169585D01*
X163523443Y-107165803D01*
X163565389Y-107153618D01*
X163582628Y-107143422D01*
X163600102Y-107134862D01*
X163618726Y-107127488D01*
X163618726Y-107127487D01*
X163618731Y-107127486D01*
X163654082Y-107101800D01*
X163663813Y-107095408D01*
X163701419Y-107073170D01*
X163715585Y-107059003D01*
X163730380Y-107046368D01*
X163739416Y-107039802D01*
X163746586Y-107034594D01*
X163774436Y-107000928D01*
X163782278Y-106992310D01*
X164023785Y-106750802D01*
X164036046Y-106740982D01*
X164035862Y-106740760D01*
X164041870Y-106735788D01*
X164041877Y-106735785D01*
X164070107Y-106705721D01*
X164130347Y-106670327D01*
X164200161Y-106673119D01*
X164257383Y-106713211D01*
X164283845Y-106777876D01*
X164284500Y-106790605D01*
X164284500Y-110665500D01*
X164264815Y-110732539D01*
X164212011Y-110778294D01*
X164160500Y-110789500D01*
X163698883Y-110789500D01*
X163672176Y-110785190D01*
X163671914Y-110786418D01*
X163665295Y-110785000D01*
X163562510Y-110774500D01*
X162562498Y-110774500D01*
X162562480Y-110774501D01*
X162459703Y-110785000D01*
X162459700Y-110785001D01*
X162293168Y-110840185D01*
X162293163Y-110840187D01*
X162143842Y-110932289D01*
X162019789Y-111056342D01*
X161927687Y-111205663D01*
X161927686Y-111205666D01*
X161872501Y-111372203D01*
X161872501Y-111372204D01*
X161872500Y-111372204D01*
X161862000Y-111474983D01*
X161862000Y-112100001D01*
X161862001Y-112100019D01*
X161872500Y-112202796D01*
X161872501Y-112202799D01*
X161927685Y-112369331D01*
X161927687Y-112369336D01*
X162019789Y-112518657D01*
X162113804Y-112612672D01*
X162147289Y-112673995D01*
X162142305Y-112743687D01*
X162113805Y-112788034D01*
X162020182Y-112881657D01*
X161928143Y-113030875D01*
X161928141Y-113030880D01*
X161872994Y-113197302D01*
X161872993Y-113197309D01*
X161862500Y-113300013D01*
X161862500Y-113362500D01*
X164262499Y-113362500D01*
X164262499Y-113300028D01*
X164262498Y-113300013D01*
X164252006Y-113197304D01*
X164205560Y-113057143D01*
X164203158Y-112987314D01*
X164238889Y-112927272D01*
X164301410Y-112896079D01*
X164370869Y-112903639D01*
X164388358Y-112912596D01*
X164408166Y-112924814D01*
X164574703Y-112979999D01*
X164677491Y-112990500D01*
X165302508Y-112990499D01*
X165302516Y-112990498D01*
X165302519Y-112990498D01*
X165358802Y-112984748D01*
X165405297Y-112979999D01*
X165571834Y-112924814D01*
X165721156Y-112832712D01*
X165814819Y-112739049D01*
X165876142Y-112705564D01*
X165945834Y-112710548D01*
X165990181Y-112739049D01*
X166083844Y-112832712D01*
X166233166Y-112924814D01*
X166399703Y-112979999D01*
X166502491Y-112990500D01*
X167127508Y-112990499D01*
X167127516Y-112990498D01*
X167127519Y-112990498D01*
X167183802Y-112984748D01*
X167230297Y-112979999D01*
X167396834Y-112924814D01*
X167546156Y-112832712D01*
X167552049Y-112826819D01*
X167613372Y-112793334D01*
X167639730Y-112790500D01*
X167695270Y-112790500D01*
X167762309Y-112810185D01*
X167782951Y-112826819D01*
X167798844Y-112842712D01*
X167948166Y-112934814D01*
X168114703Y-112989999D01*
X168217491Y-113000500D01*
X168842508Y-113000499D01*
X168842516Y-113000498D01*
X168842519Y-113000498D01*
X168940392Y-112990500D01*
X168945297Y-112989999D01*
X169051668Y-112954750D01*
X169121495Y-112952349D01*
X169181537Y-112988080D01*
X169212730Y-113050601D01*
X169205170Y-113120060D01*
X169203053Y-113124862D01*
X169105762Y-113333502D01*
X169105758Y-113333511D01*
X169046866Y-113553302D01*
X169046864Y-113553313D01*
X169027032Y-113779998D01*
X169027032Y-113780001D01*
X169046864Y-114006686D01*
X169046866Y-114006697D01*
X169105758Y-114226488D01*
X169105761Y-114226497D01*
X169201931Y-114432732D01*
X169201932Y-114432734D01*
X169332454Y-114619141D01*
X169493358Y-114780045D01*
X169493361Y-114780047D01*
X169679766Y-114910568D01*
X169886004Y-115006739D01*
X170105808Y-115065635D01*
X170267730Y-115079801D01*
X170332498Y-115085468D01*
X170332500Y-115085468D01*
X170332502Y-115085468D01*
X170389173Y-115080509D01*
X170559192Y-115065635D01*
X170778996Y-115006739D01*
X170985234Y-114910568D01*
X171171639Y-114780047D01*
X171332547Y-114619139D01*
X171463068Y-114432734D01*
X171559239Y-114226496D01*
X171618135Y-114006692D01*
X171637968Y-113780000D01*
X171618135Y-113553308D01*
X171559239Y-113333504D01*
X171463068Y-113127266D01*
X171332547Y-112940861D01*
X171332545Y-112940858D01*
X171266819Y-112875132D01*
X171233334Y-112813809D01*
X171230500Y-112787451D01*
X171230500Y-112720929D01*
X171248960Y-112655833D01*
X171302314Y-112569334D01*
X171357499Y-112402797D01*
X171368000Y-112300009D01*
X171367999Y-111299992D01*
X171357499Y-111197203D01*
X171302314Y-111030666D01*
X171210212Y-110881344D01*
X171086156Y-110757288D01*
X170936834Y-110665186D01*
X170770297Y-110610001D01*
X170770295Y-110610000D01*
X170667510Y-110599500D01*
X170042498Y-110599500D01*
X170042480Y-110599501D01*
X169939703Y-110610000D01*
X169939700Y-110610001D01*
X169773168Y-110665185D01*
X169773163Y-110665187D01*
X169623842Y-110757289D01*
X169557181Y-110823951D01*
X169495858Y-110857436D01*
X169426166Y-110852452D01*
X169370233Y-110810580D01*
X169345816Y-110745116D01*
X169345500Y-110736270D01*
X169345500Y-106780691D01*
X169365185Y-106713652D01*
X169417989Y-106667897D01*
X169487147Y-106657953D01*
X169532616Y-106673957D01*
X169579602Y-106701744D01*
X169579603Y-106701744D01*
X169579606Y-106701746D01*
X169737426Y-106747597D01*
X169737429Y-106747597D01*
X169737431Y-106747598D01*
X169774306Y-106750500D01*
X169774314Y-106750500D01*
X170205686Y-106750500D01*
X170205694Y-106750500D01*
X170242569Y-106747598D01*
X170242571Y-106747597D01*
X170242573Y-106747597D01*
X170311395Y-106727602D01*
X170400398Y-106701744D01*
X170541865Y-106618081D01*
X170658081Y-106501865D01*
X170741744Y-106360398D01*
X170787598Y-106202569D01*
X170790500Y-106165694D01*
X170790500Y-104384306D01*
X170787598Y-104347431D01*
X170785653Y-104340737D01*
X170741745Y-104189606D01*
X170741744Y-104189603D01*
X170741744Y-104189602D01*
X170658081Y-104048135D01*
X170658079Y-104048133D01*
X170658076Y-104048129D01*
X170541869Y-103931922D01*
X170541866Y-103931920D01*
X170541865Y-103931919D01*
X170483075Y-103897150D01*
X170456321Y-103872795D01*
X170454933Y-103874100D01*
X170449597Y-103868419D01*
X170449594Y-103868414D01*
X170415945Y-103840577D01*
X170407305Y-103832715D01*
X169433238Y-102858648D01*
X169399753Y-102797325D01*
X169404737Y-102727633D01*
X169446609Y-102671700D01*
X169457786Y-102664243D01*
X169467634Y-102658418D01*
X169485102Y-102649862D01*
X169503726Y-102642488D01*
X169503726Y-102642487D01*
X169503731Y-102642486D01*
X169539082Y-102616800D01*
X169548813Y-102610408D01*
X169586419Y-102588170D01*
X169600588Y-102573999D01*
X169615378Y-102561368D01*
X169631586Y-102549594D01*
X169659437Y-102515926D01*
X169667278Y-102507309D01*
X170373787Y-101800801D01*
X170386042Y-101790985D01*
X170385859Y-101790763D01*
X170391868Y-101785790D01*
X170391877Y-101785785D01*
X170437948Y-101736723D01*
X170440564Y-101734024D01*
X170444261Y-101730327D01*
X170468812Y-101711282D01*
X170541865Y-101668081D01*
X170658081Y-101551865D01*
X170741744Y-101410398D01*
X170787598Y-101252569D01*
X170790500Y-101215694D01*
X170790500Y-99609500D01*
X170810185Y-99542461D01*
X170862989Y-99496706D01*
X170914500Y-99485500D01*
X172227257Y-99485500D01*
X172242877Y-99487224D01*
X172242904Y-99486939D01*
X172250660Y-99487671D01*
X172250667Y-99487673D01*
X172317873Y-99485561D01*
X172321768Y-99485500D01*
X172349346Y-99485500D01*
X172349350Y-99485500D01*
X172353324Y-99484997D01*
X172364963Y-99484080D01*
X172408627Y-99482709D01*
X172427869Y-99477117D01*
X172446912Y-99473174D01*
X172466792Y-99470664D01*
X172507401Y-99454585D01*
X172518444Y-99450803D01*
X172560390Y-99438618D01*
X172577629Y-99428422D01*
X172595103Y-99419862D01*
X172613727Y-99412488D01*
X172613727Y-99412487D01*
X172613732Y-99412486D01*
X172649083Y-99386800D01*
X172658814Y-99380408D01*
X172696420Y-99358170D01*
X172710589Y-99343999D01*
X172725379Y-99331368D01*
X172741587Y-99319594D01*
X172769438Y-99285926D01*
X172777279Y-99277309D01*
X175343788Y-96710801D01*
X175356042Y-96700986D01*
X175355859Y-96700764D01*
X175361868Y-96695791D01*
X175361877Y-96695786D01*
X175407949Y-96646722D01*
X175410566Y-96644023D01*
X175430120Y-96624471D01*
X175432576Y-96621303D01*
X175440156Y-96612427D01*
X175470062Y-96580582D01*
X175479715Y-96563020D01*
X175490389Y-96546770D01*
X175502673Y-96530936D01*
X175520019Y-96490850D01*
X175525157Y-96480362D01*
X175529945Y-96471654D01*
X175546197Y-96442092D01*
X175551177Y-96422691D01*
X175557478Y-96404288D01*
X175565438Y-96385896D01*
X175572272Y-96342741D01*
X175574635Y-96331331D01*
X175585500Y-96289019D01*
X175585500Y-96268983D01*
X175587027Y-96249582D01*
X175590160Y-96229804D01*
X175586050Y-96186324D01*
X175585500Y-96174655D01*
X175585500Y-93664706D01*
X175605185Y-93597667D01*
X175638374Y-93563133D01*
X175815269Y-93439270D01*
X175979270Y-93275269D01*
X176108427Y-93090814D01*
X176163002Y-93047192D01*
X176232501Y-93039999D01*
X176294855Y-93071521D01*
X176311569Y-93090809D01*
X176440730Y-93275269D01*
X176604731Y-93439270D01*
X176794718Y-93572301D01*
X177004921Y-93670320D01*
X177228950Y-93730349D01*
X177393985Y-93744787D01*
X177459998Y-93750563D01*
X177460000Y-93750563D01*
X177460002Y-93750563D01*
X177519426Y-93745364D01*
X177691050Y-93730349D01*
X177915079Y-93670320D01*
X178125282Y-93572301D01*
X178315269Y-93439270D01*
X178479270Y-93275269D01*
X178612301Y-93085282D01*
X178710320Y-92875079D01*
X178770349Y-92651050D01*
X178790563Y-92420000D01*
X178790562Y-92419994D01*
X178784425Y-92349844D01*
X178770349Y-92188950D01*
X178710320Y-91964921D01*
X178612301Y-91754719D01*
X178612299Y-91754716D01*
X178612298Y-91754714D01*
X178479273Y-91564735D01*
X178479268Y-91564729D01*
X178315269Y-91400730D01*
X178240293Y-91348231D01*
X178125282Y-91267699D01*
X177915079Y-91169680D01*
X177915076Y-91169679D01*
X177915074Y-91169678D01*
X177691051Y-91109651D01*
X177691044Y-91109650D01*
X177460002Y-91089437D01*
X177459998Y-91089437D01*
X177228955Y-91109650D01*
X177228948Y-91109651D01*
X177004917Y-91169681D01*
X176794718Y-91267699D01*
X176794714Y-91267701D01*
X176604735Y-91400726D01*
X176604729Y-91400731D01*
X176440731Y-91564729D01*
X176440726Y-91564735D01*
X176311575Y-91749183D01*
X176256998Y-91792808D01*
X176187500Y-91800002D01*
X176125145Y-91768479D01*
X176108425Y-91749183D01*
X175979273Y-91564735D01*
X175979268Y-91564729D01*
X175815269Y-91400730D01*
X175740293Y-91348231D01*
X175625282Y-91267699D01*
X175415079Y-91169680D01*
X175415076Y-91169679D01*
X175415074Y-91169678D01*
X175191051Y-91109651D01*
X175191044Y-91109650D01*
X174960002Y-91089437D01*
X174959998Y-91089437D01*
X174728955Y-91109650D01*
X174728948Y-91109651D01*
X174504917Y-91169681D01*
X174294718Y-91267699D01*
X174294714Y-91267701D01*
X174104735Y-91400726D01*
X174104729Y-91400731D01*
X173940731Y-91564729D01*
X173940730Y-91564731D01*
X173811269Y-91749619D01*
X173756691Y-91793244D01*
X173687193Y-91800436D01*
X173624838Y-91768914D01*
X173608119Y-91749618D01*
X173556975Y-91676577D01*
X173556975Y-91676576D01*
X172985929Y-92247622D01*
X172983116Y-92234085D01*
X172913558Y-92099844D01*
X172810362Y-91989348D01*
X172681181Y-91910791D01*
X172629996Y-91896449D01*
X173203422Y-91323023D01*
X173125030Y-91268133D01*
X172914909Y-91170152D01*
X172914900Y-91170148D01*
X172690968Y-91110147D01*
X172690958Y-91110145D01*
X172460001Y-91089939D01*
X172459999Y-91089939D01*
X172229041Y-91110145D01*
X172229031Y-91110147D01*
X172005099Y-91170148D01*
X172005090Y-91170152D01*
X171794967Y-91268134D01*
X171716576Y-91323022D01*
X172288432Y-91894878D01*
X172171542Y-91945651D01*
X172054261Y-92041066D01*
X171967072Y-92164585D01*
X171936644Y-92250198D01*
X171363022Y-91676576D01*
X171308134Y-91754967D01*
X171210152Y-91965090D01*
X171210148Y-91965099D01*
X171150147Y-92189031D01*
X171150145Y-92189041D01*
X171129939Y-92419999D01*
X171129939Y-92420000D01*
X171150145Y-92650958D01*
X171150147Y-92650968D01*
X171210148Y-92874900D01*
X171210152Y-92874909D01*
X171308133Y-93085030D01*
X171363023Y-93163422D01*
X171934070Y-92592375D01*
X171936884Y-92605915D01*
X172006442Y-92740156D01*
X172109638Y-92850652D01*
X172238819Y-92929209D01*
X172290002Y-92943549D01*
X171716576Y-93516975D01*
X171794969Y-93571867D01*
X172005090Y-93669847D01*
X172005099Y-93669851D01*
X172229031Y-93729852D01*
X172229041Y-93729854D01*
X172459999Y-93750061D01*
X172460001Y-93750061D01*
X172690958Y-93729854D01*
X172690968Y-93729852D01*
X172914900Y-93669851D01*
X172914909Y-93669847D01*
X173125030Y-93571867D01*
X173125034Y-93571865D01*
X173203422Y-93516976D01*
X173203422Y-93516975D01*
X172631568Y-92945121D01*
X172748458Y-92894349D01*
X172865739Y-92798934D01*
X172952928Y-92675415D01*
X172983354Y-92589801D01*
X173556975Y-93163421D01*
X173608120Y-93090381D01*
X173662698Y-93046756D01*
X173732196Y-93039564D01*
X173794551Y-93071086D01*
X173811266Y-93090377D01*
X173940730Y-93275269D01*
X174104731Y-93439270D01*
X174281624Y-93563132D01*
X174325248Y-93617708D01*
X174334500Y-93664706D01*
X174334500Y-95899546D01*
X174314815Y-95966585D01*
X174298181Y-95987227D01*
X172642885Y-97642522D01*
X172581562Y-97676007D01*
X172511870Y-97671023D01*
X172467523Y-97642522D01*
X172465001Y-97640000D01*
X171326500Y-97640000D01*
X171259461Y-97620315D01*
X171213706Y-97567511D01*
X171202500Y-97516000D01*
X171202500Y-96190000D01*
X171702500Y-96190000D01*
X171702500Y-97140000D01*
X172464999Y-97140000D01*
X172464999Y-96890028D01*
X172464998Y-96890013D01*
X172454505Y-96787302D01*
X172399358Y-96620880D01*
X172399356Y-96620875D01*
X172307315Y-96471654D01*
X172183345Y-96347684D01*
X172034124Y-96255643D01*
X172034119Y-96255641D01*
X171867697Y-96200494D01*
X171867690Y-96200493D01*
X171764986Y-96190000D01*
X171702500Y-96190000D01*
X171202500Y-96190000D01*
X171202499Y-96189999D01*
X171140028Y-96190000D01*
X171140011Y-96190001D01*
X171037302Y-96200494D01*
X170870880Y-96255641D01*
X170870875Y-96255643D01*
X170721657Y-96347682D01*
X170628034Y-96441305D01*
X170566710Y-96474789D01*
X170497019Y-96469805D01*
X170452672Y-96441304D01*
X170358657Y-96347289D01*
X170358656Y-96347288D01*
X170209334Y-96255186D01*
X170042797Y-96200001D01*
X170042795Y-96200000D01*
X169940016Y-96189500D01*
X169362953Y-96189500D01*
X169295914Y-96169815D01*
X169275272Y-96153181D01*
X167981818Y-94859727D01*
X167948333Y-94798404D01*
X167945499Y-94772046D01*
X167945499Y-94209998D01*
X167945498Y-94209981D01*
X167934999Y-94107203D01*
X167934998Y-94107200D01*
X167918346Y-94056949D01*
X167879814Y-93940666D01*
X167787712Y-93791344D01*
X167663656Y-93667288D01*
X167514334Y-93575186D01*
X167347797Y-93520001D01*
X167347795Y-93520000D01*
X167245010Y-93509500D01*
X166619998Y-93509500D01*
X166619980Y-93509501D01*
X166517203Y-93520000D01*
X166517200Y-93520001D01*
X166350668Y-93575185D01*
X166350663Y-93575187D01*
X166201342Y-93667289D01*
X166107681Y-93760951D01*
X166046358Y-93794436D01*
X165976666Y-93789452D01*
X165932319Y-93760951D01*
X165838657Y-93667289D01*
X165838656Y-93667288D01*
X165689334Y-93575186D01*
X165522797Y-93520001D01*
X165522795Y-93520000D01*
X165420010Y-93509500D01*
X164794998Y-93509500D01*
X164794980Y-93509501D01*
X164692203Y-93520000D01*
X164692200Y-93520001D01*
X164525668Y-93575185D01*
X164525663Y-93575187D01*
X164376342Y-93667289D01*
X164252289Y-93791342D01*
X164160187Y-93940663D01*
X164160186Y-93940666D01*
X164140689Y-93999505D01*
X164100916Y-94056949D01*
X164036400Y-94083772D01*
X164022983Y-94084500D01*
X163772737Y-94084500D01*
X163757120Y-94082776D01*
X163757093Y-94083062D01*
X163749331Y-94082327D01*
X163682144Y-94084439D01*
X163678250Y-94084500D01*
X163650650Y-94084500D01*
X163646962Y-94084965D01*
X163646649Y-94085005D01*
X163635031Y-94085918D01*
X163591372Y-94087290D01*
X163591369Y-94087291D01*
X163572126Y-94092881D01*
X163553083Y-94096825D01*
X163533204Y-94099336D01*
X163533203Y-94099337D01*
X163492593Y-94115415D01*
X163481548Y-94119197D01*
X163439608Y-94131383D01*
X163439604Y-94131385D01*
X163422365Y-94141580D01*
X163404898Y-94150137D01*
X163386269Y-94157512D01*
X163386267Y-94157514D01*
X163350926Y-94183189D01*
X163341168Y-94189599D01*
X163303580Y-94211828D01*
X163289408Y-94226000D01*
X163274623Y-94238628D01*
X163258412Y-94250407D01*
X163230571Y-94284059D01*
X163222711Y-94292696D01*
X161442226Y-96073181D01*
X161380903Y-96106666D01*
X161354546Y-96109500D01*
X161244999Y-96109500D01*
X161244980Y-96109501D01*
X161142203Y-96120000D01*
X161142200Y-96120001D01*
X160975668Y-96175185D01*
X160975663Y-96175187D01*
X160826342Y-96267289D01*
X160702289Y-96391342D01*
X160610187Y-96540663D01*
X160610186Y-96540666D01*
X160555001Y-96707203D01*
X160555001Y-96707204D01*
X160555000Y-96707204D01*
X160544500Y-96809983D01*
X160544500Y-97810001D01*
X160544501Y-97810019D01*
X160555000Y-97912796D01*
X160555001Y-97912799D01*
X160610185Y-98079331D01*
X160610187Y-98079336D01*
X160623427Y-98100802D01*
X160702288Y-98228656D01*
X160826344Y-98352712D01*
X160975666Y-98444814D01*
X160999749Y-98452794D01*
X161057194Y-98492567D01*
X161084017Y-98557083D01*
X161071702Y-98625859D01*
X161024159Y-98677058D01*
X160960745Y-98694500D01*
X156019452Y-98694500D01*
X155952413Y-98674815D01*
X155906658Y-98622011D01*
X155896714Y-98552853D01*
X155925739Y-98489297D01*
X155931771Y-98482819D01*
X158477842Y-95936748D01*
X161073788Y-93340801D01*
X161086042Y-93330986D01*
X161085859Y-93330764D01*
X161091868Y-93325791D01*
X161091877Y-93325786D01*
X161137949Y-93276722D01*
X161140566Y-93274023D01*
X161160120Y-93254471D01*
X161162576Y-93251303D01*
X161170156Y-93242427D01*
X161200062Y-93210582D01*
X161209713Y-93193024D01*
X161220396Y-93176761D01*
X161232673Y-93160936D01*
X161250021Y-93120844D01*
X161255151Y-93110371D01*
X161276197Y-93072092D01*
X161281180Y-93052680D01*
X161287481Y-93034280D01*
X161295437Y-93015896D01*
X161302270Y-92972748D01*
X161304633Y-92961338D01*
X161315500Y-92919019D01*
X161315500Y-92898983D01*
X161317027Y-92879582D01*
X161317573Y-92876135D01*
X161320160Y-92859804D01*
X161316050Y-92816324D01*
X161315500Y-92804655D01*
X161315500Y-92561057D01*
X161335185Y-92494018D01*
X161374401Y-92455520D01*
X161508656Y-92372712D01*
X161602675Y-92278692D01*
X161663994Y-92245210D01*
X161733686Y-92250194D01*
X161778034Y-92278695D01*
X161871654Y-92372315D01*
X162020875Y-92464356D01*
X162020880Y-92464358D01*
X162187302Y-92519505D01*
X162187309Y-92519506D01*
X162290019Y-92529999D01*
X162352499Y-92529998D01*
X162352500Y-92529998D01*
X162352500Y-91580000D01*
X162852500Y-91580000D01*
X162852500Y-92529999D01*
X162914972Y-92529999D01*
X162914986Y-92529998D01*
X163017697Y-92519505D01*
X163184119Y-92464358D01*
X163184124Y-92464356D01*
X163333345Y-92372315D01*
X163457315Y-92248345D01*
X163549356Y-92099124D01*
X163549358Y-92099119D01*
X163604505Y-91932697D01*
X163604506Y-91932690D01*
X163614999Y-91829986D01*
X163615000Y-91829973D01*
X163615000Y-91580000D01*
X162852500Y-91580000D01*
X162352500Y-91580000D01*
X162352500Y-90130000D01*
X162852500Y-90130000D01*
X162852500Y-91080000D01*
X163614999Y-91080000D01*
X163614999Y-90830028D01*
X163614998Y-90830013D01*
X163604505Y-90727302D01*
X163549358Y-90560880D01*
X163549356Y-90560875D01*
X163457315Y-90411654D01*
X163333345Y-90287684D01*
X163184124Y-90195643D01*
X163184119Y-90195641D01*
X163017697Y-90140494D01*
X163017690Y-90140493D01*
X162914986Y-90130000D01*
X162852500Y-90130000D01*
X162352500Y-90130000D01*
X162352499Y-90129999D01*
X162290028Y-90130000D01*
X162290011Y-90130001D01*
X162187302Y-90140494D01*
X162020880Y-90195641D01*
X162020875Y-90195643D01*
X161871657Y-90287682D01*
X161778034Y-90381305D01*
X161716710Y-90414789D01*
X161647019Y-90409805D01*
X161602672Y-90381304D01*
X161508657Y-90287289D01*
X161508656Y-90287288D01*
X161374402Y-90204480D01*
X161327679Y-90152533D01*
X161315500Y-90098942D01*
X161315500Y-88122230D01*
X161335185Y-88055191D01*
X161351819Y-88034549D01*
X161357091Y-88029277D01*
X161412712Y-87973656D01*
X161414461Y-87970819D01*
X161416169Y-87969283D01*
X161417193Y-87967989D01*
X161417414Y-87968163D01*
X161466406Y-87924096D01*
X161535368Y-87912872D01*
X161599451Y-87940713D01*
X161625537Y-87970817D01*
X161627288Y-87973656D01*
X161751344Y-88097712D01*
X161900666Y-88189814D01*
X162067203Y-88244999D01*
X162169991Y-88255500D01*
X162770008Y-88255499D01*
X162770016Y-88255498D01*
X162770019Y-88255498D01*
X162826302Y-88249748D01*
X162872797Y-88244999D01*
X163039334Y-88189814D01*
X163188656Y-88097712D01*
X163312712Y-87973656D01*
X163318420Y-87964402D01*
X163370368Y-87917678D01*
X163423958Y-87905500D01*
X163538906Y-87905500D01*
X163605945Y-87925185D01*
X163630135Y-87945517D01*
X163707242Y-88029277D01*
X163707252Y-88029286D01*
X163900208Y-88179470D01*
X163900212Y-88179473D01*
X164040697Y-88255500D01*
X164115267Y-88295855D01*
X164115270Y-88295856D01*
X164346541Y-88375251D01*
X164346543Y-88375251D01*
X164346545Y-88375252D01*
X164587737Y-88415500D01*
X164587738Y-88415500D01*
X164832262Y-88415500D01*
X164832263Y-88415500D01*
X165073455Y-88375252D01*
X165304733Y-88295855D01*
X165519788Y-88179473D01*
X165712754Y-88029281D01*
X165878368Y-87849377D01*
X166012111Y-87644667D01*
X166110336Y-87420736D01*
X166170364Y-87183692D01*
X166171692Y-87167664D01*
X166190557Y-86940005D01*
X167729443Y-86940005D01*
X167749634Y-87183683D01*
X167749636Y-87183695D01*
X167809663Y-87420734D01*
X167907888Y-87644666D01*
X168041632Y-87849378D01*
X168207242Y-88029277D01*
X168207252Y-88029286D01*
X168400208Y-88179470D01*
X168400212Y-88179473D01*
X168540697Y-88255500D01*
X168615267Y-88295855D01*
X168846545Y-88375252D01*
X168943518Y-88391434D01*
X169006401Y-88421883D01*
X169042841Y-88481498D01*
X169041267Y-88551349D01*
X169002177Y-88609261D01*
X168992959Y-88616195D01*
X168896786Y-88681764D01*
X168709952Y-88855121D01*
X168709950Y-88855123D01*
X168551041Y-89054388D01*
X168423608Y-89275109D01*
X168330492Y-89512362D01*
X168330490Y-89512369D01*
X168273777Y-89760845D01*
X168254732Y-90014995D01*
X168254732Y-90015004D01*
X168273777Y-90269154D01*
X168327460Y-90504356D01*
X168330492Y-90517637D01*
X168423607Y-90754888D01*
X168551041Y-90975612D01*
X168709950Y-91174877D01*
X168896783Y-91348232D01*
X169107366Y-91491805D01*
X169107371Y-91491807D01*
X169107372Y-91491808D01*
X169107373Y-91491809D01*
X169229328Y-91550538D01*
X169336992Y-91602387D01*
X169336993Y-91602387D01*
X169336996Y-91602389D01*
X169580542Y-91677513D01*
X169832565Y-91715500D01*
X170087435Y-91715500D01*
X170339458Y-91677513D01*
X170583004Y-91602389D01*
X170801205Y-91497309D01*
X170812626Y-91491809D01*
X170812626Y-91491808D01*
X170812634Y-91491805D01*
X171023217Y-91348232D01*
X171210050Y-91174877D01*
X171368959Y-90975612D01*
X171496393Y-90754888D01*
X171589508Y-90517637D01*
X171646222Y-90269157D01*
X171665268Y-90015004D01*
X178254732Y-90015004D01*
X178273777Y-90269154D01*
X178327460Y-90504356D01*
X178330492Y-90517637D01*
X178423607Y-90754888D01*
X178551041Y-90975612D01*
X178709950Y-91174877D01*
X178896783Y-91348232D01*
X179107366Y-91491805D01*
X179107371Y-91491807D01*
X179107372Y-91491808D01*
X179107373Y-91491809D01*
X179229328Y-91550538D01*
X179336992Y-91602387D01*
X179336993Y-91602387D01*
X179336996Y-91602389D01*
X179580542Y-91677513D01*
X179832565Y-91715500D01*
X180087435Y-91715500D01*
X180339458Y-91677513D01*
X180583004Y-91602389D01*
X180801205Y-91497309D01*
X180812626Y-91491809D01*
X180812626Y-91491808D01*
X180812634Y-91491805D01*
X181023217Y-91348232D01*
X181210050Y-91174877D01*
X181368959Y-90975612D01*
X181496393Y-90754888D01*
X181589508Y-90517637D01*
X181646222Y-90269157D01*
X181665268Y-90015000D01*
X181662097Y-89972690D01*
X181646222Y-89760845D01*
X181631195Y-89695009D01*
X181589508Y-89512363D01*
X181496393Y-89275112D01*
X181368959Y-89054388D01*
X181210050Y-88855123D01*
X181023217Y-88681768D01*
X180812634Y-88538195D01*
X180812630Y-88538193D01*
X180812627Y-88538191D01*
X180812626Y-88538190D01*
X180583006Y-88427612D01*
X180583008Y-88427612D01*
X180339466Y-88352489D01*
X180339462Y-88352488D01*
X180339458Y-88352487D01*
X180218231Y-88334214D01*
X180087440Y-88314500D01*
X180087435Y-88314500D01*
X179832565Y-88314500D01*
X179832559Y-88314500D01*
X179686129Y-88336572D01*
X179580542Y-88352487D01*
X179580539Y-88352488D01*
X179580533Y-88352489D01*
X179336992Y-88427612D01*
X179107373Y-88538190D01*
X179107372Y-88538191D01*
X178896782Y-88681768D01*
X178709952Y-88855121D01*
X178709950Y-88855123D01*
X178551041Y-89054388D01*
X178423608Y-89275109D01*
X178330492Y-89512362D01*
X178330490Y-89512369D01*
X178273777Y-89760845D01*
X178254732Y-90014995D01*
X178254732Y-90015004D01*
X171665268Y-90015004D01*
X171665268Y-90015000D01*
X171662097Y-89972690D01*
X171646222Y-89760845D01*
X171631195Y-89695009D01*
X171589508Y-89512363D01*
X171496393Y-89275112D01*
X171368959Y-89054388D01*
X171210050Y-88855123D01*
X171023217Y-88681768D01*
X170812634Y-88538195D01*
X170812630Y-88538193D01*
X170812627Y-88538191D01*
X170812626Y-88538190D01*
X170583006Y-88427612D01*
X170583008Y-88427612D01*
X170339466Y-88352489D01*
X170339462Y-88352488D01*
X170339458Y-88352487D01*
X170200386Y-88331524D01*
X170171050Y-88327103D01*
X170107693Y-88297646D01*
X170070320Y-88238612D01*
X170070795Y-88168744D01*
X170108969Y-88110225D01*
X170113344Y-88106654D01*
X170212754Y-88029281D01*
X170378368Y-87849377D01*
X170512111Y-87644667D01*
X170610336Y-87420736D01*
X170670364Y-87183692D01*
X170671692Y-87167664D01*
X170690557Y-86940005D01*
X170690557Y-86939994D01*
X170670365Y-86696316D01*
X170670363Y-86696304D01*
X170641120Y-86580828D01*
X170610336Y-86459264D01*
X170512111Y-86235333D01*
X170507246Y-86227886D01*
X170378367Y-86030621D01*
X170212757Y-85850722D01*
X170212747Y-85850713D01*
X170019791Y-85700529D01*
X170019787Y-85700526D01*
X169804734Y-85584145D01*
X169804729Y-85584143D01*
X169573458Y-85504748D01*
X169392561Y-85474562D01*
X169332263Y-85464500D01*
X169087737Y-85464500D01*
X169039498Y-85472549D01*
X168846541Y-85504748D01*
X168615270Y-85584143D01*
X168615265Y-85584145D01*
X168400212Y-85700526D01*
X168400208Y-85700529D01*
X168207252Y-85850713D01*
X168207242Y-85850722D01*
X168041632Y-86030621D01*
X167907888Y-86235333D01*
X167809663Y-86459265D01*
X167749636Y-86696304D01*
X167749634Y-86696316D01*
X167729443Y-86939994D01*
X167729443Y-86940005D01*
X166190557Y-86940005D01*
X166190557Y-86939994D01*
X166170365Y-86696316D01*
X166170363Y-86696304D01*
X166141120Y-86580828D01*
X166110336Y-86459264D01*
X166012111Y-86235333D01*
X166007246Y-86227886D01*
X165878367Y-86030621D01*
X165712757Y-85850722D01*
X165712747Y-85850713D01*
X165519791Y-85700529D01*
X165519787Y-85700526D01*
X165304734Y-85584145D01*
X165304729Y-85584143D01*
X165073458Y-85504748D01*
X164892561Y-85474562D01*
X164832263Y-85464500D01*
X164587737Y-85464500D01*
X164539498Y-85472549D01*
X164346541Y-85504748D01*
X164115270Y-85584143D01*
X164115265Y-85584145D01*
X163900212Y-85700526D01*
X163900208Y-85700529D01*
X163707252Y-85850713D01*
X163707242Y-85850722D01*
X163541632Y-86030621D01*
X163512352Y-86075439D01*
X163459206Y-86120796D01*
X163389974Y-86130220D01*
X163326638Y-86100718D01*
X163317832Y-86091437D01*
X163317819Y-86091451D01*
X163188657Y-85962289D01*
X163188656Y-85962288D01*
X163039334Y-85870186D01*
X162872797Y-85815001D01*
X162872795Y-85815000D01*
X162770010Y-85804500D01*
X162169998Y-85804500D01*
X162169980Y-85804501D01*
X162067203Y-85815000D01*
X162067200Y-85815001D01*
X161900668Y-85870185D01*
X161900663Y-85870187D01*
X161751342Y-85962289D01*
X161627285Y-86086346D01*
X161625537Y-86089182D01*
X161623829Y-86090717D01*
X161622807Y-86092011D01*
X161622585Y-86091836D01*
X161573589Y-86135905D01*
X161504626Y-86147126D01*
X161440544Y-86119282D01*
X161414463Y-86089182D01*
X161412714Y-86086346D01*
X161351819Y-86025451D01*
X161318334Y-85964128D01*
X161315500Y-85937770D01*
X161315500Y-84770451D01*
X161335185Y-84703412D01*
X161351814Y-84682775D01*
X162344588Y-83690001D01*
X182359437Y-83690001D01*
X182379650Y-83921044D01*
X182379651Y-83921051D01*
X182439678Y-84145074D01*
X182439679Y-84145076D01*
X182439680Y-84145079D01*
X182537699Y-84355282D01*
X182670730Y-84545269D01*
X182834731Y-84709270D01*
X183019619Y-84838731D01*
X183063242Y-84893306D01*
X183070435Y-84962805D01*
X183038913Y-85025159D01*
X183019617Y-85041879D01*
X182946577Y-85093021D01*
X182946576Y-85093022D01*
X183518432Y-85664878D01*
X183401542Y-85715651D01*
X183284261Y-85811066D01*
X183197072Y-85934585D01*
X183166644Y-86020198D01*
X182593022Y-85446576D01*
X182538134Y-85524967D01*
X182440152Y-85735090D01*
X182440148Y-85735099D01*
X182380147Y-85959031D01*
X182380145Y-85959041D01*
X182359939Y-86189999D01*
X182359939Y-86190000D01*
X182380145Y-86420958D01*
X182380147Y-86420968D01*
X182440148Y-86644900D01*
X182440152Y-86644909D01*
X182538133Y-86855030D01*
X182593023Y-86933422D01*
X183164070Y-86362375D01*
X183166884Y-86375915D01*
X183236442Y-86510156D01*
X183339638Y-86620652D01*
X183468819Y-86699209D01*
X183520002Y-86713549D01*
X182946576Y-87286975D01*
X183024969Y-87341867D01*
X183235090Y-87439847D01*
X183235099Y-87439851D01*
X183459031Y-87499852D01*
X183459041Y-87499854D01*
X183689999Y-87520061D01*
X183690001Y-87520061D01*
X183920958Y-87499854D01*
X183920968Y-87499852D01*
X184144900Y-87439851D01*
X184144909Y-87439847D01*
X184355030Y-87341867D01*
X184355034Y-87341865D01*
X184433422Y-87286976D01*
X184433422Y-87286975D01*
X183861568Y-86715121D01*
X183978458Y-86664349D01*
X184095739Y-86568934D01*
X184182928Y-86445415D01*
X184213354Y-86359801D01*
X184786975Y-86933422D01*
X184786976Y-86933422D01*
X184841865Y-86855034D01*
X184841867Y-86855030D01*
X184939847Y-86644909D01*
X184939851Y-86644900D01*
X184999852Y-86420968D01*
X184999854Y-86420958D01*
X185020061Y-86190000D01*
X185020061Y-86189999D01*
X184999854Y-85959041D01*
X184999852Y-85959031D01*
X184939851Y-85735099D01*
X184939847Y-85735090D01*
X184841867Y-85524971D01*
X184841866Y-85524969D01*
X184786975Y-85446577D01*
X184786975Y-85446576D01*
X184215929Y-86017622D01*
X184213116Y-86004085D01*
X184143558Y-85869844D01*
X184040362Y-85759348D01*
X183911181Y-85680791D01*
X183859996Y-85666449D01*
X184433422Y-85093023D01*
X184360381Y-85041879D01*
X184316756Y-84987301D01*
X184309564Y-84917803D01*
X184341086Y-84855448D01*
X184360376Y-84838733D01*
X184545269Y-84709270D01*
X184709270Y-84545269D01*
X184842301Y-84355282D01*
X184940320Y-84145079D01*
X185000349Y-83921050D01*
X185020563Y-83690000D01*
X185000349Y-83458950D01*
X184940320Y-83234921D01*
X184842301Y-83024719D01*
X184842299Y-83024716D01*
X184842298Y-83024714D01*
X184709273Y-82834735D01*
X184709268Y-82834729D01*
X184545269Y-82670730D01*
X184360814Y-82541572D01*
X184317192Y-82486998D01*
X184309999Y-82417499D01*
X184341521Y-82355145D01*
X184360809Y-82338430D01*
X184545269Y-82209270D01*
X184709270Y-82045269D01*
X184842301Y-81855282D01*
X184940320Y-81645079D01*
X185000349Y-81421050D01*
X185020563Y-81190000D01*
X185000349Y-80958950D01*
X184940320Y-80734921D01*
X184842301Y-80524719D01*
X184842299Y-80524716D01*
X184842298Y-80524714D01*
X184709273Y-80334735D01*
X184709268Y-80334729D01*
X184545269Y-80170730D01*
X184529017Y-80159350D01*
X184355282Y-80037699D01*
X184145079Y-79939680D01*
X184145076Y-79939679D01*
X184145074Y-79939678D01*
X183921051Y-79879651D01*
X183921044Y-79879650D01*
X183690002Y-79859437D01*
X183689998Y-79859437D01*
X183458955Y-79879650D01*
X183458948Y-79879651D01*
X183234917Y-79939681D01*
X183024718Y-80037699D01*
X183024714Y-80037701D01*
X182834735Y-80170726D01*
X182834729Y-80170731D01*
X182670731Y-80334729D01*
X182670726Y-80334735D01*
X182537701Y-80524714D01*
X182537699Y-80524718D01*
X182439681Y-80734917D01*
X182379651Y-80958948D01*
X182379650Y-80958955D01*
X182359437Y-81189998D01*
X182359437Y-81190001D01*
X182379650Y-81421044D01*
X182379651Y-81421051D01*
X182439678Y-81645074D01*
X182439679Y-81645076D01*
X182439680Y-81645079D01*
X182537699Y-81855282D01*
X182670730Y-82045269D01*
X182834730Y-82209269D01*
X183019183Y-82338425D01*
X183062808Y-82393002D01*
X183070000Y-82462501D01*
X183038478Y-82524855D01*
X183019183Y-82541575D01*
X182834731Y-82670730D01*
X182834729Y-82670731D01*
X182670731Y-82834729D01*
X182670726Y-82834735D01*
X182537701Y-83024714D01*
X182537699Y-83024718D01*
X182439681Y-83234917D01*
X182379651Y-83458948D01*
X182379650Y-83458955D01*
X182359437Y-83689998D01*
X182359437Y-83690001D01*
X162344588Y-83690001D01*
X164152449Y-81882139D01*
X164213770Y-81848656D01*
X164280390Y-81852540D01*
X164320062Y-81866160D01*
X164346544Y-81875252D01*
X164387828Y-81882141D01*
X164587737Y-81915500D01*
X164587738Y-81915500D01*
X164832262Y-81915500D01*
X164832263Y-81915500D01*
X165073455Y-81875252D01*
X165304733Y-81795855D01*
X165519788Y-81679473D01*
X165712754Y-81529281D01*
X165878368Y-81349377D01*
X166012111Y-81144667D01*
X166110336Y-80920736D01*
X166170364Y-80683692D01*
X166170365Y-80683683D01*
X166190557Y-80440005D01*
X167729443Y-80440005D01*
X167749634Y-80683683D01*
X167749636Y-80683695D01*
X167809663Y-80920734D01*
X167907888Y-81144666D01*
X168041632Y-81349378D01*
X168132376Y-81447951D01*
X168207246Y-81529281D01*
X168400212Y-81679473D01*
X168615267Y-81795855D01*
X168615270Y-81795856D01*
X168846541Y-81875251D01*
X168846543Y-81875251D01*
X168846545Y-81875252D01*
X169087737Y-81915500D01*
X169087738Y-81915500D01*
X169332262Y-81915500D01*
X169332263Y-81915500D01*
X169573455Y-81875252D01*
X169804733Y-81795855D01*
X170019788Y-81679473D01*
X170212754Y-81529281D01*
X170378368Y-81349377D01*
X170512111Y-81144667D01*
X170610336Y-80920736D01*
X170670364Y-80683692D01*
X170670365Y-80683683D01*
X170690557Y-80440005D01*
X170690557Y-80439994D01*
X170670365Y-80196316D01*
X170670363Y-80196304D01*
X170661005Y-80159350D01*
X170610336Y-79959264D01*
X170512111Y-79735333D01*
X170423085Y-79599068D01*
X170378367Y-79530621D01*
X170212757Y-79350722D01*
X170212756Y-79350721D01*
X170212754Y-79350719D01*
X170113369Y-79273364D01*
X170072556Y-79216654D01*
X170068883Y-79146881D01*
X170103514Y-79086198D01*
X170165456Y-79053871D01*
X170171021Y-79052901D01*
X170339458Y-79027513D01*
X170583004Y-78952389D01*
X170812634Y-78841805D01*
X171023217Y-78698232D01*
X171210050Y-78524877D01*
X171368959Y-78325612D01*
X171496393Y-78104888D01*
X171589508Y-77867637D01*
X171646222Y-77619157D01*
X171665268Y-77365004D01*
X178254732Y-77365004D01*
X178273777Y-77619154D01*
X178273778Y-77619157D01*
X178330492Y-77867637D01*
X178423607Y-78104888D01*
X178551041Y-78325612D01*
X178709950Y-78524877D01*
X178896783Y-78698232D01*
X179107366Y-78841805D01*
X179107371Y-78841807D01*
X179107372Y-78841808D01*
X179107373Y-78841809D01*
X179201704Y-78887236D01*
X179336992Y-78952387D01*
X179336993Y-78952387D01*
X179336996Y-78952389D01*
X179580542Y-79027513D01*
X179832565Y-79065500D01*
X180087435Y-79065500D01*
X180339458Y-79027513D01*
X180583004Y-78952389D01*
X180812634Y-78841805D01*
X181023217Y-78698232D01*
X181210050Y-78524877D01*
X181368959Y-78325612D01*
X181496393Y-78104888D01*
X181589508Y-77867637D01*
X181646222Y-77619157D01*
X181665268Y-77365000D01*
X181646222Y-77110843D01*
X181589508Y-76862363D01*
X181496393Y-76625112D01*
X181368959Y-76404388D01*
X181210050Y-76205123D01*
X181023217Y-76031768D01*
X180812634Y-75888195D01*
X180812630Y-75888193D01*
X180812627Y-75888191D01*
X180812626Y-75888190D01*
X180583006Y-75777612D01*
X180583008Y-75777612D01*
X180339466Y-75702489D01*
X180339462Y-75702488D01*
X180339458Y-75702487D01*
X180218231Y-75684214D01*
X180087440Y-75664500D01*
X180087435Y-75664500D01*
X179832565Y-75664500D01*
X179832559Y-75664500D01*
X179675609Y-75688157D01*
X179580542Y-75702487D01*
X179580539Y-75702488D01*
X179580533Y-75702489D01*
X179336992Y-75777612D01*
X179107373Y-75888190D01*
X179107372Y-75888191D01*
X178896782Y-76031768D01*
X178709952Y-76205121D01*
X178709950Y-76205123D01*
X178551041Y-76404388D01*
X178423608Y-76625109D01*
X178330492Y-76862362D01*
X178330490Y-76862369D01*
X178273777Y-77110845D01*
X178254732Y-77364995D01*
X178254732Y-77365004D01*
X171665268Y-77365004D01*
X171665268Y-77365000D01*
X171646222Y-77110843D01*
X171589508Y-76862363D01*
X171496393Y-76625112D01*
X171368959Y-76404388D01*
X171210050Y-76205123D01*
X171023217Y-76031768D01*
X170812634Y-75888195D01*
X170812630Y-75888193D01*
X170812627Y-75888191D01*
X170812626Y-75888190D01*
X170583006Y-75777612D01*
X170583008Y-75777612D01*
X170339466Y-75702489D01*
X170339462Y-75702488D01*
X170339458Y-75702487D01*
X170218231Y-75684214D01*
X170087440Y-75664500D01*
X170087435Y-75664500D01*
X169832565Y-75664500D01*
X169832559Y-75664500D01*
X169675609Y-75688157D01*
X169580542Y-75702487D01*
X169580539Y-75702488D01*
X169580533Y-75702489D01*
X169336992Y-75777612D01*
X169107373Y-75888190D01*
X169107372Y-75888191D01*
X168896782Y-76031768D01*
X168709952Y-76205121D01*
X168709950Y-76205123D01*
X168551041Y-76404388D01*
X168423608Y-76625109D01*
X168330492Y-76862362D01*
X168330490Y-76862369D01*
X168273777Y-77110845D01*
X168254732Y-77364995D01*
X168254732Y-77365004D01*
X168273777Y-77619154D01*
X168273778Y-77619157D01*
X168330492Y-77867637D01*
X168423607Y-78104888D01*
X168551041Y-78325612D01*
X168709950Y-78524877D01*
X168896783Y-78698232D01*
X168992960Y-78763804D01*
X169037261Y-78817832D01*
X169045320Y-78887236D01*
X169014577Y-78949978D01*
X168954793Y-78986140D01*
X168943517Y-78988566D01*
X168846541Y-79004748D01*
X168615270Y-79084143D01*
X168615265Y-79084145D01*
X168400212Y-79200526D01*
X168400208Y-79200529D01*
X168207252Y-79350713D01*
X168207242Y-79350722D01*
X168041632Y-79530621D01*
X167907888Y-79735333D01*
X167809663Y-79959265D01*
X167749636Y-80196304D01*
X167749634Y-80196316D01*
X167729443Y-80439994D01*
X167729443Y-80440005D01*
X166190557Y-80440005D01*
X166190557Y-80439994D01*
X166170365Y-80196316D01*
X166170363Y-80196304D01*
X166161005Y-80159350D01*
X166110336Y-79959264D01*
X166012111Y-79735333D01*
X165923085Y-79599068D01*
X165878367Y-79530621D01*
X165712757Y-79350722D01*
X165712747Y-79350713D01*
X165519791Y-79200529D01*
X165519787Y-79200526D01*
X165304734Y-79084145D01*
X165304729Y-79084143D01*
X165073458Y-79004748D01*
X164836623Y-78965227D01*
X164773738Y-78934776D01*
X164737298Y-78875161D01*
X164738874Y-78805309D01*
X164769350Y-78755239D01*
X169512772Y-74011819D01*
X169574095Y-73978334D01*
X169600453Y-73975500D01*
X172067257Y-73975500D01*
X172082877Y-73977224D01*
X172082904Y-73976939D01*
X172090660Y-73977671D01*
X172090667Y-73977673D01*
X172157873Y-73975561D01*
X172161768Y-73975500D01*
X172189346Y-73975500D01*
X172189350Y-73975500D01*
X172193324Y-73974997D01*
X172204963Y-73974080D01*
X172248627Y-73972709D01*
X172267869Y-73967117D01*
X172286912Y-73963174D01*
X172306792Y-73960664D01*
X172347401Y-73944585D01*
X172358444Y-73940803D01*
X172400390Y-73928618D01*
X172417629Y-73918422D01*
X172435103Y-73909862D01*
X172453727Y-73902488D01*
X172453727Y-73902487D01*
X172453732Y-73902486D01*
X172489083Y-73876800D01*
X172498814Y-73870408D01*
X172536420Y-73848170D01*
X172550589Y-73833999D01*
X172565379Y-73821368D01*
X172581587Y-73809594D01*
X172609438Y-73775926D01*
X172617279Y-73767309D01*
X176505350Y-69879239D01*
X176566671Y-69845756D01*
X176636363Y-69850740D01*
X176692296Y-69892612D01*
X176716713Y-69958076D01*
X176716557Y-69977728D01*
X176714609Y-69999996D01*
X176714609Y-70000001D01*
X176734136Y-70223200D01*
X176734137Y-70223208D01*
X176792126Y-70439625D01*
X176792127Y-70439627D01*
X176792128Y-70439630D01*
X176868151Y-70602663D01*
X176886819Y-70642696D01*
X176886821Y-70642700D01*
X177015329Y-70826228D01*
X177015334Y-70826234D01*
X177173765Y-70984665D01*
X177173771Y-70984670D01*
X177357299Y-71113178D01*
X177357301Y-71113179D01*
X177357304Y-71113181D01*
X177560370Y-71207872D01*
X177776794Y-71265863D01*
X177936226Y-71279811D01*
X177999998Y-71285391D01*
X178000000Y-71285391D01*
X178000002Y-71285391D01*
X178055927Y-71280498D01*
X178223206Y-71265863D01*
X178439630Y-71207872D01*
X178642696Y-71113181D01*
X178826233Y-70984667D01*
X178984667Y-70826233D01*
X179113181Y-70642696D01*
X179207872Y-70439630D01*
X179265863Y-70223206D01*
X179285391Y-70000000D01*
X179284313Y-69987683D01*
X179276450Y-69897809D01*
X179265863Y-69776794D01*
X179207872Y-69560370D01*
X179113181Y-69357305D01*
X179027947Y-69235578D01*
X178984668Y-69173768D01*
X178923416Y-69112516D01*
X178826233Y-69015333D01*
X178826229Y-69015330D01*
X178826228Y-69015329D01*
X178642700Y-68886821D01*
X178642696Y-68886819D01*
X178590445Y-68862454D01*
X178439630Y-68792128D01*
X178439627Y-68792127D01*
X178439625Y-68792126D01*
X178223208Y-68734137D01*
X178223200Y-68734136D01*
X178000002Y-68714609D01*
X177999996Y-68714609D01*
X177977728Y-68716557D01*
X177909228Y-68702790D01*
X177859046Y-68654174D01*
X177843113Y-68586145D01*
X177866489Y-68520302D01*
X177879235Y-68505354D01*
X180101509Y-66283080D01*
X180162830Y-66249597D01*
X180221280Y-66250987D01*
X180276794Y-66265863D01*
X180466758Y-66282482D01*
X180499998Y-66285391D01*
X180500000Y-66285391D01*
X180500002Y-66285391D01*
X180555801Y-66280509D01*
X180723206Y-66265863D01*
X180939630Y-66207872D01*
X181142696Y-66113181D01*
X181326233Y-65984667D01*
X181484667Y-65826233D01*
X181588197Y-65678377D01*
X181642774Y-65634752D01*
X181689772Y-65625500D01*
X185752781Y-65625500D01*
X185819820Y-65645185D01*
G37*
%TD.AperFunction*%
%TA.AperFunction,Conductor*%
G36*
X166373039Y-105044685D02*
G01*
X166418794Y-105097489D01*
X166430000Y-105149000D01*
X166430000Y-106747295D01*
X166430001Y-106747295D01*
X166432486Y-106747100D01*
X166590198Y-106701281D01*
X166637379Y-106673379D01*
X166705103Y-106656196D01*
X166771365Y-106678356D01*
X166815129Y-106732822D01*
X166824500Y-106780111D01*
X166824500Y-108677340D01*
X166804815Y-108744379D01*
X166771628Y-108778912D01*
X166755863Y-108789951D01*
X166594951Y-108950862D01*
X166464432Y-109137265D01*
X166464431Y-109137267D01*
X166368261Y-109343502D01*
X166368258Y-109343511D01*
X166309366Y-109563302D01*
X166309364Y-109563313D01*
X166289532Y-109789998D01*
X166289532Y-109790001D01*
X166309364Y-110016686D01*
X166309366Y-110016697D01*
X166368258Y-110236488D01*
X166368260Y-110236492D01*
X166368261Y-110236496D01*
X166408910Y-110323668D01*
X166460401Y-110434091D01*
X166470893Y-110503169D01*
X166442373Y-110566953D01*
X166387024Y-110604202D01*
X166233166Y-110655186D01*
X166233163Y-110655187D01*
X166083842Y-110747289D01*
X165990181Y-110840951D01*
X165928858Y-110874436D01*
X165859166Y-110869452D01*
X165814819Y-110840951D01*
X165721157Y-110747289D01*
X165721156Y-110747288D01*
X165594402Y-110669106D01*
X165547679Y-110617159D01*
X165535500Y-110563568D01*
X165535500Y-106780111D01*
X165555185Y-106713072D01*
X165607989Y-106667317D01*
X165677147Y-106657373D01*
X165722621Y-106673379D01*
X165769801Y-106701281D01*
X165927514Y-106747100D01*
X165927511Y-106747100D01*
X165929998Y-106747295D01*
X165930000Y-106747295D01*
X165930000Y-105149000D01*
X165949685Y-105081961D01*
X166002489Y-105036206D01*
X166054000Y-105025000D01*
X166306000Y-105025000D01*
X166373039Y-105044685D01*
G37*
%TD.AperFunction*%
%TA.AperFunction,Conductor*%
G36*
X131701230Y-72498714D02*
G01*
X131701501Y-72498786D01*
X131701504Y-72498788D01*
X131742595Y-72509798D01*
X131802254Y-72546162D01*
X131832783Y-72609009D01*
X131834500Y-72629572D01*
X131834500Y-80037255D01*
X131832775Y-80052872D01*
X131833061Y-80052899D01*
X131832326Y-80060665D01*
X131834439Y-80127872D01*
X131834500Y-80131767D01*
X131834500Y-80159357D01*
X131835003Y-80163335D01*
X131835918Y-80174967D01*
X131837290Y-80218624D01*
X131837291Y-80218627D01*
X131842880Y-80237867D01*
X131846824Y-80256911D01*
X131849033Y-80274393D01*
X131849336Y-80276792D01*
X131865414Y-80317403D01*
X131869197Y-80328452D01*
X131881381Y-80370388D01*
X131891580Y-80387634D01*
X131900138Y-80405103D01*
X131907514Y-80423732D01*
X131933181Y-80459060D01*
X131939593Y-80468821D01*
X131961828Y-80506417D01*
X131961833Y-80506424D01*
X131975990Y-80520580D01*
X131988628Y-80535376D01*
X132000405Y-80551586D01*
X132000406Y-80551587D01*
X132034057Y-80579425D01*
X132042698Y-80587288D01*
X146593228Y-95137819D01*
X146626713Y-95199142D01*
X146621729Y-95268834D01*
X146579857Y-95324767D01*
X146514393Y-95349184D01*
X146505547Y-95349500D01*
X132761076Y-95349500D01*
X132694037Y-95329815D01*
X132659501Y-95296623D01*
X132566747Y-95164156D01*
X132405843Y-95003252D01*
X132219436Y-94872730D01*
X132219434Y-94872729D01*
X132013199Y-94776559D01*
X132013190Y-94776556D01*
X131793399Y-94717664D01*
X131793395Y-94717663D01*
X131793394Y-94717663D01*
X131793393Y-94717662D01*
X131793388Y-94717662D01*
X131566704Y-94697830D01*
X131566700Y-94697830D01*
X131340015Y-94717662D01*
X131340004Y-94717664D01*
X131120213Y-94776556D01*
X131120204Y-94776559D01*
X130913969Y-94872729D01*
X130913967Y-94872730D01*
X130727560Y-95003252D01*
X130566656Y-95164156D01*
X130436132Y-95350566D01*
X130433423Y-95355259D01*
X130431225Y-95353990D01*
X130392044Y-95398430D01*
X130324838Y-95417536D01*
X130257970Y-95397276D01*
X130238224Y-95381222D01*
X129220321Y-94363319D01*
X128191834Y-93334831D01*
X128158349Y-93273508D01*
X128163333Y-93203816D01*
X128185815Y-93167198D01*
X128185429Y-93166897D01*
X128188137Y-93163417D01*
X128188300Y-93163152D01*
X128188581Y-93162846D01*
X128188584Y-93162842D01*
X128315482Y-92968611D01*
X128408682Y-92756135D01*
X128465638Y-92531218D01*
X128484798Y-92300005D01*
X128484798Y-92299994D01*
X128465638Y-92068781D01*
X128408682Y-91843864D01*
X128315484Y-91631393D01*
X128231186Y-91502365D01*
X127563076Y-92170474D01*
X127539493Y-92090156D01*
X127461761Y-91969202D01*
X127353100Y-91875048D01*
X127222315Y-91815320D01*
X127212532Y-91813913D01*
X127878797Y-91147647D01*
X127878797Y-91147645D01*
X127848360Y-91123955D01*
X127848354Y-91123951D01*
X127644302Y-91013523D01*
X127644293Y-91013520D01*
X127424860Y-90938188D01*
X127196007Y-90900000D01*
X126963993Y-90900000D01*
X126735139Y-90938188D01*
X126515706Y-91013520D01*
X126515697Y-91013523D01*
X126311650Y-91123949D01*
X126281200Y-91147647D01*
X126947467Y-91813913D01*
X126937685Y-91815320D01*
X126806900Y-91875048D01*
X126698239Y-91969202D01*
X126620507Y-92090156D01*
X126596922Y-92170476D01*
X125947134Y-91520688D01*
X125913649Y-91459365D01*
X125913738Y-91449725D01*
X125874358Y-91330880D01*
X125782315Y-91181654D01*
X125658345Y-91057684D01*
X125509124Y-90965643D01*
X125509119Y-90965641D01*
X125342697Y-90910494D01*
X125342690Y-90910493D01*
X125239986Y-90900000D01*
X124790000Y-90900000D01*
X124790000Y-91864498D01*
X124682315Y-91815320D01*
X124575763Y-91800000D01*
X124504237Y-91800000D01*
X124397685Y-91815320D01*
X124290000Y-91864498D01*
X124290000Y-90900000D01*
X123840028Y-90900000D01*
X123840012Y-90900001D01*
X123737302Y-90910494D01*
X123570880Y-90965641D01*
X123570875Y-90965643D01*
X123421654Y-91057684D01*
X123297684Y-91181654D01*
X123205643Y-91330875D01*
X123205641Y-91330880D01*
X123150494Y-91497302D01*
X123150493Y-91497309D01*
X123140000Y-91600013D01*
X123140000Y-92050000D01*
X124106314Y-92050000D01*
X124080507Y-92090156D01*
X124040000Y-92228111D01*
X124040000Y-92371889D01*
X124080507Y-92509844D01*
X124106314Y-92550000D01*
X123140001Y-92550000D01*
X123140001Y-92999986D01*
X123150494Y-93102697D01*
X123205641Y-93269119D01*
X123205643Y-93269124D01*
X123297684Y-93418345D01*
X123421654Y-93542315D01*
X123554821Y-93624453D01*
X123601545Y-93676401D01*
X123612768Y-93745364D01*
X123584924Y-93809446D01*
X123580954Y-93813974D01*
X123431019Y-93976849D01*
X123304075Y-94171151D01*
X123210842Y-94383699D01*
X123153866Y-94608691D01*
X123153864Y-94608702D01*
X123134700Y-94839993D01*
X123134700Y-94840006D01*
X123153864Y-95071297D01*
X123153866Y-95071308D01*
X123210842Y-95296300D01*
X123304075Y-95508848D01*
X123431016Y-95703147D01*
X123431019Y-95703151D01*
X123431021Y-95703153D01*
X123588216Y-95873913D01*
X123588219Y-95873915D01*
X123588222Y-95873918D01*
X123765818Y-96012147D01*
X123806631Y-96068857D01*
X123810306Y-96138630D01*
X123775674Y-96199313D01*
X123765818Y-96207853D01*
X123588222Y-96346081D01*
X123588219Y-96346084D01*
X123588216Y-96346086D01*
X123588216Y-96346087D01*
X123586748Y-96347682D01*
X123431016Y-96516852D01*
X123304075Y-96711151D01*
X123210842Y-96923699D01*
X123153866Y-97148691D01*
X123153864Y-97148702D01*
X123134700Y-97379993D01*
X123134700Y-97380006D01*
X123153864Y-97611297D01*
X123153866Y-97611308D01*
X123210842Y-97836300D01*
X123304075Y-98048848D01*
X123431016Y-98243147D01*
X123431019Y-98243151D01*
X123431021Y-98243153D01*
X123588216Y-98413913D01*
X123588219Y-98413915D01*
X123588222Y-98413918D01*
X123765818Y-98552147D01*
X123806631Y-98608857D01*
X123810306Y-98678630D01*
X123775674Y-98739313D01*
X123765818Y-98747853D01*
X123588222Y-98886081D01*
X123588219Y-98886084D01*
X123588216Y-98886086D01*
X123588216Y-98886087D01*
X123577547Y-98897677D01*
X123431016Y-99056852D01*
X123304075Y-99251151D01*
X123210842Y-99463699D01*
X123153866Y-99688691D01*
X123153864Y-99688702D01*
X123134700Y-99919993D01*
X123134700Y-99920006D01*
X123153864Y-100151297D01*
X123153866Y-100151308D01*
X123210842Y-100376300D01*
X123304075Y-100588848D01*
X123431016Y-100783147D01*
X123431019Y-100783151D01*
X123431021Y-100783153D01*
X123588216Y-100953913D01*
X123588219Y-100953915D01*
X123588222Y-100953918D01*
X123765818Y-101092147D01*
X123806631Y-101148857D01*
X123810306Y-101218630D01*
X123775674Y-101279313D01*
X123765818Y-101287853D01*
X123588222Y-101426081D01*
X123588219Y-101426084D01*
X123588216Y-101426086D01*
X123588216Y-101426087D01*
X123529267Y-101490122D01*
X123431016Y-101596852D01*
X123304074Y-101791153D01*
X123295672Y-101810309D01*
X123250717Y-101863795D01*
X123183981Y-101884486D01*
X123182116Y-101884500D01*
X123177017Y-101884500D01*
X123109978Y-101864815D01*
X123064223Y-101812011D01*
X123059311Y-101799505D01*
X123039814Y-101740666D01*
X122947712Y-101591344D01*
X122823656Y-101467288D01*
X122823655Y-101467287D01*
X122776902Y-101438449D01*
X122730178Y-101386500D01*
X122718000Y-101332911D01*
X122718000Y-81447951D01*
X122737685Y-81380912D01*
X122754314Y-81360275D01*
X131478786Y-72635802D01*
X131491048Y-72625980D01*
X131490865Y-72625759D01*
X131496868Y-72620791D01*
X131496877Y-72620786D01*
X131542934Y-72571739D01*
X131545582Y-72569006D01*
X131565120Y-72549470D01*
X131567570Y-72546310D01*
X131575158Y-72537424D01*
X131578752Y-72533598D01*
X131638994Y-72498209D01*
X131701230Y-72498714D01*
G37*
%TD.AperFunction*%
%TA.AperFunction,Conductor*%
G36*
X150002834Y-93465027D02*
G01*
X150052623Y-93483597D01*
X150052627Y-93483598D01*
X150112155Y-93489999D01*
X150112172Y-93490000D01*
X150806046Y-93490000D01*
X150873085Y-93509685D01*
X150918840Y-93562489D01*
X150928784Y-93631647D01*
X150899759Y-93695203D01*
X150893727Y-93701681D01*
X150326208Y-94269199D01*
X150313951Y-94279020D01*
X150314134Y-94279241D01*
X150308122Y-94284214D01*
X150262098Y-94333223D01*
X150259391Y-94336016D01*
X150239889Y-94355517D01*
X150239875Y-94355534D01*
X150237407Y-94358715D01*
X150229843Y-94367570D01*
X150199937Y-94399418D01*
X150199936Y-94399420D01*
X150190284Y-94416976D01*
X150179610Y-94433226D01*
X150167329Y-94449061D01*
X150167324Y-94449068D01*
X150149975Y-94489158D01*
X150144838Y-94499644D01*
X150123803Y-94537906D01*
X150118822Y-94557307D01*
X150112521Y-94575710D01*
X150104562Y-94594102D01*
X150104561Y-94594105D01*
X150097728Y-94637243D01*
X150095360Y-94648674D01*
X150084501Y-94690971D01*
X150084500Y-94690982D01*
X150084500Y-94711016D01*
X150082973Y-94730416D01*
X150081973Y-94736729D01*
X150074186Y-94753152D01*
X150078477Y-94759829D01*
X150082950Y-94783095D01*
X150083950Y-94793674D01*
X150084500Y-94805343D01*
X150084500Y-94974942D01*
X150064815Y-95041981D01*
X150012011Y-95087736D01*
X149947307Y-95098238D01*
X149946307Y-95098131D01*
X149881743Y-95071426D01*
X149841865Y-95014054D01*
X149835500Y-94974835D01*
X149835500Y-94794764D01*
X149846743Y-94756474D01*
X149836522Y-94733219D01*
X149835500Y-94717329D01*
X149835500Y-93581209D01*
X149855185Y-93514170D01*
X149907989Y-93468415D01*
X149977147Y-93458471D01*
X150002834Y-93465027D01*
G37*
%TD.AperFunction*%
%TA.AperFunction,Conductor*%
G36*
X152962540Y-88565185D02*
G01*
X153008295Y-88617989D01*
X153019501Y-88669500D01*
X153019501Y-89157876D01*
X153025908Y-89217483D01*
X153076202Y-89352328D01*
X153076206Y-89352335D01*
X153162452Y-89467544D01*
X153162455Y-89467547D01*
X153277664Y-89553793D01*
X153277671Y-89553797D01*
X153412517Y-89604091D01*
X153412516Y-89604091D01*
X153419444Y-89604835D01*
X153472127Y-89610500D01*
X154685547Y-89610499D01*
X154752586Y-89630184D01*
X154798341Y-89682987D01*
X154808285Y-89752146D01*
X154779260Y-89815702D01*
X154773228Y-89822180D01*
X152571681Y-92023727D01*
X152510358Y-92057212D01*
X152440666Y-92052228D01*
X152384733Y-92010356D01*
X152360316Y-91944892D01*
X152360000Y-91936046D01*
X152360000Y-91242172D01*
X152359999Y-91242155D01*
X152353598Y-91182627D01*
X152353596Y-91182620D01*
X152303354Y-91047913D01*
X152303350Y-91047906D01*
X152217190Y-90932812D01*
X152217187Y-90932809D01*
X152102093Y-90846649D01*
X152102086Y-90846645D01*
X151967379Y-90796403D01*
X151967372Y-90796401D01*
X151907844Y-90790000D01*
X151710536Y-90790000D01*
X151643497Y-90770315D01*
X151597742Y-90717511D01*
X151587798Y-90648353D01*
X151616823Y-90584797D01*
X151671532Y-90548294D01*
X151804119Y-90504358D01*
X151804124Y-90504356D01*
X151953345Y-90412315D01*
X152077315Y-90288345D01*
X152169356Y-90139124D01*
X152169358Y-90139119D01*
X152224505Y-89972697D01*
X152224506Y-89972690D01*
X152234999Y-89869986D01*
X152235000Y-89869973D01*
X152235000Y-89820000D01*
X150884000Y-89820000D01*
X150816961Y-89800315D01*
X150771206Y-89747511D01*
X150760000Y-89696000D01*
X150760000Y-89444000D01*
X150779685Y-89376961D01*
X150832489Y-89331206D01*
X150884000Y-89320000D01*
X152234999Y-89320000D01*
X152234999Y-89270028D01*
X152234998Y-89270013D01*
X152224505Y-89167302D01*
X152169358Y-89000880D01*
X152169356Y-89000875D01*
X152077315Y-88851654D01*
X151982842Y-88757181D01*
X151949357Y-88695858D01*
X151954341Y-88626166D01*
X151996213Y-88570233D01*
X152061677Y-88545816D01*
X152070523Y-88545500D01*
X152895501Y-88545500D01*
X152962540Y-88565185D01*
G37*
%TD.AperFunction*%
%TD*%
D43*
%TO.C,J1*%
X124540000Y-92300000D03*
D44*
X127080000Y-92300000D03*
X124540000Y-94840000D03*
X127080000Y-94840000D03*
X124540000Y-97380000D03*
X127080000Y-97380000D03*
X124540000Y-99920000D03*
X127080000Y-99920000D03*
X124540000Y-102460000D03*
X127080000Y-102460000D03*
X124540000Y-105000000D03*
X127080000Y-105000000D03*
X124540000Y-107540000D03*
X127080000Y-107540000D03*
D45*
X187080000Y-99920000D03*
X157080000Y-126920000D03*
X157080000Y-72920000D03*
X115080000Y-134920000D03*
X115080000Y-64920000D03*
%TD*%
D46*
%TO.C,SMCLK1*%
X157110000Y-102090000D03*
%TD*%
%TO.C,RST_TDO/TDI1*%
X161590000Y-77920000D03*
%TD*%
D47*
%TO.C,S1*%
X183690000Y-86190000D03*
X183690000Y-83690000D03*
X183690000Y-81190000D03*
X172460000Y-92420000D03*
X174960000Y-92420000D03*
X177460000Y-92420000D03*
D48*
X169210000Y-80440000D03*
X169210000Y-86940000D03*
X164710000Y-80440000D03*
X164710000Y-86940000D03*
D49*
X179960000Y-90015000D03*
X179960000Y-77365000D03*
X169960000Y-77365000D03*
X169960000Y-90015000D03*
%TD*%
D46*
%TO.C,UART_RX1*%
X174244000Y-133350000D03*
%TD*%
%TO.C,SCL_I2C1*%
X115040000Y-101760000D03*
%TD*%
%TO.C,R4*%
X187000000Y-67500000D03*
D50*
X187000000Y-64960000D03*
%TD*%
D51*
%TO.C,C7*%
X160050000Y-108420000D03*
X158150000Y-108420000D03*
%TD*%
D52*
%TO.C,R8*%
X168530000Y-111800000D03*
X170355000Y-111800000D03*
%TD*%
%TO.C,R5*%
X164990000Y-111790000D03*
X166815000Y-111790000D03*
%TD*%
D53*
%TO.C,C4*%
X162650000Y-128710000D03*
X162650000Y-126810000D03*
%TD*%
D46*
%TO.C,J2*%
X162814000Y-134112000D03*
D50*
X162814000Y-131572000D03*
X165354000Y-134112000D03*
X165354000Y-131572000D03*
X167894000Y-134112000D03*
X167894000Y-131572000D03*
X170434000Y-134112000D03*
X170434000Y-131572000D03*
%TD*%
D46*
%TO.C,ACLK1*%
X157640000Y-92060000D03*
%TD*%
D54*
%TO.C,LCD1*%
X127380000Y-71155000D03*
D55*
X127380000Y-68615000D03*
X129920000Y-71155000D03*
X129920000Y-68615000D03*
X132460000Y-71155000D03*
X132460000Y-68615000D03*
X135000000Y-71155000D03*
X135000000Y-68615000D03*
D56*
X142590000Y-69130000D03*
X142590000Y-130130000D03*
X119590000Y-130130000D03*
X119590000Y-69130000D03*
%TD*%
D46*
%TO.C,LDR2*%
X187060000Y-72530000D03*
%TD*%
D53*
%TO.C,C5*%
X124470000Y-70830000D03*
X124470000Y-68930000D03*
%TD*%
D57*
%TO.C,SW1*%
X161400000Y-71010000D03*
X161400000Y-64510000D03*
X165900000Y-71010000D03*
X165900000Y-64510000D03*
%TD*%
D58*
%TO.C,R13*%
X162602500Y-91330000D03*
X160777500Y-91330000D03*
%TD*%
D46*
%TO.C,uC_VCC1*%
X151010000Y-92140000D03*
%TD*%
D53*
%TO.C,C2*%
X151010000Y-89570000D03*
X151010000Y-87670000D03*
%TD*%
D46*
%TO.C,uC_GND1*%
X154370000Y-88260000D03*
%TD*%
D52*
%TO.C,R2*%
X120317500Y-105140000D03*
X122142500Y-105140000D03*
%TD*%
D46*
%TO.C,LDR1*%
X186940000Y-127000000D03*
%TD*%
D59*
%TO.C,C1*%
X160570000Y-87030000D03*
X162470000Y-87030000D03*
%TD*%
D52*
%TO.C,R11*%
X163937500Y-74250000D03*
X165762500Y-74250000D03*
%TD*%
D60*
%TO.C,RV2*%
X183000000Y-70000000D03*
D61*
X180500000Y-65000000D03*
X178000000Y-70000000D03*
%TD*%
D58*
%TO.C,R6*%
X166932500Y-94710000D03*
X165107500Y-94710000D03*
%TD*%
D46*
%TO.C,J3*%
X171650000Y-70840000D03*
D50*
X171650000Y-68300000D03*
X171650000Y-65760000D03*
%TD*%
D62*
%TO.C,R9*%
X163062500Y-113612500D03*
X163062500Y-111787500D03*
%TD*%
D63*
%TO.C,D1*%
X112450000Y-92420000D03*
D44*
X114990000Y-92420000D03*
%TD*%
D62*
%TO.C,R12*%
X112470000Y-89382500D03*
X112470000Y-87557500D03*
%TD*%
D46*
%TO.C,R1*%
X187000000Y-132225000D03*
D50*
X187000000Y-134765000D03*
%TD*%
D64*
%TO.C,C9*%
X168640000Y-65130000D03*
X168640000Y-67030000D03*
%TD*%
D65*
%TO.C,U1*%
X162370000Y-105275000D03*
X163640000Y-105275000D03*
X164910000Y-105275000D03*
X166180000Y-105275000D03*
X167450000Y-105275000D03*
X168720000Y-105275000D03*
X169990000Y-105275000D03*
X169990000Y-100325000D03*
X168720000Y-100325000D03*
X167450000Y-100325000D03*
X166180000Y-100325000D03*
X164910000Y-100325000D03*
X163640000Y-100325000D03*
X162370000Y-100325000D03*
%TD*%
D58*
%TO.C,R7*%
X171452500Y-97390000D03*
X169627500Y-97390000D03*
%TD*%
D46*
%TO.C,UART_TX1*%
X158750000Y-133096000D03*
%TD*%
D52*
%TO.C,R10*%
X161557500Y-97310000D03*
X163382500Y-97310000D03*
%TD*%
D60*
%TO.C,RV1*%
X178000000Y-129760000D03*
D61*
X180500000Y-134760000D03*
X183000000Y-129760000D03*
%TD*%
D52*
%TO.C,R3*%
X120267500Y-102510000D03*
X122092500Y-102510000D03*
%TD*%
D59*
%TO.C,C3*%
X120290000Y-107610000D03*
X122190000Y-107610000D03*
%TD*%
D46*
%TO.C,SDA_I2C1*%
X115020000Y-105500000D03*
%TD*%
D53*
%TO.C,Cload2*%
X146185000Y-81360000D03*
X146185000Y-79460000D03*
%TD*%
%TO.C,Cload1*%
X151745000Y-81360000D03*
X151745000Y-79460000D03*
%TD*%
D66*
%TO.C,Y1*%
X149615000Y-81420000D03*
D67*
X148345000Y-81420000D03*
%TD*%
D68*
%TO.C,IC1*%
X152710000Y-96332000D03*
X152210000Y-96332000D03*
X151710000Y-96332000D03*
X151210000Y-96332000D03*
X150710000Y-96332000D03*
X150210000Y-96332000D03*
X149710000Y-96332000D03*
X149210000Y-96332000D03*
X148710000Y-96332000D03*
X148210000Y-96332000D03*
X147710000Y-96332000D03*
X147210000Y-96332000D03*
D69*
X145722000Y-97820000D03*
X145722000Y-98320000D03*
X145722000Y-98820000D03*
X145722000Y-99320000D03*
X145722000Y-99820000D03*
X145722000Y-100320000D03*
X145722000Y-100820000D03*
X145722000Y-101320000D03*
X145722000Y-101820000D03*
X145722000Y-102320000D03*
X145722000Y-102820000D03*
X145722000Y-103320000D03*
D68*
X147210000Y-104808000D03*
X147710000Y-104808000D03*
X148210000Y-104808000D03*
X148710000Y-104808000D03*
X149210000Y-104808000D03*
X149710000Y-104808000D03*
X150210000Y-104808000D03*
X150710000Y-104808000D03*
X151210000Y-104808000D03*
X151710000Y-104808000D03*
X152210000Y-104808000D03*
X152710000Y-104808000D03*
D69*
X154198000Y-103320000D03*
X154198000Y-102820000D03*
X154198000Y-102320000D03*
X154198000Y-101820000D03*
X154198000Y-101320000D03*
X154198000Y-100820000D03*
X154198000Y-100320000D03*
X154198000Y-99820000D03*
X154198000Y-99320000D03*
X154198000Y-98820000D03*
X154198000Y-98320000D03*
X154198000Y-97820000D03*
%TD*%
M02*
