M48
; DRILL file {KiCad 7.0.10} date Mon Mar 17 23:03:41 2025
; FORMAT={-:-/ absolute / inch / decimal}
; #@! TF.CreationDate,2025-03-17T23:03:41+01:00
; #@! TF.GenerationSoftware,Kicad,Pcbnew,7.0.10
; #@! TF.FileFunction,Plated,1,2,PTH
FMAT,2
INCH
; #@! TA.AperFunction,Plated,PTH,ComponentDrill
T1C0.0256
; #@! TA.AperFunction,Plated,PTH,ViaDrill
T2C0.0315
; #@! TA.AperFunction,Plated,PTH,ComponentDrill
T3C0.0354
; #@! TA.AperFunction,Plated,PTH,ComponentDrill
T4C0.0394
; #@! TA.AperFunction,Plated,PTH,ComponentDrill
T5C0.0433
; #@! TA.AperFunction,Plated,PTH,ComponentDrill
T6C0.0512
; #@! TA.AperFunction,Plated,PTH,ComponentDrill
T7C0.0630
; #@! TA.AperFunction,Plated,PTH,ComponentDrill
T8C0.0984
; #@! TA.AperFunction,Plated,PTH,ComponentDrill
T9C0.1181
%
G90
G05
T1
X5.8404Y-3.2055
X5.8904Y-3.2055
T2
X4.4264Y-3.3677
X4.6913Y-3.6362
X5.1798Y-3.7797
X5.2535Y-3.8266
X5.3008Y-3.3409
X5.4047Y-3.237
X5.5476Y-3.6283
X5.6551Y-3.925
X5.6559Y-4.1283
X5.6717Y-3.0234
X5.6717Y-3.1022
X5.6717Y-3.1809
X5.6717Y-3.2596
X5.6722Y-3.3445
X5.7504Y-3.0234
X5.8291Y-3.0234
X5.8496Y-3.8969
X5.9079Y-3.0234
X5.9315Y-3.8969
X5.9866Y-3.0234
X6.0654Y-3.0234
X6.0654Y-3.1022
X6.0654Y-3.1809
X6.0654Y-3.2596
X6.0659Y-3.3445
X6.1579Y-4.2701
X6.184Y-3.7348
X6.25Y-4.65
X6.3815Y-4.2697
X6.4012Y-4.9142
X6.45Y-4.58
X6.5047Y-3.8321
X6.5368Y-4.2693
X6.5866Y-3.8321
X6.5982Y-4.3224
X6.706Y-4.4795
T3
X4.4272Y-3.6386
X4.5272Y-3.6386
T4
X4.5283Y-4.1535
X4.5291Y-4.0063
X4.9031Y-3.6339
X4.9031Y-3.7339
X4.9031Y-3.8339
X4.9031Y-3.9339
X4.9031Y-4.0339
X4.9031Y-4.1339
X4.9031Y-4.2339
X5.0031Y-3.6339
X5.0031Y-3.7339
X5.0031Y-3.8339
X5.0031Y-3.9339
X5.0031Y-4.0339
X5.0031Y-4.1339
X5.0031Y-4.2339
X5.015Y-2.7014
X5.015Y-2.8014
X5.115Y-2.7014
X5.115Y-2.8014
X5.215Y-2.7014
X5.215Y-2.8014
X5.315Y-2.7014
X5.315Y-2.8014
X5.9453Y-3.6276
X6.0776Y-3.4748
X6.1854Y-4.0193
X6.2063Y-3.6244
X6.25Y-5.24
X6.3618Y-3.0677
X6.41Y-5.18
X6.41Y-5.28
X6.51Y-5.18
X6.51Y-5.28
X6.61Y-5.18
X6.61Y-5.28
X6.71Y-5.18
X6.71Y-5.28
X6.7579Y-2.589
X6.7579Y-2.689
X6.7579Y-2.789
X6.86Y-5.25
X7.0079Y-2.7559
X7.0079Y-5.1087
X7.1063Y-2.5591
X7.1063Y-5.3055
X7.2047Y-2.7559
X7.2047Y-5.1087
X7.3598Y-5.0
X7.3622Y-2.5575
X7.3622Y-2.6575
X7.3622Y-5.2057
X7.3622Y-5.3057
X7.3646Y-2.8555
T5
X6.3543Y-2.5398
X6.3543Y-2.7957
X6.5315Y-2.5398
X6.5315Y-2.7957
X6.7898Y-3.6386
X6.8882Y-3.6386
X6.9866Y-3.6386
X7.2319Y-3.1965
X7.2319Y-3.2949
X7.2319Y-3.3933
T6
X6.4846Y-3.1669
X6.4846Y-3.4228
X6.6618Y-3.1669
X6.6618Y-3.4228
T7
X6.6913Y-3.0459
X6.6913Y-3.5439
X7.085Y-3.0459
X7.085Y-3.5439
T8
X4.7083Y-2.7217
X4.7083Y-5.1232
X5.6138Y-2.7217
X5.6138Y-5.1232
T9
X4.5307Y-2.5559
X4.5307Y-5.3118
X6.1843Y-2.8709
X6.1843Y-4.9969
X7.3654Y-3.9339
M30
