%TF.GenerationSoftware,KiCad,Pcbnew,7.0.10*%
%TF.CreationDate,2025-03-17T23:03:50+01:00*%
%TF.ProjectId,maqueen,6d617175-6565-46e2-9e6b-696361645f70,rev?*%
%TF.SameCoordinates,Original*%
%TF.FileFunction,Drillmap*%
%TF.FilePolarity,Positive*%
%FSLAX45Y45*%
G04 Gerber Fmt 4.5, Leading zero omitted, Abs format (unit mm)*
G04 Created by KiCad (PCBNEW 7.0.10) date 2025-03-17 23:03:50*
%MOMM*%
%LPD*%
G01*
G04 APERTURE LIST*
%ADD10C,0.100000*%
%ADD11C,0.200000*%
%ADD12C,0.110000*%
%ADD13C,0.130000*%
%ADD14C,0.160000*%
%ADD15C,0.250000*%
%ADD16C,0.300000*%
G04 APERTURE END LIST*
D10*
X10958000Y-6242000D02*
X18958000Y-6242000D01*
X18958000Y-13742000D01*
X10958000Y-13742000D01*
X10958000Y-6242000D01*
D11*
D10*
X14802000Y-8109500D02*
X14867000Y-8174500D01*
X14867000Y-8109500D02*
X14802000Y-8174500D01*
X14929000Y-8109500D02*
X14994000Y-8174500D01*
X14994000Y-8109500D02*
X14929000Y-8174500D01*
X11283000Y-8554000D02*
G75*
G03*
X11203000Y-8554000I-40000J0D01*
G01*
X11203000Y-8554000D02*
G75*
G03*
X11283000Y-8554000I40000J0D01*
G01*
X11956000Y-9236000D02*
G75*
G03*
X11876000Y-9236000I-40000J0D01*
G01*
X11876000Y-9236000D02*
G75*
G03*
X11956000Y-9236000I40000J0D01*
G01*
X13196670Y-9600330D02*
G75*
G03*
X13116670Y-9600330I-40000J0D01*
G01*
X13116670Y-9600330D02*
G75*
G03*
X13196670Y-9600330I40000J0D01*
G01*
X13384000Y-9719500D02*
G75*
G03*
X13304000Y-9719500I-40000J0D01*
G01*
X13304000Y-9719500D02*
G75*
G03*
X13384000Y-9719500I40000J0D01*
G01*
X13504000Y-8486000D02*
G75*
G03*
X13424000Y-8486000I-40000J0D01*
G01*
X13424000Y-8486000D02*
G75*
G03*
X13504000Y-8486000I40000J0D01*
G01*
X13768000Y-8222000D02*
G75*
G03*
X13688000Y-8222000I-40000J0D01*
G01*
X13688000Y-8222000D02*
G75*
G03*
X13768000Y-8222000I40000J0D01*
G01*
X14131000Y-9216000D02*
G75*
G03*
X14051000Y-9216000I-40000J0D01*
G01*
X14051000Y-9216000D02*
G75*
G03*
X14131000Y-9216000I40000J0D01*
G01*
X14404000Y-9969500D02*
G75*
G03*
X14324000Y-9969500I-40000J0D01*
G01*
X14324000Y-9969500D02*
G75*
G03*
X14404000Y-9969500I40000J0D01*
G01*
X14406000Y-10486000D02*
G75*
G03*
X14326000Y-10486000I-40000J0D01*
G01*
X14326000Y-10486000D02*
G75*
G03*
X14406000Y-10486000I40000J0D01*
G01*
X14446000Y-7679500D02*
G75*
G03*
X14366000Y-7679500I-40000J0D01*
G01*
X14366000Y-7679500D02*
G75*
G03*
X14446000Y-7679500I40000J0D01*
G01*
X14446000Y-7879500D02*
G75*
G03*
X14366000Y-7879500I-40000J0D01*
G01*
X14366000Y-7879500D02*
G75*
G03*
X14446000Y-7879500I40000J0D01*
G01*
X14446000Y-8079500D02*
G75*
G03*
X14366000Y-8079500I-40000J0D01*
G01*
X14366000Y-8079500D02*
G75*
G03*
X14446000Y-8079500I40000J0D01*
G01*
X14446000Y-8279500D02*
G75*
G03*
X14366000Y-8279500I-40000J0D01*
G01*
X14366000Y-8279500D02*
G75*
G03*
X14446000Y-8279500I40000J0D01*
G01*
X14447500Y-8495000D02*
G75*
G03*
X14367500Y-8495000I-40000J0D01*
G01*
X14367500Y-8495000D02*
G75*
G03*
X14447500Y-8495000I40000J0D01*
G01*
X14646000Y-7679500D02*
G75*
G03*
X14566000Y-7679500I-40000J0D01*
G01*
X14566000Y-7679500D02*
G75*
G03*
X14646000Y-7679500I40000J0D01*
G01*
X14846000Y-7679500D02*
G75*
G03*
X14766000Y-7679500I-40000J0D01*
G01*
X14766000Y-7679500D02*
G75*
G03*
X14846000Y-7679500I40000J0D01*
G01*
X14898000Y-9898000D02*
G75*
G03*
X14818000Y-9898000I-40000J0D01*
G01*
X14818000Y-9898000D02*
G75*
G03*
X14898000Y-9898000I40000J0D01*
G01*
X15046000Y-7679500D02*
G75*
G03*
X14966000Y-7679500I-40000J0D01*
G01*
X14966000Y-7679500D02*
G75*
G03*
X15046000Y-7679500I40000J0D01*
G01*
X15106000Y-9898000D02*
G75*
G03*
X15026000Y-9898000I-40000J0D01*
G01*
X15026000Y-9898000D02*
G75*
G03*
X15106000Y-9898000I40000J0D01*
G01*
X15246000Y-7679500D02*
G75*
G03*
X15166000Y-7679500I-40000J0D01*
G01*
X15166000Y-7679500D02*
G75*
G03*
X15246000Y-7679500I40000J0D01*
G01*
X15446000Y-7679500D02*
G75*
G03*
X15366000Y-7679500I-40000J0D01*
G01*
X15366000Y-7679500D02*
G75*
G03*
X15446000Y-7679500I40000J0D01*
G01*
X15446000Y-7879500D02*
G75*
G03*
X15366000Y-7879500I-40000J0D01*
G01*
X15366000Y-7879500D02*
G75*
G03*
X15446000Y-7879500I40000J0D01*
G01*
X15446000Y-8079500D02*
G75*
G03*
X15366000Y-8079500I-40000J0D01*
G01*
X15366000Y-8079500D02*
G75*
G03*
X15446000Y-8079500I40000J0D01*
G01*
X15446000Y-8279500D02*
G75*
G03*
X15366000Y-8279500I-40000J0D01*
G01*
X15366000Y-8279500D02*
G75*
G03*
X15446000Y-8279500I40000J0D01*
G01*
X15447500Y-8495000D02*
G75*
G03*
X15367500Y-8495000I-40000J0D01*
G01*
X15367500Y-8495000D02*
G75*
G03*
X15447500Y-8495000I40000J0D01*
G01*
X15681000Y-10846000D02*
G75*
G03*
X15601000Y-10846000I-40000J0D01*
G01*
X15601000Y-10846000D02*
G75*
G03*
X15681000Y-10846000I40000J0D01*
G01*
X15747450Y-9486450D02*
G75*
G03*
X15667450Y-9486450I-40000J0D01*
G01*
X15667450Y-9486450D02*
G75*
G03*
X15747450Y-9486450I40000J0D01*
G01*
X15915000Y-11811000D02*
G75*
G03*
X15835000Y-11811000I-40000J0D01*
G01*
X15835000Y-11811000D02*
G75*
G03*
X15915000Y-11811000I40000J0D01*
G01*
X16249000Y-10845000D02*
G75*
G03*
X16169000Y-10845000I-40000J0D01*
G01*
X16169000Y-10845000D02*
G75*
G03*
X16249000Y-10845000I40000J0D01*
G01*
X16299000Y-12482000D02*
G75*
G03*
X16219000Y-12482000I-40000J0D01*
G01*
X16219000Y-12482000D02*
G75*
G03*
X16299000Y-12482000I40000J0D01*
G01*
X16423000Y-11633200D02*
G75*
G03*
X16343000Y-11633200I-40000J0D01*
G01*
X16343000Y-11633200D02*
G75*
G03*
X16423000Y-11633200I40000J0D01*
G01*
X16562000Y-9733500D02*
G75*
G03*
X16482000Y-9733500I-40000J0D01*
G01*
X16482000Y-9733500D02*
G75*
G03*
X16562000Y-9733500I40000J0D01*
G01*
X16643500Y-10844000D02*
G75*
G03*
X16563500Y-10844000I-40000J0D01*
G01*
X16563500Y-10844000D02*
G75*
G03*
X16643500Y-10844000I40000J0D01*
G01*
X16770000Y-9733500D02*
G75*
G03*
X16690000Y-9733500I-40000J0D01*
G01*
X16690000Y-9733500D02*
G75*
G03*
X16770000Y-9733500I40000J0D01*
G01*
X16799500Y-10979000D02*
G75*
G03*
X16719500Y-10979000I-40000J0D01*
G01*
X16719500Y-10979000D02*
G75*
G03*
X16799500Y-10979000I40000J0D01*
G01*
X17073250Y-11378000D02*
G75*
G03*
X16993250Y-11378000I-40000J0D01*
G01*
X16993250Y-11378000D02*
G75*
G03*
X17073250Y-11378000I40000J0D01*
G01*
X11245000Y-9197000D02*
X11245000Y-9287000D01*
X11200000Y-9242000D02*
X11290000Y-9242000D01*
X11499000Y-9197000D02*
X11499000Y-9287000D01*
X11454000Y-9242000D02*
X11544000Y-9242000D01*
X11537356Y-10585356D02*
X11537356Y-10514644D01*
X11466644Y-10514644D01*
X11466644Y-10585356D01*
X11537356Y-10585356D01*
X11539356Y-10211356D02*
X11539356Y-10140644D01*
X11468644Y-10140644D01*
X11468644Y-10211356D01*
X11539356Y-10211356D01*
X12489356Y-9265356D02*
X12489356Y-9194644D01*
X12418644Y-9194644D01*
X12418644Y-9265356D01*
X12489356Y-9265356D01*
X12489356Y-9519356D02*
X12489356Y-9448644D01*
X12418644Y-9448644D01*
X12418644Y-9519356D01*
X12489356Y-9519356D01*
X12489356Y-9773356D02*
X12489356Y-9702644D01*
X12418644Y-9702644D01*
X12418644Y-9773356D01*
X12489356Y-9773356D01*
X12489356Y-10027356D02*
X12489356Y-9956644D01*
X12418644Y-9956644D01*
X12418644Y-10027356D01*
X12489356Y-10027356D01*
X12489356Y-10281356D02*
X12489356Y-10210644D01*
X12418644Y-10210644D01*
X12418644Y-10281356D01*
X12489356Y-10281356D01*
X12489356Y-10535356D02*
X12489356Y-10464644D01*
X12418644Y-10464644D01*
X12418644Y-10535356D01*
X12489356Y-10535356D01*
X12489356Y-10789356D02*
X12489356Y-10718644D01*
X12418644Y-10718644D01*
X12418644Y-10789356D01*
X12489356Y-10789356D01*
X12743356Y-9265356D02*
X12743356Y-9194644D01*
X12672644Y-9194644D01*
X12672644Y-9265356D01*
X12743356Y-9265356D01*
X12743356Y-9519356D02*
X12743356Y-9448644D01*
X12672644Y-9448644D01*
X12672644Y-9519356D01*
X12743356Y-9519356D01*
X12743356Y-9773356D02*
X12743356Y-9702644D01*
X12672644Y-9702644D01*
X12672644Y-9773356D01*
X12743356Y-9773356D01*
X12743356Y-10027356D02*
X12743356Y-9956644D01*
X12672644Y-9956644D01*
X12672644Y-10027356D01*
X12743356Y-10027356D01*
X12743356Y-10281356D02*
X12743356Y-10210644D01*
X12672644Y-10210644D01*
X12672644Y-10281356D01*
X12743356Y-10281356D01*
X12743356Y-10535356D02*
X12743356Y-10464644D01*
X12672644Y-10464644D01*
X12672644Y-10535356D01*
X12743356Y-10535356D01*
X12743356Y-10789356D02*
X12743356Y-10718644D01*
X12672644Y-10718644D01*
X12672644Y-10789356D01*
X12743356Y-10789356D01*
X12773356Y-6896856D02*
X12773356Y-6826144D01*
X12702644Y-6826144D01*
X12702644Y-6896856D01*
X12773356Y-6896856D01*
X12773356Y-7150856D02*
X12773356Y-7080144D01*
X12702644Y-7080144D01*
X12702644Y-7150856D01*
X12773356Y-7150856D01*
X13027356Y-6896856D02*
X13027356Y-6826144D01*
X12956644Y-6826144D01*
X12956644Y-6896856D01*
X13027356Y-6896856D01*
X13027356Y-7150856D02*
X13027356Y-7080144D01*
X12956644Y-7080144D01*
X12956644Y-7150856D01*
X13027356Y-7150856D01*
X13281356Y-6896856D02*
X13281356Y-6826144D01*
X13210644Y-6826144D01*
X13210644Y-6896856D01*
X13281356Y-6896856D01*
X13281356Y-7150856D02*
X13281356Y-7080144D01*
X13210644Y-7080144D01*
X13210644Y-7150856D01*
X13281356Y-7150856D01*
X13535356Y-6896856D02*
X13535356Y-6826144D01*
X13464644Y-6826144D01*
X13464644Y-6896856D01*
X13535356Y-6896856D01*
X13535356Y-7150856D02*
X13535356Y-7080144D01*
X13464644Y-7080144D01*
X13464644Y-7150856D01*
X13535356Y-7150856D01*
X15136356Y-9249356D02*
X15136356Y-9178644D01*
X15065644Y-9178644D01*
X15065644Y-9249356D01*
X15136356Y-9249356D01*
X15472356Y-8861356D02*
X15472356Y-8790644D01*
X15401644Y-8790644D01*
X15401644Y-8861356D01*
X15472356Y-8861356D01*
X15746356Y-10244356D02*
X15746356Y-10173644D01*
X15675644Y-10173644D01*
X15675644Y-10244356D01*
X15746356Y-10244356D01*
X15799356Y-9241356D02*
X15799356Y-9170644D01*
X15728644Y-9170644D01*
X15728644Y-9241356D01*
X15799356Y-9241356D01*
X15910356Y-13344956D02*
X15910356Y-13274244D01*
X15839644Y-13274244D01*
X15839644Y-13344956D01*
X15910356Y-13344956D01*
X16194356Y-7827356D02*
X16194356Y-7756644D01*
X16123644Y-7756644D01*
X16123644Y-7827356D01*
X16194356Y-7827356D01*
X16316756Y-13192556D02*
X16316756Y-13121844D01*
X16246044Y-13121844D01*
X16246044Y-13192556D01*
X16316756Y-13192556D01*
X16316756Y-13446556D02*
X16316756Y-13375844D01*
X16246044Y-13375844D01*
X16246044Y-13446556D01*
X16316756Y-13446556D01*
X16570756Y-13192556D02*
X16570756Y-13121844D01*
X16500044Y-13121844D01*
X16500044Y-13192556D01*
X16570756Y-13192556D01*
X16570756Y-13446556D02*
X16570756Y-13375844D01*
X16500044Y-13375844D01*
X16500044Y-13446556D01*
X16570756Y-13446556D01*
X16824756Y-13192556D02*
X16824756Y-13121844D01*
X16754044Y-13121844D01*
X16754044Y-13192556D01*
X16824756Y-13192556D01*
X16824756Y-13446556D02*
X16824756Y-13375844D01*
X16754044Y-13375844D01*
X16754044Y-13446556D01*
X16824756Y-13446556D01*
X17078756Y-13192556D02*
X17078756Y-13121844D01*
X17008044Y-13121844D01*
X17008044Y-13192556D01*
X17078756Y-13192556D01*
X17078756Y-13446556D02*
X17078756Y-13375844D01*
X17008044Y-13375844D01*
X17008044Y-13446556D01*
X17078756Y-13446556D01*
X17200356Y-6611356D02*
X17200356Y-6540644D01*
X17129644Y-6540644D01*
X17129644Y-6611356D01*
X17200356Y-6611356D01*
X17200356Y-6865356D02*
X17200356Y-6794644D01*
X17129644Y-6794644D01*
X17129644Y-6865356D01*
X17200356Y-6865356D01*
X17200356Y-7119356D02*
X17200356Y-7048644D01*
X17129644Y-7048644D01*
X17129644Y-7119356D01*
X17200356Y-7119356D01*
X17459756Y-13370356D02*
X17459756Y-13299644D01*
X17389044Y-13299644D01*
X17389044Y-13370356D01*
X17459756Y-13370356D01*
X17835356Y-7035356D02*
X17835356Y-6964644D01*
X17764644Y-6964644D01*
X17764644Y-7035356D01*
X17835356Y-7035356D01*
X17835356Y-13011356D02*
X17835356Y-12940644D01*
X17764644Y-12940644D01*
X17764644Y-13011356D01*
X17835356Y-13011356D01*
X18085356Y-6535356D02*
X18085356Y-6464644D01*
X18014644Y-6464644D01*
X18014644Y-6535356D01*
X18085356Y-6535356D01*
X18085356Y-13511356D02*
X18085356Y-13440644D01*
X18014644Y-13440644D01*
X18014644Y-13511356D01*
X18085356Y-13511356D01*
X18335356Y-7035356D02*
X18335356Y-6964644D01*
X18264644Y-6964644D01*
X18264644Y-7035356D01*
X18335356Y-7035356D01*
X18335356Y-13011356D02*
X18335356Y-12940644D01*
X18264644Y-12940644D01*
X18264644Y-13011356D01*
X18335356Y-13011356D01*
X18729356Y-12735356D02*
X18729356Y-12664644D01*
X18658644Y-12664644D01*
X18658644Y-12735356D01*
X18729356Y-12735356D01*
X18735356Y-6531356D02*
X18735356Y-6460644D01*
X18664644Y-6460644D01*
X18664644Y-6531356D01*
X18735356Y-6531356D01*
X18735356Y-6785356D02*
X18735356Y-6714644D01*
X18664644Y-6714644D01*
X18664644Y-6785356D01*
X18735356Y-6785356D01*
X18735356Y-13257856D02*
X18735356Y-13187144D01*
X18664644Y-13187144D01*
X18664644Y-13257856D01*
X18735356Y-13257856D01*
X18735356Y-13511856D02*
X18735356Y-13441144D01*
X18664644Y-13441144D01*
X18664644Y-13511856D01*
X18735356Y-13511856D01*
X18741356Y-7288356D02*
X18741356Y-7217644D01*
X18670644Y-7217644D01*
X18670644Y-7288356D01*
X18741356Y-7288356D01*
D12*
X16140000Y-6506000D02*
X16195000Y-6451000D01*
X16140000Y-6396000D01*
X16085000Y-6451000D01*
X16140000Y-6506000D01*
X16140000Y-7156000D02*
X16195000Y-7101000D01*
X16140000Y-7046000D01*
X16085000Y-7101000D01*
X16140000Y-7156000D01*
X16590000Y-6506000D02*
X16645000Y-6451000D01*
X16590000Y-6396000D01*
X16535000Y-6451000D01*
X16590000Y-6506000D01*
X16590000Y-7156000D02*
X16645000Y-7101000D01*
X16590000Y-7046000D01*
X16535000Y-7101000D01*
X16590000Y-7156000D01*
X17246000Y-9297000D02*
X17301000Y-9242000D01*
X17246000Y-9187000D01*
X17191000Y-9242000D01*
X17246000Y-9297000D01*
X17496000Y-9297000D02*
X17551000Y-9242000D01*
X17496000Y-9187000D01*
X17441000Y-9242000D01*
X17496000Y-9297000D01*
X17746000Y-9297000D02*
X17801000Y-9242000D01*
X17746000Y-9187000D01*
X17691000Y-9242000D01*
X17746000Y-9297000D01*
X18369000Y-8174000D02*
X18424000Y-8119000D01*
X18369000Y-8064000D01*
X18314000Y-8119000D01*
X18369000Y-8174000D01*
X18369000Y-8424000D02*
X18424000Y-8369000D01*
X18369000Y-8314000D01*
X18314000Y-8369000D01*
X18369000Y-8424000D01*
X18369000Y-8674000D02*
X18424000Y-8619000D01*
X18369000Y-8564000D01*
X18314000Y-8619000D01*
X18369000Y-8674000D01*
D13*
X16406000Y-7979000D02*
X16536000Y-8109000D01*
X16536000Y-7979000D02*
X16406000Y-8109000D01*
X16536000Y-8044000D02*
G75*
G03*
X16406000Y-8044000I-65000J0D01*
G01*
X16406000Y-8044000D02*
G75*
G03*
X16536000Y-8044000I65000J0D01*
G01*
X16406000Y-8629000D02*
X16536000Y-8759000D01*
X16536000Y-8629000D02*
X16406000Y-8759000D01*
X16536000Y-8694000D02*
G75*
G03*
X16406000Y-8694000I-65000J0D01*
G01*
X16406000Y-8694000D02*
G75*
G03*
X16536000Y-8694000I65000J0D01*
G01*
X16856000Y-7979000D02*
X16986000Y-8109000D01*
X16986000Y-7979000D02*
X16856000Y-8109000D01*
X16986000Y-8044000D02*
G75*
G03*
X16856000Y-8044000I-65000J0D01*
G01*
X16856000Y-8044000D02*
G75*
G03*
X16986000Y-8044000I65000J0D01*
G01*
X16856000Y-8629000D02*
X16986000Y-8759000D01*
X16986000Y-8629000D02*
X16856000Y-8759000D01*
X16986000Y-8694000D02*
G75*
G03*
X16856000Y-8694000I-65000J0D01*
G01*
X16856000Y-8694000D02*
G75*
G03*
X16986000Y-8694000I65000J0D01*
G01*
D14*
X16916000Y-7656500D02*
X17076000Y-7816500D01*
X17076000Y-7656500D02*
X16916000Y-7816500D01*
X16996000Y-7656500D02*
X16996000Y-7816500D01*
X16916000Y-7736500D02*
X17076000Y-7736500D01*
X16916000Y-8921500D02*
X17076000Y-9081500D01*
X17076000Y-8921500D02*
X16916000Y-9081500D01*
X16996000Y-8921500D02*
X16996000Y-9081500D01*
X16916000Y-9001500D02*
X17076000Y-9001500D01*
X17916000Y-7656500D02*
X18076000Y-7816500D01*
X18076000Y-7656500D02*
X17916000Y-7816500D01*
X17996000Y-7656500D02*
X17996000Y-7816500D01*
X17916000Y-7736500D02*
X18076000Y-7736500D01*
X17916000Y-8921500D02*
X18076000Y-9081500D01*
X18076000Y-8921500D02*
X17916000Y-9081500D01*
X17996000Y-8921500D02*
X17996000Y-9081500D01*
X17916000Y-9001500D02*
X18076000Y-9001500D01*
D15*
X11834000Y-6788000D02*
X12084000Y-7038000D01*
X12084000Y-6788000D02*
X11834000Y-7038000D01*
X12047389Y-7001389D02*
X12047389Y-6824611D01*
X11870611Y-6824611D01*
X11870611Y-7001389D01*
X12047389Y-7001389D01*
X11834000Y-12888000D02*
X12084000Y-13138000D01*
X12084000Y-12888000D02*
X11834000Y-13138000D01*
X12047389Y-13101389D02*
X12047389Y-12924611D01*
X11870611Y-12924611D01*
X11870611Y-13101389D01*
X12047389Y-13101389D01*
X14134000Y-6788000D02*
X14384000Y-7038000D01*
X14384000Y-6788000D02*
X14134000Y-7038000D01*
X14347389Y-7001389D02*
X14347389Y-6824611D01*
X14170611Y-6824611D01*
X14170611Y-7001389D01*
X14347389Y-7001389D01*
X14134000Y-12888000D02*
X14384000Y-13138000D01*
X14384000Y-12888000D02*
X14134000Y-13138000D01*
X14347389Y-13101389D02*
X14347389Y-12924611D01*
X14170611Y-12924611D01*
X14170611Y-13101389D01*
X14347389Y-13101389D01*
D16*
X11358000Y-6342000D02*
X11658000Y-6642000D01*
X11658000Y-6342000D02*
X11358000Y-6642000D01*
X11508000Y-6642000D02*
X11658000Y-6492000D01*
X11508000Y-6342000D01*
X11358000Y-6492000D01*
X11508000Y-6642000D01*
X11358000Y-13342000D02*
X11658000Y-13642000D01*
X11658000Y-13342000D02*
X11358000Y-13642000D01*
X11508000Y-13642000D02*
X11658000Y-13492000D01*
X11508000Y-13342000D01*
X11358000Y-13492000D01*
X11508000Y-13642000D01*
X15558000Y-7142000D02*
X15858000Y-7442000D01*
X15858000Y-7142000D02*
X15558000Y-7442000D01*
X15708000Y-7442000D02*
X15858000Y-7292000D01*
X15708000Y-7142000D01*
X15558000Y-7292000D01*
X15708000Y-7442000D01*
X15558000Y-12542000D02*
X15858000Y-12842000D01*
X15858000Y-12542000D02*
X15558000Y-12842000D01*
X15708000Y-12842000D02*
X15858000Y-12692000D01*
X15708000Y-12542000D01*
X15558000Y-12692000D01*
X15708000Y-12842000D01*
X18558000Y-9842000D02*
X18858000Y-10142000D01*
X18858000Y-9842000D02*
X18558000Y-10142000D01*
X18708000Y-10142000D02*
X18858000Y-9992000D01*
X18708000Y-9842000D01*
X18558000Y-9992000D01*
X18708000Y-10142000D01*
D11*
X11213777Y-14058484D02*
X11213777Y-13858484D01*
X11213777Y-13858484D02*
X11261396Y-13858484D01*
X11261396Y-13858484D02*
X11289967Y-13868008D01*
X11289967Y-13868008D02*
X11309015Y-13887055D01*
X11309015Y-13887055D02*
X11318539Y-13906103D01*
X11318539Y-13906103D02*
X11328062Y-13944198D01*
X11328062Y-13944198D02*
X11328062Y-13972769D01*
X11328062Y-13972769D02*
X11318539Y-14010865D01*
X11318539Y-14010865D02*
X11309015Y-14029912D01*
X11309015Y-14029912D02*
X11289967Y-14048960D01*
X11289967Y-14048960D02*
X11261396Y-14058484D01*
X11261396Y-14058484D02*
X11213777Y-14058484D01*
X11413777Y-14058484D02*
X11413777Y-13925150D01*
X11413777Y-13963246D02*
X11423301Y-13944198D01*
X11423301Y-13944198D02*
X11432824Y-13934674D01*
X11432824Y-13934674D02*
X11451872Y-13925150D01*
X11451872Y-13925150D02*
X11470920Y-13925150D01*
X11537586Y-14058484D02*
X11537586Y-13925150D01*
X11537586Y-13858484D02*
X11528062Y-13868008D01*
X11528062Y-13868008D02*
X11537586Y-13877531D01*
X11537586Y-13877531D02*
X11547110Y-13868008D01*
X11547110Y-13868008D02*
X11537586Y-13858484D01*
X11537586Y-13858484D02*
X11537586Y-13877531D01*
X11661396Y-14058484D02*
X11642348Y-14048960D01*
X11642348Y-14048960D02*
X11632824Y-14029912D01*
X11632824Y-14029912D02*
X11632824Y-13858484D01*
X11766158Y-14058484D02*
X11747110Y-14048960D01*
X11747110Y-14048960D02*
X11737586Y-14029912D01*
X11737586Y-14029912D02*
X11737586Y-13858484D01*
X11994729Y-14058484D02*
X11994729Y-13858484D01*
X11994729Y-13858484D02*
X12061396Y-14001341D01*
X12061396Y-14001341D02*
X12128062Y-13858484D01*
X12128062Y-13858484D02*
X12128062Y-14058484D01*
X12309015Y-14058484D02*
X12309015Y-13953722D01*
X12309015Y-13953722D02*
X12299491Y-13934674D01*
X12299491Y-13934674D02*
X12280443Y-13925150D01*
X12280443Y-13925150D02*
X12242348Y-13925150D01*
X12242348Y-13925150D02*
X12223301Y-13934674D01*
X12309015Y-14048960D02*
X12289967Y-14058484D01*
X12289967Y-14058484D02*
X12242348Y-14058484D01*
X12242348Y-14058484D02*
X12223301Y-14048960D01*
X12223301Y-14048960D02*
X12213777Y-14029912D01*
X12213777Y-14029912D02*
X12213777Y-14010865D01*
X12213777Y-14010865D02*
X12223301Y-13991817D01*
X12223301Y-13991817D02*
X12242348Y-13982293D01*
X12242348Y-13982293D02*
X12289967Y-13982293D01*
X12289967Y-13982293D02*
X12309015Y-13972769D01*
X12404253Y-13925150D02*
X12404253Y-14125150D01*
X12404253Y-13934674D02*
X12423301Y-13925150D01*
X12423301Y-13925150D02*
X12461396Y-13925150D01*
X12461396Y-13925150D02*
X12480443Y-13934674D01*
X12480443Y-13934674D02*
X12489967Y-13944198D01*
X12489967Y-13944198D02*
X12499491Y-13963246D01*
X12499491Y-13963246D02*
X12499491Y-14020388D01*
X12499491Y-14020388D02*
X12489967Y-14039436D01*
X12489967Y-14039436D02*
X12480443Y-14048960D01*
X12480443Y-14048960D02*
X12461396Y-14058484D01*
X12461396Y-14058484D02*
X12423301Y-14058484D01*
X12423301Y-14058484D02*
X12404253Y-14048960D01*
X12585205Y-14039436D02*
X12594729Y-14048960D01*
X12594729Y-14048960D02*
X12585205Y-14058484D01*
X12585205Y-14058484D02*
X12575682Y-14048960D01*
X12575682Y-14048960D02*
X12585205Y-14039436D01*
X12585205Y-14039436D02*
X12585205Y-14058484D01*
X12585205Y-13934674D02*
X12594729Y-13944198D01*
X12594729Y-13944198D02*
X12585205Y-13953722D01*
X12585205Y-13953722D02*
X12575682Y-13944198D01*
X12575682Y-13944198D02*
X12585205Y-13934674D01*
X12585205Y-13934674D02*
X12585205Y-13953722D01*
D10*
X10888000Y-14354500D02*
X10953000Y-14419500D01*
X10953000Y-14354500D02*
X10888000Y-14419500D01*
D11*
X11251872Y-14278484D02*
X11270920Y-14278484D01*
X11270920Y-14278484D02*
X11289967Y-14288008D01*
X11289967Y-14288008D02*
X11299491Y-14297531D01*
X11299491Y-14297531D02*
X11309015Y-14316579D01*
X11309015Y-14316579D02*
X11318539Y-14354674D01*
X11318539Y-14354674D02*
X11318539Y-14402293D01*
X11318539Y-14402293D02*
X11309015Y-14440388D01*
X11309015Y-14440388D02*
X11299491Y-14459436D01*
X11299491Y-14459436D02*
X11289967Y-14468960D01*
X11289967Y-14468960D02*
X11270920Y-14478484D01*
X11270920Y-14478484D02*
X11251872Y-14478484D01*
X11251872Y-14478484D02*
X11232824Y-14468960D01*
X11232824Y-14468960D02*
X11223301Y-14459436D01*
X11223301Y-14459436D02*
X11213777Y-14440388D01*
X11213777Y-14440388D02*
X11204253Y-14402293D01*
X11204253Y-14402293D02*
X11204253Y-14354674D01*
X11204253Y-14354674D02*
X11213777Y-14316579D01*
X11213777Y-14316579D02*
X11223301Y-14297531D01*
X11223301Y-14297531D02*
X11232824Y-14288008D01*
X11232824Y-14288008D02*
X11251872Y-14278484D01*
X11404253Y-14459436D02*
X11413777Y-14468960D01*
X11413777Y-14468960D02*
X11404253Y-14478484D01*
X11404253Y-14478484D02*
X11394729Y-14468960D01*
X11394729Y-14468960D02*
X11404253Y-14459436D01*
X11404253Y-14459436D02*
X11404253Y-14478484D01*
X11585205Y-14278484D02*
X11547110Y-14278484D01*
X11547110Y-14278484D02*
X11528062Y-14288008D01*
X11528062Y-14288008D02*
X11518539Y-14297531D01*
X11518539Y-14297531D02*
X11499491Y-14326103D01*
X11499491Y-14326103D02*
X11489967Y-14364198D01*
X11489967Y-14364198D02*
X11489967Y-14440388D01*
X11489967Y-14440388D02*
X11499491Y-14459436D01*
X11499491Y-14459436D02*
X11509015Y-14468960D01*
X11509015Y-14468960D02*
X11528062Y-14478484D01*
X11528062Y-14478484D02*
X11566158Y-14478484D01*
X11566158Y-14478484D02*
X11585205Y-14468960D01*
X11585205Y-14468960D02*
X11594729Y-14459436D01*
X11594729Y-14459436D02*
X11604253Y-14440388D01*
X11604253Y-14440388D02*
X11604253Y-14392769D01*
X11604253Y-14392769D02*
X11594729Y-14373722D01*
X11594729Y-14373722D02*
X11585205Y-14364198D01*
X11585205Y-14364198D02*
X11566158Y-14354674D01*
X11566158Y-14354674D02*
X11528062Y-14354674D01*
X11528062Y-14354674D02*
X11509015Y-14364198D01*
X11509015Y-14364198D02*
X11499491Y-14373722D01*
X11499491Y-14373722D02*
X11489967Y-14392769D01*
X11785205Y-14278484D02*
X11689967Y-14278484D01*
X11689967Y-14278484D02*
X11680443Y-14373722D01*
X11680443Y-14373722D02*
X11689967Y-14364198D01*
X11689967Y-14364198D02*
X11709015Y-14354674D01*
X11709015Y-14354674D02*
X11756634Y-14354674D01*
X11756634Y-14354674D02*
X11775682Y-14364198D01*
X11775682Y-14364198D02*
X11785205Y-14373722D01*
X11785205Y-14373722D02*
X11794729Y-14392769D01*
X11794729Y-14392769D02*
X11794729Y-14440388D01*
X11794729Y-14440388D02*
X11785205Y-14459436D01*
X11785205Y-14459436D02*
X11775682Y-14468960D01*
X11775682Y-14468960D02*
X11756634Y-14478484D01*
X11756634Y-14478484D02*
X11709015Y-14478484D01*
X11709015Y-14478484D02*
X11689967Y-14468960D01*
X11689967Y-14468960D02*
X11680443Y-14459436D01*
X11918539Y-14278484D02*
X11937586Y-14278484D01*
X11937586Y-14278484D02*
X11956634Y-14288008D01*
X11956634Y-14288008D02*
X11966158Y-14297531D01*
X11966158Y-14297531D02*
X11975682Y-14316579D01*
X11975682Y-14316579D02*
X11985205Y-14354674D01*
X11985205Y-14354674D02*
X11985205Y-14402293D01*
X11985205Y-14402293D02*
X11975682Y-14440388D01*
X11975682Y-14440388D02*
X11966158Y-14459436D01*
X11966158Y-14459436D02*
X11956634Y-14468960D01*
X11956634Y-14468960D02*
X11937586Y-14478484D01*
X11937586Y-14478484D02*
X11918539Y-14478484D01*
X11918539Y-14478484D02*
X11899491Y-14468960D01*
X11899491Y-14468960D02*
X11889967Y-14459436D01*
X11889967Y-14459436D02*
X11880443Y-14440388D01*
X11880443Y-14440388D02*
X11870920Y-14402293D01*
X11870920Y-14402293D02*
X11870920Y-14354674D01*
X11870920Y-14354674D02*
X11880443Y-14316579D01*
X11880443Y-14316579D02*
X11889967Y-14297531D01*
X11889967Y-14297531D02*
X11899491Y-14288008D01*
X11899491Y-14288008D02*
X11918539Y-14278484D01*
X12070920Y-14478484D02*
X12070920Y-14345150D01*
X12070920Y-14364198D02*
X12080443Y-14354674D01*
X12080443Y-14354674D02*
X12099491Y-14345150D01*
X12099491Y-14345150D02*
X12128063Y-14345150D01*
X12128063Y-14345150D02*
X12147110Y-14354674D01*
X12147110Y-14354674D02*
X12156634Y-14373722D01*
X12156634Y-14373722D02*
X12156634Y-14478484D01*
X12156634Y-14373722D02*
X12166158Y-14354674D01*
X12166158Y-14354674D02*
X12185205Y-14345150D01*
X12185205Y-14345150D02*
X12213777Y-14345150D01*
X12213777Y-14345150D02*
X12232824Y-14354674D01*
X12232824Y-14354674D02*
X12242348Y-14373722D01*
X12242348Y-14373722D02*
X12242348Y-14478484D01*
X12337586Y-14478484D02*
X12337586Y-14345150D01*
X12337586Y-14364198D02*
X12347110Y-14354674D01*
X12347110Y-14354674D02*
X12366158Y-14345150D01*
X12366158Y-14345150D02*
X12394729Y-14345150D01*
X12394729Y-14345150D02*
X12413777Y-14354674D01*
X12413777Y-14354674D02*
X12423301Y-14373722D01*
X12423301Y-14373722D02*
X12423301Y-14478484D01*
X12423301Y-14373722D02*
X12432824Y-14354674D01*
X12432824Y-14354674D02*
X12451872Y-14345150D01*
X12451872Y-14345150D02*
X12480443Y-14345150D01*
X12480443Y-14345150D02*
X12499491Y-14354674D01*
X12499491Y-14354674D02*
X12509015Y-14373722D01*
X12509015Y-14373722D02*
X12509015Y-14478484D01*
X12899491Y-14268960D02*
X12728063Y-14526103D01*
X13156634Y-14278484D02*
X13175682Y-14278484D01*
X13175682Y-14278484D02*
X13194729Y-14288008D01*
X13194729Y-14288008D02*
X13204253Y-14297531D01*
X13204253Y-14297531D02*
X13213777Y-14316579D01*
X13213777Y-14316579D02*
X13223301Y-14354674D01*
X13223301Y-14354674D02*
X13223301Y-14402293D01*
X13223301Y-14402293D02*
X13213777Y-14440388D01*
X13213777Y-14440388D02*
X13204253Y-14459436D01*
X13204253Y-14459436D02*
X13194729Y-14468960D01*
X13194729Y-14468960D02*
X13175682Y-14478484D01*
X13175682Y-14478484D02*
X13156634Y-14478484D01*
X13156634Y-14478484D02*
X13137586Y-14468960D01*
X13137586Y-14468960D02*
X13128063Y-14459436D01*
X13128063Y-14459436D02*
X13118539Y-14440388D01*
X13118539Y-14440388D02*
X13109015Y-14402293D01*
X13109015Y-14402293D02*
X13109015Y-14354674D01*
X13109015Y-14354674D02*
X13118539Y-14316579D01*
X13118539Y-14316579D02*
X13128063Y-14297531D01*
X13128063Y-14297531D02*
X13137586Y-14288008D01*
X13137586Y-14288008D02*
X13156634Y-14278484D01*
X13309015Y-14459436D02*
X13318539Y-14468960D01*
X13318539Y-14468960D02*
X13309015Y-14478484D01*
X13309015Y-14478484D02*
X13299491Y-14468960D01*
X13299491Y-14468960D02*
X13309015Y-14459436D01*
X13309015Y-14459436D02*
X13309015Y-14478484D01*
X13442348Y-14278484D02*
X13461396Y-14278484D01*
X13461396Y-14278484D02*
X13480444Y-14288008D01*
X13480444Y-14288008D02*
X13489967Y-14297531D01*
X13489967Y-14297531D02*
X13499491Y-14316579D01*
X13499491Y-14316579D02*
X13509015Y-14354674D01*
X13509015Y-14354674D02*
X13509015Y-14402293D01*
X13509015Y-14402293D02*
X13499491Y-14440388D01*
X13499491Y-14440388D02*
X13489967Y-14459436D01*
X13489967Y-14459436D02*
X13480444Y-14468960D01*
X13480444Y-14468960D02*
X13461396Y-14478484D01*
X13461396Y-14478484D02*
X13442348Y-14478484D01*
X13442348Y-14478484D02*
X13423301Y-14468960D01*
X13423301Y-14468960D02*
X13413777Y-14459436D01*
X13413777Y-14459436D02*
X13404253Y-14440388D01*
X13404253Y-14440388D02*
X13394729Y-14402293D01*
X13394729Y-14402293D02*
X13394729Y-14354674D01*
X13394729Y-14354674D02*
X13404253Y-14316579D01*
X13404253Y-14316579D02*
X13413777Y-14297531D01*
X13413777Y-14297531D02*
X13423301Y-14288008D01*
X13423301Y-14288008D02*
X13442348Y-14278484D01*
X13585206Y-14297531D02*
X13594729Y-14288008D01*
X13594729Y-14288008D02*
X13613777Y-14278484D01*
X13613777Y-14278484D02*
X13661396Y-14278484D01*
X13661396Y-14278484D02*
X13680444Y-14288008D01*
X13680444Y-14288008D02*
X13689967Y-14297531D01*
X13689967Y-14297531D02*
X13699491Y-14316579D01*
X13699491Y-14316579D02*
X13699491Y-14335627D01*
X13699491Y-14335627D02*
X13689967Y-14364198D01*
X13689967Y-14364198D02*
X13575682Y-14478484D01*
X13575682Y-14478484D02*
X13699491Y-14478484D01*
X13880444Y-14278484D02*
X13785206Y-14278484D01*
X13785206Y-14278484D02*
X13775682Y-14373722D01*
X13775682Y-14373722D02*
X13785206Y-14364198D01*
X13785206Y-14364198D02*
X13804253Y-14354674D01*
X13804253Y-14354674D02*
X13851872Y-14354674D01*
X13851872Y-14354674D02*
X13870920Y-14364198D01*
X13870920Y-14364198D02*
X13880444Y-14373722D01*
X13880444Y-14373722D02*
X13889967Y-14392769D01*
X13889967Y-14392769D02*
X13889967Y-14440388D01*
X13889967Y-14440388D02*
X13880444Y-14459436D01*
X13880444Y-14459436D02*
X13870920Y-14468960D01*
X13870920Y-14468960D02*
X13851872Y-14478484D01*
X13851872Y-14478484D02*
X13804253Y-14478484D01*
X13804253Y-14478484D02*
X13785206Y-14468960D01*
X13785206Y-14468960D02*
X13775682Y-14459436D01*
X14061396Y-14278484D02*
X14023301Y-14278484D01*
X14023301Y-14278484D02*
X14004253Y-14288008D01*
X14004253Y-14288008D02*
X13994729Y-14297531D01*
X13994729Y-14297531D02*
X13975682Y-14326103D01*
X13975682Y-14326103D02*
X13966158Y-14364198D01*
X13966158Y-14364198D02*
X13966158Y-14440388D01*
X13966158Y-14440388D02*
X13975682Y-14459436D01*
X13975682Y-14459436D02*
X13985206Y-14468960D01*
X13985206Y-14468960D02*
X14004253Y-14478484D01*
X14004253Y-14478484D02*
X14042348Y-14478484D01*
X14042348Y-14478484D02*
X14061396Y-14468960D01*
X14061396Y-14468960D02*
X14070920Y-14459436D01*
X14070920Y-14459436D02*
X14080444Y-14440388D01*
X14080444Y-14440388D02*
X14080444Y-14392769D01*
X14080444Y-14392769D02*
X14070920Y-14373722D01*
X14070920Y-14373722D02*
X14061396Y-14364198D01*
X14061396Y-14364198D02*
X14042348Y-14354674D01*
X14042348Y-14354674D02*
X14004253Y-14354674D01*
X14004253Y-14354674D02*
X13985206Y-14364198D01*
X13985206Y-14364198D02*
X13975682Y-14373722D01*
X13975682Y-14373722D02*
X13966158Y-14392769D01*
X14156634Y-14278484D02*
X14156634Y-14316579D01*
X14232825Y-14278484D02*
X14232825Y-14316579D01*
X14528063Y-14554674D02*
X14518539Y-14545150D01*
X14518539Y-14545150D02*
X14499491Y-14516579D01*
X14499491Y-14516579D02*
X14489968Y-14497531D01*
X14489968Y-14497531D02*
X14480444Y-14468960D01*
X14480444Y-14468960D02*
X14470920Y-14421341D01*
X14470920Y-14421341D02*
X14470920Y-14383246D01*
X14470920Y-14383246D02*
X14480444Y-14335627D01*
X14480444Y-14335627D02*
X14489968Y-14307055D01*
X14489968Y-14307055D02*
X14499491Y-14288008D01*
X14499491Y-14288008D02*
X14518539Y-14259436D01*
X14518539Y-14259436D02*
X14528063Y-14249912D01*
X14594729Y-14297531D02*
X14604253Y-14288008D01*
X14604253Y-14288008D02*
X14623301Y-14278484D01*
X14623301Y-14278484D02*
X14670920Y-14278484D01*
X14670920Y-14278484D02*
X14689968Y-14288008D01*
X14689968Y-14288008D02*
X14699491Y-14297531D01*
X14699491Y-14297531D02*
X14709015Y-14316579D01*
X14709015Y-14316579D02*
X14709015Y-14335627D01*
X14709015Y-14335627D02*
X14699491Y-14364198D01*
X14699491Y-14364198D02*
X14585206Y-14478484D01*
X14585206Y-14478484D02*
X14709015Y-14478484D01*
X14947110Y-14478484D02*
X14947110Y-14278484D01*
X15032825Y-14478484D02*
X15032825Y-14373722D01*
X15032825Y-14373722D02*
X15023301Y-14354674D01*
X15023301Y-14354674D02*
X15004253Y-14345150D01*
X15004253Y-14345150D02*
X14975682Y-14345150D01*
X14975682Y-14345150D02*
X14956634Y-14354674D01*
X14956634Y-14354674D02*
X14947110Y-14364198D01*
X15156634Y-14478484D02*
X15137587Y-14468960D01*
X15137587Y-14468960D02*
X15128063Y-14459436D01*
X15128063Y-14459436D02*
X15118539Y-14440388D01*
X15118539Y-14440388D02*
X15118539Y-14383246D01*
X15118539Y-14383246D02*
X15128063Y-14364198D01*
X15128063Y-14364198D02*
X15137587Y-14354674D01*
X15137587Y-14354674D02*
X15156634Y-14345150D01*
X15156634Y-14345150D02*
X15185206Y-14345150D01*
X15185206Y-14345150D02*
X15204253Y-14354674D01*
X15204253Y-14354674D02*
X15213777Y-14364198D01*
X15213777Y-14364198D02*
X15223301Y-14383246D01*
X15223301Y-14383246D02*
X15223301Y-14440388D01*
X15223301Y-14440388D02*
X15213777Y-14459436D01*
X15213777Y-14459436D02*
X15204253Y-14468960D01*
X15204253Y-14468960D02*
X15185206Y-14478484D01*
X15185206Y-14478484D02*
X15156634Y-14478484D01*
X15337587Y-14478484D02*
X15318539Y-14468960D01*
X15318539Y-14468960D02*
X15309015Y-14449912D01*
X15309015Y-14449912D02*
X15309015Y-14278484D01*
X15489968Y-14468960D02*
X15470920Y-14478484D01*
X15470920Y-14478484D02*
X15432825Y-14478484D01*
X15432825Y-14478484D02*
X15413777Y-14468960D01*
X15413777Y-14468960D02*
X15404253Y-14449912D01*
X15404253Y-14449912D02*
X15404253Y-14373722D01*
X15404253Y-14373722D02*
X15413777Y-14354674D01*
X15413777Y-14354674D02*
X15432825Y-14345150D01*
X15432825Y-14345150D02*
X15470920Y-14345150D01*
X15470920Y-14345150D02*
X15489968Y-14354674D01*
X15489968Y-14354674D02*
X15499491Y-14373722D01*
X15499491Y-14373722D02*
X15499491Y-14392769D01*
X15499491Y-14392769D02*
X15404253Y-14411817D01*
X15575682Y-14468960D02*
X15594730Y-14478484D01*
X15594730Y-14478484D02*
X15632825Y-14478484D01*
X15632825Y-14478484D02*
X15651872Y-14468960D01*
X15651872Y-14468960D02*
X15661396Y-14449912D01*
X15661396Y-14449912D02*
X15661396Y-14440388D01*
X15661396Y-14440388D02*
X15651872Y-14421341D01*
X15651872Y-14421341D02*
X15632825Y-14411817D01*
X15632825Y-14411817D02*
X15604253Y-14411817D01*
X15604253Y-14411817D02*
X15585206Y-14402293D01*
X15585206Y-14402293D02*
X15575682Y-14383246D01*
X15575682Y-14383246D02*
X15575682Y-14373722D01*
X15575682Y-14373722D02*
X15585206Y-14354674D01*
X15585206Y-14354674D02*
X15604253Y-14345150D01*
X15604253Y-14345150D02*
X15632825Y-14345150D01*
X15632825Y-14345150D02*
X15651872Y-14354674D01*
X15728063Y-14554674D02*
X15737587Y-14545150D01*
X15737587Y-14545150D02*
X15756634Y-14516579D01*
X15756634Y-14516579D02*
X15766158Y-14497531D01*
X15766158Y-14497531D02*
X15775682Y-14468960D01*
X15775682Y-14468960D02*
X15785206Y-14421341D01*
X15785206Y-14421341D02*
X15785206Y-14383246D01*
X15785206Y-14383246D02*
X15775682Y-14335627D01*
X15775682Y-14335627D02*
X15766158Y-14307055D01*
X15766158Y-14307055D02*
X15756634Y-14288008D01*
X15756634Y-14288008D02*
X15737587Y-14259436D01*
X15737587Y-14259436D02*
X15728063Y-14249912D01*
D10*
X10953000Y-14651000D02*
G75*
G03*
X10873000Y-14651000I-40000J0D01*
G01*
X10873000Y-14651000D02*
G75*
G03*
X10953000Y-14651000I40000J0D01*
G01*
D11*
X11251872Y-14542484D02*
X11270920Y-14542484D01*
X11270920Y-14542484D02*
X11289967Y-14552008D01*
X11289967Y-14552008D02*
X11299491Y-14561531D01*
X11299491Y-14561531D02*
X11309015Y-14580579D01*
X11309015Y-14580579D02*
X11318539Y-14618674D01*
X11318539Y-14618674D02*
X11318539Y-14666293D01*
X11318539Y-14666293D02*
X11309015Y-14704388D01*
X11309015Y-14704388D02*
X11299491Y-14723436D01*
X11299491Y-14723436D02*
X11289967Y-14732960D01*
X11289967Y-14732960D02*
X11270920Y-14742484D01*
X11270920Y-14742484D02*
X11251872Y-14742484D01*
X11251872Y-14742484D02*
X11232824Y-14732960D01*
X11232824Y-14732960D02*
X11223301Y-14723436D01*
X11223301Y-14723436D02*
X11213777Y-14704388D01*
X11213777Y-14704388D02*
X11204253Y-14666293D01*
X11204253Y-14666293D02*
X11204253Y-14618674D01*
X11204253Y-14618674D02*
X11213777Y-14580579D01*
X11213777Y-14580579D02*
X11223301Y-14561531D01*
X11223301Y-14561531D02*
X11232824Y-14552008D01*
X11232824Y-14552008D02*
X11251872Y-14542484D01*
X11404253Y-14723436D02*
X11413777Y-14732960D01*
X11413777Y-14732960D02*
X11404253Y-14742484D01*
X11404253Y-14742484D02*
X11394729Y-14732960D01*
X11394729Y-14732960D02*
X11404253Y-14723436D01*
X11404253Y-14723436D02*
X11404253Y-14742484D01*
X11528062Y-14628198D02*
X11509015Y-14618674D01*
X11509015Y-14618674D02*
X11499491Y-14609150D01*
X11499491Y-14609150D02*
X11489967Y-14590103D01*
X11489967Y-14590103D02*
X11489967Y-14580579D01*
X11489967Y-14580579D02*
X11499491Y-14561531D01*
X11499491Y-14561531D02*
X11509015Y-14552008D01*
X11509015Y-14552008D02*
X11528062Y-14542484D01*
X11528062Y-14542484D02*
X11566158Y-14542484D01*
X11566158Y-14542484D02*
X11585205Y-14552008D01*
X11585205Y-14552008D02*
X11594729Y-14561531D01*
X11594729Y-14561531D02*
X11604253Y-14580579D01*
X11604253Y-14580579D02*
X11604253Y-14590103D01*
X11604253Y-14590103D02*
X11594729Y-14609150D01*
X11594729Y-14609150D02*
X11585205Y-14618674D01*
X11585205Y-14618674D02*
X11566158Y-14628198D01*
X11566158Y-14628198D02*
X11528062Y-14628198D01*
X11528062Y-14628198D02*
X11509015Y-14637722D01*
X11509015Y-14637722D02*
X11499491Y-14647246D01*
X11499491Y-14647246D02*
X11489967Y-14666293D01*
X11489967Y-14666293D02*
X11489967Y-14704388D01*
X11489967Y-14704388D02*
X11499491Y-14723436D01*
X11499491Y-14723436D02*
X11509015Y-14732960D01*
X11509015Y-14732960D02*
X11528062Y-14742484D01*
X11528062Y-14742484D02*
X11566158Y-14742484D01*
X11566158Y-14742484D02*
X11585205Y-14732960D01*
X11585205Y-14732960D02*
X11594729Y-14723436D01*
X11594729Y-14723436D02*
X11604253Y-14704388D01*
X11604253Y-14704388D02*
X11604253Y-14666293D01*
X11604253Y-14666293D02*
X11594729Y-14647246D01*
X11594729Y-14647246D02*
X11585205Y-14637722D01*
X11585205Y-14637722D02*
X11566158Y-14628198D01*
X11728062Y-14542484D02*
X11747110Y-14542484D01*
X11747110Y-14542484D02*
X11766158Y-14552008D01*
X11766158Y-14552008D02*
X11775682Y-14561531D01*
X11775682Y-14561531D02*
X11785205Y-14580579D01*
X11785205Y-14580579D02*
X11794729Y-14618674D01*
X11794729Y-14618674D02*
X11794729Y-14666293D01*
X11794729Y-14666293D02*
X11785205Y-14704388D01*
X11785205Y-14704388D02*
X11775682Y-14723436D01*
X11775682Y-14723436D02*
X11766158Y-14732960D01*
X11766158Y-14732960D02*
X11747110Y-14742484D01*
X11747110Y-14742484D02*
X11728062Y-14742484D01*
X11728062Y-14742484D02*
X11709015Y-14732960D01*
X11709015Y-14732960D02*
X11699491Y-14723436D01*
X11699491Y-14723436D02*
X11689967Y-14704388D01*
X11689967Y-14704388D02*
X11680443Y-14666293D01*
X11680443Y-14666293D02*
X11680443Y-14618674D01*
X11680443Y-14618674D02*
X11689967Y-14580579D01*
X11689967Y-14580579D02*
X11699491Y-14561531D01*
X11699491Y-14561531D02*
X11709015Y-14552008D01*
X11709015Y-14552008D02*
X11728062Y-14542484D01*
X11918539Y-14542484D02*
X11937586Y-14542484D01*
X11937586Y-14542484D02*
X11956634Y-14552008D01*
X11956634Y-14552008D02*
X11966158Y-14561531D01*
X11966158Y-14561531D02*
X11975682Y-14580579D01*
X11975682Y-14580579D02*
X11985205Y-14618674D01*
X11985205Y-14618674D02*
X11985205Y-14666293D01*
X11985205Y-14666293D02*
X11975682Y-14704388D01*
X11975682Y-14704388D02*
X11966158Y-14723436D01*
X11966158Y-14723436D02*
X11956634Y-14732960D01*
X11956634Y-14732960D02*
X11937586Y-14742484D01*
X11937586Y-14742484D02*
X11918539Y-14742484D01*
X11918539Y-14742484D02*
X11899491Y-14732960D01*
X11899491Y-14732960D02*
X11889967Y-14723436D01*
X11889967Y-14723436D02*
X11880443Y-14704388D01*
X11880443Y-14704388D02*
X11870920Y-14666293D01*
X11870920Y-14666293D02*
X11870920Y-14618674D01*
X11870920Y-14618674D02*
X11880443Y-14580579D01*
X11880443Y-14580579D02*
X11889967Y-14561531D01*
X11889967Y-14561531D02*
X11899491Y-14552008D01*
X11899491Y-14552008D02*
X11918539Y-14542484D01*
X12070920Y-14742484D02*
X12070920Y-14609150D01*
X12070920Y-14628198D02*
X12080443Y-14618674D01*
X12080443Y-14618674D02*
X12099491Y-14609150D01*
X12099491Y-14609150D02*
X12128063Y-14609150D01*
X12128063Y-14609150D02*
X12147110Y-14618674D01*
X12147110Y-14618674D02*
X12156634Y-14637722D01*
X12156634Y-14637722D02*
X12156634Y-14742484D01*
X12156634Y-14637722D02*
X12166158Y-14618674D01*
X12166158Y-14618674D02*
X12185205Y-14609150D01*
X12185205Y-14609150D02*
X12213777Y-14609150D01*
X12213777Y-14609150D02*
X12232824Y-14618674D01*
X12232824Y-14618674D02*
X12242348Y-14637722D01*
X12242348Y-14637722D02*
X12242348Y-14742484D01*
X12337586Y-14742484D02*
X12337586Y-14609150D01*
X12337586Y-14628198D02*
X12347110Y-14618674D01*
X12347110Y-14618674D02*
X12366158Y-14609150D01*
X12366158Y-14609150D02*
X12394729Y-14609150D01*
X12394729Y-14609150D02*
X12413777Y-14618674D01*
X12413777Y-14618674D02*
X12423301Y-14637722D01*
X12423301Y-14637722D02*
X12423301Y-14742484D01*
X12423301Y-14637722D02*
X12432824Y-14618674D01*
X12432824Y-14618674D02*
X12451872Y-14609150D01*
X12451872Y-14609150D02*
X12480443Y-14609150D01*
X12480443Y-14609150D02*
X12499491Y-14618674D01*
X12499491Y-14618674D02*
X12509015Y-14637722D01*
X12509015Y-14637722D02*
X12509015Y-14742484D01*
X12899491Y-14532960D02*
X12728063Y-14790103D01*
X13156634Y-14542484D02*
X13175682Y-14542484D01*
X13175682Y-14542484D02*
X13194729Y-14552008D01*
X13194729Y-14552008D02*
X13204253Y-14561531D01*
X13204253Y-14561531D02*
X13213777Y-14580579D01*
X13213777Y-14580579D02*
X13223301Y-14618674D01*
X13223301Y-14618674D02*
X13223301Y-14666293D01*
X13223301Y-14666293D02*
X13213777Y-14704388D01*
X13213777Y-14704388D02*
X13204253Y-14723436D01*
X13204253Y-14723436D02*
X13194729Y-14732960D01*
X13194729Y-14732960D02*
X13175682Y-14742484D01*
X13175682Y-14742484D02*
X13156634Y-14742484D01*
X13156634Y-14742484D02*
X13137586Y-14732960D01*
X13137586Y-14732960D02*
X13128063Y-14723436D01*
X13128063Y-14723436D02*
X13118539Y-14704388D01*
X13118539Y-14704388D02*
X13109015Y-14666293D01*
X13109015Y-14666293D02*
X13109015Y-14618674D01*
X13109015Y-14618674D02*
X13118539Y-14580579D01*
X13118539Y-14580579D02*
X13128063Y-14561531D01*
X13128063Y-14561531D02*
X13137586Y-14552008D01*
X13137586Y-14552008D02*
X13156634Y-14542484D01*
X13309015Y-14723436D02*
X13318539Y-14732960D01*
X13318539Y-14732960D02*
X13309015Y-14742484D01*
X13309015Y-14742484D02*
X13299491Y-14732960D01*
X13299491Y-14732960D02*
X13309015Y-14723436D01*
X13309015Y-14723436D02*
X13309015Y-14742484D01*
X13442348Y-14542484D02*
X13461396Y-14542484D01*
X13461396Y-14542484D02*
X13480444Y-14552008D01*
X13480444Y-14552008D02*
X13489967Y-14561531D01*
X13489967Y-14561531D02*
X13499491Y-14580579D01*
X13499491Y-14580579D02*
X13509015Y-14618674D01*
X13509015Y-14618674D02*
X13509015Y-14666293D01*
X13509015Y-14666293D02*
X13499491Y-14704388D01*
X13499491Y-14704388D02*
X13489967Y-14723436D01*
X13489967Y-14723436D02*
X13480444Y-14732960D01*
X13480444Y-14732960D02*
X13461396Y-14742484D01*
X13461396Y-14742484D02*
X13442348Y-14742484D01*
X13442348Y-14742484D02*
X13423301Y-14732960D01*
X13423301Y-14732960D02*
X13413777Y-14723436D01*
X13413777Y-14723436D02*
X13404253Y-14704388D01*
X13404253Y-14704388D02*
X13394729Y-14666293D01*
X13394729Y-14666293D02*
X13394729Y-14618674D01*
X13394729Y-14618674D02*
X13404253Y-14580579D01*
X13404253Y-14580579D02*
X13413777Y-14561531D01*
X13413777Y-14561531D02*
X13423301Y-14552008D01*
X13423301Y-14552008D02*
X13442348Y-14542484D01*
X13575682Y-14542484D02*
X13699491Y-14542484D01*
X13699491Y-14542484D02*
X13632825Y-14618674D01*
X13632825Y-14618674D02*
X13661396Y-14618674D01*
X13661396Y-14618674D02*
X13680444Y-14628198D01*
X13680444Y-14628198D02*
X13689967Y-14637722D01*
X13689967Y-14637722D02*
X13699491Y-14656769D01*
X13699491Y-14656769D02*
X13699491Y-14704388D01*
X13699491Y-14704388D02*
X13689967Y-14723436D01*
X13689967Y-14723436D02*
X13680444Y-14732960D01*
X13680444Y-14732960D02*
X13661396Y-14742484D01*
X13661396Y-14742484D02*
X13604253Y-14742484D01*
X13604253Y-14742484D02*
X13585206Y-14732960D01*
X13585206Y-14732960D02*
X13575682Y-14723436D01*
X13889967Y-14742484D02*
X13775682Y-14742484D01*
X13832825Y-14742484D02*
X13832825Y-14542484D01*
X13832825Y-14542484D02*
X13813777Y-14571055D01*
X13813777Y-14571055D02*
X13794729Y-14590103D01*
X13794729Y-14590103D02*
X13775682Y-14599627D01*
X14070920Y-14542484D02*
X13975682Y-14542484D01*
X13975682Y-14542484D02*
X13966158Y-14637722D01*
X13966158Y-14637722D02*
X13975682Y-14628198D01*
X13975682Y-14628198D02*
X13994729Y-14618674D01*
X13994729Y-14618674D02*
X14042348Y-14618674D01*
X14042348Y-14618674D02*
X14061396Y-14628198D01*
X14061396Y-14628198D02*
X14070920Y-14637722D01*
X14070920Y-14637722D02*
X14080444Y-14656769D01*
X14080444Y-14656769D02*
X14080444Y-14704388D01*
X14080444Y-14704388D02*
X14070920Y-14723436D01*
X14070920Y-14723436D02*
X14061396Y-14732960D01*
X14061396Y-14732960D02*
X14042348Y-14742484D01*
X14042348Y-14742484D02*
X13994729Y-14742484D01*
X13994729Y-14742484D02*
X13975682Y-14732960D01*
X13975682Y-14732960D02*
X13966158Y-14723436D01*
X14156634Y-14542484D02*
X14156634Y-14580579D01*
X14232825Y-14542484D02*
X14232825Y-14580579D01*
X14528063Y-14818674D02*
X14518539Y-14809150D01*
X14518539Y-14809150D02*
X14499491Y-14780579D01*
X14499491Y-14780579D02*
X14489968Y-14761531D01*
X14489968Y-14761531D02*
X14480444Y-14732960D01*
X14480444Y-14732960D02*
X14470920Y-14685341D01*
X14470920Y-14685341D02*
X14470920Y-14647246D01*
X14470920Y-14647246D02*
X14480444Y-14599627D01*
X14480444Y-14599627D02*
X14489968Y-14571055D01*
X14489968Y-14571055D02*
X14499491Y-14552008D01*
X14499491Y-14552008D02*
X14518539Y-14523436D01*
X14518539Y-14523436D02*
X14528063Y-14513912D01*
X14585206Y-14542484D02*
X14709015Y-14542484D01*
X14709015Y-14542484D02*
X14642348Y-14618674D01*
X14642348Y-14618674D02*
X14670920Y-14618674D01*
X14670920Y-14618674D02*
X14689968Y-14628198D01*
X14689968Y-14628198D02*
X14699491Y-14637722D01*
X14699491Y-14637722D02*
X14709015Y-14656769D01*
X14709015Y-14656769D02*
X14709015Y-14704388D01*
X14709015Y-14704388D02*
X14699491Y-14723436D01*
X14699491Y-14723436D02*
X14689968Y-14732960D01*
X14689968Y-14732960D02*
X14670920Y-14742484D01*
X14670920Y-14742484D02*
X14613777Y-14742484D01*
X14613777Y-14742484D02*
X14594729Y-14732960D01*
X14594729Y-14732960D02*
X14585206Y-14723436D01*
X14880444Y-14542484D02*
X14842348Y-14542484D01*
X14842348Y-14542484D02*
X14823301Y-14552008D01*
X14823301Y-14552008D02*
X14813777Y-14561531D01*
X14813777Y-14561531D02*
X14794729Y-14590103D01*
X14794729Y-14590103D02*
X14785206Y-14628198D01*
X14785206Y-14628198D02*
X14785206Y-14704388D01*
X14785206Y-14704388D02*
X14794729Y-14723436D01*
X14794729Y-14723436D02*
X14804253Y-14732960D01*
X14804253Y-14732960D02*
X14823301Y-14742484D01*
X14823301Y-14742484D02*
X14861396Y-14742484D01*
X14861396Y-14742484D02*
X14880444Y-14732960D01*
X14880444Y-14732960D02*
X14889968Y-14723436D01*
X14889968Y-14723436D02*
X14899491Y-14704388D01*
X14899491Y-14704388D02*
X14899491Y-14656769D01*
X14899491Y-14656769D02*
X14889968Y-14637722D01*
X14889968Y-14637722D02*
X14880444Y-14628198D01*
X14880444Y-14628198D02*
X14861396Y-14618674D01*
X14861396Y-14618674D02*
X14823301Y-14618674D01*
X14823301Y-14618674D02*
X14804253Y-14628198D01*
X14804253Y-14628198D02*
X14794729Y-14637722D01*
X14794729Y-14637722D02*
X14785206Y-14656769D01*
X15137587Y-14742484D02*
X15137587Y-14542484D01*
X15223301Y-14742484D02*
X15223301Y-14637722D01*
X15223301Y-14637722D02*
X15213777Y-14618674D01*
X15213777Y-14618674D02*
X15194730Y-14609150D01*
X15194730Y-14609150D02*
X15166158Y-14609150D01*
X15166158Y-14609150D02*
X15147110Y-14618674D01*
X15147110Y-14618674D02*
X15137587Y-14628198D01*
X15347110Y-14742484D02*
X15328063Y-14732960D01*
X15328063Y-14732960D02*
X15318539Y-14723436D01*
X15318539Y-14723436D02*
X15309015Y-14704388D01*
X15309015Y-14704388D02*
X15309015Y-14647246D01*
X15309015Y-14647246D02*
X15318539Y-14628198D01*
X15318539Y-14628198D02*
X15328063Y-14618674D01*
X15328063Y-14618674D02*
X15347110Y-14609150D01*
X15347110Y-14609150D02*
X15375682Y-14609150D01*
X15375682Y-14609150D02*
X15394730Y-14618674D01*
X15394730Y-14618674D02*
X15404253Y-14628198D01*
X15404253Y-14628198D02*
X15413777Y-14647246D01*
X15413777Y-14647246D02*
X15413777Y-14704388D01*
X15413777Y-14704388D02*
X15404253Y-14723436D01*
X15404253Y-14723436D02*
X15394730Y-14732960D01*
X15394730Y-14732960D02*
X15375682Y-14742484D01*
X15375682Y-14742484D02*
X15347110Y-14742484D01*
X15528063Y-14742484D02*
X15509015Y-14732960D01*
X15509015Y-14732960D02*
X15499491Y-14713912D01*
X15499491Y-14713912D02*
X15499491Y-14542484D01*
X15680444Y-14732960D02*
X15661396Y-14742484D01*
X15661396Y-14742484D02*
X15623301Y-14742484D01*
X15623301Y-14742484D02*
X15604253Y-14732960D01*
X15604253Y-14732960D02*
X15594730Y-14713912D01*
X15594730Y-14713912D02*
X15594730Y-14637722D01*
X15594730Y-14637722D02*
X15604253Y-14618674D01*
X15604253Y-14618674D02*
X15623301Y-14609150D01*
X15623301Y-14609150D02*
X15661396Y-14609150D01*
X15661396Y-14609150D02*
X15680444Y-14618674D01*
X15680444Y-14618674D02*
X15689968Y-14637722D01*
X15689968Y-14637722D02*
X15689968Y-14656769D01*
X15689968Y-14656769D02*
X15594730Y-14675817D01*
X15766158Y-14732960D02*
X15785206Y-14742484D01*
X15785206Y-14742484D02*
X15823301Y-14742484D01*
X15823301Y-14742484D02*
X15842349Y-14732960D01*
X15842349Y-14732960D02*
X15851872Y-14713912D01*
X15851872Y-14713912D02*
X15851872Y-14704388D01*
X15851872Y-14704388D02*
X15842349Y-14685341D01*
X15842349Y-14685341D02*
X15823301Y-14675817D01*
X15823301Y-14675817D02*
X15794730Y-14675817D01*
X15794730Y-14675817D02*
X15775682Y-14666293D01*
X15775682Y-14666293D02*
X15766158Y-14647246D01*
X15766158Y-14647246D02*
X15766158Y-14637722D01*
X15766158Y-14637722D02*
X15775682Y-14618674D01*
X15775682Y-14618674D02*
X15794730Y-14609150D01*
X15794730Y-14609150D02*
X15823301Y-14609150D01*
X15823301Y-14609150D02*
X15842349Y-14618674D01*
X15918539Y-14818674D02*
X15928063Y-14809150D01*
X15928063Y-14809150D02*
X15947111Y-14780579D01*
X15947111Y-14780579D02*
X15956634Y-14761531D01*
X15956634Y-14761531D02*
X15966158Y-14732960D01*
X15966158Y-14732960D02*
X15975682Y-14685341D01*
X15975682Y-14685341D02*
X15975682Y-14647246D01*
X15975682Y-14647246D02*
X15966158Y-14599627D01*
X15966158Y-14599627D02*
X15956634Y-14571055D01*
X15956634Y-14571055D02*
X15947111Y-14552008D01*
X15947111Y-14552008D02*
X15928063Y-14523436D01*
X15928063Y-14523436D02*
X15918539Y-14513912D01*
D10*
X10908000Y-14870000D02*
X10908000Y-14960000D01*
X10863000Y-14915000D02*
X10953000Y-14915000D01*
D11*
X11251872Y-14806484D02*
X11270920Y-14806484D01*
X11270920Y-14806484D02*
X11289967Y-14816008D01*
X11289967Y-14816008D02*
X11299491Y-14825531D01*
X11299491Y-14825531D02*
X11309015Y-14844579D01*
X11309015Y-14844579D02*
X11318539Y-14882674D01*
X11318539Y-14882674D02*
X11318539Y-14930293D01*
X11318539Y-14930293D02*
X11309015Y-14968388D01*
X11309015Y-14968388D02*
X11299491Y-14987436D01*
X11299491Y-14987436D02*
X11289967Y-14996960D01*
X11289967Y-14996960D02*
X11270920Y-15006484D01*
X11270920Y-15006484D02*
X11251872Y-15006484D01*
X11251872Y-15006484D02*
X11232824Y-14996960D01*
X11232824Y-14996960D02*
X11223301Y-14987436D01*
X11223301Y-14987436D02*
X11213777Y-14968388D01*
X11213777Y-14968388D02*
X11204253Y-14930293D01*
X11204253Y-14930293D02*
X11204253Y-14882674D01*
X11204253Y-14882674D02*
X11213777Y-14844579D01*
X11213777Y-14844579D02*
X11223301Y-14825531D01*
X11223301Y-14825531D02*
X11232824Y-14816008D01*
X11232824Y-14816008D02*
X11251872Y-14806484D01*
X11404253Y-14987436D02*
X11413777Y-14996960D01*
X11413777Y-14996960D02*
X11404253Y-15006484D01*
X11404253Y-15006484D02*
X11394729Y-14996960D01*
X11394729Y-14996960D02*
X11404253Y-14987436D01*
X11404253Y-14987436D02*
X11404253Y-15006484D01*
X11509015Y-15006484D02*
X11547110Y-15006484D01*
X11547110Y-15006484D02*
X11566158Y-14996960D01*
X11566158Y-14996960D02*
X11575682Y-14987436D01*
X11575682Y-14987436D02*
X11594729Y-14958865D01*
X11594729Y-14958865D02*
X11604253Y-14920769D01*
X11604253Y-14920769D02*
X11604253Y-14844579D01*
X11604253Y-14844579D02*
X11594729Y-14825531D01*
X11594729Y-14825531D02*
X11585205Y-14816008D01*
X11585205Y-14816008D02*
X11566158Y-14806484D01*
X11566158Y-14806484D02*
X11528062Y-14806484D01*
X11528062Y-14806484D02*
X11509015Y-14816008D01*
X11509015Y-14816008D02*
X11499491Y-14825531D01*
X11499491Y-14825531D02*
X11489967Y-14844579D01*
X11489967Y-14844579D02*
X11489967Y-14892198D01*
X11489967Y-14892198D02*
X11499491Y-14911246D01*
X11499491Y-14911246D02*
X11509015Y-14920769D01*
X11509015Y-14920769D02*
X11528062Y-14930293D01*
X11528062Y-14930293D02*
X11566158Y-14930293D01*
X11566158Y-14930293D02*
X11585205Y-14920769D01*
X11585205Y-14920769D02*
X11594729Y-14911246D01*
X11594729Y-14911246D02*
X11604253Y-14892198D01*
X11728062Y-14806484D02*
X11747110Y-14806484D01*
X11747110Y-14806484D02*
X11766158Y-14816008D01*
X11766158Y-14816008D02*
X11775682Y-14825531D01*
X11775682Y-14825531D02*
X11785205Y-14844579D01*
X11785205Y-14844579D02*
X11794729Y-14882674D01*
X11794729Y-14882674D02*
X11794729Y-14930293D01*
X11794729Y-14930293D02*
X11785205Y-14968388D01*
X11785205Y-14968388D02*
X11775682Y-14987436D01*
X11775682Y-14987436D02*
X11766158Y-14996960D01*
X11766158Y-14996960D02*
X11747110Y-15006484D01*
X11747110Y-15006484D02*
X11728062Y-15006484D01*
X11728062Y-15006484D02*
X11709015Y-14996960D01*
X11709015Y-14996960D02*
X11699491Y-14987436D01*
X11699491Y-14987436D02*
X11689967Y-14968388D01*
X11689967Y-14968388D02*
X11680443Y-14930293D01*
X11680443Y-14930293D02*
X11680443Y-14882674D01*
X11680443Y-14882674D02*
X11689967Y-14844579D01*
X11689967Y-14844579D02*
X11699491Y-14825531D01*
X11699491Y-14825531D02*
X11709015Y-14816008D01*
X11709015Y-14816008D02*
X11728062Y-14806484D01*
X11918539Y-14806484D02*
X11937586Y-14806484D01*
X11937586Y-14806484D02*
X11956634Y-14816008D01*
X11956634Y-14816008D02*
X11966158Y-14825531D01*
X11966158Y-14825531D02*
X11975682Y-14844579D01*
X11975682Y-14844579D02*
X11985205Y-14882674D01*
X11985205Y-14882674D02*
X11985205Y-14930293D01*
X11985205Y-14930293D02*
X11975682Y-14968388D01*
X11975682Y-14968388D02*
X11966158Y-14987436D01*
X11966158Y-14987436D02*
X11956634Y-14996960D01*
X11956634Y-14996960D02*
X11937586Y-15006484D01*
X11937586Y-15006484D02*
X11918539Y-15006484D01*
X11918539Y-15006484D02*
X11899491Y-14996960D01*
X11899491Y-14996960D02*
X11889967Y-14987436D01*
X11889967Y-14987436D02*
X11880443Y-14968388D01*
X11880443Y-14968388D02*
X11870920Y-14930293D01*
X11870920Y-14930293D02*
X11870920Y-14882674D01*
X11870920Y-14882674D02*
X11880443Y-14844579D01*
X11880443Y-14844579D02*
X11889967Y-14825531D01*
X11889967Y-14825531D02*
X11899491Y-14816008D01*
X11899491Y-14816008D02*
X11918539Y-14806484D01*
X12070920Y-15006484D02*
X12070920Y-14873150D01*
X12070920Y-14892198D02*
X12080443Y-14882674D01*
X12080443Y-14882674D02*
X12099491Y-14873150D01*
X12099491Y-14873150D02*
X12128063Y-14873150D01*
X12128063Y-14873150D02*
X12147110Y-14882674D01*
X12147110Y-14882674D02*
X12156634Y-14901722D01*
X12156634Y-14901722D02*
X12156634Y-15006484D01*
X12156634Y-14901722D02*
X12166158Y-14882674D01*
X12166158Y-14882674D02*
X12185205Y-14873150D01*
X12185205Y-14873150D02*
X12213777Y-14873150D01*
X12213777Y-14873150D02*
X12232824Y-14882674D01*
X12232824Y-14882674D02*
X12242348Y-14901722D01*
X12242348Y-14901722D02*
X12242348Y-15006484D01*
X12337586Y-15006484D02*
X12337586Y-14873150D01*
X12337586Y-14892198D02*
X12347110Y-14882674D01*
X12347110Y-14882674D02*
X12366158Y-14873150D01*
X12366158Y-14873150D02*
X12394729Y-14873150D01*
X12394729Y-14873150D02*
X12413777Y-14882674D01*
X12413777Y-14882674D02*
X12423301Y-14901722D01*
X12423301Y-14901722D02*
X12423301Y-15006484D01*
X12423301Y-14901722D02*
X12432824Y-14882674D01*
X12432824Y-14882674D02*
X12451872Y-14873150D01*
X12451872Y-14873150D02*
X12480443Y-14873150D01*
X12480443Y-14873150D02*
X12499491Y-14882674D01*
X12499491Y-14882674D02*
X12509015Y-14901722D01*
X12509015Y-14901722D02*
X12509015Y-15006484D01*
X12899491Y-14796960D02*
X12728063Y-15054103D01*
X13156634Y-14806484D02*
X13175682Y-14806484D01*
X13175682Y-14806484D02*
X13194729Y-14816008D01*
X13194729Y-14816008D02*
X13204253Y-14825531D01*
X13204253Y-14825531D02*
X13213777Y-14844579D01*
X13213777Y-14844579D02*
X13223301Y-14882674D01*
X13223301Y-14882674D02*
X13223301Y-14930293D01*
X13223301Y-14930293D02*
X13213777Y-14968388D01*
X13213777Y-14968388D02*
X13204253Y-14987436D01*
X13204253Y-14987436D02*
X13194729Y-14996960D01*
X13194729Y-14996960D02*
X13175682Y-15006484D01*
X13175682Y-15006484D02*
X13156634Y-15006484D01*
X13156634Y-15006484D02*
X13137586Y-14996960D01*
X13137586Y-14996960D02*
X13128063Y-14987436D01*
X13128063Y-14987436D02*
X13118539Y-14968388D01*
X13118539Y-14968388D02*
X13109015Y-14930293D01*
X13109015Y-14930293D02*
X13109015Y-14882674D01*
X13109015Y-14882674D02*
X13118539Y-14844579D01*
X13118539Y-14844579D02*
X13128063Y-14825531D01*
X13128063Y-14825531D02*
X13137586Y-14816008D01*
X13137586Y-14816008D02*
X13156634Y-14806484D01*
X13309015Y-14987436D02*
X13318539Y-14996960D01*
X13318539Y-14996960D02*
X13309015Y-15006484D01*
X13309015Y-15006484D02*
X13299491Y-14996960D01*
X13299491Y-14996960D02*
X13309015Y-14987436D01*
X13309015Y-14987436D02*
X13309015Y-15006484D01*
X13442348Y-14806484D02*
X13461396Y-14806484D01*
X13461396Y-14806484D02*
X13480444Y-14816008D01*
X13480444Y-14816008D02*
X13489967Y-14825531D01*
X13489967Y-14825531D02*
X13499491Y-14844579D01*
X13499491Y-14844579D02*
X13509015Y-14882674D01*
X13509015Y-14882674D02*
X13509015Y-14930293D01*
X13509015Y-14930293D02*
X13499491Y-14968388D01*
X13499491Y-14968388D02*
X13489967Y-14987436D01*
X13489967Y-14987436D02*
X13480444Y-14996960D01*
X13480444Y-14996960D02*
X13461396Y-15006484D01*
X13461396Y-15006484D02*
X13442348Y-15006484D01*
X13442348Y-15006484D02*
X13423301Y-14996960D01*
X13423301Y-14996960D02*
X13413777Y-14987436D01*
X13413777Y-14987436D02*
X13404253Y-14968388D01*
X13404253Y-14968388D02*
X13394729Y-14930293D01*
X13394729Y-14930293D02*
X13394729Y-14882674D01*
X13394729Y-14882674D02*
X13404253Y-14844579D01*
X13404253Y-14844579D02*
X13413777Y-14825531D01*
X13413777Y-14825531D02*
X13423301Y-14816008D01*
X13423301Y-14816008D02*
X13442348Y-14806484D01*
X13575682Y-14806484D02*
X13699491Y-14806484D01*
X13699491Y-14806484D02*
X13632825Y-14882674D01*
X13632825Y-14882674D02*
X13661396Y-14882674D01*
X13661396Y-14882674D02*
X13680444Y-14892198D01*
X13680444Y-14892198D02*
X13689967Y-14901722D01*
X13689967Y-14901722D02*
X13699491Y-14920769D01*
X13699491Y-14920769D02*
X13699491Y-14968388D01*
X13699491Y-14968388D02*
X13689967Y-14987436D01*
X13689967Y-14987436D02*
X13680444Y-14996960D01*
X13680444Y-14996960D02*
X13661396Y-15006484D01*
X13661396Y-15006484D02*
X13604253Y-15006484D01*
X13604253Y-15006484D02*
X13585206Y-14996960D01*
X13585206Y-14996960D02*
X13575682Y-14987436D01*
X13880444Y-14806484D02*
X13785206Y-14806484D01*
X13785206Y-14806484D02*
X13775682Y-14901722D01*
X13775682Y-14901722D02*
X13785206Y-14892198D01*
X13785206Y-14892198D02*
X13804253Y-14882674D01*
X13804253Y-14882674D02*
X13851872Y-14882674D01*
X13851872Y-14882674D02*
X13870920Y-14892198D01*
X13870920Y-14892198D02*
X13880444Y-14901722D01*
X13880444Y-14901722D02*
X13889967Y-14920769D01*
X13889967Y-14920769D02*
X13889967Y-14968388D01*
X13889967Y-14968388D02*
X13880444Y-14987436D01*
X13880444Y-14987436D02*
X13870920Y-14996960D01*
X13870920Y-14996960D02*
X13851872Y-15006484D01*
X13851872Y-15006484D02*
X13804253Y-15006484D01*
X13804253Y-15006484D02*
X13785206Y-14996960D01*
X13785206Y-14996960D02*
X13775682Y-14987436D01*
X14061396Y-14873150D02*
X14061396Y-15006484D01*
X14013777Y-14796960D02*
X13966158Y-14939817D01*
X13966158Y-14939817D02*
X14089967Y-14939817D01*
X14156634Y-14806484D02*
X14156634Y-14844579D01*
X14232825Y-14806484D02*
X14232825Y-14844579D01*
X14528063Y-15082674D02*
X14518539Y-15073150D01*
X14518539Y-15073150D02*
X14499491Y-15044579D01*
X14499491Y-15044579D02*
X14489968Y-15025531D01*
X14489968Y-15025531D02*
X14480444Y-14996960D01*
X14480444Y-14996960D02*
X14470920Y-14949341D01*
X14470920Y-14949341D02*
X14470920Y-14911246D01*
X14470920Y-14911246D02*
X14480444Y-14863627D01*
X14480444Y-14863627D02*
X14489968Y-14835055D01*
X14489968Y-14835055D02*
X14499491Y-14816008D01*
X14499491Y-14816008D02*
X14518539Y-14787436D01*
X14518539Y-14787436D02*
X14528063Y-14777912D01*
X14594729Y-14825531D02*
X14604253Y-14816008D01*
X14604253Y-14816008D02*
X14623301Y-14806484D01*
X14623301Y-14806484D02*
X14670920Y-14806484D01*
X14670920Y-14806484D02*
X14689968Y-14816008D01*
X14689968Y-14816008D02*
X14699491Y-14825531D01*
X14699491Y-14825531D02*
X14709015Y-14844579D01*
X14709015Y-14844579D02*
X14709015Y-14863627D01*
X14709015Y-14863627D02*
X14699491Y-14892198D01*
X14699491Y-14892198D02*
X14585206Y-15006484D01*
X14585206Y-15006484D02*
X14709015Y-15006484D01*
X14947110Y-15006484D02*
X14947110Y-14806484D01*
X15032825Y-15006484D02*
X15032825Y-14901722D01*
X15032825Y-14901722D02*
X15023301Y-14882674D01*
X15023301Y-14882674D02*
X15004253Y-14873150D01*
X15004253Y-14873150D02*
X14975682Y-14873150D01*
X14975682Y-14873150D02*
X14956634Y-14882674D01*
X14956634Y-14882674D02*
X14947110Y-14892198D01*
X15156634Y-15006484D02*
X15137587Y-14996960D01*
X15137587Y-14996960D02*
X15128063Y-14987436D01*
X15128063Y-14987436D02*
X15118539Y-14968388D01*
X15118539Y-14968388D02*
X15118539Y-14911246D01*
X15118539Y-14911246D02*
X15128063Y-14892198D01*
X15128063Y-14892198D02*
X15137587Y-14882674D01*
X15137587Y-14882674D02*
X15156634Y-14873150D01*
X15156634Y-14873150D02*
X15185206Y-14873150D01*
X15185206Y-14873150D02*
X15204253Y-14882674D01*
X15204253Y-14882674D02*
X15213777Y-14892198D01*
X15213777Y-14892198D02*
X15223301Y-14911246D01*
X15223301Y-14911246D02*
X15223301Y-14968388D01*
X15223301Y-14968388D02*
X15213777Y-14987436D01*
X15213777Y-14987436D02*
X15204253Y-14996960D01*
X15204253Y-14996960D02*
X15185206Y-15006484D01*
X15185206Y-15006484D02*
X15156634Y-15006484D01*
X15337587Y-15006484D02*
X15318539Y-14996960D01*
X15318539Y-14996960D02*
X15309015Y-14977912D01*
X15309015Y-14977912D02*
X15309015Y-14806484D01*
X15489968Y-14996960D02*
X15470920Y-15006484D01*
X15470920Y-15006484D02*
X15432825Y-15006484D01*
X15432825Y-15006484D02*
X15413777Y-14996960D01*
X15413777Y-14996960D02*
X15404253Y-14977912D01*
X15404253Y-14977912D02*
X15404253Y-14901722D01*
X15404253Y-14901722D02*
X15413777Y-14882674D01*
X15413777Y-14882674D02*
X15432825Y-14873150D01*
X15432825Y-14873150D02*
X15470920Y-14873150D01*
X15470920Y-14873150D02*
X15489968Y-14882674D01*
X15489968Y-14882674D02*
X15499491Y-14901722D01*
X15499491Y-14901722D02*
X15499491Y-14920769D01*
X15499491Y-14920769D02*
X15404253Y-14939817D01*
X15575682Y-14996960D02*
X15594730Y-15006484D01*
X15594730Y-15006484D02*
X15632825Y-15006484D01*
X15632825Y-15006484D02*
X15651872Y-14996960D01*
X15651872Y-14996960D02*
X15661396Y-14977912D01*
X15661396Y-14977912D02*
X15661396Y-14968388D01*
X15661396Y-14968388D02*
X15651872Y-14949341D01*
X15651872Y-14949341D02*
X15632825Y-14939817D01*
X15632825Y-14939817D02*
X15604253Y-14939817D01*
X15604253Y-14939817D02*
X15585206Y-14930293D01*
X15585206Y-14930293D02*
X15575682Y-14911246D01*
X15575682Y-14911246D02*
X15575682Y-14901722D01*
X15575682Y-14901722D02*
X15585206Y-14882674D01*
X15585206Y-14882674D02*
X15604253Y-14873150D01*
X15604253Y-14873150D02*
X15632825Y-14873150D01*
X15632825Y-14873150D02*
X15651872Y-14882674D01*
X15728063Y-15082674D02*
X15737587Y-15073150D01*
X15737587Y-15073150D02*
X15756634Y-15044579D01*
X15756634Y-15044579D02*
X15766158Y-15025531D01*
X15766158Y-15025531D02*
X15775682Y-14996960D01*
X15775682Y-14996960D02*
X15785206Y-14949341D01*
X15785206Y-14949341D02*
X15785206Y-14911246D01*
X15785206Y-14911246D02*
X15775682Y-14863627D01*
X15775682Y-14863627D02*
X15766158Y-14835055D01*
X15766158Y-14835055D02*
X15756634Y-14816008D01*
X15756634Y-14816008D02*
X15737587Y-14787436D01*
X15737587Y-14787436D02*
X15728063Y-14777912D01*
D10*
X10938356Y-15214356D02*
X10938356Y-15143644D01*
X10867644Y-15143644D01*
X10867644Y-15214356D01*
X10938356Y-15214356D01*
D11*
X11318539Y-15270484D02*
X11204253Y-15270484D01*
X11261396Y-15270484D02*
X11261396Y-15070484D01*
X11261396Y-15070484D02*
X11242348Y-15099055D01*
X11242348Y-15099055D02*
X11223301Y-15118103D01*
X11223301Y-15118103D02*
X11204253Y-15127627D01*
X11404253Y-15251436D02*
X11413777Y-15260960D01*
X11413777Y-15260960D02*
X11404253Y-15270484D01*
X11404253Y-15270484D02*
X11394729Y-15260960D01*
X11394729Y-15260960D02*
X11404253Y-15251436D01*
X11404253Y-15251436D02*
X11404253Y-15270484D01*
X11537586Y-15070484D02*
X11556634Y-15070484D01*
X11556634Y-15070484D02*
X11575682Y-15080008D01*
X11575682Y-15080008D02*
X11585205Y-15089531D01*
X11585205Y-15089531D02*
X11594729Y-15108579D01*
X11594729Y-15108579D02*
X11604253Y-15146674D01*
X11604253Y-15146674D02*
X11604253Y-15194293D01*
X11604253Y-15194293D02*
X11594729Y-15232388D01*
X11594729Y-15232388D02*
X11585205Y-15251436D01*
X11585205Y-15251436D02*
X11575682Y-15260960D01*
X11575682Y-15260960D02*
X11556634Y-15270484D01*
X11556634Y-15270484D02*
X11537586Y-15270484D01*
X11537586Y-15270484D02*
X11518539Y-15260960D01*
X11518539Y-15260960D02*
X11509015Y-15251436D01*
X11509015Y-15251436D02*
X11499491Y-15232388D01*
X11499491Y-15232388D02*
X11489967Y-15194293D01*
X11489967Y-15194293D02*
X11489967Y-15146674D01*
X11489967Y-15146674D02*
X11499491Y-15108579D01*
X11499491Y-15108579D02*
X11509015Y-15089531D01*
X11509015Y-15089531D02*
X11518539Y-15080008D01*
X11518539Y-15080008D02*
X11537586Y-15070484D01*
X11728062Y-15070484D02*
X11747110Y-15070484D01*
X11747110Y-15070484D02*
X11766158Y-15080008D01*
X11766158Y-15080008D02*
X11775682Y-15089531D01*
X11775682Y-15089531D02*
X11785205Y-15108579D01*
X11785205Y-15108579D02*
X11794729Y-15146674D01*
X11794729Y-15146674D02*
X11794729Y-15194293D01*
X11794729Y-15194293D02*
X11785205Y-15232388D01*
X11785205Y-15232388D02*
X11775682Y-15251436D01*
X11775682Y-15251436D02*
X11766158Y-15260960D01*
X11766158Y-15260960D02*
X11747110Y-15270484D01*
X11747110Y-15270484D02*
X11728062Y-15270484D01*
X11728062Y-15270484D02*
X11709015Y-15260960D01*
X11709015Y-15260960D02*
X11699491Y-15251436D01*
X11699491Y-15251436D02*
X11689967Y-15232388D01*
X11689967Y-15232388D02*
X11680443Y-15194293D01*
X11680443Y-15194293D02*
X11680443Y-15146674D01*
X11680443Y-15146674D02*
X11689967Y-15108579D01*
X11689967Y-15108579D02*
X11699491Y-15089531D01*
X11699491Y-15089531D02*
X11709015Y-15080008D01*
X11709015Y-15080008D02*
X11728062Y-15070484D01*
X11918539Y-15070484D02*
X11937586Y-15070484D01*
X11937586Y-15070484D02*
X11956634Y-15080008D01*
X11956634Y-15080008D02*
X11966158Y-15089531D01*
X11966158Y-15089531D02*
X11975682Y-15108579D01*
X11975682Y-15108579D02*
X11985205Y-15146674D01*
X11985205Y-15146674D02*
X11985205Y-15194293D01*
X11985205Y-15194293D02*
X11975682Y-15232388D01*
X11975682Y-15232388D02*
X11966158Y-15251436D01*
X11966158Y-15251436D02*
X11956634Y-15260960D01*
X11956634Y-15260960D02*
X11937586Y-15270484D01*
X11937586Y-15270484D02*
X11918539Y-15270484D01*
X11918539Y-15270484D02*
X11899491Y-15260960D01*
X11899491Y-15260960D02*
X11889967Y-15251436D01*
X11889967Y-15251436D02*
X11880443Y-15232388D01*
X11880443Y-15232388D02*
X11870920Y-15194293D01*
X11870920Y-15194293D02*
X11870920Y-15146674D01*
X11870920Y-15146674D02*
X11880443Y-15108579D01*
X11880443Y-15108579D02*
X11889967Y-15089531D01*
X11889967Y-15089531D02*
X11899491Y-15080008D01*
X11899491Y-15080008D02*
X11918539Y-15070484D01*
X12070920Y-15270484D02*
X12070920Y-15137150D01*
X12070920Y-15156198D02*
X12080443Y-15146674D01*
X12080443Y-15146674D02*
X12099491Y-15137150D01*
X12099491Y-15137150D02*
X12128063Y-15137150D01*
X12128063Y-15137150D02*
X12147110Y-15146674D01*
X12147110Y-15146674D02*
X12156634Y-15165722D01*
X12156634Y-15165722D02*
X12156634Y-15270484D01*
X12156634Y-15165722D02*
X12166158Y-15146674D01*
X12166158Y-15146674D02*
X12185205Y-15137150D01*
X12185205Y-15137150D02*
X12213777Y-15137150D01*
X12213777Y-15137150D02*
X12232824Y-15146674D01*
X12232824Y-15146674D02*
X12242348Y-15165722D01*
X12242348Y-15165722D02*
X12242348Y-15270484D01*
X12337586Y-15270484D02*
X12337586Y-15137150D01*
X12337586Y-15156198D02*
X12347110Y-15146674D01*
X12347110Y-15146674D02*
X12366158Y-15137150D01*
X12366158Y-15137150D02*
X12394729Y-15137150D01*
X12394729Y-15137150D02*
X12413777Y-15146674D01*
X12413777Y-15146674D02*
X12423301Y-15165722D01*
X12423301Y-15165722D02*
X12423301Y-15270484D01*
X12423301Y-15165722D02*
X12432824Y-15146674D01*
X12432824Y-15146674D02*
X12451872Y-15137150D01*
X12451872Y-15137150D02*
X12480443Y-15137150D01*
X12480443Y-15137150D02*
X12499491Y-15146674D01*
X12499491Y-15146674D02*
X12509015Y-15165722D01*
X12509015Y-15165722D02*
X12509015Y-15270484D01*
X12899491Y-15060960D02*
X12728063Y-15318103D01*
X13156634Y-15070484D02*
X13175682Y-15070484D01*
X13175682Y-15070484D02*
X13194729Y-15080008D01*
X13194729Y-15080008D02*
X13204253Y-15089531D01*
X13204253Y-15089531D02*
X13213777Y-15108579D01*
X13213777Y-15108579D02*
X13223301Y-15146674D01*
X13223301Y-15146674D02*
X13223301Y-15194293D01*
X13223301Y-15194293D02*
X13213777Y-15232388D01*
X13213777Y-15232388D02*
X13204253Y-15251436D01*
X13204253Y-15251436D02*
X13194729Y-15260960D01*
X13194729Y-15260960D02*
X13175682Y-15270484D01*
X13175682Y-15270484D02*
X13156634Y-15270484D01*
X13156634Y-15270484D02*
X13137586Y-15260960D01*
X13137586Y-15260960D02*
X13128063Y-15251436D01*
X13128063Y-15251436D02*
X13118539Y-15232388D01*
X13118539Y-15232388D02*
X13109015Y-15194293D01*
X13109015Y-15194293D02*
X13109015Y-15146674D01*
X13109015Y-15146674D02*
X13118539Y-15108579D01*
X13118539Y-15108579D02*
X13128063Y-15089531D01*
X13128063Y-15089531D02*
X13137586Y-15080008D01*
X13137586Y-15080008D02*
X13156634Y-15070484D01*
X13309015Y-15251436D02*
X13318539Y-15260960D01*
X13318539Y-15260960D02*
X13309015Y-15270484D01*
X13309015Y-15270484D02*
X13299491Y-15260960D01*
X13299491Y-15260960D02*
X13309015Y-15251436D01*
X13309015Y-15251436D02*
X13309015Y-15270484D01*
X13442348Y-15070484D02*
X13461396Y-15070484D01*
X13461396Y-15070484D02*
X13480444Y-15080008D01*
X13480444Y-15080008D02*
X13489967Y-15089531D01*
X13489967Y-15089531D02*
X13499491Y-15108579D01*
X13499491Y-15108579D02*
X13509015Y-15146674D01*
X13509015Y-15146674D02*
X13509015Y-15194293D01*
X13509015Y-15194293D02*
X13499491Y-15232388D01*
X13499491Y-15232388D02*
X13489967Y-15251436D01*
X13489967Y-15251436D02*
X13480444Y-15260960D01*
X13480444Y-15260960D02*
X13461396Y-15270484D01*
X13461396Y-15270484D02*
X13442348Y-15270484D01*
X13442348Y-15270484D02*
X13423301Y-15260960D01*
X13423301Y-15260960D02*
X13413777Y-15251436D01*
X13413777Y-15251436D02*
X13404253Y-15232388D01*
X13404253Y-15232388D02*
X13394729Y-15194293D01*
X13394729Y-15194293D02*
X13394729Y-15146674D01*
X13394729Y-15146674D02*
X13404253Y-15108579D01*
X13404253Y-15108579D02*
X13413777Y-15089531D01*
X13413777Y-15089531D02*
X13423301Y-15080008D01*
X13423301Y-15080008D02*
X13442348Y-15070484D01*
X13575682Y-15070484D02*
X13699491Y-15070484D01*
X13699491Y-15070484D02*
X13632825Y-15146674D01*
X13632825Y-15146674D02*
X13661396Y-15146674D01*
X13661396Y-15146674D02*
X13680444Y-15156198D01*
X13680444Y-15156198D02*
X13689967Y-15165722D01*
X13689967Y-15165722D02*
X13699491Y-15184769D01*
X13699491Y-15184769D02*
X13699491Y-15232388D01*
X13699491Y-15232388D02*
X13689967Y-15251436D01*
X13689967Y-15251436D02*
X13680444Y-15260960D01*
X13680444Y-15260960D02*
X13661396Y-15270484D01*
X13661396Y-15270484D02*
X13604253Y-15270484D01*
X13604253Y-15270484D02*
X13585206Y-15260960D01*
X13585206Y-15260960D02*
X13575682Y-15251436D01*
X13794729Y-15270484D02*
X13832825Y-15270484D01*
X13832825Y-15270484D02*
X13851872Y-15260960D01*
X13851872Y-15260960D02*
X13861396Y-15251436D01*
X13861396Y-15251436D02*
X13880444Y-15222865D01*
X13880444Y-15222865D02*
X13889967Y-15184769D01*
X13889967Y-15184769D02*
X13889967Y-15108579D01*
X13889967Y-15108579D02*
X13880444Y-15089531D01*
X13880444Y-15089531D02*
X13870920Y-15080008D01*
X13870920Y-15080008D02*
X13851872Y-15070484D01*
X13851872Y-15070484D02*
X13813777Y-15070484D01*
X13813777Y-15070484D02*
X13794729Y-15080008D01*
X13794729Y-15080008D02*
X13785206Y-15089531D01*
X13785206Y-15089531D02*
X13775682Y-15108579D01*
X13775682Y-15108579D02*
X13775682Y-15156198D01*
X13775682Y-15156198D02*
X13785206Y-15175246D01*
X13785206Y-15175246D02*
X13794729Y-15184769D01*
X13794729Y-15184769D02*
X13813777Y-15194293D01*
X13813777Y-15194293D02*
X13851872Y-15194293D01*
X13851872Y-15194293D02*
X13870920Y-15184769D01*
X13870920Y-15184769D02*
X13880444Y-15175246D01*
X13880444Y-15175246D02*
X13889967Y-15156198D01*
X14061396Y-15137150D02*
X14061396Y-15270484D01*
X14013777Y-15060960D02*
X13966158Y-15203817D01*
X13966158Y-15203817D02*
X14089967Y-15203817D01*
X14156634Y-15070484D02*
X14156634Y-15108579D01*
X14232825Y-15070484D02*
X14232825Y-15108579D01*
X14528063Y-15346674D02*
X14518539Y-15337150D01*
X14518539Y-15337150D02*
X14499491Y-15308579D01*
X14499491Y-15308579D02*
X14489968Y-15289531D01*
X14489968Y-15289531D02*
X14480444Y-15260960D01*
X14480444Y-15260960D02*
X14470920Y-15213341D01*
X14470920Y-15213341D02*
X14470920Y-15175246D01*
X14470920Y-15175246D02*
X14480444Y-15127627D01*
X14480444Y-15127627D02*
X14489968Y-15099055D01*
X14489968Y-15099055D02*
X14499491Y-15080008D01*
X14499491Y-15080008D02*
X14518539Y-15051436D01*
X14518539Y-15051436D02*
X14528063Y-15041912D01*
X14699491Y-15070484D02*
X14604253Y-15070484D01*
X14604253Y-15070484D02*
X14594729Y-15165722D01*
X14594729Y-15165722D02*
X14604253Y-15156198D01*
X14604253Y-15156198D02*
X14623301Y-15146674D01*
X14623301Y-15146674D02*
X14670920Y-15146674D01*
X14670920Y-15146674D02*
X14689968Y-15156198D01*
X14689968Y-15156198D02*
X14699491Y-15165722D01*
X14699491Y-15165722D02*
X14709015Y-15184769D01*
X14709015Y-15184769D02*
X14709015Y-15232388D01*
X14709015Y-15232388D02*
X14699491Y-15251436D01*
X14699491Y-15251436D02*
X14689968Y-15260960D01*
X14689968Y-15260960D02*
X14670920Y-15270484D01*
X14670920Y-15270484D02*
X14623301Y-15270484D01*
X14623301Y-15270484D02*
X14604253Y-15260960D01*
X14604253Y-15260960D02*
X14594729Y-15251436D01*
X14880444Y-15137150D02*
X14880444Y-15270484D01*
X14832825Y-15060960D02*
X14785206Y-15203817D01*
X14785206Y-15203817D02*
X14909015Y-15203817D01*
X15137587Y-15270484D02*
X15137587Y-15070484D01*
X15223301Y-15270484D02*
X15223301Y-15165722D01*
X15223301Y-15165722D02*
X15213777Y-15146674D01*
X15213777Y-15146674D02*
X15194730Y-15137150D01*
X15194730Y-15137150D02*
X15166158Y-15137150D01*
X15166158Y-15137150D02*
X15147110Y-15146674D01*
X15147110Y-15146674D02*
X15137587Y-15156198D01*
X15347110Y-15270484D02*
X15328063Y-15260960D01*
X15328063Y-15260960D02*
X15318539Y-15251436D01*
X15318539Y-15251436D02*
X15309015Y-15232388D01*
X15309015Y-15232388D02*
X15309015Y-15175246D01*
X15309015Y-15175246D02*
X15318539Y-15156198D01*
X15318539Y-15156198D02*
X15328063Y-15146674D01*
X15328063Y-15146674D02*
X15347110Y-15137150D01*
X15347110Y-15137150D02*
X15375682Y-15137150D01*
X15375682Y-15137150D02*
X15394730Y-15146674D01*
X15394730Y-15146674D02*
X15404253Y-15156198D01*
X15404253Y-15156198D02*
X15413777Y-15175246D01*
X15413777Y-15175246D02*
X15413777Y-15232388D01*
X15413777Y-15232388D02*
X15404253Y-15251436D01*
X15404253Y-15251436D02*
X15394730Y-15260960D01*
X15394730Y-15260960D02*
X15375682Y-15270484D01*
X15375682Y-15270484D02*
X15347110Y-15270484D01*
X15528063Y-15270484D02*
X15509015Y-15260960D01*
X15509015Y-15260960D02*
X15499491Y-15241912D01*
X15499491Y-15241912D02*
X15499491Y-15070484D01*
X15680444Y-15260960D02*
X15661396Y-15270484D01*
X15661396Y-15270484D02*
X15623301Y-15270484D01*
X15623301Y-15270484D02*
X15604253Y-15260960D01*
X15604253Y-15260960D02*
X15594730Y-15241912D01*
X15594730Y-15241912D02*
X15594730Y-15165722D01*
X15594730Y-15165722D02*
X15604253Y-15146674D01*
X15604253Y-15146674D02*
X15623301Y-15137150D01*
X15623301Y-15137150D02*
X15661396Y-15137150D01*
X15661396Y-15137150D02*
X15680444Y-15146674D01*
X15680444Y-15146674D02*
X15689968Y-15165722D01*
X15689968Y-15165722D02*
X15689968Y-15184769D01*
X15689968Y-15184769D02*
X15594730Y-15203817D01*
X15766158Y-15260960D02*
X15785206Y-15270484D01*
X15785206Y-15270484D02*
X15823301Y-15270484D01*
X15823301Y-15270484D02*
X15842349Y-15260960D01*
X15842349Y-15260960D02*
X15851872Y-15241912D01*
X15851872Y-15241912D02*
X15851872Y-15232388D01*
X15851872Y-15232388D02*
X15842349Y-15213341D01*
X15842349Y-15213341D02*
X15823301Y-15203817D01*
X15823301Y-15203817D02*
X15794730Y-15203817D01*
X15794730Y-15203817D02*
X15775682Y-15194293D01*
X15775682Y-15194293D02*
X15766158Y-15175246D01*
X15766158Y-15175246D02*
X15766158Y-15165722D01*
X15766158Y-15165722D02*
X15775682Y-15146674D01*
X15775682Y-15146674D02*
X15794730Y-15137150D01*
X15794730Y-15137150D02*
X15823301Y-15137150D01*
X15823301Y-15137150D02*
X15842349Y-15146674D01*
X15918539Y-15346674D02*
X15928063Y-15337150D01*
X15928063Y-15337150D02*
X15947111Y-15308579D01*
X15947111Y-15308579D02*
X15956634Y-15289531D01*
X15956634Y-15289531D02*
X15966158Y-15260960D01*
X15966158Y-15260960D02*
X15975682Y-15213341D01*
X15975682Y-15213341D02*
X15975682Y-15175246D01*
X15975682Y-15175246D02*
X15966158Y-15127627D01*
X15966158Y-15127627D02*
X15956634Y-15099055D01*
X15956634Y-15099055D02*
X15947111Y-15080008D01*
X15947111Y-15080008D02*
X15928063Y-15051436D01*
X15928063Y-15051436D02*
X15918539Y-15041912D01*
D12*
X10898000Y-15498000D02*
X10953000Y-15443000D01*
X10898000Y-15388000D01*
X10843000Y-15443000D01*
X10898000Y-15498000D01*
D11*
X11318539Y-15534484D02*
X11204253Y-15534484D01*
X11261396Y-15534484D02*
X11261396Y-15334484D01*
X11261396Y-15334484D02*
X11242348Y-15363055D01*
X11242348Y-15363055D02*
X11223301Y-15382103D01*
X11223301Y-15382103D02*
X11204253Y-15391627D01*
X11404253Y-15515436D02*
X11413777Y-15524960D01*
X11413777Y-15524960D02*
X11404253Y-15534484D01*
X11404253Y-15534484D02*
X11394729Y-15524960D01*
X11394729Y-15524960D02*
X11404253Y-15515436D01*
X11404253Y-15515436D02*
X11404253Y-15534484D01*
X11604253Y-15534484D02*
X11489967Y-15534484D01*
X11547110Y-15534484D02*
X11547110Y-15334484D01*
X11547110Y-15334484D02*
X11528062Y-15363055D01*
X11528062Y-15363055D02*
X11509015Y-15382103D01*
X11509015Y-15382103D02*
X11489967Y-15391627D01*
X11728062Y-15334484D02*
X11747110Y-15334484D01*
X11747110Y-15334484D02*
X11766158Y-15344008D01*
X11766158Y-15344008D02*
X11775682Y-15353531D01*
X11775682Y-15353531D02*
X11785205Y-15372579D01*
X11785205Y-15372579D02*
X11794729Y-15410674D01*
X11794729Y-15410674D02*
X11794729Y-15458293D01*
X11794729Y-15458293D02*
X11785205Y-15496388D01*
X11785205Y-15496388D02*
X11775682Y-15515436D01*
X11775682Y-15515436D02*
X11766158Y-15524960D01*
X11766158Y-15524960D02*
X11747110Y-15534484D01*
X11747110Y-15534484D02*
X11728062Y-15534484D01*
X11728062Y-15534484D02*
X11709015Y-15524960D01*
X11709015Y-15524960D02*
X11699491Y-15515436D01*
X11699491Y-15515436D02*
X11689967Y-15496388D01*
X11689967Y-15496388D02*
X11680443Y-15458293D01*
X11680443Y-15458293D02*
X11680443Y-15410674D01*
X11680443Y-15410674D02*
X11689967Y-15372579D01*
X11689967Y-15372579D02*
X11699491Y-15353531D01*
X11699491Y-15353531D02*
X11709015Y-15344008D01*
X11709015Y-15344008D02*
X11728062Y-15334484D01*
X11918539Y-15334484D02*
X11937586Y-15334484D01*
X11937586Y-15334484D02*
X11956634Y-15344008D01*
X11956634Y-15344008D02*
X11966158Y-15353531D01*
X11966158Y-15353531D02*
X11975682Y-15372579D01*
X11975682Y-15372579D02*
X11985205Y-15410674D01*
X11985205Y-15410674D02*
X11985205Y-15458293D01*
X11985205Y-15458293D02*
X11975682Y-15496388D01*
X11975682Y-15496388D02*
X11966158Y-15515436D01*
X11966158Y-15515436D02*
X11956634Y-15524960D01*
X11956634Y-15524960D02*
X11937586Y-15534484D01*
X11937586Y-15534484D02*
X11918539Y-15534484D01*
X11918539Y-15534484D02*
X11899491Y-15524960D01*
X11899491Y-15524960D02*
X11889967Y-15515436D01*
X11889967Y-15515436D02*
X11880443Y-15496388D01*
X11880443Y-15496388D02*
X11870920Y-15458293D01*
X11870920Y-15458293D02*
X11870920Y-15410674D01*
X11870920Y-15410674D02*
X11880443Y-15372579D01*
X11880443Y-15372579D02*
X11889967Y-15353531D01*
X11889967Y-15353531D02*
X11899491Y-15344008D01*
X11899491Y-15344008D02*
X11918539Y-15334484D01*
X12070920Y-15534484D02*
X12070920Y-15401150D01*
X12070920Y-15420198D02*
X12080443Y-15410674D01*
X12080443Y-15410674D02*
X12099491Y-15401150D01*
X12099491Y-15401150D02*
X12128063Y-15401150D01*
X12128063Y-15401150D02*
X12147110Y-15410674D01*
X12147110Y-15410674D02*
X12156634Y-15429722D01*
X12156634Y-15429722D02*
X12156634Y-15534484D01*
X12156634Y-15429722D02*
X12166158Y-15410674D01*
X12166158Y-15410674D02*
X12185205Y-15401150D01*
X12185205Y-15401150D02*
X12213777Y-15401150D01*
X12213777Y-15401150D02*
X12232824Y-15410674D01*
X12232824Y-15410674D02*
X12242348Y-15429722D01*
X12242348Y-15429722D02*
X12242348Y-15534484D01*
X12337586Y-15534484D02*
X12337586Y-15401150D01*
X12337586Y-15420198D02*
X12347110Y-15410674D01*
X12347110Y-15410674D02*
X12366158Y-15401150D01*
X12366158Y-15401150D02*
X12394729Y-15401150D01*
X12394729Y-15401150D02*
X12413777Y-15410674D01*
X12413777Y-15410674D02*
X12423301Y-15429722D01*
X12423301Y-15429722D02*
X12423301Y-15534484D01*
X12423301Y-15429722D02*
X12432824Y-15410674D01*
X12432824Y-15410674D02*
X12451872Y-15401150D01*
X12451872Y-15401150D02*
X12480443Y-15401150D01*
X12480443Y-15401150D02*
X12499491Y-15410674D01*
X12499491Y-15410674D02*
X12509015Y-15429722D01*
X12509015Y-15429722D02*
X12509015Y-15534484D01*
X12899491Y-15324960D02*
X12728063Y-15582103D01*
X13156634Y-15334484D02*
X13175682Y-15334484D01*
X13175682Y-15334484D02*
X13194729Y-15344008D01*
X13194729Y-15344008D02*
X13204253Y-15353531D01*
X13204253Y-15353531D02*
X13213777Y-15372579D01*
X13213777Y-15372579D02*
X13223301Y-15410674D01*
X13223301Y-15410674D02*
X13223301Y-15458293D01*
X13223301Y-15458293D02*
X13213777Y-15496388D01*
X13213777Y-15496388D02*
X13204253Y-15515436D01*
X13204253Y-15515436D02*
X13194729Y-15524960D01*
X13194729Y-15524960D02*
X13175682Y-15534484D01*
X13175682Y-15534484D02*
X13156634Y-15534484D01*
X13156634Y-15534484D02*
X13137586Y-15524960D01*
X13137586Y-15524960D02*
X13128063Y-15515436D01*
X13128063Y-15515436D02*
X13118539Y-15496388D01*
X13118539Y-15496388D02*
X13109015Y-15458293D01*
X13109015Y-15458293D02*
X13109015Y-15410674D01*
X13109015Y-15410674D02*
X13118539Y-15372579D01*
X13118539Y-15372579D02*
X13128063Y-15353531D01*
X13128063Y-15353531D02*
X13137586Y-15344008D01*
X13137586Y-15344008D02*
X13156634Y-15334484D01*
X13309015Y-15515436D02*
X13318539Y-15524960D01*
X13318539Y-15524960D02*
X13309015Y-15534484D01*
X13309015Y-15534484D02*
X13299491Y-15524960D01*
X13299491Y-15524960D02*
X13309015Y-15515436D01*
X13309015Y-15515436D02*
X13309015Y-15534484D01*
X13442348Y-15334484D02*
X13461396Y-15334484D01*
X13461396Y-15334484D02*
X13480444Y-15344008D01*
X13480444Y-15344008D02*
X13489967Y-15353531D01*
X13489967Y-15353531D02*
X13499491Y-15372579D01*
X13499491Y-15372579D02*
X13509015Y-15410674D01*
X13509015Y-15410674D02*
X13509015Y-15458293D01*
X13509015Y-15458293D02*
X13499491Y-15496388D01*
X13499491Y-15496388D02*
X13489967Y-15515436D01*
X13489967Y-15515436D02*
X13480444Y-15524960D01*
X13480444Y-15524960D02*
X13461396Y-15534484D01*
X13461396Y-15534484D02*
X13442348Y-15534484D01*
X13442348Y-15534484D02*
X13423301Y-15524960D01*
X13423301Y-15524960D02*
X13413777Y-15515436D01*
X13413777Y-15515436D02*
X13404253Y-15496388D01*
X13404253Y-15496388D02*
X13394729Y-15458293D01*
X13394729Y-15458293D02*
X13394729Y-15410674D01*
X13394729Y-15410674D02*
X13404253Y-15372579D01*
X13404253Y-15372579D02*
X13413777Y-15353531D01*
X13413777Y-15353531D02*
X13423301Y-15344008D01*
X13423301Y-15344008D02*
X13442348Y-15334484D01*
X13680444Y-15401150D02*
X13680444Y-15534484D01*
X13632825Y-15324960D02*
X13585206Y-15467817D01*
X13585206Y-15467817D02*
X13709015Y-15467817D01*
X13766158Y-15334484D02*
X13889967Y-15334484D01*
X13889967Y-15334484D02*
X13823301Y-15410674D01*
X13823301Y-15410674D02*
X13851872Y-15410674D01*
X13851872Y-15410674D02*
X13870920Y-15420198D01*
X13870920Y-15420198D02*
X13880444Y-15429722D01*
X13880444Y-15429722D02*
X13889967Y-15448769D01*
X13889967Y-15448769D02*
X13889967Y-15496388D01*
X13889967Y-15496388D02*
X13880444Y-15515436D01*
X13880444Y-15515436D02*
X13870920Y-15524960D01*
X13870920Y-15524960D02*
X13851872Y-15534484D01*
X13851872Y-15534484D02*
X13794729Y-15534484D01*
X13794729Y-15534484D02*
X13775682Y-15524960D01*
X13775682Y-15524960D02*
X13766158Y-15515436D01*
X13956634Y-15334484D02*
X14080444Y-15334484D01*
X14080444Y-15334484D02*
X14013777Y-15410674D01*
X14013777Y-15410674D02*
X14042348Y-15410674D01*
X14042348Y-15410674D02*
X14061396Y-15420198D01*
X14061396Y-15420198D02*
X14070920Y-15429722D01*
X14070920Y-15429722D02*
X14080444Y-15448769D01*
X14080444Y-15448769D02*
X14080444Y-15496388D01*
X14080444Y-15496388D02*
X14070920Y-15515436D01*
X14070920Y-15515436D02*
X14061396Y-15524960D01*
X14061396Y-15524960D02*
X14042348Y-15534484D01*
X14042348Y-15534484D02*
X13985206Y-15534484D01*
X13985206Y-15534484D02*
X13966158Y-15524960D01*
X13966158Y-15524960D02*
X13956634Y-15515436D01*
X14156634Y-15334484D02*
X14156634Y-15372579D01*
X14232825Y-15334484D02*
X14232825Y-15372579D01*
X14528063Y-15610674D02*
X14518539Y-15601150D01*
X14518539Y-15601150D02*
X14499491Y-15572579D01*
X14499491Y-15572579D02*
X14489968Y-15553531D01*
X14489968Y-15553531D02*
X14480444Y-15524960D01*
X14480444Y-15524960D02*
X14470920Y-15477341D01*
X14470920Y-15477341D02*
X14470920Y-15439246D01*
X14470920Y-15439246D02*
X14480444Y-15391627D01*
X14480444Y-15391627D02*
X14489968Y-15363055D01*
X14489968Y-15363055D02*
X14499491Y-15344008D01*
X14499491Y-15344008D02*
X14518539Y-15315436D01*
X14518539Y-15315436D02*
X14528063Y-15305912D01*
X14709015Y-15534484D02*
X14594729Y-15534484D01*
X14651872Y-15534484D02*
X14651872Y-15334484D01*
X14651872Y-15334484D02*
X14632825Y-15363055D01*
X14632825Y-15363055D02*
X14613777Y-15382103D01*
X14613777Y-15382103D02*
X14594729Y-15391627D01*
X14832825Y-15334484D02*
X14851872Y-15334484D01*
X14851872Y-15334484D02*
X14870920Y-15344008D01*
X14870920Y-15344008D02*
X14880444Y-15353531D01*
X14880444Y-15353531D02*
X14889968Y-15372579D01*
X14889968Y-15372579D02*
X14899491Y-15410674D01*
X14899491Y-15410674D02*
X14899491Y-15458293D01*
X14899491Y-15458293D02*
X14889968Y-15496388D01*
X14889968Y-15496388D02*
X14880444Y-15515436D01*
X14880444Y-15515436D02*
X14870920Y-15524960D01*
X14870920Y-15524960D02*
X14851872Y-15534484D01*
X14851872Y-15534484D02*
X14832825Y-15534484D01*
X14832825Y-15534484D02*
X14813777Y-15524960D01*
X14813777Y-15524960D02*
X14804253Y-15515436D01*
X14804253Y-15515436D02*
X14794729Y-15496388D01*
X14794729Y-15496388D02*
X14785206Y-15458293D01*
X14785206Y-15458293D02*
X14785206Y-15410674D01*
X14785206Y-15410674D02*
X14794729Y-15372579D01*
X14794729Y-15372579D02*
X14804253Y-15353531D01*
X14804253Y-15353531D02*
X14813777Y-15344008D01*
X14813777Y-15344008D02*
X14832825Y-15334484D01*
X15137587Y-15534484D02*
X15137587Y-15334484D01*
X15223301Y-15534484D02*
X15223301Y-15429722D01*
X15223301Y-15429722D02*
X15213777Y-15410674D01*
X15213777Y-15410674D02*
X15194730Y-15401150D01*
X15194730Y-15401150D02*
X15166158Y-15401150D01*
X15166158Y-15401150D02*
X15147110Y-15410674D01*
X15147110Y-15410674D02*
X15137587Y-15420198D01*
X15347110Y-15534484D02*
X15328063Y-15524960D01*
X15328063Y-15524960D02*
X15318539Y-15515436D01*
X15318539Y-15515436D02*
X15309015Y-15496388D01*
X15309015Y-15496388D02*
X15309015Y-15439246D01*
X15309015Y-15439246D02*
X15318539Y-15420198D01*
X15318539Y-15420198D02*
X15328063Y-15410674D01*
X15328063Y-15410674D02*
X15347110Y-15401150D01*
X15347110Y-15401150D02*
X15375682Y-15401150D01*
X15375682Y-15401150D02*
X15394730Y-15410674D01*
X15394730Y-15410674D02*
X15404253Y-15420198D01*
X15404253Y-15420198D02*
X15413777Y-15439246D01*
X15413777Y-15439246D02*
X15413777Y-15496388D01*
X15413777Y-15496388D02*
X15404253Y-15515436D01*
X15404253Y-15515436D02*
X15394730Y-15524960D01*
X15394730Y-15524960D02*
X15375682Y-15534484D01*
X15375682Y-15534484D02*
X15347110Y-15534484D01*
X15528063Y-15534484D02*
X15509015Y-15524960D01*
X15509015Y-15524960D02*
X15499491Y-15505912D01*
X15499491Y-15505912D02*
X15499491Y-15334484D01*
X15680444Y-15524960D02*
X15661396Y-15534484D01*
X15661396Y-15534484D02*
X15623301Y-15534484D01*
X15623301Y-15534484D02*
X15604253Y-15524960D01*
X15604253Y-15524960D02*
X15594730Y-15505912D01*
X15594730Y-15505912D02*
X15594730Y-15429722D01*
X15594730Y-15429722D02*
X15604253Y-15410674D01*
X15604253Y-15410674D02*
X15623301Y-15401150D01*
X15623301Y-15401150D02*
X15661396Y-15401150D01*
X15661396Y-15401150D02*
X15680444Y-15410674D01*
X15680444Y-15410674D02*
X15689968Y-15429722D01*
X15689968Y-15429722D02*
X15689968Y-15448769D01*
X15689968Y-15448769D02*
X15594730Y-15467817D01*
X15766158Y-15524960D02*
X15785206Y-15534484D01*
X15785206Y-15534484D02*
X15823301Y-15534484D01*
X15823301Y-15534484D02*
X15842349Y-15524960D01*
X15842349Y-15524960D02*
X15851872Y-15505912D01*
X15851872Y-15505912D02*
X15851872Y-15496388D01*
X15851872Y-15496388D02*
X15842349Y-15477341D01*
X15842349Y-15477341D02*
X15823301Y-15467817D01*
X15823301Y-15467817D02*
X15794730Y-15467817D01*
X15794730Y-15467817D02*
X15775682Y-15458293D01*
X15775682Y-15458293D02*
X15766158Y-15439246D01*
X15766158Y-15439246D02*
X15766158Y-15429722D01*
X15766158Y-15429722D02*
X15775682Y-15410674D01*
X15775682Y-15410674D02*
X15794730Y-15401150D01*
X15794730Y-15401150D02*
X15823301Y-15401150D01*
X15823301Y-15401150D02*
X15842349Y-15410674D01*
X15918539Y-15610674D02*
X15928063Y-15601150D01*
X15928063Y-15601150D02*
X15947111Y-15572579D01*
X15947111Y-15572579D02*
X15956634Y-15553531D01*
X15956634Y-15553531D02*
X15966158Y-15524960D01*
X15966158Y-15524960D02*
X15975682Y-15477341D01*
X15975682Y-15477341D02*
X15975682Y-15439246D01*
X15975682Y-15439246D02*
X15966158Y-15391627D01*
X15966158Y-15391627D02*
X15956634Y-15363055D01*
X15956634Y-15363055D02*
X15947111Y-15344008D01*
X15947111Y-15344008D02*
X15928063Y-15315436D01*
X15928063Y-15315436D02*
X15918539Y-15305912D01*
D13*
X10823000Y-15642000D02*
X10953000Y-15772000D01*
X10953000Y-15642000D02*
X10823000Y-15772000D01*
X10953000Y-15707000D02*
G75*
G03*
X10823000Y-15707000I-65000J0D01*
G01*
X10823000Y-15707000D02*
G75*
G03*
X10953000Y-15707000I65000J0D01*
G01*
D11*
X11318539Y-15798484D02*
X11204253Y-15798484D01*
X11261396Y-15798484D02*
X11261396Y-15598484D01*
X11261396Y-15598484D02*
X11242348Y-15627055D01*
X11242348Y-15627055D02*
X11223301Y-15646103D01*
X11223301Y-15646103D02*
X11204253Y-15655627D01*
X11404253Y-15779436D02*
X11413777Y-15788960D01*
X11413777Y-15788960D02*
X11404253Y-15798484D01*
X11404253Y-15798484D02*
X11394729Y-15788960D01*
X11394729Y-15788960D02*
X11404253Y-15779436D01*
X11404253Y-15779436D02*
X11404253Y-15798484D01*
X11480443Y-15598484D02*
X11604253Y-15598484D01*
X11604253Y-15598484D02*
X11537586Y-15674674D01*
X11537586Y-15674674D02*
X11566158Y-15674674D01*
X11566158Y-15674674D02*
X11585205Y-15684198D01*
X11585205Y-15684198D02*
X11594729Y-15693722D01*
X11594729Y-15693722D02*
X11604253Y-15712769D01*
X11604253Y-15712769D02*
X11604253Y-15760388D01*
X11604253Y-15760388D02*
X11594729Y-15779436D01*
X11594729Y-15779436D02*
X11585205Y-15788960D01*
X11585205Y-15788960D02*
X11566158Y-15798484D01*
X11566158Y-15798484D02*
X11509015Y-15798484D01*
X11509015Y-15798484D02*
X11489967Y-15788960D01*
X11489967Y-15788960D02*
X11480443Y-15779436D01*
X11728062Y-15598484D02*
X11747110Y-15598484D01*
X11747110Y-15598484D02*
X11766158Y-15608008D01*
X11766158Y-15608008D02*
X11775682Y-15617531D01*
X11775682Y-15617531D02*
X11785205Y-15636579D01*
X11785205Y-15636579D02*
X11794729Y-15674674D01*
X11794729Y-15674674D02*
X11794729Y-15722293D01*
X11794729Y-15722293D02*
X11785205Y-15760388D01*
X11785205Y-15760388D02*
X11775682Y-15779436D01*
X11775682Y-15779436D02*
X11766158Y-15788960D01*
X11766158Y-15788960D02*
X11747110Y-15798484D01*
X11747110Y-15798484D02*
X11728062Y-15798484D01*
X11728062Y-15798484D02*
X11709015Y-15788960D01*
X11709015Y-15788960D02*
X11699491Y-15779436D01*
X11699491Y-15779436D02*
X11689967Y-15760388D01*
X11689967Y-15760388D02*
X11680443Y-15722293D01*
X11680443Y-15722293D02*
X11680443Y-15674674D01*
X11680443Y-15674674D02*
X11689967Y-15636579D01*
X11689967Y-15636579D02*
X11699491Y-15617531D01*
X11699491Y-15617531D02*
X11709015Y-15608008D01*
X11709015Y-15608008D02*
X11728062Y-15598484D01*
X11918539Y-15598484D02*
X11937586Y-15598484D01*
X11937586Y-15598484D02*
X11956634Y-15608008D01*
X11956634Y-15608008D02*
X11966158Y-15617531D01*
X11966158Y-15617531D02*
X11975682Y-15636579D01*
X11975682Y-15636579D02*
X11985205Y-15674674D01*
X11985205Y-15674674D02*
X11985205Y-15722293D01*
X11985205Y-15722293D02*
X11975682Y-15760388D01*
X11975682Y-15760388D02*
X11966158Y-15779436D01*
X11966158Y-15779436D02*
X11956634Y-15788960D01*
X11956634Y-15788960D02*
X11937586Y-15798484D01*
X11937586Y-15798484D02*
X11918539Y-15798484D01*
X11918539Y-15798484D02*
X11899491Y-15788960D01*
X11899491Y-15788960D02*
X11889967Y-15779436D01*
X11889967Y-15779436D02*
X11880443Y-15760388D01*
X11880443Y-15760388D02*
X11870920Y-15722293D01*
X11870920Y-15722293D02*
X11870920Y-15674674D01*
X11870920Y-15674674D02*
X11880443Y-15636579D01*
X11880443Y-15636579D02*
X11889967Y-15617531D01*
X11889967Y-15617531D02*
X11899491Y-15608008D01*
X11899491Y-15608008D02*
X11918539Y-15598484D01*
X12070920Y-15798484D02*
X12070920Y-15665150D01*
X12070920Y-15684198D02*
X12080443Y-15674674D01*
X12080443Y-15674674D02*
X12099491Y-15665150D01*
X12099491Y-15665150D02*
X12128063Y-15665150D01*
X12128063Y-15665150D02*
X12147110Y-15674674D01*
X12147110Y-15674674D02*
X12156634Y-15693722D01*
X12156634Y-15693722D02*
X12156634Y-15798484D01*
X12156634Y-15693722D02*
X12166158Y-15674674D01*
X12166158Y-15674674D02*
X12185205Y-15665150D01*
X12185205Y-15665150D02*
X12213777Y-15665150D01*
X12213777Y-15665150D02*
X12232824Y-15674674D01*
X12232824Y-15674674D02*
X12242348Y-15693722D01*
X12242348Y-15693722D02*
X12242348Y-15798484D01*
X12337586Y-15798484D02*
X12337586Y-15665150D01*
X12337586Y-15684198D02*
X12347110Y-15674674D01*
X12347110Y-15674674D02*
X12366158Y-15665150D01*
X12366158Y-15665150D02*
X12394729Y-15665150D01*
X12394729Y-15665150D02*
X12413777Y-15674674D01*
X12413777Y-15674674D02*
X12423301Y-15693722D01*
X12423301Y-15693722D02*
X12423301Y-15798484D01*
X12423301Y-15693722D02*
X12432824Y-15674674D01*
X12432824Y-15674674D02*
X12451872Y-15665150D01*
X12451872Y-15665150D02*
X12480443Y-15665150D01*
X12480443Y-15665150D02*
X12499491Y-15674674D01*
X12499491Y-15674674D02*
X12509015Y-15693722D01*
X12509015Y-15693722D02*
X12509015Y-15798484D01*
X12899491Y-15588960D02*
X12728063Y-15846103D01*
X13156634Y-15598484D02*
X13175682Y-15598484D01*
X13175682Y-15598484D02*
X13194729Y-15608008D01*
X13194729Y-15608008D02*
X13204253Y-15617531D01*
X13204253Y-15617531D02*
X13213777Y-15636579D01*
X13213777Y-15636579D02*
X13223301Y-15674674D01*
X13223301Y-15674674D02*
X13223301Y-15722293D01*
X13223301Y-15722293D02*
X13213777Y-15760388D01*
X13213777Y-15760388D02*
X13204253Y-15779436D01*
X13204253Y-15779436D02*
X13194729Y-15788960D01*
X13194729Y-15788960D02*
X13175682Y-15798484D01*
X13175682Y-15798484D02*
X13156634Y-15798484D01*
X13156634Y-15798484D02*
X13137586Y-15788960D01*
X13137586Y-15788960D02*
X13128063Y-15779436D01*
X13128063Y-15779436D02*
X13118539Y-15760388D01*
X13118539Y-15760388D02*
X13109015Y-15722293D01*
X13109015Y-15722293D02*
X13109015Y-15674674D01*
X13109015Y-15674674D02*
X13118539Y-15636579D01*
X13118539Y-15636579D02*
X13128063Y-15617531D01*
X13128063Y-15617531D02*
X13137586Y-15608008D01*
X13137586Y-15608008D02*
X13156634Y-15598484D01*
X13309015Y-15779436D02*
X13318539Y-15788960D01*
X13318539Y-15788960D02*
X13309015Y-15798484D01*
X13309015Y-15798484D02*
X13299491Y-15788960D01*
X13299491Y-15788960D02*
X13309015Y-15779436D01*
X13309015Y-15779436D02*
X13309015Y-15798484D01*
X13442348Y-15598484D02*
X13461396Y-15598484D01*
X13461396Y-15598484D02*
X13480444Y-15608008D01*
X13480444Y-15608008D02*
X13489967Y-15617531D01*
X13489967Y-15617531D02*
X13499491Y-15636579D01*
X13499491Y-15636579D02*
X13509015Y-15674674D01*
X13509015Y-15674674D02*
X13509015Y-15722293D01*
X13509015Y-15722293D02*
X13499491Y-15760388D01*
X13499491Y-15760388D02*
X13489967Y-15779436D01*
X13489967Y-15779436D02*
X13480444Y-15788960D01*
X13480444Y-15788960D02*
X13461396Y-15798484D01*
X13461396Y-15798484D02*
X13442348Y-15798484D01*
X13442348Y-15798484D02*
X13423301Y-15788960D01*
X13423301Y-15788960D02*
X13413777Y-15779436D01*
X13413777Y-15779436D02*
X13404253Y-15760388D01*
X13404253Y-15760388D02*
X13394729Y-15722293D01*
X13394729Y-15722293D02*
X13394729Y-15674674D01*
X13394729Y-15674674D02*
X13404253Y-15636579D01*
X13404253Y-15636579D02*
X13413777Y-15617531D01*
X13413777Y-15617531D02*
X13423301Y-15608008D01*
X13423301Y-15608008D02*
X13442348Y-15598484D01*
X13689967Y-15598484D02*
X13594729Y-15598484D01*
X13594729Y-15598484D02*
X13585206Y-15693722D01*
X13585206Y-15693722D02*
X13594729Y-15684198D01*
X13594729Y-15684198D02*
X13613777Y-15674674D01*
X13613777Y-15674674D02*
X13661396Y-15674674D01*
X13661396Y-15674674D02*
X13680444Y-15684198D01*
X13680444Y-15684198D02*
X13689967Y-15693722D01*
X13689967Y-15693722D02*
X13699491Y-15712769D01*
X13699491Y-15712769D02*
X13699491Y-15760388D01*
X13699491Y-15760388D02*
X13689967Y-15779436D01*
X13689967Y-15779436D02*
X13680444Y-15788960D01*
X13680444Y-15788960D02*
X13661396Y-15798484D01*
X13661396Y-15798484D02*
X13613777Y-15798484D01*
X13613777Y-15798484D02*
X13594729Y-15788960D01*
X13594729Y-15788960D02*
X13585206Y-15779436D01*
X13889967Y-15798484D02*
X13775682Y-15798484D01*
X13832825Y-15798484D02*
X13832825Y-15598484D01*
X13832825Y-15598484D02*
X13813777Y-15627055D01*
X13813777Y-15627055D02*
X13794729Y-15646103D01*
X13794729Y-15646103D02*
X13775682Y-15655627D01*
X13966158Y-15617531D02*
X13975682Y-15608008D01*
X13975682Y-15608008D02*
X13994729Y-15598484D01*
X13994729Y-15598484D02*
X14042348Y-15598484D01*
X14042348Y-15598484D02*
X14061396Y-15608008D01*
X14061396Y-15608008D02*
X14070920Y-15617531D01*
X14070920Y-15617531D02*
X14080444Y-15636579D01*
X14080444Y-15636579D02*
X14080444Y-15655627D01*
X14080444Y-15655627D02*
X14070920Y-15684198D01*
X14070920Y-15684198D02*
X13956634Y-15798484D01*
X13956634Y-15798484D02*
X14080444Y-15798484D01*
X14156634Y-15598484D02*
X14156634Y-15636579D01*
X14232825Y-15598484D02*
X14232825Y-15636579D01*
X14528063Y-15874674D02*
X14518539Y-15865150D01*
X14518539Y-15865150D02*
X14499491Y-15836579D01*
X14499491Y-15836579D02*
X14489968Y-15817531D01*
X14489968Y-15817531D02*
X14480444Y-15788960D01*
X14480444Y-15788960D02*
X14470920Y-15741341D01*
X14470920Y-15741341D02*
X14470920Y-15703246D01*
X14470920Y-15703246D02*
X14480444Y-15655627D01*
X14480444Y-15655627D02*
X14489968Y-15627055D01*
X14489968Y-15627055D02*
X14499491Y-15608008D01*
X14499491Y-15608008D02*
X14518539Y-15579436D01*
X14518539Y-15579436D02*
X14528063Y-15569912D01*
X14689968Y-15665150D02*
X14689968Y-15798484D01*
X14642348Y-15588960D02*
X14594729Y-15731817D01*
X14594729Y-15731817D02*
X14718539Y-15731817D01*
X14947110Y-15798484D02*
X14947110Y-15598484D01*
X15032825Y-15798484D02*
X15032825Y-15693722D01*
X15032825Y-15693722D02*
X15023301Y-15674674D01*
X15023301Y-15674674D02*
X15004253Y-15665150D01*
X15004253Y-15665150D02*
X14975682Y-15665150D01*
X14975682Y-15665150D02*
X14956634Y-15674674D01*
X14956634Y-15674674D02*
X14947110Y-15684198D01*
X15156634Y-15798484D02*
X15137587Y-15788960D01*
X15137587Y-15788960D02*
X15128063Y-15779436D01*
X15128063Y-15779436D02*
X15118539Y-15760388D01*
X15118539Y-15760388D02*
X15118539Y-15703246D01*
X15118539Y-15703246D02*
X15128063Y-15684198D01*
X15128063Y-15684198D02*
X15137587Y-15674674D01*
X15137587Y-15674674D02*
X15156634Y-15665150D01*
X15156634Y-15665150D02*
X15185206Y-15665150D01*
X15185206Y-15665150D02*
X15204253Y-15674674D01*
X15204253Y-15674674D02*
X15213777Y-15684198D01*
X15213777Y-15684198D02*
X15223301Y-15703246D01*
X15223301Y-15703246D02*
X15223301Y-15760388D01*
X15223301Y-15760388D02*
X15213777Y-15779436D01*
X15213777Y-15779436D02*
X15204253Y-15788960D01*
X15204253Y-15788960D02*
X15185206Y-15798484D01*
X15185206Y-15798484D02*
X15156634Y-15798484D01*
X15337587Y-15798484D02*
X15318539Y-15788960D01*
X15318539Y-15788960D02*
X15309015Y-15769912D01*
X15309015Y-15769912D02*
X15309015Y-15598484D01*
X15489968Y-15788960D02*
X15470920Y-15798484D01*
X15470920Y-15798484D02*
X15432825Y-15798484D01*
X15432825Y-15798484D02*
X15413777Y-15788960D01*
X15413777Y-15788960D02*
X15404253Y-15769912D01*
X15404253Y-15769912D02*
X15404253Y-15693722D01*
X15404253Y-15693722D02*
X15413777Y-15674674D01*
X15413777Y-15674674D02*
X15432825Y-15665150D01*
X15432825Y-15665150D02*
X15470920Y-15665150D01*
X15470920Y-15665150D02*
X15489968Y-15674674D01*
X15489968Y-15674674D02*
X15499491Y-15693722D01*
X15499491Y-15693722D02*
X15499491Y-15712769D01*
X15499491Y-15712769D02*
X15404253Y-15731817D01*
X15575682Y-15788960D02*
X15594730Y-15798484D01*
X15594730Y-15798484D02*
X15632825Y-15798484D01*
X15632825Y-15798484D02*
X15651872Y-15788960D01*
X15651872Y-15788960D02*
X15661396Y-15769912D01*
X15661396Y-15769912D02*
X15661396Y-15760388D01*
X15661396Y-15760388D02*
X15651872Y-15741341D01*
X15651872Y-15741341D02*
X15632825Y-15731817D01*
X15632825Y-15731817D02*
X15604253Y-15731817D01*
X15604253Y-15731817D02*
X15585206Y-15722293D01*
X15585206Y-15722293D02*
X15575682Y-15703246D01*
X15575682Y-15703246D02*
X15575682Y-15693722D01*
X15575682Y-15693722D02*
X15585206Y-15674674D01*
X15585206Y-15674674D02*
X15604253Y-15665150D01*
X15604253Y-15665150D02*
X15632825Y-15665150D01*
X15632825Y-15665150D02*
X15651872Y-15674674D01*
X15728063Y-15874674D02*
X15737587Y-15865150D01*
X15737587Y-15865150D02*
X15756634Y-15836579D01*
X15756634Y-15836579D02*
X15766158Y-15817531D01*
X15766158Y-15817531D02*
X15775682Y-15788960D01*
X15775682Y-15788960D02*
X15785206Y-15741341D01*
X15785206Y-15741341D02*
X15785206Y-15703246D01*
X15785206Y-15703246D02*
X15775682Y-15655627D01*
X15775682Y-15655627D02*
X15766158Y-15627055D01*
X15766158Y-15627055D02*
X15756634Y-15608008D01*
X15756634Y-15608008D02*
X15737587Y-15579436D01*
X15737587Y-15579436D02*
X15728063Y-15569912D01*
D14*
X10793000Y-15891000D02*
X10953000Y-16051000D01*
X10953000Y-15891000D02*
X10793000Y-16051000D01*
X10873000Y-15891000D02*
X10873000Y-16051000D01*
X10793000Y-15971000D02*
X10953000Y-15971000D01*
D11*
X11318539Y-16062484D02*
X11204253Y-16062484D01*
X11261396Y-16062484D02*
X11261396Y-15862484D01*
X11261396Y-15862484D02*
X11242348Y-15891055D01*
X11242348Y-15891055D02*
X11223301Y-15910103D01*
X11223301Y-15910103D02*
X11204253Y-15919627D01*
X11404253Y-16043436D02*
X11413777Y-16052960D01*
X11413777Y-16052960D02*
X11404253Y-16062484D01*
X11404253Y-16062484D02*
X11394729Y-16052960D01*
X11394729Y-16052960D02*
X11404253Y-16043436D01*
X11404253Y-16043436D02*
X11404253Y-16062484D01*
X11585205Y-15862484D02*
X11547110Y-15862484D01*
X11547110Y-15862484D02*
X11528062Y-15872008D01*
X11528062Y-15872008D02*
X11518539Y-15881531D01*
X11518539Y-15881531D02*
X11499491Y-15910103D01*
X11499491Y-15910103D02*
X11489967Y-15948198D01*
X11489967Y-15948198D02*
X11489967Y-16024388D01*
X11489967Y-16024388D02*
X11499491Y-16043436D01*
X11499491Y-16043436D02*
X11509015Y-16052960D01*
X11509015Y-16052960D02*
X11528062Y-16062484D01*
X11528062Y-16062484D02*
X11566158Y-16062484D01*
X11566158Y-16062484D02*
X11585205Y-16052960D01*
X11585205Y-16052960D02*
X11594729Y-16043436D01*
X11594729Y-16043436D02*
X11604253Y-16024388D01*
X11604253Y-16024388D02*
X11604253Y-15976769D01*
X11604253Y-15976769D02*
X11594729Y-15957722D01*
X11594729Y-15957722D02*
X11585205Y-15948198D01*
X11585205Y-15948198D02*
X11566158Y-15938674D01*
X11566158Y-15938674D02*
X11528062Y-15938674D01*
X11528062Y-15938674D02*
X11509015Y-15948198D01*
X11509015Y-15948198D02*
X11499491Y-15957722D01*
X11499491Y-15957722D02*
X11489967Y-15976769D01*
X11728062Y-15862484D02*
X11747110Y-15862484D01*
X11747110Y-15862484D02*
X11766158Y-15872008D01*
X11766158Y-15872008D02*
X11775682Y-15881531D01*
X11775682Y-15881531D02*
X11785205Y-15900579D01*
X11785205Y-15900579D02*
X11794729Y-15938674D01*
X11794729Y-15938674D02*
X11794729Y-15986293D01*
X11794729Y-15986293D02*
X11785205Y-16024388D01*
X11785205Y-16024388D02*
X11775682Y-16043436D01*
X11775682Y-16043436D02*
X11766158Y-16052960D01*
X11766158Y-16052960D02*
X11747110Y-16062484D01*
X11747110Y-16062484D02*
X11728062Y-16062484D01*
X11728062Y-16062484D02*
X11709015Y-16052960D01*
X11709015Y-16052960D02*
X11699491Y-16043436D01*
X11699491Y-16043436D02*
X11689967Y-16024388D01*
X11689967Y-16024388D02*
X11680443Y-15986293D01*
X11680443Y-15986293D02*
X11680443Y-15938674D01*
X11680443Y-15938674D02*
X11689967Y-15900579D01*
X11689967Y-15900579D02*
X11699491Y-15881531D01*
X11699491Y-15881531D02*
X11709015Y-15872008D01*
X11709015Y-15872008D02*
X11728062Y-15862484D01*
X11918539Y-15862484D02*
X11937586Y-15862484D01*
X11937586Y-15862484D02*
X11956634Y-15872008D01*
X11956634Y-15872008D02*
X11966158Y-15881531D01*
X11966158Y-15881531D02*
X11975682Y-15900579D01*
X11975682Y-15900579D02*
X11985205Y-15938674D01*
X11985205Y-15938674D02*
X11985205Y-15986293D01*
X11985205Y-15986293D02*
X11975682Y-16024388D01*
X11975682Y-16024388D02*
X11966158Y-16043436D01*
X11966158Y-16043436D02*
X11956634Y-16052960D01*
X11956634Y-16052960D02*
X11937586Y-16062484D01*
X11937586Y-16062484D02*
X11918539Y-16062484D01*
X11918539Y-16062484D02*
X11899491Y-16052960D01*
X11899491Y-16052960D02*
X11889967Y-16043436D01*
X11889967Y-16043436D02*
X11880443Y-16024388D01*
X11880443Y-16024388D02*
X11870920Y-15986293D01*
X11870920Y-15986293D02*
X11870920Y-15938674D01*
X11870920Y-15938674D02*
X11880443Y-15900579D01*
X11880443Y-15900579D02*
X11889967Y-15881531D01*
X11889967Y-15881531D02*
X11899491Y-15872008D01*
X11899491Y-15872008D02*
X11918539Y-15862484D01*
X12070920Y-16062484D02*
X12070920Y-15929150D01*
X12070920Y-15948198D02*
X12080443Y-15938674D01*
X12080443Y-15938674D02*
X12099491Y-15929150D01*
X12099491Y-15929150D02*
X12128063Y-15929150D01*
X12128063Y-15929150D02*
X12147110Y-15938674D01*
X12147110Y-15938674D02*
X12156634Y-15957722D01*
X12156634Y-15957722D02*
X12156634Y-16062484D01*
X12156634Y-15957722D02*
X12166158Y-15938674D01*
X12166158Y-15938674D02*
X12185205Y-15929150D01*
X12185205Y-15929150D02*
X12213777Y-15929150D01*
X12213777Y-15929150D02*
X12232824Y-15938674D01*
X12232824Y-15938674D02*
X12242348Y-15957722D01*
X12242348Y-15957722D02*
X12242348Y-16062484D01*
X12337586Y-16062484D02*
X12337586Y-15929150D01*
X12337586Y-15948198D02*
X12347110Y-15938674D01*
X12347110Y-15938674D02*
X12366158Y-15929150D01*
X12366158Y-15929150D02*
X12394729Y-15929150D01*
X12394729Y-15929150D02*
X12413777Y-15938674D01*
X12413777Y-15938674D02*
X12423301Y-15957722D01*
X12423301Y-15957722D02*
X12423301Y-16062484D01*
X12423301Y-15957722D02*
X12432824Y-15938674D01*
X12432824Y-15938674D02*
X12451872Y-15929150D01*
X12451872Y-15929150D02*
X12480443Y-15929150D01*
X12480443Y-15929150D02*
X12499491Y-15938674D01*
X12499491Y-15938674D02*
X12509015Y-15957722D01*
X12509015Y-15957722D02*
X12509015Y-16062484D01*
X12899491Y-15852960D02*
X12728063Y-16110103D01*
X13156634Y-15862484D02*
X13175682Y-15862484D01*
X13175682Y-15862484D02*
X13194729Y-15872008D01*
X13194729Y-15872008D02*
X13204253Y-15881531D01*
X13204253Y-15881531D02*
X13213777Y-15900579D01*
X13213777Y-15900579D02*
X13223301Y-15938674D01*
X13223301Y-15938674D02*
X13223301Y-15986293D01*
X13223301Y-15986293D02*
X13213777Y-16024388D01*
X13213777Y-16024388D02*
X13204253Y-16043436D01*
X13204253Y-16043436D02*
X13194729Y-16052960D01*
X13194729Y-16052960D02*
X13175682Y-16062484D01*
X13175682Y-16062484D02*
X13156634Y-16062484D01*
X13156634Y-16062484D02*
X13137586Y-16052960D01*
X13137586Y-16052960D02*
X13128063Y-16043436D01*
X13128063Y-16043436D02*
X13118539Y-16024388D01*
X13118539Y-16024388D02*
X13109015Y-15986293D01*
X13109015Y-15986293D02*
X13109015Y-15938674D01*
X13109015Y-15938674D02*
X13118539Y-15900579D01*
X13118539Y-15900579D02*
X13128063Y-15881531D01*
X13128063Y-15881531D02*
X13137586Y-15872008D01*
X13137586Y-15872008D02*
X13156634Y-15862484D01*
X13309015Y-16043436D02*
X13318539Y-16052960D01*
X13318539Y-16052960D02*
X13309015Y-16062484D01*
X13309015Y-16062484D02*
X13299491Y-16052960D01*
X13299491Y-16052960D02*
X13309015Y-16043436D01*
X13309015Y-16043436D02*
X13309015Y-16062484D01*
X13442348Y-15862484D02*
X13461396Y-15862484D01*
X13461396Y-15862484D02*
X13480444Y-15872008D01*
X13480444Y-15872008D02*
X13489967Y-15881531D01*
X13489967Y-15881531D02*
X13499491Y-15900579D01*
X13499491Y-15900579D02*
X13509015Y-15938674D01*
X13509015Y-15938674D02*
X13509015Y-15986293D01*
X13509015Y-15986293D02*
X13499491Y-16024388D01*
X13499491Y-16024388D02*
X13489967Y-16043436D01*
X13489967Y-16043436D02*
X13480444Y-16052960D01*
X13480444Y-16052960D02*
X13461396Y-16062484D01*
X13461396Y-16062484D02*
X13442348Y-16062484D01*
X13442348Y-16062484D02*
X13423301Y-16052960D01*
X13423301Y-16052960D02*
X13413777Y-16043436D01*
X13413777Y-16043436D02*
X13404253Y-16024388D01*
X13404253Y-16024388D02*
X13394729Y-15986293D01*
X13394729Y-15986293D02*
X13394729Y-15938674D01*
X13394729Y-15938674D02*
X13404253Y-15900579D01*
X13404253Y-15900579D02*
X13413777Y-15881531D01*
X13413777Y-15881531D02*
X13423301Y-15872008D01*
X13423301Y-15872008D02*
X13442348Y-15862484D01*
X13680444Y-15862484D02*
X13642348Y-15862484D01*
X13642348Y-15862484D02*
X13623301Y-15872008D01*
X13623301Y-15872008D02*
X13613777Y-15881531D01*
X13613777Y-15881531D02*
X13594729Y-15910103D01*
X13594729Y-15910103D02*
X13585206Y-15948198D01*
X13585206Y-15948198D02*
X13585206Y-16024388D01*
X13585206Y-16024388D02*
X13594729Y-16043436D01*
X13594729Y-16043436D02*
X13604253Y-16052960D01*
X13604253Y-16052960D02*
X13623301Y-16062484D01*
X13623301Y-16062484D02*
X13661396Y-16062484D01*
X13661396Y-16062484D02*
X13680444Y-16052960D01*
X13680444Y-16052960D02*
X13689967Y-16043436D01*
X13689967Y-16043436D02*
X13699491Y-16024388D01*
X13699491Y-16024388D02*
X13699491Y-15976769D01*
X13699491Y-15976769D02*
X13689967Y-15957722D01*
X13689967Y-15957722D02*
X13680444Y-15948198D01*
X13680444Y-15948198D02*
X13661396Y-15938674D01*
X13661396Y-15938674D02*
X13623301Y-15938674D01*
X13623301Y-15938674D02*
X13604253Y-15948198D01*
X13604253Y-15948198D02*
X13594729Y-15957722D01*
X13594729Y-15957722D02*
X13585206Y-15976769D01*
X13766158Y-15862484D02*
X13889967Y-15862484D01*
X13889967Y-15862484D02*
X13823301Y-15938674D01*
X13823301Y-15938674D02*
X13851872Y-15938674D01*
X13851872Y-15938674D02*
X13870920Y-15948198D01*
X13870920Y-15948198D02*
X13880444Y-15957722D01*
X13880444Y-15957722D02*
X13889967Y-15976769D01*
X13889967Y-15976769D02*
X13889967Y-16024388D01*
X13889967Y-16024388D02*
X13880444Y-16043436D01*
X13880444Y-16043436D02*
X13870920Y-16052960D01*
X13870920Y-16052960D02*
X13851872Y-16062484D01*
X13851872Y-16062484D02*
X13794729Y-16062484D01*
X13794729Y-16062484D02*
X13775682Y-16052960D01*
X13775682Y-16052960D02*
X13766158Y-16043436D01*
X14013777Y-15862484D02*
X14032825Y-15862484D01*
X14032825Y-15862484D02*
X14051872Y-15872008D01*
X14051872Y-15872008D02*
X14061396Y-15881531D01*
X14061396Y-15881531D02*
X14070920Y-15900579D01*
X14070920Y-15900579D02*
X14080444Y-15938674D01*
X14080444Y-15938674D02*
X14080444Y-15986293D01*
X14080444Y-15986293D02*
X14070920Y-16024388D01*
X14070920Y-16024388D02*
X14061396Y-16043436D01*
X14061396Y-16043436D02*
X14051872Y-16052960D01*
X14051872Y-16052960D02*
X14032825Y-16062484D01*
X14032825Y-16062484D02*
X14013777Y-16062484D01*
X14013777Y-16062484D02*
X13994729Y-16052960D01*
X13994729Y-16052960D02*
X13985206Y-16043436D01*
X13985206Y-16043436D02*
X13975682Y-16024388D01*
X13975682Y-16024388D02*
X13966158Y-15986293D01*
X13966158Y-15986293D02*
X13966158Y-15938674D01*
X13966158Y-15938674D02*
X13975682Y-15900579D01*
X13975682Y-15900579D02*
X13985206Y-15881531D01*
X13985206Y-15881531D02*
X13994729Y-15872008D01*
X13994729Y-15872008D02*
X14013777Y-15862484D01*
X14156634Y-15862484D02*
X14156634Y-15900579D01*
X14232825Y-15862484D02*
X14232825Y-15900579D01*
X14528063Y-16138674D02*
X14518539Y-16129150D01*
X14518539Y-16129150D02*
X14499491Y-16100579D01*
X14499491Y-16100579D02*
X14489968Y-16081531D01*
X14489968Y-16081531D02*
X14480444Y-16052960D01*
X14480444Y-16052960D02*
X14470920Y-16005341D01*
X14470920Y-16005341D02*
X14470920Y-15967246D01*
X14470920Y-15967246D02*
X14480444Y-15919627D01*
X14480444Y-15919627D02*
X14489968Y-15891055D01*
X14489968Y-15891055D02*
X14499491Y-15872008D01*
X14499491Y-15872008D02*
X14518539Y-15843436D01*
X14518539Y-15843436D02*
X14528063Y-15833912D01*
X14689968Y-15929150D02*
X14689968Y-16062484D01*
X14642348Y-15852960D02*
X14594729Y-15995817D01*
X14594729Y-15995817D02*
X14718539Y-15995817D01*
X14947110Y-16062484D02*
X14947110Y-15862484D01*
X15032825Y-16062484D02*
X15032825Y-15957722D01*
X15032825Y-15957722D02*
X15023301Y-15938674D01*
X15023301Y-15938674D02*
X15004253Y-15929150D01*
X15004253Y-15929150D02*
X14975682Y-15929150D01*
X14975682Y-15929150D02*
X14956634Y-15938674D01*
X14956634Y-15938674D02*
X14947110Y-15948198D01*
X15156634Y-16062484D02*
X15137587Y-16052960D01*
X15137587Y-16052960D02*
X15128063Y-16043436D01*
X15128063Y-16043436D02*
X15118539Y-16024388D01*
X15118539Y-16024388D02*
X15118539Y-15967246D01*
X15118539Y-15967246D02*
X15128063Y-15948198D01*
X15128063Y-15948198D02*
X15137587Y-15938674D01*
X15137587Y-15938674D02*
X15156634Y-15929150D01*
X15156634Y-15929150D02*
X15185206Y-15929150D01*
X15185206Y-15929150D02*
X15204253Y-15938674D01*
X15204253Y-15938674D02*
X15213777Y-15948198D01*
X15213777Y-15948198D02*
X15223301Y-15967246D01*
X15223301Y-15967246D02*
X15223301Y-16024388D01*
X15223301Y-16024388D02*
X15213777Y-16043436D01*
X15213777Y-16043436D02*
X15204253Y-16052960D01*
X15204253Y-16052960D02*
X15185206Y-16062484D01*
X15185206Y-16062484D02*
X15156634Y-16062484D01*
X15337587Y-16062484D02*
X15318539Y-16052960D01*
X15318539Y-16052960D02*
X15309015Y-16033912D01*
X15309015Y-16033912D02*
X15309015Y-15862484D01*
X15489968Y-16052960D02*
X15470920Y-16062484D01*
X15470920Y-16062484D02*
X15432825Y-16062484D01*
X15432825Y-16062484D02*
X15413777Y-16052960D01*
X15413777Y-16052960D02*
X15404253Y-16033912D01*
X15404253Y-16033912D02*
X15404253Y-15957722D01*
X15404253Y-15957722D02*
X15413777Y-15938674D01*
X15413777Y-15938674D02*
X15432825Y-15929150D01*
X15432825Y-15929150D02*
X15470920Y-15929150D01*
X15470920Y-15929150D02*
X15489968Y-15938674D01*
X15489968Y-15938674D02*
X15499491Y-15957722D01*
X15499491Y-15957722D02*
X15499491Y-15976769D01*
X15499491Y-15976769D02*
X15404253Y-15995817D01*
X15575682Y-16052960D02*
X15594730Y-16062484D01*
X15594730Y-16062484D02*
X15632825Y-16062484D01*
X15632825Y-16062484D02*
X15651872Y-16052960D01*
X15651872Y-16052960D02*
X15661396Y-16033912D01*
X15661396Y-16033912D02*
X15661396Y-16024388D01*
X15661396Y-16024388D02*
X15651872Y-16005341D01*
X15651872Y-16005341D02*
X15632825Y-15995817D01*
X15632825Y-15995817D02*
X15604253Y-15995817D01*
X15604253Y-15995817D02*
X15585206Y-15986293D01*
X15585206Y-15986293D02*
X15575682Y-15967246D01*
X15575682Y-15967246D02*
X15575682Y-15957722D01*
X15575682Y-15957722D02*
X15585206Y-15938674D01*
X15585206Y-15938674D02*
X15604253Y-15929150D01*
X15604253Y-15929150D02*
X15632825Y-15929150D01*
X15632825Y-15929150D02*
X15651872Y-15938674D01*
X15728063Y-16138674D02*
X15737587Y-16129150D01*
X15737587Y-16129150D02*
X15756634Y-16100579D01*
X15756634Y-16100579D02*
X15766158Y-16081531D01*
X15766158Y-16081531D02*
X15775682Y-16052960D01*
X15775682Y-16052960D02*
X15785206Y-16005341D01*
X15785206Y-16005341D02*
X15785206Y-15967246D01*
X15785206Y-15967246D02*
X15775682Y-15919627D01*
X15775682Y-15919627D02*
X15766158Y-15891055D01*
X15766158Y-15891055D02*
X15756634Y-15872008D01*
X15756634Y-15872008D02*
X15737587Y-15843436D01*
X15737587Y-15843436D02*
X15728063Y-15833912D01*
X10753000Y-16151000D02*
X10953000Y-16351000D01*
X10953000Y-16151000D02*
X10753000Y-16351000D01*
X10923711Y-16321711D02*
X10923711Y-16180289D01*
X10782289Y-16180289D01*
X10782289Y-16321711D01*
X10923711Y-16321711D01*
X11204253Y-16161531D02*
X11213777Y-16152008D01*
X11213777Y-16152008D02*
X11232824Y-16142484D01*
X11232824Y-16142484D02*
X11280443Y-16142484D01*
X11280443Y-16142484D02*
X11299491Y-16152008D01*
X11299491Y-16152008D02*
X11309015Y-16161531D01*
X11309015Y-16161531D02*
X11318539Y-16180579D01*
X11318539Y-16180579D02*
X11318539Y-16199627D01*
X11318539Y-16199627D02*
X11309015Y-16228198D01*
X11309015Y-16228198D02*
X11194729Y-16342484D01*
X11194729Y-16342484D02*
X11318539Y-16342484D01*
X11404253Y-16323436D02*
X11413777Y-16332960D01*
X11413777Y-16332960D02*
X11404253Y-16342484D01*
X11404253Y-16342484D02*
X11394729Y-16332960D01*
X11394729Y-16332960D02*
X11404253Y-16323436D01*
X11404253Y-16323436D02*
X11404253Y-16342484D01*
X11594729Y-16142484D02*
X11499491Y-16142484D01*
X11499491Y-16142484D02*
X11489967Y-16237722D01*
X11489967Y-16237722D02*
X11499491Y-16228198D01*
X11499491Y-16228198D02*
X11518539Y-16218674D01*
X11518539Y-16218674D02*
X11566158Y-16218674D01*
X11566158Y-16218674D02*
X11585205Y-16228198D01*
X11585205Y-16228198D02*
X11594729Y-16237722D01*
X11594729Y-16237722D02*
X11604253Y-16256769D01*
X11604253Y-16256769D02*
X11604253Y-16304388D01*
X11604253Y-16304388D02*
X11594729Y-16323436D01*
X11594729Y-16323436D02*
X11585205Y-16332960D01*
X11585205Y-16332960D02*
X11566158Y-16342484D01*
X11566158Y-16342484D02*
X11518539Y-16342484D01*
X11518539Y-16342484D02*
X11499491Y-16332960D01*
X11499491Y-16332960D02*
X11489967Y-16323436D01*
X11728062Y-16142484D02*
X11747110Y-16142484D01*
X11747110Y-16142484D02*
X11766158Y-16152008D01*
X11766158Y-16152008D02*
X11775682Y-16161531D01*
X11775682Y-16161531D02*
X11785205Y-16180579D01*
X11785205Y-16180579D02*
X11794729Y-16218674D01*
X11794729Y-16218674D02*
X11794729Y-16266293D01*
X11794729Y-16266293D02*
X11785205Y-16304388D01*
X11785205Y-16304388D02*
X11775682Y-16323436D01*
X11775682Y-16323436D02*
X11766158Y-16332960D01*
X11766158Y-16332960D02*
X11747110Y-16342484D01*
X11747110Y-16342484D02*
X11728062Y-16342484D01*
X11728062Y-16342484D02*
X11709015Y-16332960D01*
X11709015Y-16332960D02*
X11699491Y-16323436D01*
X11699491Y-16323436D02*
X11689967Y-16304388D01*
X11689967Y-16304388D02*
X11680443Y-16266293D01*
X11680443Y-16266293D02*
X11680443Y-16218674D01*
X11680443Y-16218674D02*
X11689967Y-16180579D01*
X11689967Y-16180579D02*
X11699491Y-16161531D01*
X11699491Y-16161531D02*
X11709015Y-16152008D01*
X11709015Y-16152008D02*
X11728062Y-16142484D01*
X11918539Y-16142484D02*
X11937586Y-16142484D01*
X11937586Y-16142484D02*
X11956634Y-16152008D01*
X11956634Y-16152008D02*
X11966158Y-16161531D01*
X11966158Y-16161531D02*
X11975682Y-16180579D01*
X11975682Y-16180579D02*
X11985205Y-16218674D01*
X11985205Y-16218674D02*
X11985205Y-16266293D01*
X11985205Y-16266293D02*
X11975682Y-16304388D01*
X11975682Y-16304388D02*
X11966158Y-16323436D01*
X11966158Y-16323436D02*
X11956634Y-16332960D01*
X11956634Y-16332960D02*
X11937586Y-16342484D01*
X11937586Y-16342484D02*
X11918539Y-16342484D01*
X11918539Y-16342484D02*
X11899491Y-16332960D01*
X11899491Y-16332960D02*
X11889967Y-16323436D01*
X11889967Y-16323436D02*
X11880443Y-16304388D01*
X11880443Y-16304388D02*
X11870920Y-16266293D01*
X11870920Y-16266293D02*
X11870920Y-16218674D01*
X11870920Y-16218674D02*
X11880443Y-16180579D01*
X11880443Y-16180579D02*
X11889967Y-16161531D01*
X11889967Y-16161531D02*
X11899491Y-16152008D01*
X11899491Y-16152008D02*
X11918539Y-16142484D01*
X12070920Y-16342484D02*
X12070920Y-16209150D01*
X12070920Y-16228198D02*
X12080443Y-16218674D01*
X12080443Y-16218674D02*
X12099491Y-16209150D01*
X12099491Y-16209150D02*
X12128063Y-16209150D01*
X12128063Y-16209150D02*
X12147110Y-16218674D01*
X12147110Y-16218674D02*
X12156634Y-16237722D01*
X12156634Y-16237722D02*
X12156634Y-16342484D01*
X12156634Y-16237722D02*
X12166158Y-16218674D01*
X12166158Y-16218674D02*
X12185205Y-16209150D01*
X12185205Y-16209150D02*
X12213777Y-16209150D01*
X12213777Y-16209150D02*
X12232824Y-16218674D01*
X12232824Y-16218674D02*
X12242348Y-16237722D01*
X12242348Y-16237722D02*
X12242348Y-16342484D01*
X12337586Y-16342484D02*
X12337586Y-16209150D01*
X12337586Y-16228198D02*
X12347110Y-16218674D01*
X12347110Y-16218674D02*
X12366158Y-16209150D01*
X12366158Y-16209150D02*
X12394729Y-16209150D01*
X12394729Y-16209150D02*
X12413777Y-16218674D01*
X12413777Y-16218674D02*
X12423301Y-16237722D01*
X12423301Y-16237722D02*
X12423301Y-16342484D01*
X12423301Y-16237722D02*
X12432824Y-16218674D01*
X12432824Y-16218674D02*
X12451872Y-16209150D01*
X12451872Y-16209150D02*
X12480443Y-16209150D01*
X12480443Y-16209150D02*
X12499491Y-16218674D01*
X12499491Y-16218674D02*
X12509015Y-16237722D01*
X12509015Y-16237722D02*
X12509015Y-16342484D01*
X12899491Y-16132960D02*
X12728063Y-16390103D01*
X13156634Y-16142484D02*
X13175682Y-16142484D01*
X13175682Y-16142484D02*
X13194729Y-16152008D01*
X13194729Y-16152008D02*
X13204253Y-16161531D01*
X13204253Y-16161531D02*
X13213777Y-16180579D01*
X13213777Y-16180579D02*
X13223301Y-16218674D01*
X13223301Y-16218674D02*
X13223301Y-16266293D01*
X13223301Y-16266293D02*
X13213777Y-16304388D01*
X13213777Y-16304388D02*
X13204253Y-16323436D01*
X13204253Y-16323436D02*
X13194729Y-16332960D01*
X13194729Y-16332960D02*
X13175682Y-16342484D01*
X13175682Y-16342484D02*
X13156634Y-16342484D01*
X13156634Y-16342484D02*
X13137586Y-16332960D01*
X13137586Y-16332960D02*
X13128063Y-16323436D01*
X13128063Y-16323436D02*
X13118539Y-16304388D01*
X13118539Y-16304388D02*
X13109015Y-16266293D01*
X13109015Y-16266293D02*
X13109015Y-16218674D01*
X13109015Y-16218674D02*
X13118539Y-16180579D01*
X13118539Y-16180579D02*
X13128063Y-16161531D01*
X13128063Y-16161531D02*
X13137586Y-16152008D01*
X13137586Y-16152008D02*
X13156634Y-16142484D01*
X13309015Y-16323436D02*
X13318539Y-16332960D01*
X13318539Y-16332960D02*
X13309015Y-16342484D01*
X13309015Y-16342484D02*
X13299491Y-16332960D01*
X13299491Y-16332960D02*
X13309015Y-16323436D01*
X13309015Y-16323436D02*
X13309015Y-16342484D01*
X13442348Y-16142484D02*
X13461396Y-16142484D01*
X13461396Y-16142484D02*
X13480444Y-16152008D01*
X13480444Y-16152008D02*
X13489967Y-16161531D01*
X13489967Y-16161531D02*
X13499491Y-16180579D01*
X13499491Y-16180579D02*
X13509015Y-16218674D01*
X13509015Y-16218674D02*
X13509015Y-16266293D01*
X13509015Y-16266293D02*
X13499491Y-16304388D01*
X13499491Y-16304388D02*
X13489967Y-16323436D01*
X13489967Y-16323436D02*
X13480444Y-16332960D01*
X13480444Y-16332960D02*
X13461396Y-16342484D01*
X13461396Y-16342484D02*
X13442348Y-16342484D01*
X13442348Y-16342484D02*
X13423301Y-16332960D01*
X13423301Y-16332960D02*
X13413777Y-16323436D01*
X13413777Y-16323436D02*
X13404253Y-16304388D01*
X13404253Y-16304388D02*
X13394729Y-16266293D01*
X13394729Y-16266293D02*
X13394729Y-16218674D01*
X13394729Y-16218674D02*
X13404253Y-16180579D01*
X13404253Y-16180579D02*
X13413777Y-16161531D01*
X13413777Y-16161531D02*
X13423301Y-16152008D01*
X13423301Y-16152008D02*
X13442348Y-16142484D01*
X13604253Y-16342484D02*
X13642348Y-16342484D01*
X13642348Y-16342484D02*
X13661396Y-16332960D01*
X13661396Y-16332960D02*
X13670920Y-16323436D01*
X13670920Y-16323436D02*
X13689967Y-16294865D01*
X13689967Y-16294865D02*
X13699491Y-16256769D01*
X13699491Y-16256769D02*
X13699491Y-16180579D01*
X13699491Y-16180579D02*
X13689967Y-16161531D01*
X13689967Y-16161531D02*
X13680444Y-16152008D01*
X13680444Y-16152008D02*
X13661396Y-16142484D01*
X13661396Y-16142484D02*
X13623301Y-16142484D01*
X13623301Y-16142484D02*
X13604253Y-16152008D01*
X13604253Y-16152008D02*
X13594729Y-16161531D01*
X13594729Y-16161531D02*
X13585206Y-16180579D01*
X13585206Y-16180579D02*
X13585206Y-16228198D01*
X13585206Y-16228198D02*
X13594729Y-16247246D01*
X13594729Y-16247246D02*
X13604253Y-16256769D01*
X13604253Y-16256769D02*
X13623301Y-16266293D01*
X13623301Y-16266293D02*
X13661396Y-16266293D01*
X13661396Y-16266293D02*
X13680444Y-16256769D01*
X13680444Y-16256769D02*
X13689967Y-16247246D01*
X13689967Y-16247246D02*
X13699491Y-16228198D01*
X13813777Y-16228198D02*
X13794729Y-16218674D01*
X13794729Y-16218674D02*
X13785206Y-16209150D01*
X13785206Y-16209150D02*
X13775682Y-16190103D01*
X13775682Y-16190103D02*
X13775682Y-16180579D01*
X13775682Y-16180579D02*
X13785206Y-16161531D01*
X13785206Y-16161531D02*
X13794729Y-16152008D01*
X13794729Y-16152008D02*
X13813777Y-16142484D01*
X13813777Y-16142484D02*
X13851872Y-16142484D01*
X13851872Y-16142484D02*
X13870920Y-16152008D01*
X13870920Y-16152008D02*
X13880444Y-16161531D01*
X13880444Y-16161531D02*
X13889967Y-16180579D01*
X13889967Y-16180579D02*
X13889967Y-16190103D01*
X13889967Y-16190103D02*
X13880444Y-16209150D01*
X13880444Y-16209150D02*
X13870920Y-16218674D01*
X13870920Y-16218674D02*
X13851872Y-16228198D01*
X13851872Y-16228198D02*
X13813777Y-16228198D01*
X13813777Y-16228198D02*
X13794729Y-16237722D01*
X13794729Y-16237722D02*
X13785206Y-16247246D01*
X13785206Y-16247246D02*
X13775682Y-16266293D01*
X13775682Y-16266293D02*
X13775682Y-16304388D01*
X13775682Y-16304388D02*
X13785206Y-16323436D01*
X13785206Y-16323436D02*
X13794729Y-16332960D01*
X13794729Y-16332960D02*
X13813777Y-16342484D01*
X13813777Y-16342484D02*
X13851872Y-16342484D01*
X13851872Y-16342484D02*
X13870920Y-16332960D01*
X13870920Y-16332960D02*
X13880444Y-16323436D01*
X13880444Y-16323436D02*
X13889967Y-16304388D01*
X13889967Y-16304388D02*
X13889967Y-16266293D01*
X13889967Y-16266293D02*
X13880444Y-16247246D01*
X13880444Y-16247246D02*
X13870920Y-16237722D01*
X13870920Y-16237722D02*
X13851872Y-16228198D01*
X14061396Y-16209150D02*
X14061396Y-16342484D01*
X14013777Y-16132960D02*
X13966158Y-16275817D01*
X13966158Y-16275817D02*
X14089967Y-16275817D01*
X14156634Y-16142484D02*
X14156634Y-16180579D01*
X14232825Y-16142484D02*
X14232825Y-16180579D01*
X14528063Y-16418674D02*
X14518539Y-16409150D01*
X14518539Y-16409150D02*
X14499491Y-16380579D01*
X14499491Y-16380579D02*
X14489968Y-16361531D01*
X14489968Y-16361531D02*
X14480444Y-16332960D01*
X14480444Y-16332960D02*
X14470920Y-16285341D01*
X14470920Y-16285341D02*
X14470920Y-16247246D01*
X14470920Y-16247246D02*
X14480444Y-16199627D01*
X14480444Y-16199627D02*
X14489968Y-16171055D01*
X14489968Y-16171055D02*
X14499491Y-16152008D01*
X14499491Y-16152008D02*
X14518539Y-16123436D01*
X14518539Y-16123436D02*
X14528063Y-16113912D01*
X14689968Y-16209150D02*
X14689968Y-16342484D01*
X14642348Y-16132960D02*
X14594729Y-16275817D01*
X14594729Y-16275817D02*
X14718539Y-16275817D01*
X14947110Y-16342484D02*
X14947110Y-16142484D01*
X15032825Y-16342484D02*
X15032825Y-16237722D01*
X15032825Y-16237722D02*
X15023301Y-16218674D01*
X15023301Y-16218674D02*
X15004253Y-16209150D01*
X15004253Y-16209150D02*
X14975682Y-16209150D01*
X14975682Y-16209150D02*
X14956634Y-16218674D01*
X14956634Y-16218674D02*
X14947110Y-16228198D01*
X15156634Y-16342484D02*
X15137587Y-16332960D01*
X15137587Y-16332960D02*
X15128063Y-16323436D01*
X15128063Y-16323436D02*
X15118539Y-16304388D01*
X15118539Y-16304388D02*
X15118539Y-16247246D01*
X15118539Y-16247246D02*
X15128063Y-16228198D01*
X15128063Y-16228198D02*
X15137587Y-16218674D01*
X15137587Y-16218674D02*
X15156634Y-16209150D01*
X15156634Y-16209150D02*
X15185206Y-16209150D01*
X15185206Y-16209150D02*
X15204253Y-16218674D01*
X15204253Y-16218674D02*
X15213777Y-16228198D01*
X15213777Y-16228198D02*
X15223301Y-16247246D01*
X15223301Y-16247246D02*
X15223301Y-16304388D01*
X15223301Y-16304388D02*
X15213777Y-16323436D01*
X15213777Y-16323436D02*
X15204253Y-16332960D01*
X15204253Y-16332960D02*
X15185206Y-16342484D01*
X15185206Y-16342484D02*
X15156634Y-16342484D01*
X15337587Y-16342484D02*
X15318539Y-16332960D01*
X15318539Y-16332960D02*
X15309015Y-16313912D01*
X15309015Y-16313912D02*
X15309015Y-16142484D01*
X15489968Y-16332960D02*
X15470920Y-16342484D01*
X15470920Y-16342484D02*
X15432825Y-16342484D01*
X15432825Y-16342484D02*
X15413777Y-16332960D01*
X15413777Y-16332960D02*
X15404253Y-16313912D01*
X15404253Y-16313912D02*
X15404253Y-16237722D01*
X15404253Y-16237722D02*
X15413777Y-16218674D01*
X15413777Y-16218674D02*
X15432825Y-16209150D01*
X15432825Y-16209150D02*
X15470920Y-16209150D01*
X15470920Y-16209150D02*
X15489968Y-16218674D01*
X15489968Y-16218674D02*
X15499491Y-16237722D01*
X15499491Y-16237722D02*
X15499491Y-16256769D01*
X15499491Y-16256769D02*
X15404253Y-16275817D01*
X15575682Y-16332960D02*
X15594730Y-16342484D01*
X15594730Y-16342484D02*
X15632825Y-16342484D01*
X15632825Y-16342484D02*
X15651872Y-16332960D01*
X15651872Y-16332960D02*
X15661396Y-16313912D01*
X15661396Y-16313912D02*
X15661396Y-16304388D01*
X15661396Y-16304388D02*
X15651872Y-16285341D01*
X15651872Y-16285341D02*
X15632825Y-16275817D01*
X15632825Y-16275817D02*
X15604253Y-16275817D01*
X15604253Y-16275817D02*
X15585206Y-16266293D01*
X15585206Y-16266293D02*
X15575682Y-16247246D01*
X15575682Y-16247246D02*
X15575682Y-16237722D01*
X15575682Y-16237722D02*
X15585206Y-16218674D01*
X15585206Y-16218674D02*
X15604253Y-16209150D01*
X15604253Y-16209150D02*
X15632825Y-16209150D01*
X15632825Y-16209150D02*
X15651872Y-16218674D01*
X15728063Y-16418674D02*
X15737587Y-16409150D01*
X15737587Y-16409150D02*
X15756634Y-16380579D01*
X15756634Y-16380579D02*
X15766158Y-16361531D01*
X15766158Y-16361531D02*
X15775682Y-16332960D01*
X15775682Y-16332960D02*
X15785206Y-16285341D01*
X15785206Y-16285341D02*
X15785206Y-16247246D01*
X15785206Y-16247246D02*
X15775682Y-16199627D01*
X15775682Y-16199627D02*
X15766158Y-16171055D01*
X15766158Y-16171055D02*
X15756634Y-16152008D01*
X15756634Y-16152008D02*
X15737587Y-16123436D01*
X15737587Y-16123436D02*
X15728063Y-16113912D01*
X10753000Y-16471000D02*
X10953000Y-16671000D01*
X10953000Y-16471000D02*
X10753000Y-16671000D01*
X10853000Y-16671000D02*
X10953000Y-16571000D01*
X10853000Y-16471000D01*
X10753000Y-16571000D01*
X10853000Y-16671000D01*
X11194729Y-16462484D02*
X11318539Y-16462484D01*
X11318539Y-16462484D02*
X11251872Y-16538674D01*
X11251872Y-16538674D02*
X11280443Y-16538674D01*
X11280443Y-16538674D02*
X11299491Y-16548198D01*
X11299491Y-16548198D02*
X11309015Y-16557722D01*
X11309015Y-16557722D02*
X11318539Y-16576769D01*
X11318539Y-16576769D02*
X11318539Y-16624388D01*
X11318539Y-16624388D02*
X11309015Y-16643436D01*
X11309015Y-16643436D02*
X11299491Y-16652960D01*
X11299491Y-16652960D02*
X11280443Y-16662484D01*
X11280443Y-16662484D02*
X11223301Y-16662484D01*
X11223301Y-16662484D02*
X11204253Y-16652960D01*
X11204253Y-16652960D02*
X11194729Y-16643436D01*
X11404253Y-16643436D02*
X11413777Y-16652960D01*
X11413777Y-16652960D02*
X11404253Y-16662484D01*
X11404253Y-16662484D02*
X11394729Y-16652960D01*
X11394729Y-16652960D02*
X11404253Y-16643436D01*
X11404253Y-16643436D02*
X11404253Y-16662484D01*
X11537586Y-16462484D02*
X11556634Y-16462484D01*
X11556634Y-16462484D02*
X11575682Y-16472008D01*
X11575682Y-16472008D02*
X11585205Y-16481531D01*
X11585205Y-16481531D02*
X11594729Y-16500579D01*
X11594729Y-16500579D02*
X11604253Y-16538674D01*
X11604253Y-16538674D02*
X11604253Y-16586293D01*
X11604253Y-16586293D02*
X11594729Y-16624388D01*
X11594729Y-16624388D02*
X11585205Y-16643436D01*
X11585205Y-16643436D02*
X11575682Y-16652960D01*
X11575682Y-16652960D02*
X11556634Y-16662484D01*
X11556634Y-16662484D02*
X11537586Y-16662484D01*
X11537586Y-16662484D02*
X11518539Y-16652960D01*
X11518539Y-16652960D02*
X11509015Y-16643436D01*
X11509015Y-16643436D02*
X11499491Y-16624388D01*
X11499491Y-16624388D02*
X11489967Y-16586293D01*
X11489967Y-16586293D02*
X11489967Y-16538674D01*
X11489967Y-16538674D02*
X11499491Y-16500579D01*
X11499491Y-16500579D02*
X11509015Y-16481531D01*
X11509015Y-16481531D02*
X11518539Y-16472008D01*
X11518539Y-16472008D02*
X11537586Y-16462484D01*
X11728062Y-16462484D02*
X11747110Y-16462484D01*
X11747110Y-16462484D02*
X11766158Y-16472008D01*
X11766158Y-16472008D02*
X11775682Y-16481531D01*
X11775682Y-16481531D02*
X11785205Y-16500579D01*
X11785205Y-16500579D02*
X11794729Y-16538674D01*
X11794729Y-16538674D02*
X11794729Y-16586293D01*
X11794729Y-16586293D02*
X11785205Y-16624388D01*
X11785205Y-16624388D02*
X11775682Y-16643436D01*
X11775682Y-16643436D02*
X11766158Y-16652960D01*
X11766158Y-16652960D02*
X11747110Y-16662484D01*
X11747110Y-16662484D02*
X11728062Y-16662484D01*
X11728062Y-16662484D02*
X11709015Y-16652960D01*
X11709015Y-16652960D02*
X11699491Y-16643436D01*
X11699491Y-16643436D02*
X11689967Y-16624388D01*
X11689967Y-16624388D02*
X11680443Y-16586293D01*
X11680443Y-16586293D02*
X11680443Y-16538674D01*
X11680443Y-16538674D02*
X11689967Y-16500579D01*
X11689967Y-16500579D02*
X11699491Y-16481531D01*
X11699491Y-16481531D02*
X11709015Y-16472008D01*
X11709015Y-16472008D02*
X11728062Y-16462484D01*
X11918539Y-16462484D02*
X11937586Y-16462484D01*
X11937586Y-16462484D02*
X11956634Y-16472008D01*
X11956634Y-16472008D02*
X11966158Y-16481531D01*
X11966158Y-16481531D02*
X11975682Y-16500579D01*
X11975682Y-16500579D02*
X11985205Y-16538674D01*
X11985205Y-16538674D02*
X11985205Y-16586293D01*
X11985205Y-16586293D02*
X11975682Y-16624388D01*
X11975682Y-16624388D02*
X11966158Y-16643436D01*
X11966158Y-16643436D02*
X11956634Y-16652960D01*
X11956634Y-16652960D02*
X11937586Y-16662484D01*
X11937586Y-16662484D02*
X11918539Y-16662484D01*
X11918539Y-16662484D02*
X11899491Y-16652960D01*
X11899491Y-16652960D02*
X11889967Y-16643436D01*
X11889967Y-16643436D02*
X11880443Y-16624388D01*
X11880443Y-16624388D02*
X11870920Y-16586293D01*
X11870920Y-16586293D02*
X11870920Y-16538674D01*
X11870920Y-16538674D02*
X11880443Y-16500579D01*
X11880443Y-16500579D02*
X11889967Y-16481531D01*
X11889967Y-16481531D02*
X11899491Y-16472008D01*
X11899491Y-16472008D02*
X11918539Y-16462484D01*
X12070920Y-16662484D02*
X12070920Y-16529150D01*
X12070920Y-16548198D02*
X12080443Y-16538674D01*
X12080443Y-16538674D02*
X12099491Y-16529150D01*
X12099491Y-16529150D02*
X12128063Y-16529150D01*
X12128063Y-16529150D02*
X12147110Y-16538674D01*
X12147110Y-16538674D02*
X12156634Y-16557722D01*
X12156634Y-16557722D02*
X12156634Y-16662484D01*
X12156634Y-16557722D02*
X12166158Y-16538674D01*
X12166158Y-16538674D02*
X12185205Y-16529150D01*
X12185205Y-16529150D02*
X12213777Y-16529150D01*
X12213777Y-16529150D02*
X12232824Y-16538674D01*
X12232824Y-16538674D02*
X12242348Y-16557722D01*
X12242348Y-16557722D02*
X12242348Y-16662484D01*
X12337586Y-16662484D02*
X12337586Y-16529150D01*
X12337586Y-16548198D02*
X12347110Y-16538674D01*
X12347110Y-16538674D02*
X12366158Y-16529150D01*
X12366158Y-16529150D02*
X12394729Y-16529150D01*
X12394729Y-16529150D02*
X12413777Y-16538674D01*
X12413777Y-16538674D02*
X12423301Y-16557722D01*
X12423301Y-16557722D02*
X12423301Y-16662484D01*
X12423301Y-16557722D02*
X12432824Y-16538674D01*
X12432824Y-16538674D02*
X12451872Y-16529150D01*
X12451872Y-16529150D02*
X12480443Y-16529150D01*
X12480443Y-16529150D02*
X12499491Y-16538674D01*
X12499491Y-16538674D02*
X12509015Y-16557722D01*
X12509015Y-16557722D02*
X12509015Y-16662484D01*
X12899491Y-16452960D02*
X12728063Y-16710103D01*
X13156634Y-16462484D02*
X13175682Y-16462484D01*
X13175682Y-16462484D02*
X13194729Y-16472008D01*
X13194729Y-16472008D02*
X13204253Y-16481531D01*
X13204253Y-16481531D02*
X13213777Y-16500579D01*
X13213777Y-16500579D02*
X13223301Y-16538674D01*
X13223301Y-16538674D02*
X13223301Y-16586293D01*
X13223301Y-16586293D02*
X13213777Y-16624388D01*
X13213777Y-16624388D02*
X13204253Y-16643436D01*
X13204253Y-16643436D02*
X13194729Y-16652960D01*
X13194729Y-16652960D02*
X13175682Y-16662484D01*
X13175682Y-16662484D02*
X13156634Y-16662484D01*
X13156634Y-16662484D02*
X13137586Y-16652960D01*
X13137586Y-16652960D02*
X13128063Y-16643436D01*
X13128063Y-16643436D02*
X13118539Y-16624388D01*
X13118539Y-16624388D02*
X13109015Y-16586293D01*
X13109015Y-16586293D02*
X13109015Y-16538674D01*
X13109015Y-16538674D02*
X13118539Y-16500579D01*
X13118539Y-16500579D02*
X13128063Y-16481531D01*
X13128063Y-16481531D02*
X13137586Y-16472008D01*
X13137586Y-16472008D02*
X13156634Y-16462484D01*
X13309015Y-16643436D02*
X13318539Y-16652960D01*
X13318539Y-16652960D02*
X13309015Y-16662484D01*
X13309015Y-16662484D02*
X13299491Y-16652960D01*
X13299491Y-16652960D02*
X13309015Y-16643436D01*
X13309015Y-16643436D02*
X13309015Y-16662484D01*
X13509015Y-16662484D02*
X13394729Y-16662484D01*
X13451872Y-16662484D02*
X13451872Y-16462484D01*
X13451872Y-16462484D02*
X13432825Y-16491055D01*
X13432825Y-16491055D02*
X13413777Y-16510103D01*
X13413777Y-16510103D02*
X13394729Y-16519627D01*
X13699491Y-16662484D02*
X13585206Y-16662484D01*
X13642348Y-16662484D02*
X13642348Y-16462484D01*
X13642348Y-16462484D02*
X13623301Y-16491055D01*
X13623301Y-16491055D02*
X13604253Y-16510103D01*
X13604253Y-16510103D02*
X13585206Y-16519627D01*
X13813777Y-16548198D02*
X13794729Y-16538674D01*
X13794729Y-16538674D02*
X13785206Y-16529150D01*
X13785206Y-16529150D02*
X13775682Y-16510103D01*
X13775682Y-16510103D02*
X13775682Y-16500579D01*
X13775682Y-16500579D02*
X13785206Y-16481531D01*
X13785206Y-16481531D02*
X13794729Y-16472008D01*
X13794729Y-16472008D02*
X13813777Y-16462484D01*
X13813777Y-16462484D02*
X13851872Y-16462484D01*
X13851872Y-16462484D02*
X13870920Y-16472008D01*
X13870920Y-16472008D02*
X13880444Y-16481531D01*
X13880444Y-16481531D02*
X13889967Y-16500579D01*
X13889967Y-16500579D02*
X13889967Y-16510103D01*
X13889967Y-16510103D02*
X13880444Y-16529150D01*
X13880444Y-16529150D02*
X13870920Y-16538674D01*
X13870920Y-16538674D02*
X13851872Y-16548198D01*
X13851872Y-16548198D02*
X13813777Y-16548198D01*
X13813777Y-16548198D02*
X13794729Y-16557722D01*
X13794729Y-16557722D02*
X13785206Y-16567246D01*
X13785206Y-16567246D02*
X13775682Y-16586293D01*
X13775682Y-16586293D02*
X13775682Y-16624388D01*
X13775682Y-16624388D02*
X13785206Y-16643436D01*
X13785206Y-16643436D02*
X13794729Y-16652960D01*
X13794729Y-16652960D02*
X13813777Y-16662484D01*
X13813777Y-16662484D02*
X13851872Y-16662484D01*
X13851872Y-16662484D02*
X13870920Y-16652960D01*
X13870920Y-16652960D02*
X13880444Y-16643436D01*
X13880444Y-16643436D02*
X13889967Y-16624388D01*
X13889967Y-16624388D02*
X13889967Y-16586293D01*
X13889967Y-16586293D02*
X13880444Y-16567246D01*
X13880444Y-16567246D02*
X13870920Y-16557722D01*
X13870920Y-16557722D02*
X13851872Y-16548198D01*
X14080444Y-16662484D02*
X13966158Y-16662484D01*
X14023301Y-16662484D02*
X14023301Y-16462484D01*
X14023301Y-16462484D02*
X14004253Y-16491055D01*
X14004253Y-16491055D02*
X13985206Y-16510103D01*
X13985206Y-16510103D02*
X13966158Y-16519627D01*
X14156634Y-16462484D02*
X14156634Y-16500579D01*
X14232825Y-16462484D02*
X14232825Y-16500579D01*
X14528063Y-16738674D02*
X14518539Y-16729150D01*
X14518539Y-16729150D02*
X14499491Y-16700579D01*
X14499491Y-16700579D02*
X14489968Y-16681531D01*
X14489968Y-16681531D02*
X14480444Y-16652960D01*
X14480444Y-16652960D02*
X14470920Y-16605341D01*
X14470920Y-16605341D02*
X14470920Y-16567246D01*
X14470920Y-16567246D02*
X14480444Y-16519627D01*
X14480444Y-16519627D02*
X14489968Y-16491055D01*
X14489968Y-16491055D02*
X14499491Y-16472008D01*
X14499491Y-16472008D02*
X14518539Y-16443436D01*
X14518539Y-16443436D02*
X14528063Y-16433912D01*
X14699491Y-16462484D02*
X14604253Y-16462484D01*
X14604253Y-16462484D02*
X14594729Y-16557722D01*
X14594729Y-16557722D02*
X14604253Y-16548198D01*
X14604253Y-16548198D02*
X14623301Y-16538674D01*
X14623301Y-16538674D02*
X14670920Y-16538674D01*
X14670920Y-16538674D02*
X14689968Y-16548198D01*
X14689968Y-16548198D02*
X14699491Y-16557722D01*
X14699491Y-16557722D02*
X14709015Y-16576769D01*
X14709015Y-16576769D02*
X14709015Y-16624388D01*
X14709015Y-16624388D02*
X14699491Y-16643436D01*
X14699491Y-16643436D02*
X14689968Y-16652960D01*
X14689968Y-16652960D02*
X14670920Y-16662484D01*
X14670920Y-16662484D02*
X14623301Y-16662484D01*
X14623301Y-16662484D02*
X14604253Y-16652960D01*
X14604253Y-16652960D02*
X14594729Y-16643436D01*
X14947110Y-16662484D02*
X14947110Y-16462484D01*
X15032825Y-16662484D02*
X15032825Y-16557722D01*
X15032825Y-16557722D02*
X15023301Y-16538674D01*
X15023301Y-16538674D02*
X15004253Y-16529150D01*
X15004253Y-16529150D02*
X14975682Y-16529150D01*
X14975682Y-16529150D02*
X14956634Y-16538674D01*
X14956634Y-16538674D02*
X14947110Y-16548198D01*
X15156634Y-16662484D02*
X15137587Y-16652960D01*
X15137587Y-16652960D02*
X15128063Y-16643436D01*
X15128063Y-16643436D02*
X15118539Y-16624388D01*
X15118539Y-16624388D02*
X15118539Y-16567246D01*
X15118539Y-16567246D02*
X15128063Y-16548198D01*
X15128063Y-16548198D02*
X15137587Y-16538674D01*
X15137587Y-16538674D02*
X15156634Y-16529150D01*
X15156634Y-16529150D02*
X15185206Y-16529150D01*
X15185206Y-16529150D02*
X15204253Y-16538674D01*
X15204253Y-16538674D02*
X15213777Y-16548198D01*
X15213777Y-16548198D02*
X15223301Y-16567246D01*
X15223301Y-16567246D02*
X15223301Y-16624388D01*
X15223301Y-16624388D02*
X15213777Y-16643436D01*
X15213777Y-16643436D02*
X15204253Y-16652960D01*
X15204253Y-16652960D02*
X15185206Y-16662484D01*
X15185206Y-16662484D02*
X15156634Y-16662484D01*
X15337587Y-16662484D02*
X15318539Y-16652960D01*
X15318539Y-16652960D02*
X15309015Y-16633912D01*
X15309015Y-16633912D02*
X15309015Y-16462484D01*
X15489968Y-16652960D02*
X15470920Y-16662484D01*
X15470920Y-16662484D02*
X15432825Y-16662484D01*
X15432825Y-16662484D02*
X15413777Y-16652960D01*
X15413777Y-16652960D02*
X15404253Y-16633912D01*
X15404253Y-16633912D02*
X15404253Y-16557722D01*
X15404253Y-16557722D02*
X15413777Y-16538674D01*
X15413777Y-16538674D02*
X15432825Y-16529150D01*
X15432825Y-16529150D02*
X15470920Y-16529150D01*
X15470920Y-16529150D02*
X15489968Y-16538674D01*
X15489968Y-16538674D02*
X15499491Y-16557722D01*
X15499491Y-16557722D02*
X15499491Y-16576769D01*
X15499491Y-16576769D02*
X15404253Y-16595817D01*
X15575682Y-16652960D02*
X15594730Y-16662484D01*
X15594730Y-16662484D02*
X15632825Y-16662484D01*
X15632825Y-16662484D02*
X15651872Y-16652960D01*
X15651872Y-16652960D02*
X15661396Y-16633912D01*
X15661396Y-16633912D02*
X15661396Y-16624388D01*
X15661396Y-16624388D02*
X15651872Y-16605341D01*
X15651872Y-16605341D02*
X15632825Y-16595817D01*
X15632825Y-16595817D02*
X15604253Y-16595817D01*
X15604253Y-16595817D02*
X15585206Y-16586293D01*
X15585206Y-16586293D02*
X15575682Y-16567246D01*
X15575682Y-16567246D02*
X15575682Y-16557722D01*
X15575682Y-16557722D02*
X15585206Y-16538674D01*
X15585206Y-16538674D02*
X15604253Y-16529150D01*
X15604253Y-16529150D02*
X15632825Y-16529150D01*
X15632825Y-16529150D02*
X15651872Y-16538674D01*
X15728063Y-16738674D02*
X15737587Y-16729150D01*
X15737587Y-16729150D02*
X15756634Y-16700579D01*
X15756634Y-16700579D02*
X15766158Y-16681531D01*
X15766158Y-16681531D02*
X15775682Y-16652960D01*
X15775682Y-16652960D02*
X15785206Y-16605341D01*
X15785206Y-16605341D02*
X15785206Y-16567246D01*
X15785206Y-16567246D02*
X15775682Y-16519627D01*
X15775682Y-16519627D02*
X15766158Y-16491055D01*
X15766158Y-16491055D02*
X15756634Y-16472008D01*
X15756634Y-16472008D02*
X15737587Y-16443436D01*
X15737587Y-16443436D02*
X15728063Y-16433912D01*
M02*
