%TF.GenerationSoftware,KiCad,Pcbnew,7.0.10*%
%TF.CreationDate,2025-03-18T10:51:50+01:00*%
%TF.ProjectId,maqueen,6d617175-6565-46e2-9e6b-696361645f70,rev?*%
%TF.SameCoordinates,Original*%
%TF.FileFunction,Copper,L2,Bot*%
%TF.FilePolarity,Positive*%
%FSLAX46Y46*%
G04 Gerber Fmt 4.6, Leading zero omitted, Abs format (unit mm)*
G04 Created by KiCad (PCBNEW 7.0.10) date 2025-03-18 10:51:50*
%MOMM*%
%LPD*%
G01*
G04 APERTURE LIST*
G04 Aperture macros list*
%AMRoundRect*
0 Rectangle with rounded corners*
0 $1 Rounding radius*
0 $2 $3 $4 $5 $6 $7 $8 $9 X,Y pos of 4 corners*
0 Add a 4 corners polygon primitive as box body*
4,1,4,$2,$3,$4,$5,$6,$7,$8,$9,$2,$3,0*
0 Add four circle primitives for the rounded corners*
1,1,$1+$1,$2,$3*
1,1,$1+$1,$4,$5*
1,1,$1+$1,$6,$7*
1,1,$1+$1,$8,$9*
0 Add four rect primitives between the rounded corners*
20,1,$1+$1,$2,$3,$4,$5,0*
20,1,$1+$1,$4,$5,$6,$7,0*
20,1,$1+$1,$6,$7,$8,$9,0*
20,1,$1+$1,$8,$9,$2,$3,0*%
G04 Aperture macros list end*
%TA.AperFunction,ComponentPad*%
%ADD10RoundRect,0.250000X-0.650000X0.650000X-0.650000X-0.650000X0.650000X-0.650000X0.650000X0.650000X0*%
%TD*%
%TA.AperFunction,ComponentPad*%
%ADD11C,1.800000*%
%TD*%
%TA.AperFunction,ComponentPad*%
%ADD12C,3.500000*%
%TD*%
%TA.AperFunction,ComponentPad*%
%ADD13R,1.700000X1.700000*%
%TD*%
%TA.AperFunction,ComponentPad*%
%ADD14C,1.650000*%
%TD*%
%TA.AperFunction,ComponentPad*%
%ADD15C,1.950000*%
%TD*%
%TA.AperFunction,ComponentPad*%
%ADD16C,2.400000*%
%TD*%
%TA.AperFunction,ComponentPad*%
%ADD17O,1.700000X1.700000*%
%TD*%
%TA.AperFunction,ComponentPad*%
%ADD18R,1.700000X1.800000*%
%TD*%
%TA.AperFunction,ComponentPad*%
%ADD19RoundRect,0.425000X0.425000X-0.475000X0.425000X0.475000X-0.425000X0.475000X-0.425000X-0.475000X0*%
%TD*%
%TA.AperFunction,ComponentPad*%
%ADD20C,4.000000*%
%TD*%
%TA.AperFunction,ComponentPad*%
%ADD21C,2.000000*%
%TD*%
%TA.AperFunction,ComponentPad*%
%ADD22R,1.560000X1.560000*%
%TD*%
%TA.AperFunction,ComponentPad*%
%ADD23C,1.560000*%
%TD*%
%TA.AperFunction,ComponentPad*%
%ADD24R,1.800000X1.800000*%
%TD*%
%TA.AperFunction,ComponentPad*%
%ADD25R,1.000000X1.000000*%
%TD*%
%TA.AperFunction,ComponentPad*%
%ADD26O,1.000000X1.000000*%
%TD*%
%TA.AperFunction,ViaPad*%
%ADD27C,1.600000*%
%TD*%
%TA.AperFunction,Conductor*%
%ADD28C,0.250000*%
%TD*%
%TA.AperFunction,Conductor*%
%ADD29C,0.750000*%
%TD*%
%ADD30RoundRect,0.250000X-0.650000X0.650000X-0.650000X-0.650000X0.650000X-0.650000X0.650000X0.650000X0*%
%ADD31C,1.800000*%
%ADD32C,3.500000*%
%ADD33R,1.700000X1.700000*%
%ADD34C,1.650000*%
%ADD35C,1.950000*%
%ADD36C,2.400000*%
%ADD37O,1.700000X1.700000*%
%ADD38RoundRect,0.250000X0.250000X0.475000X-0.250000X0.475000X-0.250000X-0.475000X0.250000X-0.475000X0*%
%ADD39RoundRect,0.250000X-0.262500X-0.450000X0.262500X-0.450000X0.262500X0.450000X-0.262500X0.450000X0*%
%ADD40RoundRect,0.250000X0.475000X-0.250000X0.475000X0.250000X-0.475000X0.250000X-0.475000X-0.250000X0*%
%ADD41R,1.700000X1.800000*%
%ADD42RoundRect,0.425000X0.425000X-0.475000X0.425000X0.475000X-0.425000X0.475000X-0.425000X-0.475000X0*%
%ADD43C,4.000000*%
%ADD44C,2.000000*%
%ADD45RoundRect,0.250000X0.262500X0.450000X-0.262500X0.450000X-0.262500X-0.450000X0.262500X-0.450000X0*%
%ADD46RoundRect,0.250000X-0.250000X-0.475000X0.250000X-0.475000X0.250000X0.475000X-0.250000X0.475000X0*%
%ADD47R,1.560000X1.560000*%
%ADD48C,1.560000*%
%ADD49RoundRect,0.250000X0.450000X-0.262500X0.450000X0.262500X-0.450000X0.262500X-0.450000X-0.262500X0*%
%ADD50R,1.800000X1.800000*%
%ADD51RoundRect,0.250000X-0.475000X0.250000X-0.475000X-0.250000X0.475000X-0.250000X0.475000X0.250000X0*%
%ADD52RoundRect,0.150000X0.150000X-0.825000X0.150000X0.825000X-0.150000X0.825000X-0.150000X-0.825000X0*%
%ADD53R,1.000000X1.000000*%
%ADD54O,1.000000X1.000000*%
%ADD55R,0.300000X1.475000*%
%ADD56R,1.475000X0.300000*%
G04 APERTURE END LIST*
D10*
%TO.P,J1,1,Pin_1*%
%TO.N,+3.3V*%
X124540000Y-92300000D03*
D11*
%TO.P,J1,2,Pin_2*%
X127080000Y-92300000D03*
%TO.P,J1,3,Pin_3*%
%TO.N,SCLK_SPI*%
X124540000Y-94840000D03*
%TO.P,J1,4,Pin_4*%
%TO.N,/P6.3*%
X127080000Y-94840000D03*
%TO.P,J1,5,Pin_5*%
%TO.N,MISO*%
X124540000Y-97380000D03*
%TO.P,J1,6,Pin_6*%
%TO.N,/P6.2*%
X127080000Y-97380000D03*
%TO.P,J1,7,Pin_7*%
%TO.N,MOSI*%
X124540000Y-99920000D03*
%TO.P,J1,8,Pin_8*%
%TO.N,/P6.1*%
X127080000Y-99920000D03*
%TO.P,J1,9,Pin_9*%
%TO.N,SCL_I2C*%
X124540000Y-102460000D03*
%TO.P,J1,10,Pin_10*%
%TO.N,/P6.0*%
X127080000Y-102460000D03*
%TO.P,J1,11,Pin_11*%
%TO.N,SDA_I2C*%
X124540000Y-105000000D03*
%TO.P,J1,12,Pin_12*%
%TO.N,SS_SPI*%
X127080000Y-105000000D03*
%TO.P,J1,13,Pin_13*%
%TO.N,GND*%
X124540000Y-107540000D03*
%TO.P,J1,14,Pin_14*%
X127080000Y-107540000D03*
D12*
%TO.P,J1,15*%
%TO.N,N/C*%
X187080000Y-99920000D03*
%TO.P,J1,16*%
X157080000Y-126920000D03*
%TO.P,J1,17*%
X157080000Y-72920000D03*
%TO.P,J1,18*%
X115080000Y-134920000D03*
%TO.P,J1,19*%
X115080000Y-64920000D03*
%TD*%
D13*
%TO.P,SMCLK1,1,1*%
%TO.N,R_JOYSTICK*%
X157110000Y-102090000D03*
%TD*%
%TO.P,RST_TDO/TDI1,1,1*%
%TO.N,TDO{slash}TDI*%
X161590000Y-77920000D03*
%TD*%
D14*
%TO.P,S1,1,1*%
%TO.N,+3.3V*%
X183690000Y-86190000D03*
%TO.P,S1,2,2*%
%TO.N,LR_JOYSTICK*%
X183690000Y-83690000D03*
%TO.P,S1,3,3*%
%TO.N,GND*%
X183690000Y-81190000D03*
%TO.P,S1,11,1'*%
%TO.N,+3.3V*%
X172460000Y-92420000D03*
%TO.P,S1,12,2'*%
%TO.N,FB_JOYSTICK*%
X174960000Y-92420000D03*
%TO.P,S1,13,3'*%
%TO.N,GND*%
X177460000Y-92420000D03*
D15*
%TO.P,S1,A1,COM_1*%
X169210000Y-80440000D03*
%TO.P,S1,B1,COM_2*%
%TO.N,unconnected-(S1-COM_2-PadB1)*%
X169210000Y-86940000D03*
%TO.P,S1,C1,NO_1*%
%TO.N,SEL_JOYSTICK*%
X164710000Y-80440000D03*
%TO.P,S1,D1,NO_2*%
%TO.N,GND*%
X164710000Y-86940000D03*
D16*
%TO.P,S1,MH1*%
%TO.N,N/C*%
X179960000Y-90015000D03*
%TO.P,S1,MH2*%
X179960000Y-77365000D03*
%TO.P,S1,MH3*%
X169960000Y-77365000D03*
%TO.P,S1,MH4*%
X169960000Y-90015000D03*
%TD*%
D13*
%TO.P,UART_RX1,1,1*%
%TO.N,/WIFI_UART_RX*%
X174244000Y-133350000D03*
%TD*%
%TO.P,SCL_I2C1,1,1*%
%TO.N,SCL_I2C*%
X115040000Y-101760000D03*
%TD*%
%TO.P,R4,1*%
%TO.N,+3.3V*%
X187000000Y-67500000D03*
D17*
%TO.P,R4,2*%
%TO.N,PHOTO2*%
X187000000Y-64960000D03*
%TD*%
D13*
%TO.P,J2,1,Pin_1*%
%TO.N,/WIFI_UART_TX*%
X162814000Y-134112000D03*
D17*
%TO.P,J2,2,Pin_2*%
%TO.N,+3.3V*%
X162814000Y-131572000D03*
%TO.P,J2,3,Pin_3*%
%TO.N,unconnected-(J2-Pin_3-Pad3)*%
X165354000Y-134112000D03*
%TO.P,J2,4,Pin_4*%
%TO.N,unconnected-(J2-Pin_4-Pad4)*%
X165354000Y-131572000D03*
%TO.P,J2,5,Pin_5*%
%TO.N,unconnected-(J2-Pin_5-Pad5)*%
X167894000Y-134112000D03*
%TO.P,J2,6,Pin_6*%
%TO.N,/WIFI_CE*%
X167894000Y-131572000D03*
%TO.P,J2,7,Pin_7*%
%TO.N,GND*%
X170434000Y-134112000D03*
%TO.P,J2,8,Pin_8*%
%TO.N,/WIFI_UART_RX*%
X170434000Y-131572000D03*
%TD*%
D13*
%TO.P,ACLK1,1,1*%
%TO.N,FB_JOYSTICK*%
X157640000Y-92060000D03*
%TD*%
D18*
%TO.P,LCD1,1,VDD*%
%TO.N,+3.3V*%
X127380000Y-71155000D03*
D19*
%TO.P,LCD1,2,VSS*%
%TO.N,GND*%
X127380000Y-68615000D03*
%TO.P,LCD1,3,SDA*%
%TO.N,SDA_I2C*%
X129920000Y-71155000D03*
%TO.P,LCD1,4,SCL*%
%TO.N,SCL_I2C*%
X129920000Y-68615000D03*
%TO.P,LCD1,5,RST*%
%TO.N,RST_LCD*%
X132460000Y-71155000D03*
%TO.P,LCD1,6,A*%
%TO.N,unconnected-(LCD1-A-Pad6)*%
X132460000Y-68615000D03*
%TO.P,LCD1,7,K*%
%TO.N,unconnected-(LCD1-K-Pad7)*%
X135000000Y-71155000D03*
%TO.P,LCD1,8,NC*%
%TO.N,unconnected-(LCD1-NC-Pad8)*%
X135000000Y-68615000D03*
D20*
%TO.P,LCD1,9*%
%TO.N,N/C*%
X142590000Y-69130000D03*
%TO.P,LCD1,10*%
X142590000Y-130130000D03*
%TO.P,LCD1,11*%
X119590000Y-130130000D03*
%TO.P,LCD1,12*%
X119590000Y-69130000D03*
%TD*%
D13*
%TO.P,LDR2,1,1*%
%TO.N,PHOTO2*%
X187060000Y-72530000D03*
%TD*%
D21*
%TO.P,SW1,1,1*%
%TO.N,GND*%
X161400000Y-71010000D03*
X161400000Y-64510000D03*
%TO.P,SW1,2,2*%
%TO.N,TDO{slash}TDI*%
X165900000Y-71010000D03*
X165900000Y-64510000D03*
%TD*%
D13*
%TO.P,uC_VCC1,1,1*%
%TO.N,+3.3V*%
X151010000Y-92140000D03*
%TD*%
%TO.P,uC_GND1,1,1*%
%TO.N,GND*%
X154370000Y-88260000D03*
%TD*%
%TO.P,LDR1,1,1*%
%TO.N,PHOTO1*%
X186940000Y-127000000D03*
%TD*%
D22*
%TO.P,RV2,1,1*%
%TO.N,PHOTO2*%
X183000000Y-70000000D03*
D23*
%TO.P,RV2,2,2*%
X180500000Y-65000000D03*
%TO.P,RV2,3,3*%
%TO.N,GND*%
X178000000Y-70000000D03*
%TD*%
D13*
%TO.P,J3,1,Pin_1*%
%TO.N,TDO{slash}TDI*%
X171650000Y-70840000D03*
D17*
%TO.P,J3,2,Pin_2*%
%TO.N,TCK*%
X171650000Y-68300000D03*
%TO.P,J3,3,Pin_3*%
%TO.N,GND*%
X171650000Y-65760000D03*
%TD*%
D24*
%TO.P,D1,1,K*%
%TO.N,Net-(D1-K)*%
X112450000Y-92420000D03*
D11*
%TO.P,D1,2,A*%
%TO.N,+3.3V*%
X114990000Y-92420000D03*
%TD*%
D13*
%TO.P,R1,1*%
%TO.N,+3.3V*%
X187000000Y-132225000D03*
D17*
%TO.P,R1,2*%
%TO.N,PHOTO1*%
X187000000Y-134765000D03*
%TD*%
D13*
%TO.P,UART_TX1,1,1*%
%TO.N,/WIFI_UART_TX*%
X158750000Y-133096000D03*
%TD*%
D22*
%TO.P,RV1,1,1*%
%TO.N,PHOTO1*%
X178000000Y-129760000D03*
D23*
%TO.P,RV1,2,2*%
X180500000Y-134760000D03*
%TO.P,RV1,3,3*%
%TO.N,GND*%
X183000000Y-129760000D03*
%TD*%
D13*
%TO.P,SDA_I2C1,1,1*%
%TO.N,SDA_I2C*%
X115020000Y-105500000D03*
%TD*%
D25*
%TO.P,Y1,1,1*%
%TO.N,/CLK+*%
X149615000Y-81420000D03*
D26*
%TO.P,Y1,2,2*%
%TO.N,/CLK-*%
X148345000Y-81420000D03*
%TD*%
D27*
%TO.N,+3.3V*%
X137280000Y-82220000D03*
X162090000Y-108450000D03*
X166035000Y-108440000D03*
X163830000Y-116332000D03*
X158300000Y-118100000D03*
X140910000Y-92160000D03*
X119160000Y-92360000D03*
X134640000Y-84860000D03*
%TO.N,GND*%
X165220000Y-97335000D03*
X144060000Y-76795000D03*
X154060000Y-78795000D03*
X154075000Y-84950000D03*
X154060000Y-82795000D03*
X148060000Y-76795000D03*
X144060000Y-80795000D03*
X170332500Y-113780000D03*
X152060000Y-76795000D03*
X144075000Y-84950000D03*
X146060000Y-76795000D03*
X148580000Y-98980000D03*
X162590000Y-124820000D03*
X150660000Y-98980000D03*
X144060000Y-82795000D03*
X167300000Y-97335000D03*
X150060000Y-76795000D03*
X154060000Y-76795000D03*
X154060000Y-80795000D03*
X112430000Y-85540000D03*
X144060000Y-78795000D03*
X156410000Y-108460000D03*
%TO.N,MISO*%
X131566702Y-96003298D03*
%TO.N,MOSI*%
X133440000Y-97195000D03*
%TO.N,SS_SPI*%
X143640000Y-99695000D03*
X143660000Y-104860000D03*
%TO.N,SCL_I2C*%
X157074504Y-94864504D03*
%TO.N,LR_JOYSTICK*%
X167595000Y-109790000D03*
%TD*%
D28*
%TO.N,SDA_I2C*%
X124040000Y-105500000D02*
X124540000Y-105000000D01*
X115020000Y-105500000D02*
X124040000Y-105500000D01*
D29*
%TO.N,+3.3V*%
X158300000Y-118100000D02*
X158310000Y-118110000D01*
X166035000Y-108440000D02*
X162100000Y-108440000D01*
X119220000Y-92300000D02*
X119160000Y-92360000D01*
X134640000Y-84860000D02*
X137280000Y-82220000D01*
X124540000Y-92300000D02*
X119220000Y-92300000D01*
X162052000Y-118110000D02*
X163830000Y-116332000D01*
X151010000Y-92140000D02*
X140930000Y-92140000D01*
X158310000Y-118110000D02*
X162052000Y-118110000D01*
X162100000Y-108440000D02*
X162090000Y-108450000D01*
X140930000Y-92140000D02*
X140910000Y-92160000D01*
D28*
%TO.N,MISO*%
X131566702Y-96003298D02*
X131505000Y-96065000D01*
X125855000Y-96065000D02*
X124540000Y-97380000D01*
X131505000Y-96065000D02*
X125855000Y-96065000D01*
%TO.N,MOSI*%
X131940000Y-98695000D02*
X125765000Y-98695000D01*
X125765000Y-98695000D02*
X124540000Y-99920000D01*
X133440000Y-97195000D02*
X131940000Y-98695000D01*
%TO.N,SS_SPI*%
X143640000Y-99695000D02*
X143640000Y-104840000D01*
X143640000Y-104840000D02*
X143660000Y-104860000D01*
%TO.N,SCL_I2C*%
X127537412Y-103725000D02*
X125805000Y-103725000D01*
X156565496Y-94864504D02*
X154920000Y-96510000D01*
X130092412Y-106280000D02*
X127537412Y-103725000D01*
X154920000Y-96510000D02*
X154920000Y-103120000D01*
X115040000Y-101760000D02*
X123840000Y-101760000D01*
X125805000Y-103725000D02*
X124540000Y-102460000D01*
X157074504Y-94864504D02*
X156565496Y-94864504D01*
X123840000Y-101760000D02*
X124540000Y-102460000D01*
X115550000Y-102460000D02*
X115540000Y-102470000D01*
X151760000Y-106280000D02*
X130092412Y-106280000D01*
X154920000Y-103120000D02*
X151760000Y-106280000D01*
%TO.N,LR_JOYSTICK*%
X167595000Y-109790000D02*
X167630000Y-109790000D01*
X182540000Y-94880000D02*
X182540000Y-84840000D01*
X167630000Y-109790000D02*
X182540000Y-94880000D01*
X182540000Y-84840000D02*
X183690000Y-83690000D01*
%TO.N,FB_JOYSTICK*%
X171983654Y-91270000D02*
X173810000Y-91270000D01*
X157640000Y-92060000D02*
X171193654Y-92060000D01*
X173810000Y-91270000D02*
X174960000Y-92420000D01*
X171193654Y-92060000D02*
X171983654Y-91270000D01*
%TD*%
%TA.AperFunction,Conductor*%
%TO.N,GND*%
G36*
X125891904Y-105750304D02*
G01*
X125913809Y-105775583D01*
X125971016Y-105863147D01*
X125971019Y-105863151D01*
X125971021Y-105863153D01*
X126128216Y-106033913D01*
X126306225Y-106172462D01*
X126347038Y-106229173D01*
X126350713Y-106298946D01*
X126316082Y-106359629D01*
X126306225Y-106368170D01*
X126281201Y-106387646D01*
X126281200Y-106387647D01*
X126947467Y-107053913D01*
X126937685Y-107055320D01*
X126806900Y-107115048D01*
X126698239Y-107209202D01*
X126620507Y-107330156D01*
X126596922Y-107410476D01*
X125928811Y-106742365D01*
X125913807Y-106765331D01*
X125860661Y-106810688D01*
X125791429Y-106820111D01*
X125728094Y-106790609D01*
X125706190Y-106765330D01*
X125691186Y-106742365D01*
X125023076Y-107410475D01*
X124999493Y-107330156D01*
X124921761Y-107209202D01*
X124813100Y-107115048D01*
X124682315Y-107055320D01*
X124672532Y-107053913D01*
X125338797Y-106387647D01*
X125338797Y-106387646D01*
X125313773Y-106368169D01*
X125272961Y-106311459D01*
X125269286Y-106241686D01*
X125303918Y-106181003D01*
X125313760Y-106172473D01*
X125491784Y-106033913D01*
X125648979Y-105863153D01*
X125706191Y-105775582D01*
X125759337Y-105730226D01*
X125828568Y-105720802D01*
X125891904Y-105750304D01*
G37*
%TD.AperFunction*%
%TA.AperFunction,Conductor*%
G36*
X113987072Y-62740185D02*
G01*
X114032827Y-62792989D01*
X114042771Y-62862147D01*
X114013746Y-62925703D01*
X113974877Y-62955712D01*
X113952334Y-62966828D01*
X113707041Y-63130728D01*
X113485241Y-63325241D01*
X113290728Y-63547041D01*
X113126828Y-63792334D01*
X112996349Y-64056919D01*
X112901521Y-64336269D01*
X112901518Y-64336283D01*
X112843968Y-64625609D01*
X112843964Y-64625636D01*
X112824671Y-64919992D01*
X112824671Y-64920007D01*
X112843964Y-65214363D01*
X112843965Y-65214373D01*
X112843966Y-65214380D01*
X112888770Y-65439630D01*
X112901518Y-65503716D01*
X112901521Y-65503730D01*
X112996349Y-65783080D01*
X113126825Y-66047660D01*
X113126829Y-66047667D01*
X113290725Y-66292955D01*
X113485241Y-66514758D01*
X113707044Y-66709274D01*
X113952332Y-66873170D01*
X113952335Y-66873172D01*
X114216923Y-67003652D01*
X114496278Y-67098481D01*
X114785620Y-67156034D01*
X114813888Y-67157886D01*
X115079993Y-67175329D01*
X115080000Y-67175329D01*
X115080007Y-67175329D01*
X115315675Y-67159881D01*
X115374380Y-67156034D01*
X115663722Y-67098481D01*
X115943077Y-67003652D01*
X116207665Y-66873172D01*
X116452957Y-66709273D01*
X116674758Y-66514758D01*
X116869273Y-66292957D01*
X117033172Y-66047665D01*
X117163652Y-65783077D01*
X117258481Y-65503722D01*
X117316034Y-65214380D01*
X117327163Y-65044584D01*
X117335329Y-64920007D01*
X117335329Y-64919992D01*
X117316035Y-64625636D01*
X117316034Y-64625620D01*
X117293037Y-64510005D01*
X159894859Y-64510005D01*
X159915385Y-64757729D01*
X159915387Y-64757738D01*
X159976412Y-64998717D01*
X160076266Y-65226364D01*
X160176564Y-65379882D01*
X160874070Y-64682376D01*
X160876884Y-64695915D01*
X160946442Y-64830156D01*
X161049638Y-64940652D01*
X161178819Y-65019209D01*
X161230002Y-65033549D01*
X160529942Y-65733609D01*
X160576768Y-65770055D01*
X160576770Y-65770056D01*
X160795385Y-65888364D01*
X160795396Y-65888369D01*
X161030506Y-65969083D01*
X161275707Y-66010000D01*
X161524293Y-66010000D01*
X161769493Y-65969083D01*
X162004603Y-65888369D01*
X162004614Y-65888364D01*
X162223228Y-65770057D01*
X162223231Y-65770055D01*
X162270056Y-65733609D01*
X161571568Y-65035121D01*
X161688458Y-64984349D01*
X161805739Y-64888934D01*
X161892928Y-64765415D01*
X161923354Y-64679802D01*
X162623434Y-65379882D01*
X162723731Y-65226369D01*
X162823587Y-64998717D01*
X162884612Y-64757738D01*
X162884614Y-64757729D01*
X162905141Y-64510005D01*
X164394357Y-64510005D01*
X164414890Y-64757812D01*
X164414892Y-64757824D01*
X164475936Y-64998881D01*
X164575826Y-65226606D01*
X164711833Y-65434782D01*
X164716296Y-65439630D01*
X164880256Y-65617738D01*
X165076491Y-65770474D01*
X165076493Y-65770475D01*
X165294332Y-65888364D01*
X165295190Y-65888828D01*
X165483063Y-65953325D01*
X165528964Y-65969083D01*
X165530386Y-65969571D01*
X165775665Y-66010500D01*
X166024335Y-66010500D01*
X166269614Y-65969571D01*
X166504810Y-65888828D01*
X166723509Y-65770474D01*
X166919744Y-65617738D01*
X167088164Y-65434785D01*
X167224173Y-65226607D01*
X167324063Y-64998881D01*
X167385108Y-64757821D01*
X167387861Y-64724596D01*
X167405643Y-64510005D01*
X167405643Y-64509994D01*
X167385109Y-64262187D01*
X167385107Y-64262175D01*
X167324063Y-64021118D01*
X167224173Y-63793393D01*
X167088166Y-63585217D01*
X167053022Y-63547041D01*
X166919744Y-63402262D01*
X166723509Y-63249526D01*
X166723507Y-63249525D01*
X166723506Y-63249524D01*
X166504811Y-63131172D01*
X166504802Y-63131169D01*
X166269616Y-63050429D01*
X166024335Y-63009500D01*
X165775665Y-63009500D01*
X165530383Y-63050429D01*
X165295197Y-63131169D01*
X165295188Y-63131172D01*
X165076493Y-63249524D01*
X164880257Y-63402261D01*
X164711833Y-63585217D01*
X164575826Y-63793393D01*
X164475936Y-64021118D01*
X164414892Y-64262175D01*
X164414890Y-64262187D01*
X164394357Y-64509994D01*
X164394357Y-64510005D01*
X162905141Y-64510005D01*
X162905141Y-64509994D01*
X162884614Y-64262270D01*
X162884612Y-64262261D01*
X162823587Y-64021282D01*
X162723731Y-63793630D01*
X162623434Y-63640116D01*
X161925929Y-64337622D01*
X161923116Y-64324085D01*
X161853558Y-64189844D01*
X161750362Y-64079348D01*
X161621181Y-64000791D01*
X161569997Y-63986450D01*
X162270057Y-63286390D01*
X162270056Y-63286389D01*
X162223229Y-63249943D01*
X162004614Y-63131635D01*
X162004603Y-63131630D01*
X161769493Y-63050916D01*
X161524293Y-63010000D01*
X161275707Y-63010000D01*
X161030506Y-63050916D01*
X160795396Y-63131630D01*
X160795390Y-63131632D01*
X160576761Y-63249949D01*
X160529942Y-63286388D01*
X160529942Y-63286390D01*
X161228431Y-63984878D01*
X161111542Y-64035651D01*
X160994261Y-64131066D01*
X160907072Y-64254585D01*
X160876645Y-64340197D01*
X160176564Y-63640116D01*
X160076267Y-63793632D01*
X159976412Y-64021282D01*
X159915387Y-64262261D01*
X159915385Y-64262270D01*
X159894859Y-64509994D01*
X159894859Y-64510005D01*
X117293037Y-64510005D01*
X117258481Y-64336278D01*
X117163652Y-64056923D01*
X117033172Y-63792336D01*
X117028916Y-63785967D01*
X116931462Y-63640116D01*
X116869273Y-63547043D01*
X116742303Y-63402262D01*
X116674758Y-63325241D01*
X116452955Y-63130725D01*
X116207667Y-62966829D01*
X116207660Y-62966825D01*
X116185124Y-62955712D01*
X116133705Y-62908407D01*
X116116023Y-62840812D01*
X116137693Y-62774387D01*
X116191834Y-62730223D01*
X116239968Y-62720500D01*
X189155500Y-62720500D01*
X189222539Y-62740185D01*
X189268294Y-62792989D01*
X189279500Y-62844500D01*
X189279500Y-98760032D01*
X189259815Y-98827071D01*
X189207011Y-98872826D01*
X189137853Y-98882770D01*
X189074297Y-98853745D01*
X189044289Y-98814877D01*
X189033173Y-98792338D01*
X189033172Y-98792336D01*
X188869273Y-98547043D01*
X188752525Y-98413918D01*
X188674758Y-98325241D01*
X188452955Y-98130725D01*
X188207667Y-97966829D01*
X188207660Y-97966825D01*
X187943080Y-97836349D01*
X187663730Y-97741521D01*
X187663724Y-97741519D01*
X187663722Y-97741519D01*
X187374380Y-97683966D01*
X187374373Y-97683965D01*
X187374363Y-97683964D01*
X187080007Y-97664671D01*
X187079993Y-97664671D01*
X186785636Y-97683964D01*
X186785624Y-97683965D01*
X186785620Y-97683966D01*
X186785612Y-97683967D01*
X186785609Y-97683968D01*
X186496283Y-97741518D01*
X186496269Y-97741521D01*
X186216919Y-97836349D01*
X185952334Y-97966828D01*
X185707041Y-98130728D01*
X185485241Y-98325241D01*
X185290728Y-98547041D01*
X185126828Y-98792334D01*
X184996349Y-99056919D01*
X184901521Y-99336269D01*
X184901518Y-99336283D01*
X184843968Y-99625609D01*
X184843964Y-99625636D01*
X184824671Y-99919992D01*
X184824671Y-99920007D01*
X184843964Y-100214363D01*
X184843965Y-100214373D01*
X184843966Y-100214380D01*
X184876173Y-100376300D01*
X184901518Y-100503716D01*
X184901521Y-100503730D01*
X184996349Y-100783080D01*
X185126825Y-101047660D01*
X185126829Y-101047667D01*
X185290725Y-101292955D01*
X185485241Y-101514758D01*
X185707044Y-101709274D01*
X185737723Y-101729773D01*
X185952335Y-101873172D01*
X186216923Y-102003652D01*
X186496278Y-102098481D01*
X186785620Y-102156034D01*
X186813888Y-102157886D01*
X187079993Y-102175329D01*
X187080000Y-102175329D01*
X187080007Y-102175329D01*
X187315675Y-102159881D01*
X187374380Y-102156034D01*
X187663722Y-102098481D01*
X187943077Y-102003652D01*
X188207665Y-101873172D01*
X188452957Y-101709273D01*
X188674758Y-101514758D01*
X188869273Y-101292957D01*
X189033172Y-101047665D01*
X189044288Y-101025124D01*
X189091593Y-100973705D01*
X189159188Y-100956023D01*
X189225613Y-100977693D01*
X189269777Y-101031834D01*
X189279500Y-101079968D01*
X189279500Y-136995500D01*
X189259815Y-137062539D01*
X189207011Y-137108294D01*
X189155500Y-137119500D01*
X116239968Y-137119500D01*
X116172929Y-137099815D01*
X116127174Y-137047011D01*
X116117230Y-136977853D01*
X116146255Y-136914297D01*
X116185124Y-136884288D01*
X116186897Y-136883413D01*
X116207665Y-136873172D01*
X116452957Y-136709273D01*
X116674758Y-136514758D01*
X116869273Y-136292957D01*
X117033172Y-136047665D01*
X117163652Y-135783077D01*
X117258481Y-135503722D01*
X117316034Y-135214380D01*
X117329438Y-135009876D01*
X117335329Y-134920007D01*
X117335329Y-134919992D01*
X117316035Y-134625636D01*
X117316034Y-134625620D01*
X117258481Y-134336278D01*
X117163652Y-134056923D01*
X117132558Y-133993870D01*
X157399500Y-133993870D01*
X157399501Y-133993876D01*
X157405908Y-134053483D01*
X157456202Y-134188328D01*
X157456206Y-134188335D01*
X157542452Y-134303544D01*
X157542455Y-134303547D01*
X157657664Y-134389793D01*
X157657671Y-134389797D01*
X157792517Y-134440091D01*
X157792516Y-134440091D01*
X157799444Y-134440835D01*
X157852127Y-134446500D01*
X159647872Y-134446499D01*
X159707483Y-134440091D01*
X159842331Y-134389796D01*
X159957546Y-134303546D01*
X160043796Y-134188331D01*
X160094091Y-134053483D01*
X160100500Y-133993873D01*
X160100499Y-132198128D01*
X160094091Y-132138517D01*
X160064984Y-132060478D01*
X160043797Y-132003671D01*
X160043793Y-132003664D01*
X159957547Y-131888455D01*
X159957544Y-131888452D01*
X159842335Y-131802206D01*
X159842328Y-131802202D01*
X159707482Y-131751908D01*
X159707483Y-131751908D01*
X159647883Y-131745501D01*
X159647881Y-131745500D01*
X159647873Y-131745500D01*
X159647864Y-131745500D01*
X157852129Y-131745500D01*
X157852123Y-131745501D01*
X157792516Y-131751908D01*
X157657671Y-131802202D01*
X157657664Y-131802206D01*
X157542455Y-131888452D01*
X157542452Y-131888455D01*
X157456206Y-132003664D01*
X157456202Y-132003671D01*
X157405908Y-132138517D01*
X157399501Y-132198116D01*
X157399501Y-132198123D01*
X157399500Y-132198135D01*
X157399500Y-133993870D01*
X117132558Y-133993870D01*
X117033172Y-133792336D01*
X117021808Y-133775329D01*
X116931825Y-133640659D01*
X116869273Y-133547043D01*
X116801518Y-133469783D01*
X116674758Y-133325241D01*
X116452955Y-133130725D01*
X116207667Y-132966829D01*
X116207660Y-132966825D01*
X115943080Y-132836349D01*
X115663730Y-132741521D01*
X115663724Y-132741519D01*
X115663722Y-132741519D01*
X115374380Y-132683966D01*
X115374373Y-132683965D01*
X115374363Y-132683964D01*
X115080007Y-132664671D01*
X115079993Y-132664671D01*
X114785636Y-132683964D01*
X114785624Y-132683965D01*
X114785620Y-132683966D01*
X114785612Y-132683967D01*
X114785609Y-132683968D01*
X114496283Y-132741518D01*
X114496269Y-132741521D01*
X114216919Y-132836349D01*
X113952334Y-132966828D01*
X113707041Y-133130728D01*
X113485241Y-133325241D01*
X113290728Y-133547041D01*
X113126828Y-133792334D01*
X112996349Y-134056919D01*
X112901521Y-134336269D01*
X112901518Y-134336283D01*
X112843968Y-134625609D01*
X112843964Y-134625636D01*
X112824671Y-134919992D01*
X112824671Y-134920007D01*
X112843964Y-135214363D01*
X112843965Y-135214373D01*
X112843966Y-135214380D01*
X112893319Y-135462499D01*
X112901518Y-135503716D01*
X112901521Y-135503730D01*
X112996349Y-135783080D01*
X113126825Y-136047660D01*
X113126829Y-136047667D01*
X113290725Y-136292955D01*
X113485241Y-136514758D01*
X113707044Y-136709274D01*
X113952332Y-136873170D01*
X113952339Y-136873174D01*
X113974876Y-136884288D01*
X114026295Y-136931593D01*
X114043977Y-136999188D01*
X114022307Y-137065613D01*
X113968166Y-137109777D01*
X113920032Y-137119500D01*
X110004500Y-137119500D01*
X109937461Y-137099815D01*
X109891706Y-137047011D01*
X109880500Y-136995500D01*
X109880500Y-130130005D01*
X117084556Y-130130005D01*
X117104310Y-130444004D01*
X117104311Y-130444011D01*
X117163270Y-130753083D01*
X117260497Y-131052316D01*
X117260499Y-131052321D01*
X117394461Y-131337003D01*
X117394464Y-131337009D01*
X117563051Y-131602661D01*
X117563054Y-131602665D01*
X117763606Y-131845090D01*
X117763608Y-131845092D01*
X117763610Y-131845094D01*
X117932470Y-132003664D01*
X117992968Y-132060476D01*
X117992978Y-132060484D01*
X118247504Y-132245408D01*
X118247509Y-132245410D01*
X118247516Y-132245416D01*
X118523234Y-132396994D01*
X118523239Y-132396996D01*
X118523241Y-132396997D01*
X118523242Y-132396998D01*
X118815771Y-132512818D01*
X118815774Y-132512819D01*
X119020272Y-132565325D01*
X119120527Y-132591066D01*
X119140428Y-132593580D01*
X119432670Y-132630499D01*
X119432679Y-132630499D01*
X119432682Y-132630500D01*
X119432684Y-132630500D01*
X119747316Y-132630500D01*
X119747318Y-132630500D01*
X119747321Y-132630499D01*
X119747329Y-132630499D01*
X119933593Y-132606968D01*
X120059473Y-132591066D01*
X120364225Y-132512819D01*
X120517511Y-132452129D01*
X120656757Y-132396998D01*
X120656758Y-132396997D01*
X120656756Y-132396997D01*
X120656766Y-132396994D01*
X120932484Y-132245416D01*
X121187030Y-132060478D01*
X121416390Y-131845094D01*
X121616947Y-131602663D01*
X121785537Y-131337007D01*
X121919503Y-131052315D01*
X122016731Y-130753079D01*
X122075688Y-130444015D01*
X122078303Y-130402451D01*
X122095444Y-130130005D01*
X140084556Y-130130005D01*
X140104310Y-130444004D01*
X140104311Y-130444011D01*
X140163270Y-130753083D01*
X140260497Y-131052316D01*
X140260499Y-131052321D01*
X140394461Y-131337003D01*
X140394464Y-131337009D01*
X140563051Y-131602661D01*
X140563054Y-131602665D01*
X140763606Y-131845090D01*
X140763608Y-131845092D01*
X140763610Y-131845094D01*
X140932470Y-132003664D01*
X140992968Y-132060476D01*
X140992978Y-132060484D01*
X141247504Y-132245408D01*
X141247509Y-132245410D01*
X141247516Y-132245416D01*
X141523234Y-132396994D01*
X141523239Y-132396996D01*
X141523241Y-132396997D01*
X141523242Y-132396998D01*
X141815771Y-132512818D01*
X141815774Y-132512819D01*
X142020272Y-132565325D01*
X142120527Y-132591066D01*
X142140428Y-132593580D01*
X142432670Y-132630499D01*
X142432679Y-132630499D01*
X142432682Y-132630500D01*
X142432684Y-132630500D01*
X142747316Y-132630500D01*
X142747318Y-132630500D01*
X142747321Y-132630499D01*
X142747329Y-132630499D01*
X142933593Y-132606968D01*
X143059473Y-132591066D01*
X143364225Y-132512819D01*
X143517511Y-132452129D01*
X143656757Y-132396998D01*
X143656758Y-132396997D01*
X143656756Y-132396997D01*
X143656766Y-132396994D01*
X143932484Y-132245416D01*
X144187030Y-132060478D01*
X144416390Y-131845094D01*
X144616947Y-131602663D01*
X144636406Y-131572000D01*
X161458341Y-131572000D01*
X161478936Y-131807403D01*
X161478938Y-131807413D01*
X161540094Y-132035655D01*
X161540096Y-132035659D01*
X161540097Y-132035663D01*
X161615856Y-132198128D01*
X161639965Y-132249830D01*
X161639967Y-132249834D01*
X161739875Y-132392516D01*
X161775501Y-132443396D01*
X161775506Y-132443402D01*
X161897430Y-132565326D01*
X161930915Y-132626649D01*
X161925931Y-132696341D01*
X161884059Y-132752274D01*
X161853083Y-132769189D01*
X161721669Y-132818203D01*
X161721664Y-132818206D01*
X161606455Y-132904452D01*
X161606452Y-132904455D01*
X161520206Y-133019664D01*
X161520202Y-133019671D01*
X161469908Y-133154517D01*
X161463501Y-133214116D01*
X161463500Y-133214135D01*
X161463500Y-135009870D01*
X161463501Y-135009876D01*
X161469908Y-135069483D01*
X161520202Y-135204328D01*
X161520206Y-135204335D01*
X161606452Y-135319544D01*
X161606455Y-135319547D01*
X161721664Y-135405793D01*
X161721671Y-135405797D01*
X161856517Y-135456091D01*
X161856516Y-135456091D01*
X161863444Y-135456835D01*
X161916127Y-135462500D01*
X163711872Y-135462499D01*
X163771483Y-135456091D01*
X163906331Y-135405796D01*
X164021546Y-135319546D01*
X164107796Y-135204331D01*
X164156810Y-135072916D01*
X164198681Y-135016984D01*
X164264145Y-134992566D01*
X164332418Y-135007417D01*
X164360673Y-135028569D01*
X164482599Y-135150495D01*
X164573812Y-135214363D01*
X164676165Y-135286032D01*
X164676167Y-135286033D01*
X164676170Y-135286035D01*
X164890337Y-135385903D01*
X165118592Y-135447063D01*
X165295034Y-135462500D01*
X165353999Y-135467659D01*
X165354000Y-135467659D01*
X165354001Y-135467659D01*
X165412966Y-135462500D01*
X165589408Y-135447063D01*
X165817663Y-135385903D01*
X166031830Y-135286035D01*
X166225401Y-135150495D01*
X166392495Y-134983401D01*
X166522425Y-134797842D01*
X166577002Y-134754217D01*
X166646500Y-134747023D01*
X166708855Y-134778546D01*
X166725575Y-134797842D01*
X166855369Y-134983208D01*
X166855505Y-134983401D01*
X167022599Y-135150495D01*
X167113812Y-135214363D01*
X167216165Y-135286032D01*
X167216167Y-135286033D01*
X167216170Y-135286035D01*
X167430337Y-135385903D01*
X167658592Y-135447063D01*
X167835034Y-135462500D01*
X167893999Y-135467659D01*
X167894000Y-135467659D01*
X167894001Y-135467659D01*
X167952966Y-135462500D01*
X168129408Y-135447063D01*
X168357663Y-135385903D01*
X168571830Y-135286035D01*
X168765401Y-135150495D01*
X168932495Y-134983401D01*
X169062730Y-134797405D01*
X169117307Y-134753781D01*
X169186805Y-134746587D01*
X169249160Y-134778110D01*
X169265879Y-134797405D01*
X169395890Y-134983078D01*
X169562917Y-135150105D01*
X169756421Y-135285600D01*
X169970507Y-135385429D01*
X169970516Y-135385433D01*
X170184000Y-135442634D01*
X170184000Y-134547501D01*
X170291685Y-134596680D01*
X170398237Y-134612000D01*
X170469763Y-134612000D01*
X170576315Y-134596680D01*
X170684000Y-134547501D01*
X170684000Y-135442633D01*
X170897483Y-135385433D01*
X170897492Y-135385429D01*
X171111578Y-135285600D01*
X171305082Y-135150105D01*
X171472105Y-134983082D01*
X171607600Y-134789578D01*
X171621392Y-134760001D01*
X179214609Y-134760001D01*
X179234136Y-134983200D01*
X179234137Y-134983208D01*
X179292126Y-135199625D01*
X179292127Y-135199627D01*
X179292128Y-135199630D01*
X179348045Y-135319544D01*
X179386819Y-135402696D01*
X179386821Y-135402700D01*
X179515329Y-135586228D01*
X179515334Y-135586234D01*
X179673765Y-135744665D01*
X179673771Y-135744670D01*
X179857299Y-135873178D01*
X179857301Y-135873179D01*
X179857304Y-135873181D01*
X180060370Y-135967872D01*
X180276794Y-136025863D01*
X180425819Y-136038901D01*
X180499998Y-136045391D01*
X180500000Y-136045391D01*
X180500002Y-136045391D01*
X180574158Y-136038903D01*
X180723206Y-136025863D01*
X180939630Y-135967872D01*
X181142696Y-135873181D01*
X181326233Y-135744667D01*
X181484667Y-135586233D01*
X181613181Y-135402696D01*
X181707872Y-135199630D01*
X181765863Y-134983206D01*
X181784954Y-134765000D01*
X185644341Y-134765000D01*
X185664936Y-135000403D01*
X185664938Y-135000413D01*
X185726094Y-135228655D01*
X185726096Y-135228659D01*
X185726097Y-135228663D01*
X185807250Y-135402696D01*
X185825965Y-135442830D01*
X185825967Y-135442834D01*
X185926373Y-135586228D01*
X185961505Y-135636401D01*
X186128599Y-135803495D01*
X186225384Y-135871265D01*
X186322165Y-135939032D01*
X186322167Y-135939033D01*
X186322170Y-135939035D01*
X186536337Y-136038903D01*
X186536343Y-136038904D01*
X186536344Y-136038905D01*
X186569045Y-136047667D01*
X186764592Y-136100063D01*
X186952918Y-136116539D01*
X186999999Y-136120659D01*
X187000000Y-136120659D01*
X187000001Y-136120659D01*
X187039234Y-136117226D01*
X187235408Y-136100063D01*
X187463663Y-136038903D01*
X187677830Y-135939035D01*
X187871401Y-135803495D01*
X188038495Y-135636401D01*
X188174035Y-135442830D01*
X188273903Y-135228663D01*
X188335063Y-135000408D01*
X188355659Y-134765000D01*
X188354677Y-134753781D01*
X188345055Y-134643796D01*
X188335063Y-134529592D01*
X188273903Y-134301337D01*
X188174035Y-134087171D01*
X188152855Y-134056923D01*
X188038496Y-133893600D01*
X188006895Y-133861999D01*
X187916567Y-133771671D01*
X187883084Y-133710351D01*
X187888068Y-133640659D01*
X187929939Y-133584725D01*
X187960915Y-133567810D01*
X188092331Y-133518796D01*
X188207546Y-133432546D01*
X188293796Y-133317331D01*
X188344091Y-133182483D01*
X188350500Y-133122873D01*
X188350499Y-131327128D01*
X188344091Y-131267517D01*
X188293796Y-131132669D01*
X188293795Y-131132668D01*
X188293793Y-131132664D01*
X188207547Y-131017455D01*
X188207544Y-131017452D01*
X188092335Y-130931206D01*
X188092328Y-130931202D01*
X187957482Y-130880908D01*
X187957483Y-130880908D01*
X187897883Y-130874501D01*
X187897881Y-130874500D01*
X187897873Y-130874500D01*
X187897864Y-130874500D01*
X186102129Y-130874500D01*
X186102123Y-130874501D01*
X186042516Y-130880908D01*
X185907671Y-130931202D01*
X185907664Y-130931206D01*
X185792455Y-131017452D01*
X185792452Y-131017455D01*
X185706206Y-131132664D01*
X185706202Y-131132671D01*
X185655908Y-131267517D01*
X185649501Y-131327116D01*
X185649501Y-131327123D01*
X185649500Y-131327135D01*
X185649500Y-133122870D01*
X185649501Y-133122876D01*
X185655908Y-133182483D01*
X185706202Y-133317328D01*
X185706206Y-133317335D01*
X185792452Y-133432544D01*
X185792455Y-133432547D01*
X185907664Y-133518793D01*
X185907671Y-133518797D01*
X186039081Y-133567810D01*
X186095015Y-133609681D01*
X186119432Y-133675145D01*
X186104580Y-133743418D01*
X186083430Y-133771673D01*
X185961503Y-133893600D01*
X185825965Y-134087169D01*
X185825964Y-134087171D01*
X185726098Y-134301335D01*
X185726094Y-134301344D01*
X185664938Y-134529586D01*
X185664936Y-134529596D01*
X185644341Y-134764999D01*
X185644341Y-134765000D01*
X181784954Y-134765000D01*
X181785391Y-134760000D01*
X181765863Y-134536794D01*
X181707872Y-134320370D01*
X181613181Y-134117305D01*
X181548924Y-134025536D01*
X181484668Y-133933768D01*
X181412899Y-133861999D01*
X181326233Y-133775333D01*
X181326229Y-133775330D01*
X181326228Y-133775329D01*
X181142700Y-133646821D01*
X181142696Y-133646819D01*
X181022916Y-133590965D01*
X180939630Y-133552128D01*
X180939627Y-133552127D01*
X180939625Y-133552126D01*
X180723208Y-133494137D01*
X180723200Y-133494136D01*
X180500002Y-133474609D01*
X180499998Y-133474609D01*
X180276799Y-133494136D01*
X180276791Y-133494137D01*
X180060374Y-133552126D01*
X180060368Y-133552129D01*
X179857306Y-133646818D01*
X179857304Y-133646819D01*
X179673764Y-133775334D01*
X179515334Y-133933764D01*
X179386819Y-134117304D01*
X179386818Y-134117306D01*
X179292129Y-134320368D01*
X179292126Y-134320374D01*
X179234137Y-134536791D01*
X179234136Y-134536799D01*
X179214609Y-134759998D01*
X179214609Y-134760001D01*
X171621392Y-134760001D01*
X171707429Y-134575492D01*
X171707432Y-134575486D01*
X171764636Y-134362000D01*
X170867686Y-134362000D01*
X170893493Y-134321844D01*
X170915214Y-134247870D01*
X172893500Y-134247870D01*
X172893501Y-134247876D01*
X172899908Y-134307483D01*
X172950202Y-134442328D01*
X172950206Y-134442335D01*
X173036452Y-134557544D01*
X173036455Y-134557547D01*
X173151664Y-134643793D01*
X173151671Y-134643797D01*
X173286517Y-134694091D01*
X173286516Y-134694091D01*
X173293444Y-134694835D01*
X173346127Y-134700500D01*
X175141872Y-134700499D01*
X175201483Y-134694091D01*
X175336331Y-134643796D01*
X175451546Y-134557546D01*
X175537796Y-134442331D01*
X175588091Y-134307483D01*
X175594500Y-134247873D01*
X175594499Y-132452128D01*
X175588091Y-132392517D01*
X175537796Y-132257669D01*
X175537795Y-132257668D01*
X175537793Y-132257664D01*
X175451547Y-132142455D01*
X175451544Y-132142452D01*
X175336335Y-132056206D01*
X175336328Y-132056202D01*
X175201482Y-132005908D01*
X175201483Y-132005908D01*
X175141883Y-131999501D01*
X175141881Y-131999500D01*
X175141873Y-131999500D01*
X175141864Y-131999500D01*
X173346129Y-131999500D01*
X173346123Y-131999501D01*
X173286516Y-132005908D01*
X173151671Y-132056202D01*
X173151664Y-132056206D01*
X173036455Y-132142452D01*
X173036452Y-132142455D01*
X172950206Y-132257664D01*
X172950202Y-132257671D01*
X172899908Y-132392517D01*
X172894438Y-132443401D01*
X172893501Y-132452123D01*
X172893500Y-132452135D01*
X172893500Y-134247870D01*
X170915214Y-134247870D01*
X170934000Y-134183889D01*
X170934000Y-134040111D01*
X170893493Y-133902156D01*
X170867686Y-133862000D01*
X171764636Y-133862000D01*
X171764635Y-133861999D01*
X171707432Y-133648513D01*
X171707429Y-133648507D01*
X171607600Y-133434422D01*
X171607599Y-133434420D01*
X171472113Y-133240926D01*
X171472108Y-133240920D01*
X171305078Y-133073890D01*
X171119405Y-132943879D01*
X171075780Y-132889302D01*
X171068588Y-132819804D01*
X171100110Y-132757449D01*
X171119406Y-132740730D01*
X171119842Y-132740425D01*
X171305401Y-132610495D01*
X171472495Y-132443401D01*
X171608035Y-132249830D01*
X171707903Y-132035663D01*
X171769063Y-131807408D01*
X171789659Y-131572000D01*
X171769063Y-131336592D01*
X171707903Y-131108337D01*
X171608035Y-130894171D01*
X171602425Y-130886158D01*
X171472494Y-130700597D01*
X171359766Y-130587870D01*
X176719500Y-130587870D01*
X176719501Y-130587876D01*
X176725908Y-130647483D01*
X176776202Y-130782328D01*
X176776206Y-130782335D01*
X176862452Y-130897544D01*
X176862455Y-130897547D01*
X176977664Y-130983793D01*
X176977671Y-130983797D01*
X177112517Y-131034091D01*
X177112516Y-131034091D01*
X177119444Y-131034835D01*
X177172127Y-131040500D01*
X178827872Y-131040499D01*
X178887483Y-131034091D01*
X179022331Y-130983796D01*
X179137546Y-130897546D01*
X179223796Y-130782331D01*
X179274091Y-130647483D01*
X179280500Y-130587873D01*
X179280500Y-129760002D01*
X181715111Y-129760002D01*
X181734630Y-129983113D01*
X181734632Y-129983124D01*
X181792596Y-130199450D01*
X181792600Y-130199459D01*
X181887252Y-130402443D01*
X181887253Y-130402445D01*
X181935334Y-130471112D01*
X182516923Y-129889523D01*
X182540507Y-129969844D01*
X182618239Y-130090798D01*
X182726900Y-130184952D01*
X182857685Y-130244680D01*
X182867466Y-130246086D01*
X182288886Y-130824664D01*
X182357555Y-130872746D01*
X182560540Y-130967399D01*
X182560549Y-130967403D01*
X182776875Y-131025367D01*
X182776886Y-131025369D01*
X182999998Y-131044889D01*
X183000002Y-131044889D01*
X183223113Y-131025369D01*
X183223124Y-131025367D01*
X183439450Y-130967403D01*
X183439459Y-130967399D01*
X183642445Y-130872746D01*
X183642451Y-130872742D01*
X183711112Y-130824665D01*
X183132533Y-130246086D01*
X183142315Y-130244680D01*
X183273100Y-130184952D01*
X183381761Y-130090798D01*
X183459493Y-129969844D01*
X183483076Y-129889523D01*
X184064665Y-130471112D01*
X184112742Y-130402451D01*
X184112746Y-130402445D01*
X184207399Y-130199459D01*
X184207403Y-130199450D01*
X184265367Y-129983124D01*
X184265369Y-129983113D01*
X184284889Y-129760002D01*
X184284889Y-129759997D01*
X184265369Y-129536886D01*
X184265367Y-129536875D01*
X184207403Y-129320549D01*
X184207399Y-129320540D01*
X184112747Y-129117557D01*
X184112746Y-129117555D01*
X184064664Y-129048887D01*
X184064664Y-129048886D01*
X183483076Y-129630474D01*
X183459493Y-129550156D01*
X183381761Y-129429202D01*
X183273100Y-129335048D01*
X183142315Y-129275320D01*
X183132533Y-129273913D01*
X183711112Y-128695334D01*
X183711112Y-128695333D01*
X183642445Y-128647253D01*
X183642443Y-128647252D01*
X183439459Y-128552600D01*
X183439450Y-128552596D01*
X183223124Y-128494632D01*
X183223113Y-128494630D01*
X183000002Y-128475111D01*
X182999998Y-128475111D01*
X182776886Y-128494630D01*
X182776875Y-128494632D01*
X182560549Y-128552596D01*
X182560540Y-128552600D01*
X182357556Y-128647253D01*
X182288887Y-128695334D01*
X182867466Y-129273913D01*
X182857685Y-129275320D01*
X182726900Y-129335048D01*
X182618239Y-129429202D01*
X182540507Y-129550156D01*
X182516923Y-129630476D01*
X181935334Y-129048887D01*
X181887253Y-129117556D01*
X181792600Y-129320540D01*
X181792596Y-129320549D01*
X181734632Y-129536875D01*
X181734630Y-129536886D01*
X181715111Y-129759997D01*
X181715111Y-129760002D01*
X179280500Y-129760002D01*
X179280499Y-128932128D01*
X179274162Y-128873174D01*
X179274091Y-128872516D01*
X179223797Y-128737671D01*
X179223793Y-128737664D01*
X179137547Y-128622455D01*
X179137544Y-128622452D01*
X179022335Y-128536206D01*
X179022328Y-128536202D01*
X178887482Y-128485908D01*
X178887483Y-128485908D01*
X178827883Y-128479501D01*
X178827881Y-128479500D01*
X178827873Y-128479500D01*
X178827864Y-128479500D01*
X177172129Y-128479500D01*
X177172123Y-128479501D01*
X177112516Y-128485908D01*
X176977671Y-128536202D01*
X176977664Y-128536206D01*
X176862455Y-128622452D01*
X176862452Y-128622455D01*
X176776206Y-128737664D01*
X176776202Y-128737671D01*
X176725908Y-128872517D01*
X176719501Y-128932116D01*
X176719501Y-128932123D01*
X176719500Y-128932135D01*
X176719500Y-130587870D01*
X171359766Y-130587870D01*
X171305402Y-130533506D01*
X171305395Y-130533501D01*
X171111834Y-130397967D01*
X171111830Y-130397965D01*
X171111828Y-130397964D01*
X170897663Y-130298097D01*
X170897659Y-130298096D01*
X170897655Y-130298094D01*
X170669413Y-130236938D01*
X170669403Y-130236936D01*
X170434001Y-130216341D01*
X170433999Y-130216341D01*
X170198596Y-130236936D01*
X170198586Y-130236938D01*
X169970344Y-130298094D01*
X169970335Y-130298098D01*
X169756171Y-130397964D01*
X169756169Y-130397965D01*
X169562597Y-130533505D01*
X169395505Y-130700597D01*
X169265575Y-130886158D01*
X169210998Y-130929783D01*
X169141500Y-130936977D01*
X169079145Y-130905454D01*
X169062425Y-130886158D01*
X168932494Y-130700597D01*
X168765402Y-130533506D01*
X168765395Y-130533501D01*
X168571834Y-130397967D01*
X168571830Y-130397965D01*
X168571828Y-130397964D01*
X168357663Y-130298097D01*
X168357659Y-130298096D01*
X168357655Y-130298094D01*
X168129413Y-130236938D01*
X168129403Y-130236936D01*
X167894001Y-130216341D01*
X167893999Y-130216341D01*
X167658596Y-130236936D01*
X167658586Y-130236938D01*
X167430344Y-130298094D01*
X167430335Y-130298098D01*
X167216171Y-130397964D01*
X167216169Y-130397965D01*
X167022597Y-130533505D01*
X166855505Y-130700597D01*
X166725575Y-130886158D01*
X166670998Y-130929783D01*
X166601500Y-130936977D01*
X166539145Y-130905454D01*
X166522425Y-130886158D01*
X166392494Y-130700597D01*
X166225402Y-130533506D01*
X166225395Y-130533501D01*
X166031834Y-130397967D01*
X166031830Y-130397965D01*
X166031828Y-130397964D01*
X165817663Y-130298097D01*
X165817659Y-130298096D01*
X165817655Y-130298094D01*
X165589413Y-130236938D01*
X165589403Y-130236936D01*
X165354001Y-130216341D01*
X165353999Y-130216341D01*
X165118596Y-130236936D01*
X165118586Y-130236938D01*
X164890344Y-130298094D01*
X164890335Y-130298098D01*
X164676171Y-130397964D01*
X164676169Y-130397965D01*
X164482597Y-130533505D01*
X164315505Y-130700597D01*
X164185575Y-130886158D01*
X164130998Y-130929783D01*
X164061500Y-130936977D01*
X163999145Y-130905454D01*
X163982425Y-130886158D01*
X163852494Y-130700597D01*
X163685402Y-130533506D01*
X163685395Y-130533501D01*
X163491834Y-130397967D01*
X163491830Y-130397965D01*
X163491828Y-130397964D01*
X163277663Y-130298097D01*
X163277659Y-130298096D01*
X163277655Y-130298094D01*
X163049413Y-130236938D01*
X163049403Y-130236936D01*
X162814001Y-130216341D01*
X162813999Y-130216341D01*
X162578596Y-130236936D01*
X162578586Y-130236938D01*
X162350344Y-130298094D01*
X162350335Y-130298098D01*
X162136171Y-130397964D01*
X162136169Y-130397965D01*
X161942597Y-130533505D01*
X161775505Y-130700597D01*
X161639965Y-130894169D01*
X161639964Y-130894171D01*
X161540098Y-131108335D01*
X161540094Y-131108344D01*
X161478938Y-131336586D01*
X161478936Y-131336596D01*
X161458341Y-131571999D01*
X161458341Y-131572000D01*
X144636406Y-131572000D01*
X144785537Y-131337007D01*
X144919503Y-131052315D01*
X145016731Y-130753079D01*
X145075688Y-130444015D01*
X145078303Y-130402451D01*
X145095444Y-130130005D01*
X145095444Y-130129994D01*
X145075689Y-129815995D01*
X145075688Y-129815988D01*
X145075688Y-129815985D01*
X145016731Y-129506921D01*
X144919503Y-129207685D01*
X144904277Y-129175329D01*
X144789836Y-128932129D01*
X144785537Y-128922993D01*
X144750414Y-128867648D01*
X144616948Y-128657338D01*
X144616945Y-128657334D01*
X144416393Y-128414909D01*
X144416391Y-128414907D01*
X144195573Y-128207544D01*
X144187030Y-128199522D01*
X144187027Y-128199520D01*
X144187021Y-128199515D01*
X143932495Y-128014591D01*
X143932488Y-128014586D01*
X143932484Y-128014584D01*
X143656766Y-127863006D01*
X143656763Y-127863004D01*
X143656758Y-127863002D01*
X143656757Y-127863001D01*
X143364228Y-127747181D01*
X143364225Y-127747180D01*
X143059476Y-127668934D01*
X143059463Y-127668932D01*
X142747329Y-127629500D01*
X142747318Y-127629500D01*
X142432682Y-127629500D01*
X142432670Y-127629500D01*
X142120536Y-127668932D01*
X142120523Y-127668934D01*
X141815774Y-127747180D01*
X141815771Y-127747181D01*
X141523242Y-127863001D01*
X141523241Y-127863002D01*
X141247516Y-128014584D01*
X141247504Y-128014591D01*
X140992978Y-128199515D01*
X140992968Y-128199523D01*
X140763608Y-128414907D01*
X140763606Y-128414909D01*
X140563054Y-128657334D01*
X140563051Y-128657338D01*
X140394464Y-128922990D01*
X140394461Y-128922996D01*
X140260499Y-129207678D01*
X140260497Y-129207683D01*
X140163270Y-129506916D01*
X140104311Y-129815988D01*
X140104310Y-129815995D01*
X140084556Y-130129994D01*
X140084556Y-130130005D01*
X122095444Y-130130005D01*
X122095444Y-130129994D01*
X122075689Y-129815995D01*
X122075688Y-129815988D01*
X122075688Y-129815985D01*
X122016731Y-129506921D01*
X121919503Y-129207685D01*
X121904277Y-129175329D01*
X121789836Y-128932129D01*
X121785537Y-128922993D01*
X121750414Y-128867648D01*
X121616948Y-128657338D01*
X121616945Y-128657334D01*
X121416393Y-128414909D01*
X121416391Y-128414907D01*
X121195573Y-128207544D01*
X121187030Y-128199522D01*
X121187027Y-128199520D01*
X121187021Y-128199515D01*
X120932495Y-128014591D01*
X120932488Y-128014586D01*
X120932484Y-128014584D01*
X120656766Y-127863006D01*
X120656763Y-127863004D01*
X120656758Y-127863002D01*
X120656757Y-127863001D01*
X120364228Y-127747181D01*
X120364225Y-127747180D01*
X120059476Y-127668934D01*
X120059463Y-127668932D01*
X119747329Y-127629500D01*
X119747318Y-127629500D01*
X119432682Y-127629500D01*
X119432670Y-127629500D01*
X119120536Y-127668932D01*
X119120523Y-127668934D01*
X118815774Y-127747180D01*
X118815771Y-127747181D01*
X118523242Y-127863001D01*
X118523241Y-127863002D01*
X118247516Y-128014584D01*
X118247504Y-128014591D01*
X117992978Y-128199515D01*
X117992968Y-128199523D01*
X117763608Y-128414907D01*
X117763606Y-128414909D01*
X117563054Y-128657334D01*
X117563051Y-128657338D01*
X117394464Y-128922990D01*
X117394461Y-128922996D01*
X117260499Y-129207678D01*
X117260497Y-129207683D01*
X117163270Y-129506916D01*
X117104311Y-129815988D01*
X117104310Y-129815995D01*
X117084556Y-130129994D01*
X117084556Y-130130005D01*
X109880500Y-130130005D01*
X109880500Y-126920007D01*
X154824671Y-126920007D01*
X154843964Y-127214363D01*
X154843965Y-127214373D01*
X154843966Y-127214380D01*
X154843968Y-127214390D01*
X154901518Y-127503716D01*
X154901521Y-127503730D01*
X154996349Y-127783080D01*
X155126825Y-128047660D01*
X155126829Y-128047667D01*
X155290725Y-128292955D01*
X155485241Y-128514758D01*
X155707044Y-128709274D01*
X155951353Y-128872516D01*
X155952335Y-128873172D01*
X156216923Y-129003652D01*
X156496278Y-129098481D01*
X156785620Y-129156034D01*
X156813888Y-129157886D01*
X157079993Y-129175329D01*
X157080000Y-129175329D01*
X157080007Y-129175329D01*
X157315675Y-129159881D01*
X157374380Y-129156034D01*
X157663722Y-129098481D01*
X157943077Y-129003652D01*
X158207665Y-128873172D01*
X158452957Y-128709273D01*
X158674758Y-128514758D01*
X158869273Y-128292957D01*
X159033172Y-128047665D01*
X159107043Y-127897870D01*
X185589500Y-127897870D01*
X185589501Y-127897876D01*
X185595908Y-127957483D01*
X185646202Y-128092328D01*
X185646206Y-128092335D01*
X185732452Y-128207544D01*
X185732455Y-128207547D01*
X185847664Y-128293793D01*
X185847671Y-128293797D01*
X185982517Y-128344091D01*
X185982516Y-128344091D01*
X185989444Y-128344835D01*
X186042127Y-128350500D01*
X187837872Y-128350499D01*
X187897483Y-128344091D01*
X188032331Y-128293796D01*
X188147546Y-128207546D01*
X188233796Y-128092331D01*
X188284091Y-127957483D01*
X188290500Y-127897873D01*
X188290499Y-126102128D01*
X188284091Y-126042517D01*
X188233796Y-125907669D01*
X188233795Y-125907668D01*
X188233793Y-125907664D01*
X188147547Y-125792455D01*
X188147544Y-125792452D01*
X188032335Y-125706206D01*
X188032328Y-125706202D01*
X187897482Y-125655908D01*
X187897483Y-125655908D01*
X187837883Y-125649501D01*
X187837881Y-125649500D01*
X187837873Y-125649500D01*
X187837864Y-125649500D01*
X186042129Y-125649500D01*
X186042123Y-125649501D01*
X185982516Y-125655908D01*
X185847671Y-125706202D01*
X185847664Y-125706206D01*
X185732455Y-125792452D01*
X185732452Y-125792455D01*
X185646206Y-125907664D01*
X185646202Y-125907671D01*
X185595908Y-126042517D01*
X185589501Y-126102116D01*
X185589501Y-126102123D01*
X185589500Y-126102135D01*
X185589500Y-127897870D01*
X159107043Y-127897870D01*
X159163652Y-127783077D01*
X159258481Y-127503722D01*
X159316034Y-127214380D01*
X159335329Y-126920000D01*
X159335329Y-126919992D01*
X159316035Y-126625636D01*
X159316034Y-126625620D01*
X159258481Y-126336278D01*
X159163652Y-126056923D01*
X159033172Y-125792336D01*
X158869273Y-125547043D01*
X158826655Y-125498447D01*
X158674758Y-125325241D01*
X158452955Y-125130725D01*
X158207667Y-124966829D01*
X158207660Y-124966825D01*
X157943080Y-124836349D01*
X157663730Y-124741521D01*
X157663724Y-124741519D01*
X157663722Y-124741519D01*
X157374380Y-124683966D01*
X157374373Y-124683965D01*
X157374363Y-124683964D01*
X157080007Y-124664671D01*
X157079993Y-124664671D01*
X156785636Y-124683964D01*
X156785624Y-124683965D01*
X156785620Y-124683966D01*
X156785612Y-124683967D01*
X156785609Y-124683968D01*
X156496283Y-124741518D01*
X156496269Y-124741521D01*
X156216919Y-124836349D01*
X155952334Y-124966828D01*
X155707041Y-125130728D01*
X155485241Y-125325241D01*
X155290728Y-125547041D01*
X155126828Y-125792334D01*
X154996349Y-126056919D01*
X154901521Y-126336269D01*
X154901518Y-126336283D01*
X154843968Y-126625609D01*
X154843964Y-126625636D01*
X154824671Y-126919992D01*
X154824671Y-126920007D01*
X109880500Y-126920007D01*
X109880500Y-118100001D01*
X156994532Y-118100001D01*
X157014364Y-118326686D01*
X157014366Y-118326697D01*
X157073258Y-118546488D01*
X157073261Y-118546497D01*
X157169431Y-118752732D01*
X157169432Y-118752734D01*
X157299954Y-118939141D01*
X157460858Y-119100045D01*
X157460861Y-119100047D01*
X157647266Y-119230568D01*
X157853504Y-119326739D01*
X158073308Y-119385635D01*
X158235230Y-119399801D01*
X158299998Y-119405468D01*
X158300000Y-119405468D01*
X158300002Y-119405468D01*
X158356673Y-119400509D01*
X158526692Y-119385635D01*
X158746496Y-119326739D01*
X158952734Y-119230568D01*
X159139139Y-119100047D01*
X159217368Y-119021817D01*
X159278689Y-118988334D01*
X159305048Y-118985500D01*
X162011379Y-118985500D01*
X162021442Y-118985908D01*
X162075848Y-118990339D01*
X162156806Y-118979307D01*
X162160123Y-118978902D01*
X162241316Y-118970073D01*
X162241481Y-118970017D01*
X162264357Y-118964655D01*
X162264537Y-118964631D01*
X162341260Y-118936442D01*
X162344306Y-118935369D01*
X162421780Y-118909267D01*
X162421928Y-118909178D01*
X162443116Y-118899024D01*
X162443288Y-118898961D01*
X162512150Y-118854944D01*
X162514951Y-118853207D01*
X162584954Y-118811089D01*
X162585083Y-118810966D01*
X162603597Y-118796494D01*
X162603602Y-118796490D01*
X162603744Y-118796400D01*
X162661538Y-118738604D01*
X162663833Y-118736369D01*
X162723207Y-118680129D01*
X162723306Y-118679983D01*
X162738264Y-118661878D01*
X163727206Y-117672936D01*
X163788527Y-117639453D01*
X163825693Y-117637091D01*
X163830000Y-117637468D01*
X164056692Y-117617635D01*
X164276496Y-117558739D01*
X164482734Y-117462568D01*
X164669139Y-117332047D01*
X164830047Y-117171139D01*
X164960568Y-116984734D01*
X165056739Y-116778496D01*
X165115635Y-116558692D01*
X165135468Y-116332000D01*
X165115635Y-116105308D01*
X165056739Y-115885504D01*
X164960568Y-115679266D01*
X164830047Y-115492861D01*
X164830045Y-115492858D01*
X164669141Y-115331954D01*
X164482734Y-115201432D01*
X164482732Y-115201431D01*
X164276497Y-115105261D01*
X164276488Y-115105258D01*
X164056697Y-115046366D01*
X164056693Y-115046365D01*
X164056692Y-115046365D01*
X164056691Y-115046364D01*
X164056686Y-115046364D01*
X163830002Y-115026532D01*
X163829998Y-115026532D01*
X163603313Y-115046364D01*
X163603302Y-115046366D01*
X163383511Y-115105258D01*
X163383502Y-115105261D01*
X163177267Y-115201431D01*
X163177265Y-115201432D01*
X162990858Y-115331954D01*
X162829954Y-115492858D01*
X162699432Y-115679265D01*
X162699431Y-115679267D01*
X162603261Y-115885502D01*
X162603258Y-115885511D01*
X162544366Y-116105302D01*
X162544364Y-116105313D01*
X162524532Y-116331998D01*
X162524532Y-116331999D01*
X162524909Y-116336311D01*
X162511139Y-116404810D01*
X162489061Y-116434793D01*
X161725675Y-117198181D01*
X161664352Y-117231666D01*
X161637994Y-117234500D01*
X159325048Y-117234500D01*
X159258009Y-117214815D01*
X159237371Y-117198185D01*
X159139139Y-117099953D01*
X159139138Y-117099952D01*
X159139137Y-117099951D01*
X158952734Y-116969432D01*
X158952732Y-116969431D01*
X158746497Y-116873261D01*
X158746488Y-116873258D01*
X158526697Y-116814366D01*
X158526693Y-116814365D01*
X158526692Y-116814365D01*
X158526691Y-116814364D01*
X158526686Y-116814364D01*
X158300002Y-116794532D01*
X158299998Y-116794532D01*
X158073313Y-116814364D01*
X158073302Y-116814366D01*
X157853511Y-116873258D01*
X157853502Y-116873261D01*
X157647267Y-116969431D01*
X157647265Y-116969432D01*
X157460858Y-117099954D01*
X157299954Y-117260858D01*
X157169432Y-117447265D01*
X157169431Y-117447267D01*
X157073261Y-117653502D01*
X157073258Y-117653511D01*
X157014366Y-117873302D01*
X157014364Y-117873313D01*
X156994532Y-118099998D01*
X156994532Y-118100001D01*
X109880500Y-118100001D01*
X109880500Y-106397870D01*
X113669500Y-106397870D01*
X113669501Y-106397876D01*
X113675908Y-106457483D01*
X113726202Y-106592328D01*
X113726206Y-106592335D01*
X113812452Y-106707544D01*
X113812455Y-106707547D01*
X113927664Y-106793793D01*
X113927671Y-106793797D01*
X114062517Y-106844091D01*
X114062516Y-106844091D01*
X114069444Y-106844835D01*
X114122127Y-106850500D01*
X115917872Y-106850499D01*
X115977483Y-106844091D01*
X116112331Y-106793796D01*
X116227546Y-106707546D01*
X116313796Y-106592331D01*
X116364091Y-106457483D01*
X116370500Y-106397873D01*
X116370500Y-106249500D01*
X116390185Y-106182461D01*
X116442989Y-106136706D01*
X116494500Y-106125500D01*
X123663318Y-106125500D01*
X123730357Y-106145185D01*
X123739479Y-106151646D01*
X123766224Y-106172462D01*
X123807038Y-106229172D01*
X123810713Y-106298945D01*
X123776082Y-106359628D01*
X123766225Y-106368170D01*
X123741201Y-106387646D01*
X123741200Y-106387647D01*
X124407467Y-107053913D01*
X124397685Y-107055320D01*
X124266900Y-107115048D01*
X124158239Y-107209202D01*
X124080507Y-107330156D01*
X124056922Y-107410476D01*
X123388811Y-106742365D01*
X123304516Y-106871390D01*
X123211317Y-107083864D01*
X123154361Y-107308781D01*
X123135202Y-107539994D01*
X123135202Y-107540005D01*
X123154361Y-107771218D01*
X123211317Y-107996135D01*
X123304515Y-108208606D01*
X123388812Y-108337633D01*
X124056922Y-107669523D01*
X124080507Y-107749844D01*
X124158239Y-107870798D01*
X124266900Y-107964952D01*
X124397685Y-108024680D01*
X124407466Y-108026086D01*
X123741201Y-108692351D01*
X123771649Y-108716050D01*
X123975697Y-108826476D01*
X123975706Y-108826479D01*
X124195139Y-108901811D01*
X124423993Y-108940000D01*
X124656007Y-108940000D01*
X124884860Y-108901811D01*
X125104293Y-108826479D01*
X125104301Y-108826476D01*
X125308355Y-108716047D01*
X125338797Y-108692351D01*
X125338798Y-108692350D01*
X124672534Y-108026086D01*
X124682315Y-108024680D01*
X124813100Y-107964952D01*
X124921761Y-107870798D01*
X124999493Y-107749844D01*
X125023076Y-107669523D01*
X125691185Y-108337632D01*
X125706190Y-108314667D01*
X125759337Y-108269311D01*
X125828568Y-108259887D01*
X125891904Y-108289389D01*
X125913808Y-108314667D01*
X125928812Y-108337633D01*
X126596922Y-107669523D01*
X126620507Y-107749844D01*
X126698239Y-107870798D01*
X126806900Y-107964952D01*
X126937685Y-108024680D01*
X126947466Y-108026086D01*
X126281201Y-108692351D01*
X126311649Y-108716050D01*
X126515697Y-108826476D01*
X126515706Y-108826479D01*
X126735139Y-108901811D01*
X126963993Y-108940000D01*
X127196007Y-108940000D01*
X127424860Y-108901811D01*
X127644293Y-108826479D01*
X127644301Y-108826476D01*
X127848355Y-108716047D01*
X127878797Y-108692351D01*
X127878798Y-108692350D01*
X127636449Y-108450001D01*
X160784532Y-108450001D01*
X160804364Y-108676686D01*
X160804366Y-108676697D01*
X160863258Y-108896488D01*
X160863261Y-108896497D01*
X160959431Y-109102732D01*
X160959432Y-109102734D01*
X161089954Y-109289141D01*
X161250858Y-109450045D01*
X161250861Y-109450047D01*
X161437266Y-109580568D01*
X161643504Y-109676739D01*
X161863308Y-109735635D01*
X162025230Y-109749801D01*
X162089998Y-109755468D01*
X162090000Y-109755468D01*
X162090002Y-109755468D01*
X162146673Y-109750509D01*
X162316692Y-109735635D01*
X162536496Y-109676739D01*
X162742734Y-109580568D01*
X162929139Y-109450047D01*
X163027368Y-109351817D01*
X163088689Y-109318334D01*
X163115048Y-109315500D01*
X165019952Y-109315500D01*
X165086991Y-109335185D01*
X165107628Y-109351814D01*
X165158593Y-109402779D01*
X165195862Y-109440048D01*
X165289063Y-109505307D01*
X165382266Y-109570568D01*
X165588504Y-109666739D01*
X165808308Y-109725635D01*
X165970230Y-109739801D01*
X166034998Y-109745468D01*
X166035000Y-109745468D01*
X166035001Y-109745468D01*
X166081939Y-109741361D01*
X166160203Y-109734514D01*
X166228703Y-109748281D01*
X166278887Y-109796896D01*
X166294539Y-109847234D01*
X166309364Y-110016687D01*
X166309366Y-110016697D01*
X166368258Y-110236488D01*
X166368261Y-110236497D01*
X166464431Y-110442732D01*
X166464432Y-110442734D01*
X166594954Y-110629141D01*
X166755858Y-110790045D01*
X166755861Y-110790047D01*
X166942266Y-110920568D01*
X167148504Y-111016739D01*
X167368308Y-111075635D01*
X167530230Y-111089801D01*
X167594998Y-111095468D01*
X167595000Y-111095468D01*
X167595002Y-111095468D01*
X167651673Y-111090509D01*
X167821692Y-111075635D01*
X168041496Y-111016739D01*
X168247734Y-110920568D01*
X168434139Y-110790047D01*
X168595047Y-110629139D01*
X168725568Y-110442734D01*
X168821739Y-110236496D01*
X168880635Y-110016692D01*
X168900468Y-109790000D01*
X168895711Y-109735633D01*
X168880635Y-109563313D01*
X168880635Y-109563308D01*
X168869715Y-109522553D01*
X168871378Y-109452703D01*
X168901807Y-109402781D01*
X182923788Y-95380801D01*
X182936042Y-95370986D01*
X182935859Y-95370764D01*
X182941868Y-95365791D01*
X182941877Y-95365786D01*
X182987949Y-95316722D01*
X182990566Y-95314023D01*
X183010120Y-95294471D01*
X183012576Y-95291303D01*
X183020156Y-95282427D01*
X183050062Y-95250582D01*
X183059713Y-95233024D01*
X183070396Y-95216761D01*
X183082673Y-95200936D01*
X183100021Y-95160844D01*
X183105151Y-95150371D01*
X183126197Y-95112092D01*
X183131180Y-95092680D01*
X183137481Y-95074280D01*
X183145437Y-95055896D01*
X183152270Y-95012748D01*
X183154633Y-95001338D01*
X183165500Y-94959019D01*
X183165500Y-94938983D01*
X183167027Y-94919582D01*
X183170160Y-94899804D01*
X183166050Y-94856324D01*
X183165500Y-94844655D01*
X183165500Y-87583318D01*
X183185185Y-87516279D01*
X183237989Y-87470524D01*
X183307147Y-87460580D01*
X183321574Y-87463539D01*
X183458950Y-87500349D01*
X183616424Y-87514126D01*
X183689998Y-87520563D01*
X183690000Y-87520563D01*
X183690002Y-87520563D01*
X183763576Y-87514126D01*
X183921050Y-87500349D01*
X184145079Y-87440320D01*
X184355282Y-87342301D01*
X184545269Y-87209270D01*
X184709270Y-87045269D01*
X184842301Y-86855282D01*
X184940320Y-86645079D01*
X185000349Y-86421050D01*
X185020563Y-86190000D01*
X185000349Y-85958950D01*
X184940320Y-85734921D01*
X184842301Y-85524719D01*
X184842299Y-85524716D01*
X184842298Y-85524714D01*
X184709273Y-85334735D01*
X184709268Y-85334729D01*
X184545269Y-85170730D01*
X184360814Y-85041572D01*
X184317192Y-84986998D01*
X184309999Y-84917499D01*
X184341521Y-84855145D01*
X184360809Y-84838430D01*
X184545269Y-84709270D01*
X184709270Y-84545269D01*
X184842301Y-84355282D01*
X184940320Y-84145079D01*
X185000349Y-83921050D01*
X185020563Y-83690000D01*
X185000349Y-83458950D01*
X184940320Y-83234921D01*
X184842301Y-83024719D01*
X184842299Y-83024716D01*
X184842298Y-83024714D01*
X184709273Y-82834735D01*
X184709268Y-82834729D01*
X184545269Y-82670730D01*
X184539211Y-82666488D01*
X184360379Y-82541268D01*
X184316757Y-82486693D01*
X184309564Y-82417194D01*
X184341086Y-82354840D01*
X184360381Y-82338120D01*
X184433422Y-82286975D01*
X183861568Y-81715121D01*
X183978458Y-81664349D01*
X184095739Y-81568934D01*
X184182928Y-81445415D01*
X184213354Y-81359801D01*
X184786975Y-81933422D01*
X184786976Y-81933422D01*
X184841865Y-81855034D01*
X184841867Y-81855030D01*
X184939847Y-81644909D01*
X184939851Y-81644900D01*
X184999852Y-81420968D01*
X184999854Y-81420958D01*
X185020061Y-81190000D01*
X185020061Y-81189999D01*
X184999854Y-80959041D01*
X184999852Y-80959031D01*
X184939851Y-80735099D01*
X184939847Y-80735090D01*
X184841867Y-80524971D01*
X184841866Y-80524969D01*
X184786975Y-80446577D01*
X184786975Y-80446576D01*
X184215929Y-81017622D01*
X184213116Y-81004085D01*
X184143558Y-80869844D01*
X184040362Y-80759348D01*
X183911181Y-80680791D01*
X183859996Y-80666449D01*
X184433422Y-80093023D01*
X184355030Y-80038133D01*
X184144909Y-79940152D01*
X184144900Y-79940148D01*
X183920968Y-79880147D01*
X183920958Y-79880145D01*
X183690001Y-79859939D01*
X183689999Y-79859939D01*
X183459041Y-79880145D01*
X183459031Y-79880147D01*
X183235099Y-79940148D01*
X183235090Y-79940152D01*
X183024967Y-80038134D01*
X182946576Y-80093022D01*
X183518432Y-80664878D01*
X183401542Y-80715651D01*
X183284261Y-80811066D01*
X183197072Y-80934585D01*
X183166644Y-81020198D01*
X182593022Y-80446576D01*
X182538134Y-80524967D01*
X182440152Y-80735090D01*
X182440148Y-80735099D01*
X182380147Y-80959031D01*
X182380145Y-80959041D01*
X182359939Y-81189999D01*
X182359939Y-81190000D01*
X182380145Y-81420958D01*
X182380147Y-81420968D01*
X182440148Y-81644900D01*
X182440152Y-81644909D01*
X182538133Y-81855030D01*
X182593023Y-81933422D01*
X183164070Y-81362375D01*
X183166884Y-81375915D01*
X183236442Y-81510156D01*
X183339638Y-81620652D01*
X183468819Y-81699209D01*
X183520002Y-81713549D01*
X182946576Y-82286975D01*
X183019619Y-82338120D01*
X183063243Y-82392697D01*
X183070436Y-82462196D01*
X183038914Y-82524550D01*
X183019619Y-82541270D01*
X182834731Y-82670730D01*
X182834729Y-82670731D01*
X182670731Y-82834729D01*
X182670726Y-82834735D01*
X182537701Y-83024714D01*
X182537699Y-83024718D01*
X182439681Y-83234917D01*
X182379651Y-83458948D01*
X182379650Y-83458955D01*
X182359437Y-83689998D01*
X182359437Y-83690001D01*
X182379650Y-83921044D01*
X182379652Y-83921055D01*
X182402268Y-84005460D01*
X182400605Y-84075310D01*
X182370174Y-84125234D01*
X182156208Y-84339199D01*
X182143951Y-84349020D01*
X182144134Y-84349241D01*
X182138122Y-84354214D01*
X182092098Y-84403223D01*
X182089391Y-84406016D01*
X182069889Y-84425517D01*
X182069875Y-84425534D01*
X182067407Y-84428715D01*
X182059843Y-84437570D01*
X182029937Y-84469418D01*
X182029936Y-84469420D01*
X182020284Y-84486976D01*
X182009610Y-84503226D01*
X181997329Y-84519061D01*
X181997324Y-84519068D01*
X181979975Y-84559158D01*
X181974838Y-84569644D01*
X181953803Y-84607906D01*
X181948822Y-84627307D01*
X181942521Y-84645710D01*
X181934562Y-84664102D01*
X181934561Y-84664105D01*
X181927728Y-84707243D01*
X181925360Y-84718674D01*
X181914501Y-84760971D01*
X181914500Y-84760982D01*
X181914500Y-84781016D01*
X181912973Y-84800415D01*
X181909840Y-84820194D01*
X181909840Y-84820195D01*
X181913950Y-84863674D01*
X181914500Y-84875343D01*
X181914500Y-94569546D01*
X181894815Y-94636585D01*
X181878181Y-94657227D01*
X168037424Y-108497983D01*
X167976101Y-108531468D01*
X167917650Y-108530077D01*
X167873728Y-108518308D01*
X167821694Y-108504365D01*
X167821686Y-108504364D01*
X167595002Y-108484532D01*
X167594998Y-108484532D01*
X167469795Y-108495485D01*
X167401295Y-108481718D01*
X167351112Y-108433102D01*
X167335460Y-108382764D01*
X167331511Y-108337632D01*
X167320635Y-108213308D01*
X167264420Y-108003511D01*
X167261741Y-107993511D01*
X167261738Y-107993502D01*
X167204520Y-107870798D01*
X167165568Y-107787266D01*
X167035047Y-107600861D01*
X167035045Y-107600858D01*
X166874141Y-107439954D01*
X166687734Y-107309432D01*
X166687732Y-107309431D01*
X166481497Y-107213261D01*
X166481488Y-107213258D01*
X166261697Y-107154366D01*
X166261693Y-107154365D01*
X166261692Y-107154365D01*
X166261691Y-107154364D01*
X166261686Y-107154364D01*
X166035002Y-107134532D01*
X166034998Y-107134532D01*
X165808313Y-107154364D01*
X165808302Y-107154366D01*
X165588511Y-107213258D01*
X165588502Y-107213261D01*
X165382267Y-107309431D01*
X165382265Y-107309432D01*
X165195862Y-107439951D01*
X165167703Y-107468111D01*
X165107631Y-107528182D01*
X165046311Y-107561666D01*
X165019952Y-107564500D01*
X163095048Y-107564500D01*
X163028009Y-107544815D01*
X163007371Y-107528185D01*
X162929139Y-107449953D01*
X162929138Y-107449952D01*
X162929137Y-107449951D01*
X162742734Y-107319432D01*
X162742732Y-107319431D01*
X162536497Y-107223261D01*
X162536488Y-107223258D01*
X162316697Y-107164366D01*
X162316693Y-107164365D01*
X162316692Y-107164365D01*
X162316691Y-107164364D01*
X162316686Y-107164364D01*
X162090002Y-107144532D01*
X162089998Y-107144532D01*
X161863313Y-107164364D01*
X161863302Y-107164366D01*
X161643511Y-107223258D01*
X161643502Y-107223261D01*
X161437267Y-107319431D01*
X161437265Y-107319432D01*
X161250858Y-107449954D01*
X161089954Y-107610858D01*
X160959432Y-107797265D01*
X160959431Y-107797267D01*
X160863261Y-108003502D01*
X160863258Y-108003511D01*
X160804366Y-108223302D01*
X160804364Y-108223313D01*
X160784532Y-108449998D01*
X160784532Y-108450001D01*
X127636449Y-108450001D01*
X127212534Y-108026086D01*
X127222315Y-108024680D01*
X127353100Y-107964952D01*
X127461761Y-107870798D01*
X127539493Y-107749844D01*
X127563076Y-107669523D01*
X128231186Y-108337633D01*
X128315482Y-108208611D01*
X128408682Y-107996135D01*
X128465638Y-107771218D01*
X128484798Y-107540005D01*
X128484798Y-107539994D01*
X128465638Y-107308781D01*
X128408682Y-107083864D01*
X128315484Y-106871393D01*
X128231186Y-106742365D01*
X127563076Y-107410475D01*
X127539493Y-107330156D01*
X127461761Y-107209202D01*
X127353100Y-107115048D01*
X127222315Y-107055320D01*
X127212532Y-107053913D01*
X127878797Y-106387647D01*
X127878797Y-106387646D01*
X127853773Y-106368169D01*
X127812961Y-106311459D01*
X127809286Y-106241686D01*
X127843918Y-106181003D01*
X127853760Y-106172473D01*
X128031784Y-106033913D01*
X128188979Y-105863153D01*
X128315924Y-105668849D01*
X128328620Y-105639904D01*
X128373572Y-105586421D01*
X128440307Y-105565729D01*
X128507635Y-105584402D01*
X128529856Y-105602034D01*
X129591606Y-106663784D01*
X129601431Y-106676048D01*
X129601652Y-106675866D01*
X129606622Y-106681874D01*
X129655651Y-106727915D01*
X129658448Y-106730626D01*
X129677942Y-106750120D01*
X129681107Y-106752575D01*
X129689983Y-106760156D01*
X129721830Y-106790062D01*
X129721834Y-106790064D01*
X129739385Y-106799713D01*
X129755643Y-106810392D01*
X129771476Y-106822674D01*
X129806822Y-106837968D01*
X129811567Y-106840022D01*
X129822047Y-106845155D01*
X129860320Y-106866197D01*
X129879724Y-106871179D01*
X129898122Y-106877478D01*
X129916517Y-106885438D01*
X129959666Y-106892271D01*
X129971092Y-106894638D01*
X130013393Y-106905500D01*
X130033428Y-106905500D01*
X130052825Y-106907026D01*
X130072608Y-106910160D01*
X130116087Y-106906050D01*
X130127756Y-106905500D01*
X151677257Y-106905500D01*
X151692877Y-106907224D01*
X151692904Y-106906939D01*
X151700660Y-106907671D01*
X151700667Y-106907673D01*
X151767873Y-106905561D01*
X151771768Y-106905500D01*
X151799346Y-106905500D01*
X151799350Y-106905500D01*
X151803324Y-106904997D01*
X151814963Y-106904080D01*
X151858627Y-106902709D01*
X151877869Y-106897117D01*
X151896912Y-106893174D01*
X151916792Y-106890664D01*
X151957401Y-106874585D01*
X151968444Y-106870803D01*
X152010390Y-106858618D01*
X152027629Y-106848422D01*
X152045103Y-106839862D01*
X152063727Y-106832488D01*
X152063727Y-106832487D01*
X152063732Y-106832486D01*
X152099083Y-106806800D01*
X152108814Y-106800408D01*
X152146420Y-106778170D01*
X152160589Y-106763999D01*
X152175379Y-106751368D01*
X152191587Y-106739594D01*
X152219438Y-106705926D01*
X152227279Y-106697309D01*
X155303788Y-103620801D01*
X155316042Y-103610986D01*
X155315859Y-103610764D01*
X155321868Y-103605791D01*
X155321877Y-103605786D01*
X155367949Y-103556722D01*
X155370566Y-103554023D01*
X155390120Y-103534471D01*
X155392576Y-103531303D01*
X155400156Y-103522427D01*
X155430062Y-103490582D01*
X155439715Y-103473020D01*
X155450389Y-103456770D01*
X155462673Y-103440936D01*
X155480019Y-103400850D01*
X155485157Y-103390362D01*
X155488767Y-103383797D01*
X155506197Y-103352092D01*
X155511177Y-103332691D01*
X155517478Y-103314288D01*
X155525438Y-103295896D01*
X155532272Y-103252741D01*
X155534635Y-103241331D01*
X155545500Y-103199019D01*
X155545500Y-103178983D01*
X155547027Y-103159584D01*
X155550935Y-103134911D01*
X155580865Y-103071777D01*
X155640177Y-103034846D01*
X155710039Y-103035844D01*
X155768271Y-103074454D01*
X155789590Y-103110977D01*
X155816202Y-103182328D01*
X155816206Y-103182335D01*
X155902452Y-103297544D01*
X155902455Y-103297547D01*
X156017664Y-103383793D01*
X156017671Y-103383797D01*
X156152517Y-103434091D01*
X156152516Y-103434091D01*
X156159444Y-103434835D01*
X156212127Y-103440500D01*
X158007872Y-103440499D01*
X158067483Y-103434091D01*
X158202331Y-103383796D01*
X158317546Y-103297546D01*
X158403796Y-103182331D01*
X158454091Y-103047483D01*
X158460500Y-102987873D01*
X158460499Y-101192128D01*
X158454091Y-101132517D01*
X158442219Y-101100687D01*
X158403797Y-100997671D01*
X158403793Y-100997664D01*
X158317547Y-100882455D01*
X158317544Y-100882452D01*
X158202335Y-100796206D01*
X158202328Y-100796202D01*
X158067482Y-100745908D01*
X158067483Y-100745908D01*
X158007883Y-100739501D01*
X158007881Y-100739500D01*
X158007873Y-100739500D01*
X158007864Y-100739500D01*
X156212129Y-100739500D01*
X156212123Y-100739501D01*
X156152516Y-100745908D01*
X156017671Y-100796202D01*
X156017664Y-100796206D01*
X155902455Y-100882452D01*
X155902452Y-100882455D01*
X155816206Y-100997664D01*
X155816202Y-100997671D01*
X155785682Y-101079501D01*
X155743811Y-101135435D01*
X155678346Y-101159852D01*
X155610073Y-101145000D01*
X155560668Y-101095595D01*
X155545500Y-101036168D01*
X155545500Y-96820451D01*
X155565185Y-96753412D01*
X155581815Y-96732774D01*
X156290640Y-96023948D01*
X156351963Y-95990464D01*
X156421655Y-95995448D01*
X156430720Y-95999245D01*
X156628008Y-96091243D01*
X156628013Y-96091244D01*
X156628015Y-96091245D01*
X156644022Y-96095534D01*
X156847812Y-96150139D01*
X157009734Y-96164305D01*
X157074502Y-96169972D01*
X157074504Y-96169972D01*
X157074506Y-96169972D01*
X157131177Y-96165013D01*
X157301196Y-96150139D01*
X157521000Y-96091243D01*
X157727238Y-95995072D01*
X157913643Y-95864551D01*
X158074551Y-95703643D01*
X158205072Y-95517238D01*
X158301243Y-95311000D01*
X158360139Y-95091196D01*
X158379972Y-94864504D01*
X158378747Y-94850507D01*
X158372278Y-94776559D01*
X158360139Y-94637812D01*
X158301243Y-94418008D01*
X158205072Y-94211770D01*
X158074551Y-94025365D01*
X158074549Y-94025362D01*
X157913645Y-93864458D01*
X157727238Y-93733936D01*
X157727236Y-93733935D01*
X157576253Y-93663530D01*
X157540548Y-93646880D01*
X157488110Y-93600708D01*
X157468958Y-93533515D01*
X157489174Y-93466634D01*
X157542339Y-93421299D01*
X157592951Y-93410499D01*
X158537872Y-93410499D01*
X158597483Y-93404091D01*
X158732331Y-93353796D01*
X158847546Y-93267546D01*
X158933796Y-93152331D01*
X158984091Y-93017483D01*
X158990500Y-92957873D01*
X158990500Y-92809500D01*
X159010185Y-92742461D01*
X159062989Y-92696706D01*
X159114500Y-92685500D01*
X171063734Y-92685500D01*
X171130773Y-92705185D01*
X171176528Y-92757989D01*
X171183506Y-92777397D01*
X171209680Y-92875079D01*
X171209681Y-92875082D01*
X171234921Y-92929209D01*
X171307699Y-93085282D01*
X171440730Y-93275269D01*
X171604731Y-93439270D01*
X171794718Y-93572301D01*
X172004921Y-93670320D01*
X172228950Y-93730349D01*
X172393985Y-93744787D01*
X172459998Y-93750563D01*
X172460000Y-93750563D01*
X172460002Y-93750563D01*
X172517762Y-93745509D01*
X172691050Y-93730349D01*
X172915079Y-93670320D01*
X173125282Y-93572301D01*
X173315269Y-93439270D01*
X173479270Y-93275269D01*
X173608427Y-93090814D01*
X173663002Y-93047192D01*
X173732501Y-93039999D01*
X173794855Y-93071521D01*
X173811569Y-93090809D01*
X173940730Y-93275269D01*
X174104731Y-93439270D01*
X174294718Y-93572301D01*
X174504921Y-93670320D01*
X174728950Y-93730349D01*
X174893985Y-93744787D01*
X174959998Y-93750563D01*
X174960000Y-93750563D01*
X174960002Y-93750563D01*
X175017762Y-93745509D01*
X175191050Y-93730349D01*
X175415079Y-93670320D01*
X175625282Y-93572301D01*
X175815269Y-93439270D01*
X175979270Y-93275269D01*
X176108731Y-93090380D01*
X176163306Y-93046757D01*
X176232804Y-93039563D01*
X176295159Y-93071086D01*
X176311879Y-93090381D01*
X176363023Y-93163422D01*
X176934070Y-92592375D01*
X176936884Y-92605915D01*
X177006442Y-92740156D01*
X177109638Y-92850652D01*
X177238819Y-92929209D01*
X177290002Y-92943549D01*
X176716576Y-93516975D01*
X176794969Y-93571867D01*
X177005090Y-93669847D01*
X177005099Y-93669851D01*
X177229031Y-93729852D01*
X177229041Y-93729854D01*
X177459999Y-93750061D01*
X177460001Y-93750061D01*
X177690958Y-93729854D01*
X177690968Y-93729852D01*
X177914900Y-93669851D01*
X177914909Y-93669847D01*
X178125030Y-93571867D01*
X178125034Y-93571865D01*
X178203422Y-93516976D01*
X178203422Y-93516975D01*
X177631568Y-92945121D01*
X177748458Y-92894349D01*
X177865739Y-92798934D01*
X177952928Y-92675415D01*
X177983354Y-92589801D01*
X178556975Y-93163422D01*
X178556976Y-93163422D01*
X178611865Y-93085034D01*
X178611867Y-93085030D01*
X178709847Y-92874909D01*
X178709851Y-92874900D01*
X178769852Y-92650968D01*
X178769854Y-92650958D01*
X178790061Y-92420000D01*
X178790061Y-92419999D01*
X178769854Y-92189041D01*
X178769852Y-92189031D01*
X178709851Y-91965099D01*
X178709847Y-91965090D01*
X178611867Y-91754971D01*
X178611866Y-91754969D01*
X178556975Y-91676577D01*
X178556975Y-91676576D01*
X177985929Y-92247622D01*
X177983116Y-92234085D01*
X177913558Y-92099844D01*
X177810362Y-91989348D01*
X177681181Y-91910791D01*
X177629996Y-91896449D01*
X178203422Y-91323023D01*
X178125030Y-91268133D01*
X177914909Y-91170152D01*
X177914900Y-91170148D01*
X177690968Y-91110147D01*
X177690958Y-91110145D01*
X177460001Y-91089939D01*
X177459999Y-91089939D01*
X177229041Y-91110145D01*
X177229031Y-91110147D01*
X177005099Y-91170148D01*
X177005090Y-91170152D01*
X176794967Y-91268134D01*
X176716576Y-91323022D01*
X177288432Y-91894878D01*
X177171542Y-91945651D01*
X177054261Y-92041066D01*
X176967072Y-92164585D01*
X176936645Y-92250198D01*
X176363023Y-91676576D01*
X176363022Y-91676577D01*
X176311879Y-91749618D01*
X176257303Y-91793243D01*
X176187804Y-91800437D01*
X176125449Y-91768915D01*
X176108729Y-91749618D01*
X176084839Y-91715500D01*
X176006461Y-91603564D01*
X175979273Y-91564735D01*
X175979268Y-91564729D01*
X175815269Y-91400730D01*
X175774814Y-91372403D01*
X175625282Y-91267699D01*
X175415079Y-91169680D01*
X175415076Y-91169679D01*
X175415074Y-91169678D01*
X175191051Y-91109651D01*
X175191044Y-91109650D01*
X174960002Y-91089437D01*
X174959998Y-91089437D01*
X174728955Y-91109650D01*
X174728941Y-91109653D01*
X174644538Y-91132268D01*
X174574688Y-91130605D01*
X174524765Y-91100174D01*
X174310803Y-90886212D01*
X174300980Y-90873950D01*
X174300759Y-90874134D01*
X174295786Y-90868122D01*
X174246776Y-90822099D01*
X174243977Y-90819386D01*
X174224477Y-90799885D01*
X174224471Y-90799880D01*
X174221286Y-90797409D01*
X174212434Y-90789848D01*
X174180582Y-90759938D01*
X174180580Y-90759936D01*
X174180577Y-90759935D01*
X174163029Y-90750288D01*
X174146763Y-90739604D01*
X174130932Y-90727324D01*
X174090849Y-90709978D01*
X174080363Y-90704841D01*
X174042094Y-90683803D01*
X174042092Y-90683802D01*
X174022693Y-90678822D01*
X174004281Y-90672518D01*
X173985898Y-90664562D01*
X173985892Y-90664560D01*
X173942760Y-90657729D01*
X173931322Y-90655361D01*
X173889020Y-90644500D01*
X173889019Y-90644500D01*
X173868984Y-90644500D01*
X173849586Y-90642973D01*
X173842162Y-90641797D01*
X173829805Y-90639840D01*
X173829804Y-90639840D01*
X173786325Y-90643950D01*
X173774656Y-90644500D01*
X172066397Y-90644500D01*
X172050776Y-90642775D01*
X172050749Y-90643061D01*
X172042987Y-90642326D01*
X171975767Y-90644439D01*
X171971873Y-90644500D01*
X171944304Y-90644500D01*
X171940327Y-90645002D01*
X171928696Y-90645917D01*
X171885028Y-90647289D01*
X171885022Y-90647290D01*
X171865780Y-90652880D01*
X171846741Y-90656823D01*
X171826871Y-90659334D01*
X171826857Y-90659337D01*
X171786252Y-90675413D01*
X171775206Y-90679195D01*
X171736190Y-90690531D01*
X171666321Y-90690333D01*
X171607650Y-90652392D01*
X171578806Y-90588754D01*
X171586167Y-90526148D01*
X171589508Y-90517637D01*
X171646222Y-90269157D01*
X171665268Y-90015004D01*
X178254732Y-90015004D01*
X178273777Y-90269154D01*
X178273778Y-90269157D01*
X178330492Y-90517637D01*
X178417608Y-90739604D01*
X178423608Y-90754890D01*
X178430139Y-90766202D01*
X178551041Y-90975612D01*
X178709950Y-91174877D01*
X178896783Y-91348232D01*
X179107366Y-91491805D01*
X179107371Y-91491807D01*
X179107372Y-91491808D01*
X179107373Y-91491809D01*
X179167695Y-91520858D01*
X179336992Y-91602387D01*
X179336993Y-91602387D01*
X179336996Y-91602389D01*
X179580542Y-91677513D01*
X179832565Y-91715500D01*
X180087435Y-91715500D01*
X180339458Y-91677513D01*
X180583004Y-91602389D01*
X180812634Y-91491805D01*
X181023217Y-91348232D01*
X181210050Y-91174877D01*
X181368959Y-90975612D01*
X181496393Y-90754888D01*
X181589508Y-90517637D01*
X181646222Y-90269157D01*
X181665268Y-90015000D01*
X181646222Y-89760843D01*
X181589508Y-89512363D01*
X181496393Y-89275112D01*
X181368959Y-89054388D01*
X181210050Y-88855123D01*
X181023217Y-88681768D01*
X180812634Y-88538195D01*
X180812630Y-88538193D01*
X180812627Y-88538191D01*
X180812626Y-88538190D01*
X180583006Y-88427612D01*
X180583008Y-88427612D01*
X180339466Y-88352489D01*
X180339462Y-88352488D01*
X180339458Y-88352487D01*
X180202802Y-88331889D01*
X180087440Y-88314500D01*
X180087435Y-88314500D01*
X179832565Y-88314500D01*
X179832559Y-88314500D01*
X179686129Y-88336572D01*
X179580542Y-88352487D01*
X179580539Y-88352488D01*
X179580533Y-88352489D01*
X179336992Y-88427612D01*
X179107373Y-88538190D01*
X179107372Y-88538191D01*
X178896782Y-88681768D01*
X178709952Y-88855121D01*
X178709950Y-88855123D01*
X178551041Y-89054388D01*
X178423608Y-89275109D01*
X178330492Y-89512362D01*
X178330490Y-89512369D01*
X178273777Y-89760845D01*
X178254732Y-90014995D01*
X178254732Y-90015004D01*
X171665268Y-90015004D01*
X171665268Y-90015000D01*
X171646222Y-89760843D01*
X171589508Y-89512363D01*
X171496393Y-89275112D01*
X171368959Y-89054388D01*
X171210050Y-88855123D01*
X171023217Y-88681768D01*
X170812634Y-88538195D01*
X170812630Y-88538193D01*
X170812627Y-88538191D01*
X170812626Y-88538190D01*
X170583006Y-88427612D01*
X170583008Y-88427612D01*
X170339466Y-88352489D01*
X170339462Y-88352488D01*
X170339458Y-88352487D01*
X170200386Y-88331524D01*
X170171050Y-88327103D01*
X170107693Y-88297646D01*
X170070320Y-88238612D01*
X170070795Y-88168744D01*
X170108969Y-88110225D01*
X170113344Y-88106654D01*
X170212754Y-88029281D01*
X170378368Y-87849377D01*
X170512111Y-87644667D01*
X170610336Y-87420736D01*
X170670364Y-87183692D01*
X170670371Y-87183605D01*
X170690557Y-86940005D01*
X170690557Y-86939994D01*
X170670365Y-86696316D01*
X170670363Y-86696304D01*
X170610336Y-86459265D01*
X170593573Y-86421050D01*
X170512111Y-86235333D01*
X170453509Y-86145635D01*
X170378367Y-86030621D01*
X170212757Y-85850722D01*
X170212747Y-85850713D01*
X170019791Y-85700529D01*
X170019787Y-85700526D01*
X169804734Y-85584145D01*
X169804729Y-85584143D01*
X169573458Y-85504748D01*
X169392561Y-85474562D01*
X169332263Y-85464500D01*
X169087737Y-85464500D01*
X169039498Y-85472549D01*
X168846541Y-85504748D01*
X168615270Y-85584143D01*
X168615265Y-85584145D01*
X168400212Y-85700526D01*
X168400208Y-85700529D01*
X168207252Y-85850713D01*
X168207242Y-85850722D01*
X168041632Y-86030621D01*
X167907888Y-86235333D01*
X167809663Y-86459265D01*
X167749636Y-86696304D01*
X167749634Y-86696316D01*
X167729443Y-86939994D01*
X167729443Y-86940005D01*
X167749634Y-87183683D01*
X167749636Y-87183695D01*
X167809663Y-87420734D01*
X167907888Y-87644666D01*
X168041632Y-87849378D01*
X168207242Y-88029277D01*
X168207252Y-88029286D01*
X168399670Y-88179051D01*
X168400212Y-88179473D01*
X168615267Y-88295855D01*
X168846545Y-88375252D01*
X168943518Y-88391434D01*
X169006401Y-88421883D01*
X169042841Y-88481498D01*
X169041267Y-88551349D01*
X169002177Y-88609261D01*
X168992959Y-88616195D01*
X168896786Y-88681764D01*
X168709952Y-88855121D01*
X168709950Y-88855123D01*
X168551041Y-89054388D01*
X168423608Y-89275109D01*
X168330492Y-89512362D01*
X168330490Y-89512369D01*
X168273777Y-89760845D01*
X168254732Y-90014995D01*
X168254732Y-90015004D01*
X168273777Y-90269154D01*
X168273778Y-90269157D01*
X168330492Y-90517637D01*
X168417608Y-90739604D01*
X168423608Y-90754890D01*
X168430139Y-90766202D01*
X168551041Y-90975612D01*
X168709950Y-91174877D01*
X168758152Y-91219602D01*
X168793907Y-91279629D01*
X168791532Y-91349458D01*
X168751782Y-91406919D01*
X168687276Y-91433767D01*
X168673811Y-91434500D01*
X159114499Y-91434500D01*
X159047460Y-91414815D01*
X159001705Y-91362011D01*
X158990499Y-91310500D01*
X158990499Y-91162129D01*
X158990498Y-91162123D01*
X158990497Y-91162116D01*
X158984091Y-91102517D01*
X158979212Y-91089437D01*
X158933797Y-90967671D01*
X158933793Y-90967664D01*
X158847547Y-90852455D01*
X158847544Y-90852452D01*
X158732335Y-90766206D01*
X158732328Y-90766202D01*
X158597482Y-90715908D01*
X158597483Y-90715908D01*
X158537883Y-90709501D01*
X158537881Y-90709500D01*
X158537873Y-90709500D01*
X158537864Y-90709500D01*
X156742129Y-90709500D01*
X156742123Y-90709501D01*
X156682516Y-90715908D01*
X156547671Y-90766202D01*
X156547664Y-90766206D01*
X156432455Y-90852452D01*
X156432452Y-90852455D01*
X156346206Y-90967664D01*
X156346202Y-90967671D01*
X156295908Y-91102517D01*
X156289501Y-91162116D01*
X156289501Y-91162123D01*
X156289500Y-91162135D01*
X156289500Y-92957870D01*
X156289501Y-92957876D01*
X156295908Y-93017483D01*
X156346202Y-93152328D01*
X156346206Y-93152335D01*
X156432452Y-93267544D01*
X156432455Y-93267547D01*
X156547664Y-93353793D01*
X156547671Y-93353797D01*
X156660864Y-93396015D01*
X156716798Y-93437886D01*
X156741215Y-93503350D01*
X156726364Y-93571623D01*
X156676959Y-93621029D01*
X156649627Y-93631971D01*
X156628019Y-93637761D01*
X156628006Y-93637765D01*
X156421771Y-93733935D01*
X156421769Y-93733936D01*
X156235362Y-93864458D01*
X156074458Y-94025362D01*
X155943936Y-94211769D01*
X155943935Y-94211771D01*
X155847765Y-94418006D01*
X155847762Y-94418015D01*
X155788870Y-94637806D01*
X155788868Y-94637816D01*
X155781418Y-94722965D01*
X155755964Y-94788033D01*
X155745571Y-94799837D01*
X154536208Y-96009199D01*
X154523951Y-96019020D01*
X154524134Y-96019241D01*
X154518122Y-96024214D01*
X154472098Y-96073223D01*
X154469391Y-96076016D01*
X154449889Y-96095517D01*
X154449875Y-96095534D01*
X154447407Y-96098715D01*
X154439843Y-96107570D01*
X154409937Y-96139418D01*
X154409936Y-96139420D01*
X154400284Y-96156976D01*
X154389610Y-96173226D01*
X154377329Y-96189061D01*
X154377324Y-96189068D01*
X154359975Y-96229158D01*
X154354838Y-96239644D01*
X154333803Y-96277906D01*
X154328822Y-96297307D01*
X154322521Y-96315710D01*
X154314562Y-96334102D01*
X154314561Y-96334105D01*
X154307728Y-96377243D01*
X154305360Y-96388674D01*
X154294501Y-96430971D01*
X154294500Y-96430982D01*
X154294500Y-96451016D01*
X154292973Y-96470415D01*
X154289840Y-96490194D01*
X154289840Y-96490195D01*
X154293950Y-96533674D01*
X154294500Y-96545343D01*
X154294500Y-102809547D01*
X154274815Y-102876586D01*
X154258181Y-102897228D01*
X151537228Y-105618181D01*
X151475905Y-105651666D01*
X151449547Y-105654500D01*
X144919103Y-105654500D01*
X144852064Y-105634815D01*
X144806309Y-105582011D01*
X144796365Y-105512853D01*
X144806721Y-105478095D01*
X144825224Y-105438414D01*
X144886739Y-105306496D01*
X144945635Y-105086692D01*
X144965468Y-104860000D01*
X144965014Y-104854815D01*
X144945635Y-104633313D01*
X144945635Y-104633308D01*
X144886739Y-104413504D01*
X144790568Y-104207266D01*
X144660047Y-104020861D01*
X144660045Y-104020858D01*
X144499141Y-103859954D01*
X144318377Y-103733383D01*
X144274752Y-103678807D01*
X144265500Y-103631808D01*
X144265500Y-100909188D01*
X144285185Y-100842149D01*
X144318377Y-100807613D01*
X144406501Y-100745908D01*
X144479139Y-100695047D01*
X144640047Y-100534139D01*
X144770568Y-100347734D01*
X144866739Y-100141496D01*
X144925635Y-99921692D01*
X144945468Y-99695000D01*
X144944916Y-99688695D01*
X144925635Y-99468313D01*
X144925635Y-99468308D01*
X144866739Y-99248504D01*
X144770568Y-99042266D01*
X144640047Y-98855861D01*
X144640045Y-98855858D01*
X144479141Y-98694954D01*
X144292734Y-98564432D01*
X144292732Y-98564431D01*
X144086497Y-98468261D01*
X144086488Y-98468258D01*
X143866697Y-98409366D01*
X143866693Y-98409365D01*
X143866692Y-98409365D01*
X143866691Y-98409364D01*
X143866686Y-98409364D01*
X143640002Y-98389532D01*
X143639998Y-98389532D01*
X143413313Y-98409364D01*
X143413302Y-98409366D01*
X143193511Y-98468258D01*
X143193502Y-98468261D01*
X142987267Y-98564431D01*
X142987265Y-98564432D01*
X142800858Y-98694954D01*
X142639954Y-98855858D01*
X142509432Y-99042265D01*
X142509431Y-99042267D01*
X142413261Y-99248502D01*
X142413258Y-99248511D01*
X142354366Y-99468302D01*
X142354364Y-99468313D01*
X142334532Y-99694998D01*
X142334532Y-99695001D01*
X142354364Y-99921686D01*
X142354366Y-99921697D01*
X142413258Y-100141488D01*
X142413261Y-100141497D01*
X142509431Y-100347732D01*
X142509432Y-100347734D01*
X142639954Y-100534141D01*
X142800858Y-100695045D01*
X142961623Y-100807613D01*
X143005248Y-100862189D01*
X143014500Y-100909188D01*
X143014500Y-103659816D01*
X142994815Y-103726855D01*
X142961623Y-103761391D01*
X142820858Y-103859954D01*
X142659954Y-104020858D01*
X142529432Y-104207265D01*
X142529431Y-104207267D01*
X142433261Y-104413502D01*
X142433258Y-104413511D01*
X142374366Y-104633302D01*
X142374364Y-104633313D01*
X142354532Y-104859998D01*
X142354532Y-104860001D01*
X142374364Y-105086686D01*
X142374366Y-105086697D01*
X142433258Y-105306488D01*
X142433260Y-105306492D01*
X142433261Y-105306496D01*
X142476179Y-105398534D01*
X142513279Y-105478095D01*
X142523771Y-105547173D01*
X142495251Y-105610957D01*
X142436775Y-105649196D01*
X142400897Y-105654500D01*
X130402864Y-105654500D01*
X130335825Y-105634815D01*
X130315183Y-105618181D01*
X128192188Y-103495185D01*
X128158703Y-103433862D01*
X128163687Y-103364170D01*
X128186201Y-103327498D01*
X128185825Y-103327205D01*
X128188460Y-103323818D01*
X128188650Y-103323510D01*
X128188979Y-103323153D01*
X128315924Y-103128849D01*
X128409157Y-102916300D01*
X128466134Y-102691305D01*
X128466135Y-102691297D01*
X128485300Y-102460006D01*
X128485300Y-102459993D01*
X128466135Y-102228702D01*
X128466133Y-102228691D01*
X128409157Y-102003699D01*
X128315924Y-101791151D01*
X128188983Y-101596852D01*
X128188980Y-101596849D01*
X128188979Y-101596847D01*
X128031784Y-101426087D01*
X127854180Y-101287853D01*
X127813368Y-101231143D01*
X127809693Y-101161370D01*
X127844324Y-101100687D01*
X127854181Y-101092146D01*
X128031784Y-100953913D01*
X128188979Y-100783153D01*
X128315924Y-100588849D01*
X128409157Y-100376300D01*
X128466134Y-100151305D01*
X128466947Y-100141496D01*
X128485300Y-99920006D01*
X128485300Y-99919993D01*
X128466135Y-99688702D01*
X128466131Y-99688682D01*
X128412004Y-99474941D01*
X128414628Y-99405120D01*
X128454584Y-99347803D01*
X128519185Y-99321186D01*
X128532209Y-99320500D01*
X131857257Y-99320500D01*
X131872877Y-99322224D01*
X131872904Y-99321939D01*
X131880660Y-99322671D01*
X131880667Y-99322673D01*
X131947873Y-99320561D01*
X131951768Y-99320500D01*
X131979346Y-99320500D01*
X131979350Y-99320500D01*
X131983324Y-99319997D01*
X131994963Y-99319080D01*
X132038627Y-99317709D01*
X132057869Y-99312117D01*
X132076912Y-99308174D01*
X132096792Y-99305664D01*
X132137401Y-99289585D01*
X132148444Y-99285803D01*
X132190390Y-99273618D01*
X132207629Y-99263422D01*
X132225103Y-99254862D01*
X132243727Y-99247488D01*
X132243727Y-99247487D01*
X132243732Y-99247486D01*
X132279083Y-99221800D01*
X132288814Y-99215408D01*
X132326420Y-99193170D01*
X132340589Y-99178999D01*
X132355379Y-99166368D01*
X132371587Y-99154594D01*
X132399438Y-99120926D01*
X132407279Y-99112309D01*
X133025179Y-98494410D01*
X133086500Y-98460927D01*
X133144947Y-98462317D01*
X133213308Y-98480635D01*
X133370780Y-98494412D01*
X133439998Y-98500468D01*
X133440000Y-98500468D01*
X133440002Y-98500468D01*
X133509220Y-98494412D01*
X133666692Y-98480635D01*
X133886496Y-98421739D01*
X134092734Y-98325568D01*
X134279139Y-98195047D01*
X134440047Y-98034139D01*
X134570568Y-97847734D01*
X134666739Y-97641496D01*
X134725635Y-97421692D01*
X134745468Y-97195000D01*
X134741416Y-97148691D01*
X134725635Y-96968313D01*
X134725635Y-96968308D01*
X134666739Y-96748504D01*
X134570568Y-96542266D01*
X134440047Y-96355861D01*
X134440045Y-96355858D01*
X134279141Y-96194954D01*
X134092734Y-96064432D01*
X134092732Y-96064431D01*
X133886497Y-95968261D01*
X133886488Y-95968258D01*
X133666697Y-95909366D01*
X133666693Y-95909365D01*
X133666692Y-95909365D01*
X133666691Y-95909364D01*
X133666686Y-95909364D01*
X133440002Y-95889532D01*
X133439998Y-95889532D01*
X133213313Y-95909364D01*
X133213302Y-95909366D01*
X133014695Y-95962582D01*
X132944845Y-95960919D01*
X132886983Y-95921756D01*
X132859479Y-95857527D01*
X132859074Y-95853614D01*
X132852337Y-95776611D01*
X132852337Y-95776606D01*
X132793441Y-95556802D01*
X132697270Y-95350564D01*
X132566749Y-95164159D01*
X132566747Y-95164156D01*
X132405843Y-95003252D01*
X132219436Y-94872730D01*
X132219434Y-94872729D01*
X132013199Y-94776559D01*
X132013190Y-94776556D01*
X131793399Y-94717664D01*
X131793395Y-94717663D01*
X131793394Y-94717663D01*
X131793393Y-94717662D01*
X131793388Y-94717662D01*
X131566704Y-94697830D01*
X131566700Y-94697830D01*
X131340015Y-94717662D01*
X131340004Y-94717664D01*
X131120213Y-94776556D01*
X131120204Y-94776559D01*
X130913969Y-94872729D01*
X130913967Y-94872730D01*
X130727560Y-95003252D01*
X130566656Y-95164156D01*
X130436133Y-95350565D01*
X130428049Y-95367903D01*
X130381877Y-95420343D01*
X130315666Y-95439500D01*
X128532209Y-95439500D01*
X128465170Y-95419815D01*
X128419415Y-95367011D01*
X128409471Y-95297853D01*
X128412004Y-95285059D01*
X128466131Y-95071317D01*
X128466133Y-95071308D01*
X128466134Y-95071305D01*
X128467411Y-95055896D01*
X128485300Y-94840006D01*
X128485300Y-94839993D01*
X128466135Y-94608702D01*
X128466133Y-94608691D01*
X128409157Y-94383699D01*
X128315924Y-94171151D01*
X128188983Y-93976852D01*
X128188980Y-93976849D01*
X128188979Y-93976847D01*
X128031784Y-93806087D01*
X127854180Y-93667853D01*
X127813368Y-93611143D01*
X127809693Y-93541370D01*
X127844324Y-93480687D01*
X127854181Y-93472146D01*
X127862761Y-93465468D01*
X128031784Y-93333913D01*
X128188979Y-93163153D01*
X128315924Y-92968849D01*
X128409157Y-92756300D01*
X128466134Y-92531305D01*
X128472218Y-92457886D01*
X128485300Y-92300006D01*
X128485300Y-92299993D01*
X128473700Y-92160001D01*
X139604532Y-92160001D01*
X139624364Y-92386686D01*
X139624366Y-92386697D01*
X139683258Y-92606488D01*
X139683261Y-92606497D01*
X139779431Y-92812732D01*
X139779432Y-92812734D01*
X139909954Y-92999141D01*
X140070858Y-93160045D01*
X140070861Y-93160047D01*
X140257266Y-93290568D01*
X140463504Y-93386739D01*
X140683308Y-93445635D01*
X140845230Y-93459801D01*
X140909998Y-93465468D01*
X140910000Y-93465468D01*
X140910002Y-93465468D01*
X140966673Y-93460509D01*
X141136692Y-93445635D01*
X141356496Y-93386739D01*
X141562734Y-93290568D01*
X141749139Y-93160047D01*
X141857368Y-93051817D01*
X141918689Y-93018334D01*
X141945048Y-93015500D01*
X149549236Y-93015500D01*
X149616275Y-93035185D01*
X149662030Y-93087989D01*
X149665418Y-93096167D01*
X149716202Y-93232328D01*
X149716206Y-93232335D01*
X149802452Y-93347544D01*
X149802455Y-93347547D01*
X149917664Y-93433793D01*
X149917671Y-93433797D01*
X150052517Y-93484091D01*
X150052516Y-93484091D01*
X150059444Y-93484835D01*
X150112127Y-93490500D01*
X151907872Y-93490499D01*
X151967483Y-93484091D01*
X152102331Y-93433796D01*
X152217546Y-93347546D01*
X152303796Y-93232331D01*
X152354091Y-93097483D01*
X152360500Y-93037873D01*
X152360499Y-91242128D01*
X152355299Y-91193757D01*
X152354091Y-91182516D01*
X152303797Y-91047671D01*
X152303793Y-91047664D01*
X152217547Y-90932455D01*
X152217544Y-90932452D01*
X152102335Y-90846206D01*
X152102328Y-90846202D01*
X151967482Y-90795908D01*
X151967483Y-90795908D01*
X151907883Y-90789501D01*
X151907881Y-90789500D01*
X151907873Y-90789500D01*
X151907864Y-90789500D01*
X150112129Y-90789500D01*
X150112123Y-90789501D01*
X150052516Y-90795908D01*
X149917671Y-90846202D01*
X149917664Y-90846206D01*
X149802455Y-90932452D01*
X149802452Y-90932455D01*
X149716206Y-91047664D01*
X149716202Y-91047671D01*
X149665418Y-91183833D01*
X149623547Y-91239767D01*
X149558083Y-91264184D01*
X149549236Y-91264500D01*
X141905048Y-91264500D01*
X141838009Y-91244815D01*
X141817371Y-91228185D01*
X141749139Y-91159953D01*
X141749138Y-91159952D01*
X141749137Y-91159951D01*
X141562734Y-91029432D01*
X141562732Y-91029431D01*
X141356497Y-90933261D01*
X141356488Y-90933258D01*
X141136697Y-90874366D01*
X141136693Y-90874365D01*
X141136692Y-90874365D01*
X141136691Y-90874364D01*
X141136686Y-90874364D01*
X140910002Y-90854532D01*
X140909998Y-90854532D01*
X140683313Y-90874364D01*
X140683302Y-90874366D01*
X140463511Y-90933258D01*
X140463502Y-90933261D01*
X140257267Y-91029431D01*
X140257265Y-91029432D01*
X140070858Y-91159954D01*
X139909954Y-91320858D01*
X139779432Y-91507265D01*
X139779431Y-91507267D01*
X139683261Y-91713502D01*
X139683258Y-91713511D01*
X139624366Y-91933302D01*
X139624364Y-91933313D01*
X139604532Y-92159998D01*
X139604532Y-92160001D01*
X128473700Y-92160001D01*
X128466135Y-92068702D01*
X128466133Y-92068691D01*
X128409157Y-91843699D01*
X128315924Y-91631151D01*
X128188983Y-91436852D01*
X128188980Y-91436849D01*
X128188979Y-91436847D01*
X128031784Y-91266087D01*
X128031779Y-91266083D01*
X128031777Y-91266081D01*
X127848634Y-91123535D01*
X127848628Y-91123531D01*
X127644504Y-91013064D01*
X127644495Y-91013061D01*
X127424984Y-90937702D01*
X127253282Y-90909050D01*
X127196049Y-90899500D01*
X126963951Y-90899500D01*
X126918164Y-90907140D01*
X126735015Y-90937702D01*
X126515504Y-91013061D01*
X126515495Y-91013064D01*
X126311371Y-91123531D01*
X126311365Y-91123535D01*
X126128222Y-91266081D01*
X126128218Y-91266085D01*
X126063476Y-91336413D01*
X126003589Y-91372403D01*
X125933751Y-91370302D01*
X125876135Y-91330777D01*
X125866712Y-91317531D01*
X125782712Y-91181344D01*
X125658656Y-91057288D01*
X125565888Y-91000069D01*
X125509336Y-90965187D01*
X125509331Y-90965185D01*
X125507862Y-90964698D01*
X125342797Y-90910001D01*
X125342795Y-90910000D01*
X125240010Y-90899500D01*
X123839998Y-90899500D01*
X123839981Y-90899501D01*
X123737203Y-90910000D01*
X123737200Y-90910001D01*
X123570668Y-90965185D01*
X123570663Y-90965187D01*
X123421342Y-91057289D01*
X123297289Y-91181342D01*
X123205185Y-91330667D01*
X123202256Y-91339507D01*
X123162482Y-91396951D01*
X123097965Y-91423772D01*
X123084551Y-91424500D01*
X120115049Y-91424500D01*
X120048010Y-91404815D01*
X120027368Y-91388181D01*
X119999141Y-91359954D01*
X119812734Y-91229432D01*
X119812732Y-91229431D01*
X119606497Y-91133261D01*
X119606488Y-91133258D01*
X119386697Y-91074366D01*
X119386693Y-91074365D01*
X119386692Y-91074365D01*
X119386691Y-91074364D01*
X119386686Y-91074364D01*
X119160002Y-91054532D01*
X119159998Y-91054532D01*
X118933313Y-91074364D01*
X118933302Y-91074366D01*
X118713511Y-91133258D01*
X118713502Y-91133261D01*
X118507267Y-91229431D01*
X118507265Y-91229432D01*
X118320858Y-91359954D01*
X118159954Y-91520858D01*
X118029432Y-91707265D01*
X118029431Y-91707267D01*
X117933261Y-91913502D01*
X117933258Y-91913511D01*
X117874366Y-92133302D01*
X117874364Y-92133313D01*
X117854532Y-92359998D01*
X117854532Y-92360001D01*
X117874364Y-92586686D01*
X117874366Y-92586697D01*
X117933258Y-92806488D01*
X117933261Y-92806497D01*
X118029431Y-93012732D01*
X118029432Y-93012734D01*
X118159954Y-93199141D01*
X118320858Y-93360045D01*
X118332036Y-93367872D01*
X118507266Y-93490568D01*
X118713504Y-93586739D01*
X118933308Y-93645635D01*
X119089648Y-93659313D01*
X119159998Y-93665468D01*
X119160000Y-93665468D01*
X119160002Y-93665468D01*
X119216673Y-93660509D01*
X119386692Y-93645635D01*
X119606496Y-93586739D01*
X119812734Y-93490568D01*
X119999139Y-93360047D01*
X120068619Y-93290567D01*
X120147368Y-93211819D01*
X120208691Y-93178334D01*
X120235049Y-93175500D01*
X123084551Y-93175500D01*
X123151590Y-93195185D01*
X123197345Y-93247989D01*
X123202256Y-93260493D01*
X123204593Y-93267546D01*
X123205186Y-93269334D01*
X123297287Y-93418655D01*
X123297289Y-93418657D01*
X123421344Y-93542712D01*
X123554476Y-93624828D01*
X123601201Y-93676776D01*
X123612424Y-93745738D01*
X123584580Y-93809821D01*
X123580621Y-93814336D01*
X123534483Y-93864457D01*
X123431016Y-93976852D01*
X123304075Y-94171151D01*
X123210842Y-94383699D01*
X123153866Y-94608691D01*
X123153864Y-94608702D01*
X123134700Y-94839993D01*
X123134700Y-94840006D01*
X123153864Y-95071297D01*
X123153866Y-95071308D01*
X123210842Y-95296300D01*
X123304075Y-95508848D01*
X123431016Y-95703147D01*
X123431019Y-95703151D01*
X123431021Y-95703153D01*
X123588216Y-95873913D01*
X123588219Y-95873915D01*
X123588222Y-95873918D01*
X123765818Y-96012147D01*
X123806631Y-96068857D01*
X123810306Y-96138630D01*
X123775674Y-96199313D01*
X123765818Y-96207853D01*
X123588222Y-96346081D01*
X123588219Y-96346084D01*
X123588216Y-96346086D01*
X123588216Y-96346087D01*
X123559535Y-96377243D01*
X123431016Y-96516852D01*
X123304075Y-96711151D01*
X123210842Y-96923699D01*
X123153866Y-97148691D01*
X123153864Y-97148702D01*
X123134700Y-97379993D01*
X123134700Y-97380006D01*
X123153864Y-97611297D01*
X123153866Y-97611308D01*
X123210842Y-97836300D01*
X123304075Y-98048848D01*
X123431016Y-98243147D01*
X123431019Y-98243151D01*
X123431021Y-98243153D01*
X123588216Y-98413913D01*
X123588219Y-98413915D01*
X123588222Y-98413918D01*
X123765818Y-98552147D01*
X123806631Y-98608857D01*
X123810306Y-98678630D01*
X123775674Y-98739313D01*
X123765818Y-98747853D01*
X123588222Y-98886081D01*
X123588219Y-98886084D01*
X123431016Y-99056852D01*
X123304075Y-99251151D01*
X123210842Y-99463699D01*
X123153866Y-99688691D01*
X123153864Y-99688702D01*
X123134700Y-99919993D01*
X123134700Y-99920006D01*
X123153864Y-100151297D01*
X123153866Y-100151308D01*
X123210842Y-100376300D01*
X123304075Y-100588848D01*
X123431016Y-100783147D01*
X123431019Y-100783151D01*
X123431021Y-100783153D01*
X123562997Y-100926518D01*
X123593919Y-100989172D01*
X123586059Y-101058598D01*
X123541911Y-101112753D01*
X123475494Y-101134444D01*
X123471767Y-101134500D01*
X116514499Y-101134500D01*
X116447460Y-101114815D01*
X116401705Y-101062011D01*
X116390499Y-101010500D01*
X116390499Y-100862129D01*
X116390498Y-100862123D01*
X116390497Y-100862116D01*
X116384091Y-100802517D01*
X116381737Y-100796206D01*
X116333797Y-100667671D01*
X116333793Y-100667664D01*
X116247547Y-100552455D01*
X116247544Y-100552452D01*
X116132335Y-100466206D01*
X116132328Y-100466202D01*
X115997482Y-100415908D01*
X115997483Y-100415908D01*
X115937883Y-100409501D01*
X115937881Y-100409500D01*
X115937873Y-100409500D01*
X115937864Y-100409500D01*
X114142129Y-100409500D01*
X114142123Y-100409501D01*
X114082516Y-100415908D01*
X113947671Y-100466202D01*
X113947664Y-100466206D01*
X113832455Y-100552452D01*
X113832452Y-100552455D01*
X113746206Y-100667664D01*
X113746202Y-100667671D01*
X113695908Y-100802517D01*
X113689501Y-100862116D01*
X113689501Y-100862123D01*
X113689500Y-100862135D01*
X113689500Y-102657870D01*
X113689501Y-102657876D01*
X113695908Y-102717483D01*
X113746202Y-102852328D01*
X113746206Y-102852335D01*
X113832452Y-102967544D01*
X113832455Y-102967547D01*
X113947664Y-103053793D01*
X113947671Y-103053797D01*
X114082517Y-103104091D01*
X114082516Y-103104091D01*
X114089444Y-103104835D01*
X114142127Y-103110500D01*
X115937872Y-103110499D01*
X115997483Y-103104091D01*
X116132331Y-103053796D01*
X116247546Y-102967546D01*
X116333796Y-102852331D01*
X116384091Y-102717483D01*
X116390500Y-102657873D01*
X116390500Y-102509500D01*
X116410185Y-102442461D01*
X116462989Y-102396706D01*
X116514500Y-102385500D01*
X123014377Y-102385500D01*
X123081416Y-102405185D01*
X123127171Y-102457989D01*
X123137952Y-102499256D01*
X123138802Y-102509500D01*
X123153866Y-102691308D01*
X123210842Y-102916300D01*
X123304075Y-103128848D01*
X123431016Y-103323147D01*
X123431019Y-103323150D01*
X123431021Y-103323153D01*
X123588216Y-103493913D01*
X123588219Y-103493915D01*
X123588222Y-103493918D01*
X123765818Y-103632147D01*
X123806631Y-103688857D01*
X123810306Y-103758630D01*
X123775674Y-103819313D01*
X123765818Y-103827853D01*
X123588222Y-103966081D01*
X123588219Y-103966084D01*
X123431016Y-104136852D01*
X123304075Y-104331151D01*
X123210842Y-104543699D01*
X123153863Y-104768702D01*
X123153495Y-104770913D01*
X123153094Y-104771739D01*
X123152607Y-104773666D01*
X123152210Y-104773565D01*
X123123043Y-104833797D01*
X123063428Y-104870235D01*
X123031187Y-104874500D01*
X116494499Y-104874500D01*
X116427460Y-104854815D01*
X116381705Y-104802011D01*
X116370499Y-104750500D01*
X116370499Y-104602129D01*
X116370498Y-104602123D01*
X116370497Y-104602116D01*
X116364091Y-104542517D01*
X116315972Y-104413504D01*
X116313797Y-104407671D01*
X116313793Y-104407664D01*
X116227547Y-104292455D01*
X116227544Y-104292452D01*
X116112335Y-104206206D01*
X116112328Y-104206202D01*
X115977482Y-104155908D01*
X115977483Y-104155908D01*
X115917883Y-104149501D01*
X115917881Y-104149500D01*
X115917873Y-104149500D01*
X115917864Y-104149500D01*
X114122129Y-104149500D01*
X114122123Y-104149501D01*
X114062516Y-104155908D01*
X113927671Y-104206202D01*
X113927664Y-104206206D01*
X113812455Y-104292452D01*
X113812452Y-104292455D01*
X113726206Y-104407664D01*
X113726202Y-104407671D01*
X113675908Y-104542517D01*
X113669501Y-104602116D01*
X113669501Y-104602123D01*
X113669500Y-104602135D01*
X113669500Y-106397870D01*
X109880500Y-106397870D01*
X109880500Y-93367870D01*
X111049500Y-93367870D01*
X111049501Y-93367876D01*
X111055908Y-93427483D01*
X111106202Y-93562328D01*
X111106206Y-93562335D01*
X111192452Y-93677544D01*
X111192455Y-93677547D01*
X111307664Y-93763793D01*
X111307671Y-93763797D01*
X111442517Y-93814091D01*
X111442516Y-93814091D01*
X111449444Y-93814835D01*
X111502127Y-93820500D01*
X113397872Y-93820499D01*
X113457483Y-93814091D01*
X113592331Y-93763796D01*
X113707546Y-93677546D01*
X113793796Y-93562331D01*
X113795025Y-93559036D01*
X113822455Y-93485493D01*
X113864326Y-93429559D01*
X113929790Y-93405141D01*
X113998063Y-93419992D01*
X114029866Y-93444843D01*
X114030594Y-93445633D01*
X114038215Y-93453912D01*
X114038222Y-93453918D01*
X114221365Y-93596464D01*
X114221371Y-93596468D01*
X114221374Y-93596470D01*
X114425497Y-93706936D01*
X114538523Y-93745738D01*
X114645015Y-93782297D01*
X114645017Y-93782297D01*
X114645019Y-93782298D01*
X114873951Y-93820500D01*
X114873952Y-93820500D01*
X115106048Y-93820500D01*
X115106049Y-93820500D01*
X115334981Y-93782298D01*
X115554503Y-93706936D01*
X115758626Y-93596470D01*
X115771129Y-93586739D01*
X115839511Y-93533515D01*
X115941784Y-93453913D01*
X116098979Y-93283153D01*
X116225924Y-93088849D01*
X116319157Y-92876300D01*
X116376134Y-92651305D01*
X116379895Y-92605915D01*
X116395300Y-92420006D01*
X116395300Y-92419993D01*
X116376135Y-92188702D01*
X116376133Y-92188691D01*
X116319157Y-91963699D01*
X116225924Y-91751151D01*
X116098983Y-91556852D01*
X116098980Y-91556849D01*
X116098979Y-91556847D01*
X115941784Y-91386087D01*
X115941779Y-91386083D01*
X115941777Y-91386081D01*
X115758634Y-91243535D01*
X115758628Y-91243531D01*
X115554504Y-91133064D01*
X115554495Y-91133061D01*
X115334984Y-91057702D01*
X115144450Y-91025908D01*
X115106049Y-91019500D01*
X114873951Y-91019500D01*
X114835550Y-91025908D01*
X114645015Y-91057702D01*
X114425504Y-91133061D01*
X114425495Y-91133064D01*
X114221371Y-91243531D01*
X114221365Y-91243535D01*
X114038222Y-91386081D01*
X114038218Y-91386085D01*
X114038216Y-91386086D01*
X114038216Y-91386087D01*
X114036289Y-91388181D01*
X114029866Y-91395158D01*
X113969979Y-91431148D01*
X113900141Y-91429047D01*
X113842525Y-91389522D01*
X113822455Y-91354507D01*
X113793797Y-91277671D01*
X113793793Y-91277664D01*
X113707547Y-91162455D01*
X113707544Y-91162452D01*
X113592335Y-91076206D01*
X113592328Y-91076202D01*
X113457482Y-91025908D01*
X113457483Y-91025908D01*
X113397883Y-91019501D01*
X113397881Y-91019500D01*
X113397873Y-91019500D01*
X113397864Y-91019500D01*
X111502129Y-91019500D01*
X111502123Y-91019501D01*
X111442516Y-91025908D01*
X111307671Y-91076202D01*
X111307664Y-91076206D01*
X111192455Y-91162452D01*
X111192452Y-91162455D01*
X111106206Y-91277664D01*
X111106202Y-91277671D01*
X111055908Y-91412517D01*
X111049501Y-91472116D01*
X111049500Y-91472135D01*
X111049500Y-93367870D01*
X109880500Y-93367870D01*
X109880500Y-89157844D01*
X153020000Y-89157844D01*
X153026401Y-89217372D01*
X153026403Y-89217379D01*
X153076645Y-89352086D01*
X153076649Y-89352093D01*
X153162809Y-89467187D01*
X153162812Y-89467190D01*
X153277906Y-89553350D01*
X153277913Y-89553354D01*
X153412620Y-89603596D01*
X153412627Y-89603598D01*
X153472155Y-89609999D01*
X153472172Y-89610000D01*
X154120000Y-89610000D01*
X154120000Y-88695501D01*
X154227685Y-88744680D01*
X154334237Y-88760000D01*
X154405763Y-88760000D01*
X154512315Y-88744680D01*
X154620000Y-88695501D01*
X154620000Y-89610000D01*
X155267828Y-89610000D01*
X155267844Y-89609999D01*
X155327372Y-89603598D01*
X155327379Y-89603596D01*
X155462086Y-89553354D01*
X155462093Y-89553350D01*
X155577187Y-89467190D01*
X155577190Y-89467187D01*
X155663350Y-89352093D01*
X155663354Y-89352086D01*
X155713596Y-89217379D01*
X155713598Y-89217372D01*
X155719999Y-89157844D01*
X155720000Y-89157827D01*
X155720000Y-88510000D01*
X154803686Y-88510000D01*
X154829493Y-88469844D01*
X154870000Y-88331889D01*
X154870000Y-88188111D01*
X154829493Y-88050156D01*
X154803686Y-88010000D01*
X155720000Y-88010000D01*
X155720000Y-87362172D01*
X155719999Y-87362155D01*
X155713598Y-87302627D01*
X155713596Y-87302620D01*
X155663354Y-87167913D01*
X155663350Y-87167906D01*
X155577190Y-87052812D01*
X155577187Y-87052809D01*
X155462093Y-86966649D01*
X155462086Y-86966645D01*
X155390660Y-86940005D01*
X163229945Y-86940005D01*
X163250130Y-87183605D01*
X163310138Y-87420573D01*
X163408330Y-87644429D01*
X163504626Y-87791819D01*
X164107452Y-87188993D01*
X164117188Y-87218956D01*
X164205186Y-87357619D01*
X164324903Y-87470040D01*
X164459510Y-87544041D01*
X163857758Y-88145794D01*
X163857758Y-88145796D01*
X163900478Y-88179046D01*
X163900484Y-88179050D01*
X164115468Y-88295394D01*
X164115476Y-88295397D01*
X164346664Y-88374765D01*
X164587779Y-88415000D01*
X164832221Y-88415000D01*
X165073335Y-88374765D01*
X165304523Y-88295397D01*
X165304531Y-88295394D01*
X165519514Y-88179051D01*
X165519514Y-88179050D01*
X165562240Y-88145795D01*
X165562240Y-88145794D01*
X164957534Y-87541086D01*
X165025629Y-87514126D01*
X165158492Y-87417595D01*
X165263175Y-87291055D01*
X165311631Y-87188078D01*
X165915372Y-87791819D01*
X166011667Y-87644431D01*
X166011672Y-87644423D01*
X166109861Y-87420573D01*
X166169869Y-87183605D01*
X166190055Y-86940005D01*
X166190055Y-86939994D01*
X166169869Y-86696394D01*
X166109861Y-86459426D01*
X166011669Y-86235570D01*
X165915372Y-86088179D01*
X165312546Y-86691004D01*
X165302812Y-86661044D01*
X165214814Y-86522381D01*
X165095097Y-86409960D01*
X164960488Y-86335957D01*
X165562240Y-85734204D01*
X165562240Y-85734203D01*
X165519514Y-85700949D01*
X165304531Y-85584605D01*
X165304523Y-85584602D01*
X165073335Y-85505234D01*
X164832221Y-85465000D01*
X164587779Y-85465000D01*
X164346664Y-85505234D01*
X164115476Y-85584602D01*
X164115468Y-85584605D01*
X163900481Y-85700951D01*
X163857758Y-85734202D01*
X163857757Y-85734204D01*
X164462466Y-86338912D01*
X164394371Y-86365874D01*
X164261508Y-86462405D01*
X164156825Y-86588945D01*
X164108368Y-86691921D01*
X163504626Y-86088179D01*
X163408328Y-86235575D01*
X163310138Y-86459426D01*
X163250130Y-86696394D01*
X163229945Y-86939994D01*
X163229945Y-86940005D01*
X155390660Y-86940005D01*
X155327379Y-86916403D01*
X155327372Y-86916401D01*
X155267844Y-86910000D01*
X154620000Y-86910000D01*
X154620000Y-87824498D01*
X154512315Y-87775320D01*
X154405763Y-87760000D01*
X154334237Y-87760000D01*
X154227685Y-87775320D01*
X154120000Y-87824498D01*
X154120000Y-86910000D01*
X153472155Y-86910000D01*
X153412627Y-86916401D01*
X153412620Y-86916403D01*
X153277913Y-86966645D01*
X153277906Y-86966649D01*
X153162812Y-87052809D01*
X153162809Y-87052812D01*
X153076649Y-87167906D01*
X153076645Y-87167913D01*
X153026403Y-87302620D01*
X153026401Y-87302627D01*
X153020000Y-87362155D01*
X153020000Y-88010000D01*
X153936314Y-88010000D01*
X153910507Y-88050156D01*
X153870000Y-88188111D01*
X153870000Y-88331889D01*
X153910507Y-88469844D01*
X153936314Y-88510000D01*
X153020000Y-88510000D01*
X153020000Y-89157844D01*
X109880500Y-89157844D01*
X109880500Y-84860001D01*
X133334532Y-84860001D01*
X133354364Y-85086686D01*
X133354366Y-85086697D01*
X133413258Y-85306488D01*
X133413261Y-85306497D01*
X133509431Y-85512732D01*
X133509432Y-85512734D01*
X133639954Y-85699141D01*
X133800858Y-85860045D01*
X133800861Y-85860047D01*
X133987266Y-85990568D01*
X134193504Y-86086739D01*
X134413308Y-86145635D01*
X134575230Y-86159801D01*
X134639998Y-86165468D01*
X134640000Y-86165468D01*
X134640002Y-86165468D01*
X134696673Y-86160509D01*
X134866692Y-86145635D01*
X135086496Y-86086739D01*
X135292734Y-85990568D01*
X135479139Y-85860047D01*
X135640047Y-85699139D01*
X135770568Y-85512734D01*
X135866739Y-85306496D01*
X135925635Y-85086692D01*
X135945468Y-84860000D01*
X135945091Y-84855695D01*
X135958856Y-84787196D01*
X135980935Y-84757207D01*
X137177206Y-83560936D01*
X137238527Y-83527453D01*
X137275693Y-83525091D01*
X137280000Y-83525468D01*
X137506692Y-83505635D01*
X137726496Y-83446739D01*
X137932734Y-83350568D01*
X138119139Y-83220047D01*
X138280047Y-83059139D01*
X138410568Y-82872734D01*
X138506739Y-82666496D01*
X138565635Y-82446692D01*
X138585468Y-82220000D01*
X138565635Y-81993308D01*
X138506739Y-81773504D01*
X138410568Y-81567266D01*
X138307452Y-81420000D01*
X147339659Y-81420000D01*
X147358975Y-81616129D01*
X147373603Y-81664349D01*
X147413494Y-81795854D01*
X147416188Y-81804733D01*
X147509086Y-81978532D01*
X147509090Y-81978539D01*
X147634116Y-82130883D01*
X147786460Y-82255909D01*
X147786467Y-82255913D01*
X147960266Y-82348811D01*
X147960269Y-82348811D01*
X147960273Y-82348814D01*
X148148868Y-82406024D01*
X148345000Y-82425341D01*
X148541132Y-82406024D01*
X148729727Y-82348814D01*
X148731853Y-82347677D01*
X148733095Y-82347418D01*
X148735355Y-82346483D01*
X148735532Y-82346911D01*
X148800254Y-82333435D01*
X148864615Y-82357767D01*
X148872669Y-82363796D01*
X148950157Y-82392697D01*
X149007517Y-82414091D01*
X149007516Y-82414091D01*
X149014444Y-82414835D01*
X149067127Y-82420500D01*
X150162872Y-82420499D01*
X150222483Y-82414091D01*
X150357331Y-82363796D01*
X150472546Y-82277546D01*
X150558796Y-82162331D01*
X150609091Y-82027483D01*
X150615500Y-81967873D01*
X150615499Y-80872128D01*
X150609091Y-80812517D01*
X150601086Y-80791055D01*
X150558797Y-80677671D01*
X150558793Y-80677664D01*
X150472547Y-80562455D01*
X150472544Y-80562452D01*
X150357335Y-80476206D01*
X150357328Y-80476202D01*
X150260278Y-80440005D01*
X163229443Y-80440005D01*
X163249634Y-80683683D01*
X163249636Y-80683695D01*
X163309663Y-80920734D01*
X163407888Y-81144666D01*
X163541632Y-81349378D01*
X163707242Y-81529277D01*
X163707252Y-81529286D01*
X163899670Y-81679051D01*
X163900212Y-81679473D01*
X164115267Y-81795855D01*
X164115270Y-81795856D01*
X164346541Y-81875251D01*
X164346543Y-81875251D01*
X164346545Y-81875252D01*
X164587737Y-81915500D01*
X164587738Y-81915500D01*
X164832262Y-81915500D01*
X164832263Y-81915500D01*
X165073455Y-81875252D01*
X165304733Y-81795855D01*
X165519788Y-81679473D01*
X165712754Y-81529281D01*
X165878368Y-81349377D01*
X166012111Y-81144667D01*
X166110336Y-80920736D01*
X166170364Y-80683692D01*
X166170371Y-80683605D01*
X166190557Y-80440005D01*
X167729945Y-80440005D01*
X167750130Y-80683605D01*
X167810138Y-80920573D01*
X167908330Y-81144429D01*
X168004626Y-81291819D01*
X168607452Y-80688993D01*
X168617188Y-80718956D01*
X168705186Y-80857619D01*
X168824903Y-80970040D01*
X168959510Y-81044041D01*
X168357758Y-81645794D01*
X168357758Y-81645796D01*
X168400478Y-81679046D01*
X168400484Y-81679050D01*
X168615468Y-81795394D01*
X168615476Y-81795397D01*
X168846664Y-81874765D01*
X169087779Y-81915000D01*
X169332221Y-81915000D01*
X169573335Y-81874765D01*
X169804523Y-81795397D01*
X169804531Y-81795394D01*
X170019514Y-81679051D01*
X170019514Y-81679050D01*
X170062240Y-81645795D01*
X170062240Y-81645794D01*
X169457534Y-81041086D01*
X169525629Y-81014126D01*
X169658492Y-80917595D01*
X169763175Y-80791055D01*
X169811631Y-80688078D01*
X170415372Y-81291819D01*
X170511667Y-81144431D01*
X170511672Y-81144423D01*
X170609861Y-80920573D01*
X170669869Y-80683605D01*
X170690055Y-80440005D01*
X170690055Y-80439994D01*
X170669869Y-80196394D01*
X170609861Y-79959426D01*
X170511669Y-79735570D01*
X170415372Y-79588179D01*
X169812546Y-80191004D01*
X169802812Y-80161044D01*
X169714814Y-80022381D01*
X169595097Y-79909960D01*
X169460488Y-79835957D01*
X170062240Y-79234204D01*
X170059135Y-79184196D01*
X170074628Y-79116065D01*
X170124494Y-79067126D01*
X170164411Y-79053897D01*
X170339458Y-79027513D01*
X170583004Y-78952389D01*
X170812634Y-78841805D01*
X171023217Y-78698232D01*
X171210050Y-78524877D01*
X171368959Y-78325612D01*
X171496393Y-78104888D01*
X171589508Y-77867637D01*
X171646222Y-77619157D01*
X171665268Y-77365004D01*
X178254732Y-77365004D01*
X178273777Y-77619154D01*
X178273778Y-77619157D01*
X178330492Y-77867637D01*
X178423607Y-78104888D01*
X178551041Y-78325612D01*
X178709950Y-78524877D01*
X178896783Y-78698232D01*
X179107366Y-78841805D01*
X179107371Y-78841807D01*
X179107372Y-78841808D01*
X179107373Y-78841809D01*
X179229328Y-78900538D01*
X179336992Y-78952387D01*
X179336993Y-78952387D01*
X179336996Y-78952389D01*
X179580542Y-79027513D01*
X179832565Y-79065500D01*
X180087435Y-79065500D01*
X180339458Y-79027513D01*
X180583004Y-78952389D01*
X180812634Y-78841805D01*
X181023217Y-78698232D01*
X181210050Y-78524877D01*
X181368959Y-78325612D01*
X181496393Y-78104888D01*
X181589508Y-77867637D01*
X181646222Y-77619157D01*
X181665268Y-77365000D01*
X181646222Y-77110843D01*
X181589508Y-76862363D01*
X181496393Y-76625112D01*
X181368959Y-76404388D01*
X181210050Y-76205123D01*
X181023217Y-76031768D01*
X180812634Y-75888195D01*
X180812630Y-75888193D01*
X180812627Y-75888191D01*
X180812626Y-75888190D01*
X180583006Y-75777612D01*
X180583008Y-75777612D01*
X180339466Y-75702489D01*
X180339462Y-75702488D01*
X180339458Y-75702487D01*
X180218231Y-75684214D01*
X180087440Y-75664500D01*
X180087435Y-75664500D01*
X179832565Y-75664500D01*
X179832559Y-75664500D01*
X179675609Y-75688157D01*
X179580542Y-75702487D01*
X179580539Y-75702488D01*
X179580533Y-75702489D01*
X179336992Y-75777612D01*
X179107373Y-75888190D01*
X179107372Y-75888191D01*
X178896782Y-76031768D01*
X178709952Y-76205121D01*
X178709950Y-76205123D01*
X178551041Y-76404388D01*
X178423608Y-76625109D01*
X178330492Y-76862362D01*
X178330490Y-76862369D01*
X178273777Y-77110845D01*
X178254732Y-77364995D01*
X178254732Y-77365004D01*
X171665268Y-77365004D01*
X171665268Y-77365000D01*
X171646222Y-77110843D01*
X171589508Y-76862363D01*
X171496393Y-76625112D01*
X171368959Y-76404388D01*
X171210050Y-76205123D01*
X171023217Y-76031768D01*
X170812634Y-75888195D01*
X170812630Y-75888193D01*
X170812627Y-75888191D01*
X170812626Y-75888190D01*
X170583006Y-75777612D01*
X170583008Y-75777612D01*
X170339466Y-75702489D01*
X170339462Y-75702488D01*
X170339458Y-75702487D01*
X170218231Y-75684214D01*
X170087440Y-75664500D01*
X170087435Y-75664500D01*
X169832565Y-75664500D01*
X169832559Y-75664500D01*
X169675609Y-75688157D01*
X169580542Y-75702487D01*
X169580539Y-75702488D01*
X169580533Y-75702489D01*
X169336992Y-75777612D01*
X169107373Y-75888190D01*
X169107372Y-75888191D01*
X168896782Y-76031768D01*
X168709952Y-76205121D01*
X168709950Y-76205123D01*
X168551041Y-76404388D01*
X168423608Y-76625109D01*
X168330492Y-76862362D01*
X168330490Y-76862369D01*
X168273777Y-77110845D01*
X168254732Y-77364995D01*
X168254732Y-77365004D01*
X168273777Y-77619154D01*
X168273778Y-77619157D01*
X168330492Y-77867637D01*
X168423607Y-78104888D01*
X168551041Y-78325612D01*
X168709950Y-78524877D01*
X168896783Y-78698232D01*
X168993557Y-78764211D01*
X169037858Y-78818239D01*
X169045917Y-78887643D01*
X169015174Y-78950385D01*
X168955390Y-78986547D01*
X168944114Y-78988973D01*
X168846664Y-79005234D01*
X168615476Y-79084602D01*
X168615468Y-79084605D01*
X168400481Y-79200951D01*
X168357758Y-79234202D01*
X168357757Y-79234204D01*
X168962466Y-79838912D01*
X168894371Y-79865874D01*
X168761508Y-79962405D01*
X168656825Y-80088945D01*
X168608368Y-80191921D01*
X168004626Y-79588179D01*
X167908328Y-79735575D01*
X167810138Y-79959426D01*
X167750130Y-80196394D01*
X167729945Y-80439994D01*
X167729945Y-80440005D01*
X166190557Y-80440005D01*
X166190557Y-80439994D01*
X166170365Y-80196316D01*
X166170363Y-80196304D01*
X166161434Y-80161044D01*
X166110336Y-79959264D01*
X166012111Y-79735333D01*
X165878368Y-79530623D01*
X165878367Y-79530621D01*
X165712757Y-79350722D01*
X165712747Y-79350713D01*
X165519791Y-79200529D01*
X165519787Y-79200526D01*
X165304734Y-79084145D01*
X165304729Y-79084143D01*
X165073458Y-79004748D01*
X164892561Y-78974562D01*
X164832263Y-78964500D01*
X164587737Y-78964500D01*
X164539498Y-78972549D01*
X164346541Y-79004748D01*
X164115270Y-79084143D01*
X164115265Y-79084145D01*
X163900212Y-79200526D01*
X163900208Y-79200529D01*
X163707252Y-79350713D01*
X163707242Y-79350722D01*
X163541632Y-79530621D01*
X163407888Y-79735333D01*
X163309663Y-79959265D01*
X163249636Y-80196304D01*
X163249634Y-80196316D01*
X163229443Y-80439994D01*
X163229443Y-80440005D01*
X150260278Y-80440005D01*
X150222482Y-80425908D01*
X150222483Y-80425908D01*
X150162883Y-80419501D01*
X150162881Y-80419500D01*
X150162873Y-80419500D01*
X150162864Y-80419500D01*
X149067129Y-80419500D01*
X149067123Y-80419501D01*
X149007516Y-80425908D01*
X148872671Y-80476202D01*
X148872666Y-80476205D01*
X148864614Y-80482233D01*
X148799149Y-80506648D01*
X148735530Y-80493104D01*
X148735359Y-80493518D01*
X148733123Y-80492592D01*
X148731850Y-80492321D01*
X148729729Y-80491187D01*
X148729728Y-80491186D01*
X148729727Y-80491186D01*
X148541132Y-80433976D01*
X148541129Y-80433975D01*
X148345000Y-80414659D01*
X148148870Y-80433975D01*
X147960266Y-80491188D01*
X147786467Y-80584086D01*
X147786460Y-80584090D01*
X147634116Y-80709116D01*
X147509090Y-80861460D01*
X147509086Y-80861467D01*
X147416188Y-81035266D01*
X147358975Y-81223870D01*
X147339659Y-81420000D01*
X138307452Y-81420000D01*
X138280047Y-81380861D01*
X138280045Y-81380858D01*
X138119141Y-81219954D01*
X137932734Y-81089432D01*
X137932732Y-81089431D01*
X137726497Y-80993261D01*
X137726488Y-80993258D01*
X137506697Y-80934366D01*
X137506693Y-80934365D01*
X137506692Y-80934365D01*
X137506691Y-80934364D01*
X137506686Y-80934364D01*
X137280002Y-80914532D01*
X137279998Y-80914532D01*
X137053313Y-80934364D01*
X137053302Y-80934366D01*
X136833511Y-80993258D01*
X136833502Y-80993261D01*
X136627267Y-81089431D01*
X136627265Y-81089432D01*
X136440858Y-81219954D01*
X136279954Y-81380858D01*
X136149432Y-81567265D01*
X136149431Y-81567267D01*
X136053261Y-81773502D01*
X136053258Y-81773511D01*
X135994366Y-81993302D01*
X135994364Y-81993313D01*
X135974532Y-82219998D01*
X135974532Y-82219999D01*
X135974909Y-82224311D01*
X135961139Y-82292810D01*
X135939061Y-82322793D01*
X134742793Y-83519061D01*
X134681470Y-83552546D01*
X134644311Y-83554909D01*
X134640000Y-83554532D01*
X134639998Y-83554532D01*
X134413313Y-83574364D01*
X134413302Y-83574366D01*
X134193511Y-83633258D01*
X134193502Y-83633261D01*
X133987267Y-83729431D01*
X133987265Y-83729432D01*
X133800858Y-83859954D01*
X133639954Y-84020858D01*
X133509432Y-84207265D01*
X133509431Y-84207267D01*
X133413261Y-84413502D01*
X133413258Y-84413511D01*
X133354366Y-84633302D01*
X133354364Y-84633313D01*
X133334532Y-84859998D01*
X133334532Y-84860001D01*
X109880500Y-84860001D01*
X109880500Y-78817870D01*
X160239500Y-78817870D01*
X160239501Y-78817876D01*
X160245908Y-78877483D01*
X160296202Y-79012328D01*
X160296206Y-79012335D01*
X160382452Y-79127544D01*
X160382455Y-79127547D01*
X160497664Y-79213793D01*
X160497671Y-79213797D01*
X160632517Y-79264091D01*
X160632516Y-79264091D01*
X160639444Y-79264835D01*
X160692127Y-79270500D01*
X162487872Y-79270499D01*
X162547483Y-79264091D01*
X162682331Y-79213796D01*
X162797546Y-79127546D01*
X162883796Y-79012331D01*
X162934091Y-78877483D01*
X162940500Y-78817873D01*
X162940499Y-77022128D01*
X162934091Y-76962517D01*
X162896738Y-76862369D01*
X162883797Y-76827671D01*
X162883793Y-76827664D01*
X162797547Y-76712455D01*
X162797544Y-76712452D01*
X162682335Y-76626206D01*
X162682328Y-76626202D01*
X162547482Y-76575908D01*
X162547483Y-76575908D01*
X162487883Y-76569501D01*
X162487881Y-76569500D01*
X162487873Y-76569500D01*
X162487864Y-76569500D01*
X160692129Y-76569500D01*
X160692123Y-76569501D01*
X160632516Y-76575908D01*
X160497671Y-76626202D01*
X160497664Y-76626206D01*
X160382455Y-76712452D01*
X160382452Y-76712455D01*
X160296206Y-76827664D01*
X160296202Y-76827671D01*
X160245908Y-76962517D01*
X160239501Y-77022116D01*
X160239501Y-77022123D01*
X160239500Y-77022135D01*
X160239500Y-78817870D01*
X109880500Y-78817870D01*
X109880500Y-72920007D01*
X154824671Y-72920007D01*
X154843964Y-73214363D01*
X154843965Y-73214373D01*
X154843966Y-73214380D01*
X154886432Y-73427876D01*
X154901518Y-73503716D01*
X154901521Y-73503730D01*
X154996349Y-73783080D01*
X155126825Y-74047660D01*
X155126829Y-74047667D01*
X155290725Y-74292955D01*
X155485241Y-74514758D01*
X155707043Y-74709273D01*
X155952335Y-74873172D01*
X156216923Y-75003652D01*
X156496278Y-75098481D01*
X156785620Y-75156034D01*
X156813888Y-75157886D01*
X157079993Y-75175329D01*
X157080000Y-75175329D01*
X157080007Y-75175329D01*
X157315675Y-75159881D01*
X157374380Y-75156034D01*
X157663722Y-75098481D01*
X157943077Y-75003652D01*
X158207665Y-74873172D01*
X158452957Y-74709273D01*
X158674758Y-74514758D01*
X158869273Y-74292957D01*
X159033172Y-74047665D01*
X159163652Y-73783077D01*
X159258481Y-73503722D01*
X159273569Y-73427870D01*
X185709500Y-73427870D01*
X185709501Y-73427876D01*
X185715908Y-73487483D01*
X185766202Y-73622328D01*
X185766206Y-73622335D01*
X185852452Y-73737544D01*
X185852455Y-73737547D01*
X185967664Y-73823793D01*
X185967671Y-73823797D01*
X186102517Y-73874091D01*
X186102516Y-73874091D01*
X186109444Y-73874835D01*
X186162127Y-73880500D01*
X187957872Y-73880499D01*
X188017483Y-73874091D01*
X188152331Y-73823796D01*
X188267546Y-73737546D01*
X188353796Y-73622331D01*
X188404091Y-73487483D01*
X188410500Y-73427873D01*
X188410499Y-71632128D01*
X188404091Y-71572517D01*
X188399422Y-71560000D01*
X188353797Y-71437671D01*
X188353793Y-71437664D01*
X188267547Y-71322455D01*
X188267544Y-71322452D01*
X188152335Y-71236206D01*
X188152328Y-71236202D01*
X188017482Y-71185908D01*
X188017483Y-71185908D01*
X187957883Y-71179501D01*
X187957881Y-71179500D01*
X187957873Y-71179500D01*
X187957864Y-71179500D01*
X186162129Y-71179500D01*
X186162123Y-71179501D01*
X186102516Y-71185908D01*
X185967671Y-71236202D01*
X185967664Y-71236206D01*
X185852455Y-71322452D01*
X185852452Y-71322455D01*
X185766206Y-71437664D01*
X185766202Y-71437671D01*
X185715908Y-71572517D01*
X185709675Y-71630499D01*
X185709501Y-71632123D01*
X185709500Y-71632135D01*
X185709500Y-73427870D01*
X159273569Y-73427870D01*
X159316034Y-73214380D01*
X159335329Y-72920000D01*
X159335329Y-72919992D01*
X159316035Y-72625636D01*
X159316034Y-72625620D01*
X159258481Y-72336278D01*
X159163652Y-72056923D01*
X159033172Y-71792336D01*
X158996780Y-71737872D01*
X158926125Y-71632129D01*
X158869273Y-71547043D01*
X158814292Y-71484349D01*
X158674758Y-71325241D01*
X158452955Y-71130725D01*
X158272285Y-71010005D01*
X159894859Y-71010005D01*
X159915385Y-71257729D01*
X159915387Y-71257738D01*
X159976412Y-71498717D01*
X160076266Y-71726364D01*
X160176564Y-71879882D01*
X160874070Y-71182376D01*
X160876884Y-71195915D01*
X160946442Y-71330156D01*
X161049638Y-71440652D01*
X161178819Y-71519209D01*
X161230002Y-71533549D01*
X160529942Y-72233609D01*
X160576768Y-72270055D01*
X160576770Y-72270056D01*
X160795385Y-72388364D01*
X160795396Y-72388369D01*
X161030506Y-72469083D01*
X161275707Y-72510000D01*
X161524293Y-72510000D01*
X161769493Y-72469083D01*
X162004603Y-72388369D01*
X162004614Y-72388364D01*
X162223228Y-72270057D01*
X162223231Y-72270055D01*
X162270056Y-72233609D01*
X161571568Y-71535121D01*
X161688458Y-71484349D01*
X161805739Y-71388934D01*
X161892928Y-71265415D01*
X161923354Y-71179802D01*
X162623434Y-71879882D01*
X162723731Y-71726369D01*
X162823587Y-71498717D01*
X162884612Y-71257738D01*
X162884614Y-71257729D01*
X162905141Y-71010005D01*
X164394357Y-71010005D01*
X164414890Y-71257812D01*
X164414892Y-71257824D01*
X164475936Y-71498881D01*
X164575826Y-71726606D01*
X164711833Y-71934782D01*
X164711836Y-71934785D01*
X164880256Y-72117738D01*
X165076491Y-72270474D01*
X165108935Y-72288032D01*
X165294332Y-72388364D01*
X165295190Y-72388828D01*
X165514141Y-72463994D01*
X165528964Y-72469083D01*
X165530386Y-72469571D01*
X165775665Y-72510500D01*
X166024335Y-72510500D01*
X166269614Y-72469571D01*
X166504810Y-72388828D01*
X166723509Y-72270474D01*
X166919744Y-72117738D01*
X167088164Y-71934785D01*
X167224173Y-71726607D01*
X167324063Y-71498881D01*
X167385108Y-71257821D01*
X167386899Y-71236206D01*
X167405643Y-71010005D01*
X167405643Y-71009994D01*
X167385109Y-70762187D01*
X167385107Y-70762175D01*
X167324063Y-70521118D01*
X167224173Y-70293393D01*
X167088166Y-70085217D01*
X167029940Y-70021967D01*
X166919744Y-69902262D01*
X166723509Y-69749526D01*
X166723507Y-69749525D01*
X166723506Y-69749524D01*
X166504811Y-69631172D01*
X166504802Y-69631169D01*
X166269616Y-69550429D01*
X166024335Y-69509500D01*
X165775665Y-69509500D01*
X165530383Y-69550429D01*
X165295197Y-69631169D01*
X165295188Y-69631172D01*
X165076493Y-69749524D01*
X164880257Y-69902261D01*
X164711833Y-70085217D01*
X164575826Y-70293393D01*
X164475936Y-70521118D01*
X164414892Y-70762175D01*
X164414890Y-70762187D01*
X164394357Y-71009994D01*
X164394357Y-71010005D01*
X162905141Y-71010005D01*
X162905141Y-71009994D01*
X162884614Y-70762270D01*
X162884612Y-70762261D01*
X162823587Y-70521282D01*
X162723731Y-70293630D01*
X162623434Y-70140116D01*
X161925929Y-70837622D01*
X161923116Y-70824085D01*
X161853558Y-70689844D01*
X161750362Y-70579348D01*
X161621181Y-70500791D01*
X161569997Y-70486450D01*
X162270057Y-69786390D01*
X162270056Y-69786389D01*
X162223229Y-69749943D01*
X162004614Y-69631635D01*
X162004603Y-69631630D01*
X161769493Y-69550916D01*
X161524293Y-69510000D01*
X161275707Y-69510000D01*
X161030506Y-69550916D01*
X160795396Y-69631630D01*
X160795390Y-69631632D01*
X160576761Y-69749949D01*
X160529942Y-69786388D01*
X160529942Y-69786390D01*
X161228431Y-70484878D01*
X161111542Y-70535651D01*
X160994261Y-70631066D01*
X160907072Y-70754585D01*
X160876645Y-70840197D01*
X160176564Y-70140116D01*
X160076267Y-70293632D01*
X159976412Y-70521282D01*
X159915387Y-70762261D01*
X159915385Y-70762270D01*
X159894859Y-71009994D01*
X159894859Y-71010005D01*
X158272285Y-71010005D01*
X158207667Y-70966829D01*
X158207660Y-70966825D01*
X157943080Y-70836349D01*
X157663730Y-70741521D01*
X157663724Y-70741519D01*
X157663722Y-70741519D01*
X157374380Y-70683966D01*
X157374373Y-70683965D01*
X157374363Y-70683964D01*
X157080007Y-70664671D01*
X157079993Y-70664671D01*
X156785636Y-70683964D01*
X156785624Y-70683965D01*
X156785620Y-70683966D01*
X156785612Y-70683967D01*
X156785609Y-70683968D01*
X156496283Y-70741518D01*
X156496269Y-70741521D01*
X156216919Y-70836349D01*
X155952334Y-70966828D01*
X155707041Y-71130728D01*
X155485241Y-71325241D01*
X155290728Y-71547041D01*
X155126828Y-71792334D01*
X154996349Y-72056919D01*
X154901521Y-72336269D01*
X154901518Y-72336283D01*
X154843968Y-72625609D01*
X154843964Y-72625636D01*
X154824671Y-72919992D01*
X154824671Y-72920007D01*
X109880500Y-72920007D01*
X109880500Y-72102870D01*
X126029500Y-72102870D01*
X126029501Y-72102876D01*
X126035908Y-72162483D01*
X126086202Y-72297328D01*
X126086206Y-72297335D01*
X126172452Y-72412544D01*
X126172455Y-72412547D01*
X126287664Y-72498793D01*
X126287671Y-72498797D01*
X126422517Y-72549091D01*
X126422516Y-72549091D01*
X126429444Y-72549835D01*
X126482127Y-72555500D01*
X128277872Y-72555499D01*
X128337483Y-72549091D01*
X128472331Y-72498796D01*
X128587546Y-72412546D01*
X128662520Y-72312393D01*
X128718451Y-72270525D01*
X128788142Y-72265541D01*
X128839818Y-72290340D01*
X128988160Y-72410465D01*
X129161504Y-72498788D01*
X129349422Y-72549141D01*
X129430222Y-72555500D01*
X129430230Y-72555500D01*
X130409770Y-72555500D01*
X130409778Y-72555500D01*
X130490578Y-72549141D01*
X130678496Y-72498788D01*
X130851840Y-72410465D01*
X131003032Y-72288032D01*
X131093635Y-72176145D01*
X131151121Y-72136436D01*
X131220952Y-72134108D01*
X131280956Y-72169903D01*
X131286353Y-72176133D01*
X131376968Y-72288032D01*
X131528160Y-72410465D01*
X131701504Y-72498788D01*
X131889422Y-72549141D01*
X131970222Y-72555500D01*
X131970230Y-72555500D01*
X132949770Y-72555500D01*
X132949778Y-72555500D01*
X133030578Y-72549141D01*
X133218496Y-72498788D01*
X133391840Y-72410465D01*
X133543032Y-72288032D01*
X133633635Y-72176145D01*
X133691121Y-72136436D01*
X133760952Y-72134108D01*
X133820956Y-72169903D01*
X133826353Y-72176133D01*
X133916968Y-72288032D01*
X134068160Y-72410465D01*
X134241504Y-72498788D01*
X134429422Y-72549141D01*
X134510222Y-72555500D01*
X134510230Y-72555500D01*
X135489770Y-72555500D01*
X135489778Y-72555500D01*
X135570578Y-72549141D01*
X135758496Y-72498788D01*
X135931840Y-72410465D01*
X136083032Y-72288032D01*
X136205465Y-72136840D01*
X136293788Y-71963496D01*
X136344141Y-71775578D01*
X136350500Y-71694778D01*
X136350500Y-70615222D01*
X136344141Y-70534422D01*
X136293788Y-70346504D01*
X136205465Y-70173160D01*
X136083032Y-70021968D01*
X136032891Y-69981364D01*
X135993181Y-69923879D01*
X135990853Y-69854048D01*
X136026648Y-69794044D01*
X136032881Y-69788643D01*
X136083032Y-69748032D01*
X136205465Y-69596840D01*
X136293788Y-69423496D01*
X136344141Y-69235578D01*
X136350500Y-69154778D01*
X136350500Y-69130005D01*
X140084556Y-69130005D01*
X140104310Y-69444004D01*
X140104311Y-69444011D01*
X140111229Y-69480274D01*
X140162591Y-69749526D01*
X140163270Y-69753082D01*
X140260497Y-70052316D01*
X140260499Y-70052321D01*
X140394461Y-70337003D01*
X140394464Y-70337009D01*
X140563051Y-70602661D01*
X140563054Y-70602665D01*
X140763606Y-70845090D01*
X140763608Y-70845092D01*
X140763610Y-70845094D01*
X140952345Y-71022328D01*
X140992968Y-71060476D01*
X140992978Y-71060484D01*
X141247504Y-71245408D01*
X141247509Y-71245410D01*
X141247516Y-71245416D01*
X141523234Y-71396994D01*
X141523239Y-71396996D01*
X141523241Y-71396997D01*
X141523242Y-71396998D01*
X141815771Y-71512818D01*
X141815774Y-71512819D01*
X142048283Y-71572517D01*
X142120527Y-71591066D01*
X142186010Y-71599338D01*
X142432670Y-71630499D01*
X142432679Y-71630499D01*
X142432682Y-71630500D01*
X142432684Y-71630500D01*
X142747316Y-71630500D01*
X142747318Y-71630500D01*
X142747321Y-71630499D01*
X142747329Y-71630499D01*
X142933593Y-71606968D01*
X143059473Y-71591066D01*
X143364225Y-71512819D01*
X143364228Y-71512818D01*
X143656757Y-71396998D01*
X143656758Y-71396997D01*
X143656756Y-71396997D01*
X143656766Y-71396994D01*
X143932484Y-71245416D01*
X144187030Y-71060478D01*
X144416390Y-70845094D01*
X144616947Y-70602663D01*
X144785537Y-70337007D01*
X144919503Y-70052315D01*
X145016731Y-69753079D01*
X145075688Y-69444015D01*
X145076979Y-69423495D01*
X145095444Y-69130005D01*
X145095444Y-69129994D01*
X145075689Y-68815995D01*
X145075688Y-68815988D01*
X145075688Y-68815985D01*
X145016731Y-68506921D01*
X144949498Y-68300000D01*
X170294341Y-68300000D01*
X170314936Y-68535403D01*
X170314938Y-68535413D01*
X170376094Y-68763655D01*
X170376096Y-68763659D01*
X170376097Y-68763663D01*
X170433728Y-68887252D01*
X170475965Y-68977830D01*
X170475967Y-68977834D01*
X170582511Y-69129994D01*
X170611501Y-69171396D01*
X170611506Y-69171402D01*
X170733430Y-69293326D01*
X170766915Y-69354649D01*
X170761931Y-69424341D01*
X170720059Y-69480274D01*
X170689083Y-69497189D01*
X170557669Y-69546203D01*
X170557664Y-69546206D01*
X170442455Y-69632452D01*
X170442452Y-69632455D01*
X170356206Y-69747664D01*
X170356202Y-69747671D01*
X170305908Y-69882517D01*
X170302314Y-69915953D01*
X170299501Y-69942123D01*
X170299500Y-69942135D01*
X170299500Y-71737870D01*
X170299501Y-71737876D01*
X170305908Y-71797483D01*
X170356202Y-71932328D01*
X170356206Y-71932335D01*
X170442452Y-72047544D01*
X170442455Y-72047547D01*
X170557664Y-72133793D01*
X170557671Y-72133797D01*
X170692517Y-72184091D01*
X170692516Y-72184091D01*
X170699444Y-72184835D01*
X170752127Y-72190500D01*
X172547872Y-72190499D01*
X172607483Y-72184091D01*
X172742331Y-72133796D01*
X172857546Y-72047546D01*
X172943796Y-71932331D01*
X172994091Y-71797483D01*
X173000500Y-71737873D01*
X173000499Y-70000002D01*
X176715111Y-70000002D01*
X176734630Y-70223113D01*
X176734632Y-70223124D01*
X176792596Y-70439450D01*
X176792600Y-70439459D01*
X176887252Y-70642443D01*
X176887253Y-70642445D01*
X176935334Y-70711112D01*
X177516923Y-70129523D01*
X177540507Y-70209844D01*
X177618239Y-70330798D01*
X177726900Y-70424952D01*
X177857685Y-70484680D01*
X177867466Y-70486086D01*
X177288886Y-71064664D01*
X177357555Y-71112746D01*
X177560540Y-71207399D01*
X177560549Y-71207403D01*
X177776875Y-71265367D01*
X177776886Y-71265369D01*
X177999998Y-71284889D01*
X178000002Y-71284889D01*
X178223113Y-71265369D01*
X178223124Y-71265367D01*
X178439450Y-71207403D01*
X178439459Y-71207399D01*
X178642445Y-71112746D01*
X178642451Y-71112742D01*
X178711112Y-71064665D01*
X178474317Y-70827870D01*
X181719500Y-70827870D01*
X181719501Y-70827876D01*
X181725908Y-70887483D01*
X181776202Y-71022328D01*
X181776206Y-71022335D01*
X181862452Y-71137544D01*
X181862455Y-71137547D01*
X181977664Y-71223793D01*
X181977671Y-71223797D01*
X182112517Y-71274091D01*
X182112516Y-71274091D01*
X182119444Y-71274835D01*
X182172127Y-71280500D01*
X183827872Y-71280499D01*
X183887483Y-71274091D01*
X184022331Y-71223796D01*
X184137546Y-71137546D01*
X184223796Y-71022331D01*
X184274091Y-70887483D01*
X184280500Y-70827873D01*
X184280499Y-69172128D01*
X184274091Y-69112517D01*
X184223796Y-68977669D01*
X184223795Y-68977668D01*
X184223793Y-68977664D01*
X184137547Y-68862455D01*
X184137544Y-68862452D01*
X184022335Y-68776206D01*
X184022328Y-68776202D01*
X183887482Y-68725908D01*
X183887483Y-68725908D01*
X183827883Y-68719501D01*
X183827881Y-68719500D01*
X183827873Y-68719500D01*
X183827864Y-68719500D01*
X182172129Y-68719500D01*
X182172123Y-68719501D01*
X182112516Y-68725908D01*
X181977671Y-68776202D01*
X181977664Y-68776206D01*
X181862455Y-68862452D01*
X181862452Y-68862455D01*
X181776206Y-68977664D01*
X181776202Y-68977671D01*
X181725908Y-69112517D01*
X181719578Y-69171401D01*
X181719501Y-69172123D01*
X181719500Y-69172135D01*
X181719500Y-70827870D01*
X178474317Y-70827870D01*
X178132533Y-70486086D01*
X178142315Y-70484680D01*
X178273100Y-70424952D01*
X178381761Y-70330798D01*
X178459493Y-70209844D01*
X178483076Y-70129523D01*
X179064665Y-70711112D01*
X179112742Y-70642451D01*
X179112746Y-70642445D01*
X179207399Y-70439459D01*
X179207403Y-70439450D01*
X179265367Y-70223124D01*
X179265369Y-70223113D01*
X179284889Y-70000002D01*
X179284889Y-69999997D01*
X179265369Y-69776886D01*
X179265367Y-69776875D01*
X179207403Y-69560549D01*
X179207399Y-69560540D01*
X179112747Y-69357557D01*
X179112746Y-69357555D01*
X179064664Y-69288887D01*
X179064664Y-69288886D01*
X178483076Y-69870474D01*
X178459493Y-69790156D01*
X178381761Y-69669202D01*
X178273100Y-69575048D01*
X178142315Y-69515320D01*
X178132533Y-69513913D01*
X178711112Y-68935334D01*
X178711112Y-68935333D01*
X178642445Y-68887253D01*
X178642443Y-68887252D01*
X178439459Y-68792600D01*
X178439450Y-68792596D01*
X178223124Y-68734632D01*
X178223113Y-68734630D01*
X178000002Y-68715111D01*
X177999998Y-68715111D01*
X177776886Y-68734630D01*
X177776875Y-68734632D01*
X177560549Y-68792596D01*
X177560540Y-68792600D01*
X177357556Y-68887253D01*
X177288887Y-68935334D01*
X177867466Y-69513913D01*
X177857685Y-69515320D01*
X177726900Y-69575048D01*
X177618239Y-69669202D01*
X177540507Y-69790156D01*
X177516923Y-69870476D01*
X176935334Y-69288887D01*
X176887253Y-69357556D01*
X176792600Y-69560540D01*
X176792596Y-69560549D01*
X176734632Y-69776875D01*
X176734630Y-69776886D01*
X176715111Y-69999997D01*
X176715111Y-70000002D01*
X173000499Y-70000002D01*
X173000499Y-69942128D01*
X172994091Y-69882517D01*
X172969243Y-69815897D01*
X172943797Y-69747671D01*
X172943793Y-69747664D01*
X172857547Y-69632455D01*
X172857544Y-69632452D01*
X172742335Y-69546206D01*
X172742328Y-69546202D01*
X172610917Y-69497189D01*
X172554983Y-69455318D01*
X172530566Y-69389853D01*
X172545418Y-69321580D01*
X172566563Y-69293332D01*
X172688495Y-69171401D01*
X172824035Y-68977830D01*
X172923903Y-68763663D01*
X172985063Y-68535408D01*
X173005659Y-68300000D01*
X172985063Y-68064592D01*
X172923903Y-67836337D01*
X172824035Y-67622171D01*
X172808856Y-67600492D01*
X172688494Y-67428597D01*
X172521402Y-67261506D01*
X172521401Y-67261505D01*
X172335405Y-67131269D01*
X172291781Y-67076692D01*
X172284588Y-67007193D01*
X172316110Y-66944839D01*
X172335405Y-66928119D01*
X172521082Y-66798105D01*
X172688105Y-66631082D01*
X172823600Y-66437578D01*
X172923429Y-66223492D01*
X172923432Y-66223486D01*
X172980636Y-66010000D01*
X172083686Y-66010000D01*
X172109493Y-65969844D01*
X172150000Y-65831889D01*
X172150000Y-65688111D01*
X172109493Y-65550156D01*
X172083686Y-65510000D01*
X172980636Y-65510000D01*
X172980635Y-65509999D01*
X172923432Y-65296513D01*
X172923429Y-65296507D01*
X172823600Y-65082422D01*
X172823599Y-65082420D01*
X172765889Y-65000001D01*
X179214609Y-65000001D01*
X179234136Y-65223200D01*
X179234137Y-65223208D01*
X179292126Y-65439625D01*
X179292127Y-65439627D01*
X179292128Y-65439630D01*
X179324942Y-65509999D01*
X179386819Y-65642696D01*
X179386821Y-65642700D01*
X179515329Y-65826228D01*
X179515334Y-65826234D01*
X179673765Y-65984665D01*
X179673771Y-65984670D01*
X179857299Y-66113178D01*
X179857301Y-66113179D01*
X179857304Y-66113181D01*
X180060370Y-66207872D01*
X180276794Y-66265863D01*
X180436226Y-66279811D01*
X180499998Y-66285391D01*
X180500000Y-66285391D01*
X180500002Y-66285391D01*
X180555801Y-66280509D01*
X180723206Y-66265863D01*
X180939630Y-66207872D01*
X181142696Y-66113181D01*
X181326233Y-65984667D01*
X181484667Y-65826233D01*
X181613181Y-65642696D01*
X181707872Y-65439630D01*
X181765863Y-65223206D01*
X181785391Y-65000000D01*
X181781891Y-64960000D01*
X185644341Y-64960000D01*
X185664936Y-65195403D01*
X185664938Y-65195413D01*
X185726094Y-65423655D01*
X185726096Y-65423659D01*
X185726097Y-65423663D01*
X185766357Y-65510000D01*
X185825965Y-65637830D01*
X185825967Y-65637834D01*
X185861172Y-65688111D01*
X185961501Y-65831396D01*
X185961506Y-65831402D01*
X186083430Y-65953326D01*
X186116915Y-66014649D01*
X186111931Y-66084341D01*
X186070059Y-66140274D01*
X186039083Y-66157189D01*
X185907669Y-66206203D01*
X185907664Y-66206206D01*
X185792455Y-66292452D01*
X185792452Y-66292455D01*
X185706206Y-66407664D01*
X185706202Y-66407671D01*
X185655908Y-66542517D01*
X185649501Y-66602116D01*
X185649501Y-66602123D01*
X185649500Y-66602135D01*
X185649500Y-68397870D01*
X185649501Y-68397876D01*
X185655908Y-68457483D01*
X185706202Y-68592328D01*
X185706206Y-68592335D01*
X185792452Y-68707544D01*
X185792455Y-68707547D01*
X185907664Y-68793793D01*
X185907671Y-68793797D01*
X186042517Y-68844091D01*
X186042516Y-68844091D01*
X186049444Y-68844835D01*
X186102127Y-68850500D01*
X187897872Y-68850499D01*
X187957483Y-68844091D01*
X188092331Y-68793796D01*
X188207546Y-68707546D01*
X188293796Y-68592331D01*
X188344091Y-68457483D01*
X188350500Y-68397873D01*
X188350499Y-66602128D01*
X188344091Y-66542517D01*
X188304951Y-66437578D01*
X188293797Y-66407671D01*
X188293793Y-66407664D01*
X188207547Y-66292455D01*
X188207544Y-66292452D01*
X188092335Y-66206206D01*
X188092328Y-66206202D01*
X187960917Y-66157189D01*
X187904983Y-66115318D01*
X187880566Y-66049853D01*
X187895418Y-65981580D01*
X187916563Y-65953332D01*
X188038495Y-65831401D01*
X188174035Y-65637830D01*
X188273903Y-65423663D01*
X188335063Y-65195408D01*
X188355659Y-64960000D01*
X188335063Y-64724592D01*
X188273903Y-64496337D01*
X188174035Y-64282171D01*
X188160101Y-64262270D01*
X188038494Y-64088597D01*
X187871402Y-63921506D01*
X187871395Y-63921501D01*
X187677834Y-63785967D01*
X187677830Y-63785965D01*
X187677828Y-63785964D01*
X187463663Y-63686097D01*
X187463659Y-63686096D01*
X187463655Y-63686094D01*
X187235413Y-63624938D01*
X187235403Y-63624936D01*
X187000001Y-63604341D01*
X186999999Y-63604341D01*
X186764596Y-63624936D01*
X186764586Y-63624938D01*
X186536344Y-63686094D01*
X186536335Y-63686098D01*
X186322171Y-63785964D01*
X186322169Y-63785965D01*
X186128597Y-63921505D01*
X185961505Y-64088597D01*
X185825965Y-64282169D01*
X185825964Y-64282171D01*
X185726098Y-64496335D01*
X185726094Y-64496344D01*
X185664938Y-64724586D01*
X185664936Y-64724596D01*
X185644341Y-64959999D01*
X185644341Y-64960000D01*
X181781891Y-64960000D01*
X181779811Y-64936226D01*
X181765863Y-64776794D01*
X181707872Y-64560370D01*
X181613181Y-64357305D01*
X181484667Y-64173767D01*
X181326233Y-64015333D01*
X181326229Y-64015330D01*
X181326228Y-64015329D01*
X181142700Y-63886821D01*
X181142696Y-63886819D01*
X181142694Y-63886818D01*
X180939630Y-63792128D01*
X180939627Y-63792127D01*
X180939625Y-63792126D01*
X180723208Y-63734137D01*
X180723200Y-63734136D01*
X180500002Y-63714609D01*
X180499998Y-63714609D01*
X180276799Y-63734136D01*
X180276791Y-63734137D01*
X180060374Y-63792126D01*
X180060368Y-63792129D01*
X179857306Y-63886818D01*
X179857304Y-63886819D01*
X179673764Y-64015334D01*
X179515334Y-64173764D01*
X179386819Y-64357304D01*
X179386818Y-64357306D01*
X179292129Y-64560368D01*
X179292126Y-64560374D01*
X179234137Y-64776791D01*
X179234136Y-64776799D01*
X179214609Y-64999998D01*
X179214609Y-65000001D01*
X172765889Y-65000001D01*
X172688113Y-64888926D01*
X172688108Y-64888920D01*
X172521082Y-64721894D01*
X172327578Y-64586399D01*
X172113492Y-64486570D01*
X172113486Y-64486567D01*
X171900000Y-64429364D01*
X171900000Y-65324498D01*
X171792315Y-65275320D01*
X171685763Y-65260000D01*
X171614237Y-65260000D01*
X171507685Y-65275320D01*
X171400000Y-65324498D01*
X171400000Y-64429364D01*
X171399999Y-64429364D01*
X171186513Y-64486567D01*
X171186507Y-64486570D01*
X170972422Y-64586399D01*
X170972420Y-64586400D01*
X170778926Y-64721886D01*
X170778920Y-64721891D01*
X170611891Y-64888920D01*
X170611886Y-64888926D01*
X170476400Y-65082420D01*
X170476399Y-65082422D01*
X170376570Y-65296507D01*
X170376567Y-65296513D01*
X170319364Y-65509999D01*
X170319364Y-65510000D01*
X171216314Y-65510000D01*
X171190507Y-65550156D01*
X171150000Y-65688111D01*
X171150000Y-65831889D01*
X171190507Y-65969844D01*
X171216314Y-66010000D01*
X170319364Y-66010000D01*
X170376567Y-66223486D01*
X170376570Y-66223492D01*
X170476399Y-66437578D01*
X170611894Y-66631082D01*
X170778917Y-66798105D01*
X170964595Y-66928119D01*
X171008219Y-66982696D01*
X171015412Y-67052195D01*
X170983890Y-67114549D01*
X170964595Y-67131269D01*
X170778594Y-67261508D01*
X170611505Y-67428597D01*
X170475965Y-67622169D01*
X170475964Y-67622171D01*
X170376098Y-67836335D01*
X170376094Y-67836344D01*
X170314938Y-68064586D01*
X170314936Y-68064596D01*
X170294341Y-68299999D01*
X170294341Y-68300000D01*
X144949498Y-68300000D01*
X144919503Y-68207685D01*
X144785537Y-67922993D01*
X144616947Y-67657337D01*
X144599534Y-67636288D01*
X144416393Y-67414909D01*
X144416391Y-67414907D01*
X144209752Y-67220859D01*
X144187030Y-67199522D01*
X144187027Y-67199520D01*
X144187021Y-67199515D01*
X143932495Y-67014591D01*
X143932488Y-67014586D01*
X143932484Y-67014584D01*
X143656766Y-66863006D01*
X143656763Y-66863004D01*
X143656758Y-66863002D01*
X143656757Y-66863001D01*
X143364228Y-66747181D01*
X143364225Y-66747180D01*
X143059476Y-66668934D01*
X143059463Y-66668932D01*
X142747329Y-66629500D01*
X142747318Y-66629500D01*
X142432682Y-66629500D01*
X142432670Y-66629500D01*
X142120536Y-66668932D01*
X142120523Y-66668934D01*
X141815774Y-66747180D01*
X141815771Y-66747181D01*
X141523242Y-66863001D01*
X141523241Y-66863002D01*
X141247516Y-67014584D01*
X141247504Y-67014591D01*
X140992978Y-67199515D01*
X140992968Y-67199523D01*
X140763608Y-67414907D01*
X140763606Y-67414909D01*
X140563054Y-67657334D01*
X140563051Y-67657338D01*
X140394464Y-67922990D01*
X140394461Y-67922996D01*
X140260499Y-68207678D01*
X140260497Y-68207683D01*
X140163270Y-68506916D01*
X140104311Y-68815988D01*
X140104310Y-68815995D01*
X140084556Y-69129994D01*
X140084556Y-69130005D01*
X136350500Y-69130005D01*
X136350500Y-68075222D01*
X136344141Y-67994422D01*
X136293788Y-67806504D01*
X136205465Y-67633160D01*
X136083032Y-67481968D01*
X135931840Y-67359535D01*
X135758496Y-67271212D01*
X135570578Y-67220859D01*
X135570577Y-67220858D01*
X135570574Y-67220858D01*
X135489783Y-67214500D01*
X135489778Y-67214500D01*
X134510222Y-67214500D01*
X134510216Y-67214500D01*
X134429425Y-67220858D01*
X134241504Y-67271212D01*
X134068161Y-67359534D01*
X133916968Y-67481968D01*
X133826366Y-67593852D01*
X133768879Y-67633563D01*
X133699048Y-67635891D01*
X133639044Y-67600095D01*
X133633634Y-67593852D01*
X133631405Y-67591100D01*
X133543032Y-67481968D01*
X133391840Y-67359535D01*
X133218496Y-67271212D01*
X133030578Y-67220859D01*
X133030577Y-67220858D01*
X133030574Y-67220858D01*
X132949783Y-67214500D01*
X132949778Y-67214500D01*
X131970222Y-67214500D01*
X131970216Y-67214500D01*
X131889425Y-67220858D01*
X131701504Y-67271212D01*
X131528161Y-67359534D01*
X131376968Y-67481968D01*
X131286366Y-67593852D01*
X131228879Y-67633563D01*
X131159048Y-67635891D01*
X131099044Y-67600095D01*
X131093634Y-67593852D01*
X131091405Y-67591100D01*
X131003032Y-67481968D01*
X130851840Y-67359535D01*
X130678496Y-67271212D01*
X130490578Y-67220859D01*
X130490577Y-67220858D01*
X130490574Y-67220858D01*
X130409783Y-67214500D01*
X130409778Y-67214500D01*
X129430222Y-67214500D01*
X129430216Y-67214500D01*
X129349425Y-67220858D01*
X129161504Y-67271212D01*
X128988161Y-67359534D01*
X128836968Y-67481968D01*
X128746044Y-67594249D01*
X128688556Y-67633961D01*
X128618725Y-67636288D01*
X128558722Y-67600492D01*
X128553313Y-67594249D01*
X128462678Y-67482326D01*
X128311567Y-67359957D01*
X128138315Y-67271682D01*
X127950497Y-67221355D01*
X127869743Y-67215000D01*
X127630000Y-67215000D01*
X127630000Y-68179498D01*
X127522315Y-68130320D01*
X127415763Y-68115000D01*
X127344237Y-68115000D01*
X127237685Y-68130320D01*
X127130000Y-68179498D01*
X127130000Y-67215000D01*
X126890256Y-67215000D01*
X126809502Y-67221355D01*
X126621684Y-67271682D01*
X126448432Y-67359957D01*
X126297324Y-67482324D01*
X126174957Y-67633432D01*
X126086682Y-67806684D01*
X126036355Y-67994502D01*
X126030000Y-68075256D01*
X126030000Y-68365000D01*
X126946314Y-68365000D01*
X126920507Y-68405156D01*
X126880000Y-68543111D01*
X126880000Y-68686889D01*
X126920507Y-68824844D01*
X126946314Y-68865000D01*
X126030000Y-68865000D01*
X126030000Y-69154743D01*
X126036355Y-69235497D01*
X126086682Y-69423315D01*
X126174957Y-69596567D01*
X126244643Y-69682621D01*
X126271535Y-69747108D01*
X126259293Y-69815897D01*
X126222588Y-69859923D01*
X126172455Y-69897452D01*
X126172452Y-69897455D01*
X126086206Y-70012664D01*
X126086202Y-70012671D01*
X126035908Y-70147517D01*
X126029501Y-70207116D01*
X126029500Y-70207135D01*
X126029500Y-72102870D01*
X109880500Y-72102870D01*
X109880500Y-69130005D01*
X117084556Y-69130005D01*
X117104310Y-69444004D01*
X117104311Y-69444011D01*
X117111229Y-69480274D01*
X117162591Y-69749526D01*
X117163270Y-69753082D01*
X117260497Y-70052316D01*
X117260499Y-70052321D01*
X117394461Y-70337003D01*
X117394464Y-70337009D01*
X117563051Y-70602661D01*
X117563054Y-70602665D01*
X117763606Y-70845090D01*
X117763608Y-70845092D01*
X117763610Y-70845094D01*
X117952345Y-71022328D01*
X117992968Y-71060476D01*
X117992978Y-71060484D01*
X118247504Y-71245408D01*
X118247509Y-71245410D01*
X118247516Y-71245416D01*
X118523234Y-71396994D01*
X118523239Y-71396996D01*
X118523241Y-71396997D01*
X118523242Y-71396998D01*
X118815771Y-71512818D01*
X118815774Y-71512819D01*
X119048283Y-71572517D01*
X119120527Y-71591066D01*
X119186010Y-71599338D01*
X119432670Y-71630499D01*
X119432679Y-71630499D01*
X119432682Y-71630500D01*
X119432684Y-71630500D01*
X119747316Y-71630500D01*
X119747318Y-71630500D01*
X119747321Y-71630499D01*
X119747329Y-71630499D01*
X119933593Y-71606968D01*
X120059473Y-71591066D01*
X120364225Y-71512819D01*
X120364228Y-71512818D01*
X120656757Y-71396998D01*
X120656758Y-71396997D01*
X120656756Y-71396997D01*
X120656766Y-71396994D01*
X120932484Y-71245416D01*
X121187030Y-71060478D01*
X121416390Y-70845094D01*
X121616947Y-70602663D01*
X121785537Y-70337007D01*
X121919503Y-70052315D01*
X122016731Y-69753079D01*
X122075688Y-69444015D01*
X122076979Y-69423495D01*
X122095444Y-69130005D01*
X122095444Y-69129994D01*
X122075689Y-68815995D01*
X122075688Y-68815988D01*
X122075688Y-68815985D01*
X122016731Y-68506921D01*
X121919503Y-68207685D01*
X121785537Y-67922993D01*
X121616947Y-67657337D01*
X121599534Y-67636288D01*
X121416393Y-67414909D01*
X121416391Y-67414907D01*
X121209752Y-67220859D01*
X121187030Y-67199522D01*
X121187027Y-67199520D01*
X121187021Y-67199515D01*
X120932495Y-67014591D01*
X120932488Y-67014586D01*
X120932484Y-67014584D01*
X120656766Y-66863006D01*
X120656763Y-66863004D01*
X120656758Y-66863002D01*
X120656757Y-66863001D01*
X120364228Y-66747181D01*
X120364225Y-66747180D01*
X120059476Y-66668934D01*
X120059463Y-66668932D01*
X119747329Y-66629500D01*
X119747318Y-66629500D01*
X119432682Y-66629500D01*
X119432670Y-66629500D01*
X119120536Y-66668932D01*
X119120523Y-66668934D01*
X118815774Y-66747180D01*
X118815771Y-66747181D01*
X118523242Y-66863001D01*
X118523241Y-66863002D01*
X118247516Y-67014584D01*
X118247504Y-67014591D01*
X117992978Y-67199515D01*
X117992968Y-67199523D01*
X117763608Y-67414907D01*
X117763606Y-67414909D01*
X117563054Y-67657334D01*
X117563051Y-67657338D01*
X117394464Y-67922990D01*
X117394461Y-67922996D01*
X117260499Y-68207678D01*
X117260497Y-68207683D01*
X117163270Y-68506916D01*
X117104311Y-68815988D01*
X117104310Y-68815995D01*
X117084556Y-69129994D01*
X117084556Y-69130005D01*
X109880500Y-69130005D01*
X109880500Y-62844500D01*
X109900185Y-62777461D01*
X109952989Y-62731706D01*
X110004500Y-62720500D01*
X113920033Y-62720500D01*
X113987072Y-62740185D01*
G37*
%TD.AperFunction*%
%TD*%
D30*
%TO.C,J1*%
X124540000Y-92300000D03*
D31*
X127080000Y-92300000D03*
X124540000Y-94840000D03*
X127080000Y-94840000D03*
X124540000Y-97380000D03*
X127080000Y-97380000D03*
X124540000Y-99920000D03*
X127080000Y-99920000D03*
X124540000Y-102460000D03*
X127080000Y-102460000D03*
X124540000Y-105000000D03*
X127080000Y-105000000D03*
X124540000Y-107540000D03*
X127080000Y-107540000D03*
D32*
X187080000Y-99920000D03*
X157080000Y-126920000D03*
X157080000Y-72920000D03*
X115080000Y-134920000D03*
X115080000Y-64920000D03*
%TD*%
D33*
%TO.C,SMCLK1*%
X157110000Y-102090000D03*
%TD*%
%TO.C,RST_TDO/TDI1*%
X161590000Y-77920000D03*
%TD*%
D34*
%TO.C,S1*%
X183690000Y-86190000D03*
X183690000Y-83690000D03*
X183690000Y-81190000D03*
X172460000Y-92420000D03*
X174960000Y-92420000D03*
X177460000Y-92420000D03*
D35*
X169210000Y-80440000D03*
X169210000Y-86940000D03*
X164710000Y-80440000D03*
X164710000Y-86940000D03*
D36*
X179960000Y-90015000D03*
X179960000Y-77365000D03*
X169960000Y-77365000D03*
X169960000Y-90015000D03*
%TD*%
D33*
%TO.C,UART_RX1*%
X174244000Y-133350000D03*
%TD*%
%TO.C,SCL_I2C1*%
X115040000Y-101760000D03*
%TD*%
%TO.C,R4*%
X187000000Y-67500000D03*
D37*
X187000000Y-64960000D03*
%TD*%
D38*
%TO.C,C7*%
X160050000Y-108420000D03*
X158150000Y-108420000D03*
%TD*%
D39*
%TO.C,R8*%
X168530000Y-111800000D03*
X170355000Y-111800000D03*
%TD*%
%TO.C,R5*%
X164990000Y-111790000D03*
X166815000Y-111790000D03*
%TD*%
D40*
%TO.C,C4*%
X162650000Y-128710000D03*
X162650000Y-126810000D03*
%TD*%
D33*
%TO.C,J2*%
X162814000Y-134112000D03*
D37*
X162814000Y-131572000D03*
X165354000Y-134112000D03*
X165354000Y-131572000D03*
X167894000Y-134112000D03*
X167894000Y-131572000D03*
X170434000Y-134112000D03*
X170434000Y-131572000D03*
%TD*%
D33*
%TO.C,ACLK1*%
X157640000Y-92060000D03*
%TD*%
D41*
%TO.C,LCD1*%
X127380000Y-71155000D03*
D42*
X127380000Y-68615000D03*
X129920000Y-71155000D03*
X129920000Y-68615000D03*
X132460000Y-71155000D03*
X132460000Y-68615000D03*
X135000000Y-71155000D03*
X135000000Y-68615000D03*
D43*
X142590000Y-69130000D03*
X142590000Y-130130000D03*
X119590000Y-130130000D03*
X119590000Y-69130000D03*
%TD*%
D33*
%TO.C,LDR2*%
X187060000Y-72530000D03*
%TD*%
D40*
%TO.C,C5*%
X124470000Y-70830000D03*
X124470000Y-68930000D03*
%TD*%
D44*
%TO.C,SW1*%
X161400000Y-71010000D03*
X161400000Y-64510000D03*
X165900000Y-71010000D03*
X165900000Y-64510000D03*
%TD*%
D45*
%TO.C,R13*%
X162602500Y-91330000D03*
X160777500Y-91330000D03*
%TD*%
D33*
%TO.C,uC_VCC1*%
X151010000Y-92140000D03*
%TD*%
D40*
%TO.C,C2*%
X151010000Y-89570000D03*
X151010000Y-87670000D03*
%TD*%
D33*
%TO.C,uC_GND1*%
X154370000Y-88260000D03*
%TD*%
D39*
%TO.C,R2*%
X120317500Y-105140000D03*
X122142500Y-105140000D03*
%TD*%
D33*
%TO.C,LDR1*%
X186940000Y-127000000D03*
%TD*%
D46*
%TO.C,C1*%
X160570000Y-87030000D03*
X162470000Y-87030000D03*
%TD*%
D39*
%TO.C,R11*%
X163937500Y-74250000D03*
X165762500Y-74250000D03*
%TD*%
D47*
%TO.C,RV2*%
X183000000Y-70000000D03*
D48*
X180500000Y-65000000D03*
X178000000Y-70000000D03*
%TD*%
D45*
%TO.C,R6*%
X166932500Y-94710000D03*
X165107500Y-94710000D03*
%TD*%
D33*
%TO.C,J3*%
X171650000Y-70840000D03*
D37*
X171650000Y-68300000D03*
X171650000Y-65760000D03*
%TD*%
D49*
%TO.C,R9*%
X163062500Y-113612500D03*
X163062500Y-111787500D03*
%TD*%
D50*
%TO.C,D1*%
X112450000Y-92420000D03*
D31*
X114990000Y-92420000D03*
%TD*%
D49*
%TO.C,R12*%
X112470000Y-89382500D03*
X112470000Y-87557500D03*
%TD*%
D33*
%TO.C,R1*%
X187000000Y-132225000D03*
D37*
X187000000Y-134765000D03*
%TD*%
D51*
%TO.C,C9*%
X168640000Y-65130000D03*
X168640000Y-67030000D03*
%TD*%
D52*
%TO.C,U1*%
X162370000Y-105275000D03*
X163640000Y-105275000D03*
X164910000Y-105275000D03*
X166180000Y-105275000D03*
X167450000Y-105275000D03*
X168720000Y-105275000D03*
X169990000Y-105275000D03*
X169990000Y-100325000D03*
X168720000Y-100325000D03*
X167450000Y-100325000D03*
X166180000Y-100325000D03*
X164910000Y-100325000D03*
X163640000Y-100325000D03*
X162370000Y-100325000D03*
%TD*%
D45*
%TO.C,R7*%
X171452500Y-97390000D03*
X169627500Y-97390000D03*
%TD*%
D33*
%TO.C,UART_TX1*%
X158750000Y-133096000D03*
%TD*%
D39*
%TO.C,R10*%
X161557500Y-97310000D03*
X163382500Y-97310000D03*
%TD*%
D47*
%TO.C,RV1*%
X178000000Y-129760000D03*
D48*
X180500000Y-134760000D03*
X183000000Y-129760000D03*
%TD*%
D39*
%TO.C,R3*%
X120267500Y-102510000D03*
X122092500Y-102510000D03*
%TD*%
D46*
%TO.C,C3*%
X120290000Y-107610000D03*
X122190000Y-107610000D03*
%TD*%
D33*
%TO.C,SDA_I2C1*%
X115020000Y-105500000D03*
%TD*%
D40*
%TO.C,Cload2*%
X146185000Y-81360000D03*
X146185000Y-79460000D03*
%TD*%
%TO.C,Cload1*%
X151745000Y-81360000D03*
X151745000Y-79460000D03*
%TD*%
D53*
%TO.C,Y1*%
X149615000Y-81420000D03*
D54*
X148345000Y-81420000D03*
%TD*%
D55*
%TO.C,IC1*%
X152710000Y-96332000D03*
X152210000Y-96332000D03*
X151710000Y-96332000D03*
X151210000Y-96332000D03*
X150710000Y-96332000D03*
X150210000Y-96332000D03*
X149710000Y-96332000D03*
X149210000Y-96332000D03*
X148710000Y-96332000D03*
X148210000Y-96332000D03*
X147710000Y-96332000D03*
X147210000Y-96332000D03*
D56*
X145722000Y-97820000D03*
X145722000Y-98320000D03*
X145722000Y-98820000D03*
X145722000Y-99320000D03*
X145722000Y-99820000D03*
X145722000Y-100320000D03*
X145722000Y-100820000D03*
X145722000Y-101320000D03*
X145722000Y-101820000D03*
X145722000Y-102320000D03*
X145722000Y-102820000D03*
X145722000Y-103320000D03*
D55*
X147210000Y-104808000D03*
X147710000Y-104808000D03*
X148210000Y-104808000D03*
X148710000Y-104808000D03*
X149210000Y-104808000D03*
X149710000Y-104808000D03*
X150210000Y-104808000D03*
X150710000Y-104808000D03*
X151210000Y-104808000D03*
X151710000Y-104808000D03*
X152210000Y-104808000D03*
X152710000Y-104808000D03*
D56*
X154198000Y-103320000D03*
X154198000Y-102820000D03*
X154198000Y-102320000D03*
X154198000Y-101820000D03*
X154198000Y-101320000D03*
X154198000Y-100820000D03*
X154198000Y-100320000D03*
X154198000Y-99820000D03*
X154198000Y-99320000D03*
X154198000Y-98820000D03*
X154198000Y-98320000D03*
X154198000Y-97820000D03*
%TD*%
M02*
